<svg xmlns="http://www.w3.org/2000/svg" viewBox="0 0 520 520" role="img" aria-label="Bowl saludable ilustrado"><defs><radialGradient id="tomGloss" cx="35%" cy="30%" r="75%"><stop offset="0%" stop-color="#ff8b5e"/><stop offset="55%" stop-color="#E4572E" stop-opacity="0"/></radialGradient><radialGradient id="baseg_bowl-tropical" cx="42%" cy="38%" r="70%"><stop offset="0%" stop-color="#FBF3DE"/><stop offset="100%" stop-color="#F4EAD0"/></radialGradient><radialGradient id="shadow" cx="50%" cy="50%" r="50%"><stop offset="60%" stop-color="rgba(20,48,31,.16)"/><stop offset="100%" stop-color="rgba(20,48,31,0)"/></radialGradient></defs><ellipse cx="260" cy="278" rx="238" ry="230" fill="url(#shadow)"/><circle cx="260" cy="260" r="232" fill="#F3D9C4"/><circle cx="260" cy="260" r="218" fill="#fff" opacity=".55"/><circle cx="260" cy="260" r="204" fill="url(#baseg_bowl-tropical)"/><g><rect x="429.0" y="285.2" width="3.9" height="2.0" rx="1.0" transform="rotate(39 431.0 286.2)" fill="rgba(255,255,255,.30)"/><rect x="210.4" y="396.6" width="3.7" height="1.8" rx="0.9" transform="rotate(174 212.2 397.5)" fill="rgba(255,255,255,.30)"/><rect x="251.5" y="350.7" width="4.3" height="2.1" rx="1.1" transform="rotate(134 253.6 351.8)" fill="rgba(255,255,255,.30)"/><rect x="438.6" y="212.9" width="3.8" height="1.9" rx="1.0" transform="rotate(44 440.5 213.8)" fill="rgba(255,255,255,.30)"/><rect x="409.3" y="221.8" width="5.1" height="2.5" rx="1.3" transform="rotate(120 411.8 223.1)" fill="rgba(255,255,255,.30)"/><rect x="230.6" y="196.9" width="4.0" height="2.0" rx="1.0" transform="rotate(12 232.6 197.8)" fill="rgba(255,255,255,.30)"/><rect x="187.4" y="82.7" width="4.8" height="2.4" rx="1.2" transform="rotate(12 189.8 83.9)" fill="rgba(255,255,255,.30)"/><rect x="260.6" y="379.8" width="4.8" height="2.4" rx="1.2" transform="rotate(149 263.0 381.0)" fill="rgba(255,255,255,.30)"/><rect x="158.6" y="201.3" width="4.8" height="2.4" rx="1.2" transform="rotate(0 161.0 202.5)" fill="rgba(255,255,255,.30)"/><rect x="196.2" y="216.7" width="4.0" height="2.0" rx="1.0" transform="rotate(145 198.2 217.7)" fill="rgba(255,255,255,.30)"/><rect x="114.6" y="333.5" width="3.3" height="1.7" rx="0.8" transform="rotate(41 116.2 334.4)" fill="rgba(255,255,255,.30)"/><rect x="182.9" y="254.0" width="3.4" height="1.7" rx="0.8" transform="rotate(106 184.5 254.9)" fill="rgba(255,255,255,.30)"/><rect x="384.9" y="272.1" width="5.0" height="2.5" rx="1.3" transform="rotate(129 387.4 273.3)" fill="rgba(255,255,255,.30)"/><rect x="276.6" y="170.2" width="3.0" height="1.5" rx="0.8" transform="rotate(71 278.1 171.0)" fill="rgba(255,255,255,.30)"/><rect x="123.4" y="361.3" width="3.9" height="2.0" rx="1.0" transform="rotate(155 125.4 362.3)" fill="rgba(255,255,255,.30)"/><rect x="117.1" y="217.0" width="4.3" height="2.2" rx="1.1" transform="rotate(130 119.3 218.1)" fill="rgba(255,255,255,.30)"/><rect x="334.8" y="203.5" width="4.4" height="2.2" rx="1.1" transform="rotate(70 337.0 204.6)" fill="rgba(255,255,255,.30)"/><rect x="256.9" y="399.4" width="5.1" height="2.6" rx="1.3" transform="rotate(128 259.4 400.7)" fill="rgba(255,255,255,.30)"/><rect x="87.1" y="279.4" width="4.0" height="2.0" rx="1.0" transform="rotate(62 89.1 280.4)" fill="rgba(255,255,255,.30)"/><rect x="410.0" y="156.7" width="2.9" height="1.4" rx="0.7" transform="rotate(170 411.5 157.5)" fill="rgba(255,255,255,.30)"/><rect x="364.9" y="121.5" width="3.2" height="1.6" rx="0.8" transform="rotate(27 366.5 122.2)" fill="rgba(255,255,255,.30)"/><rect x="130.9" y="319.1" width="3.9" height="1.9" rx="1.0" transform="rotate(85 132.8 320.1)" fill="rgba(255,255,255,.30)"/><rect x="321.6" y="326.9" width="4.4" height="2.2" rx="1.1" transform="rotate(96 323.8 328.0)" fill="rgba(255,255,255,.30)"/><rect x="240.9" y="380.7" width="4.3" height="2.1" rx="1.1" transform="rotate(51 243.1 381.8)" fill="rgba(255,255,255,.30)"/><rect x="244.4" y="446.1" width="5.1" height="2.6" rx="1.3" transform="rotate(179 247.0 447.3)" fill="rgba(255,255,255,.30)"/><rect x="240.2" y="444.1" width="4.8" height="2.4" rx="1.2" transform="rotate(13 242.6 445.3)" fill="rgba(255,255,255,.30)"/><rect x="377.5" y="139.0" width="4.6" height="2.3" rx="1.1" transform="rotate(99 379.8 140.1)" fill="rgba(255,255,255,.30)"/><rect x="133.9" y="146.9" width="4.1" height="2.0" rx="1.0" transform="rotate(123 135.9 147.9)" fill="rgba(255,255,255,.30)"/><rect x="409.4" y="189.5" width="2.9" height="1.4" rx="0.7" transform="rotate(177 410.8 190.2)" fill="rgba(255,255,255,.30)"/><rect x="124.7" y="400.9" width="4.8" height="2.4" rx="1.2" transform="rotate(169 127.1 402.0)" fill="rgba(255,255,255,.30)"/><rect x="377.3" y="346.4" width="4.9" height="2.4" rx="1.2" transform="rotate(98 379.8 347.6)" fill="rgba(255,255,255,.30)"/><rect x="335.9" y="240.0" width="3.8" height="1.9" rx="0.9" transform="rotate(50 337.7 241.0)" fill="rgba(255,255,255,.30)"/><rect x="336.5" y="220.2" width="4.0" height="2.0" rx="1.0" transform="rotate(2 338.5 221.2)" fill="rgba(255,255,255,.30)"/><rect x="301.7" y="232.6" width="3.5" height="1.7" rx="0.9" transform="rotate(146 303.4 233.5)" fill="rgba(255,255,255,.30)"/><rect x="156.7" y="376.1" width="5.1" height="2.5" rx="1.3" transform="rotate(33 159.3 377.4)" fill="rgba(255,255,255,.30)"/><rect x="134.8" y="321.0" width="3.8" height="1.9" rx="0.9" transform="rotate(127 136.7 321.9)" fill="rgba(255,255,255,.30)"/><rect x="127.2" y="274.8" width="3.9" height="2.0" rx="1.0" transform="rotate(104 129.1 275.7)" fill="rgba(255,255,255,.30)"/><rect x="179.3" y="225.3" width="3.3" height="1.7" rx="0.8" transform="rotate(137 181.0 226.2)" fill="rgba(255,255,255,.30)"/><rect x="143.1" y="340.3" width="4.2" height="2.1" rx="1.0" transform="rotate(164 145.1 341.3)" fill="rgba(255,255,255,.30)"/><rect x="89.6" y="307.2" width="4.1" height="2.0" rx="1.0" transform="rotate(138 91.7 308.2)" fill="rgba(255,255,255,.30)"/><rect x="426.5" y="329.5" width="4.9" height="2.5" rx="1.2" transform="rotate(116 429.0 330.7)" fill="rgba(255,255,255,.30)"/><rect x="365.7" y="304.5" width="4.8" height="2.4" rx="1.2" transform="rotate(175 368.1 305.7)" fill="rgba(255,255,255,.30)"/><rect x="80.0" y="250.4" width="3.0" height="1.5" rx="0.8" transform="rotate(17 81.5 251.2)" fill="rgba(255,255,255,.30)"/><rect x="261.4" y="211.7" width="3.1" height="1.5" rx="0.8" transform="rotate(88 263.0 212.5)" fill="rgba(255,255,255,.30)"/><rect x="252.0" y="262.5" width="3.0" height="1.5" rx="0.8" transform="rotate(102 253.5 263.2)" fill="rgba(255,255,255,.30)"/><rect x="369.0" y="295.2" width="5.0" height="2.5" rx="1.3" transform="rotate(54 371.5 296.5)" fill="rgba(255,255,255,.30)"/><rect x="435.1" y="186.0" width="4.0" height="2.0" rx="1.0" transform="rotate(144 437.1 187.0)" fill="rgba(255,255,255,.30)"/><rect x="72.3" y="290.2" width="3.6" height="1.8" rx="0.9" transform="rotate(163 74.1 291.1)" fill="rgba(255,255,255,.30)"/><rect x="303.5" y="445.4" width="3.7" height="1.9" rx="0.9" transform="rotate(44 305.3 446.3)" fill="rgba(255,255,255,.30)"/><rect x="202.2" y="408.0" width="3.2" height="1.6" rx="0.8" transform="rotate(7 203.8 408.8)" fill="rgba(255,255,255,.30)"/><rect x="201.6" y="199.3" width="4.6" height="2.3" rx="1.2" transform="rotate(139 203.9 200.5)" fill="rgba(255,255,255,.30)"/><rect x="375.9" y="197.9" width="4.2" height="2.1" rx="1.1" transform="rotate(172 378.0 198.9)" fill="rgba(255,255,255,.30)"/><rect x="280.6" y="127.2" width="5.1" height="2.5" rx="1.3" transform="rotate(92 283.1 128.5)" fill="rgba(255,255,255,.30)"/><rect x="331.5" y="102.8" width="4.8" height="2.4" rx="1.2" transform="rotate(84 333.9 104.0)" fill="rgba(255,255,255,.30)"/><rect x="283.0" y="319.0" width="4.9" height="2.4" rx="1.2" transform="rotate(103 285.5 320.2)" fill="rgba(255,255,255,.30)"/><rect x="201.6" y="286.0" width="3.7" height="1.9" rx="0.9" transform="rotate(82 203.5 286.9)" fill="rgba(255,255,255,.30)"/><rect x="88.6" y="322.3" width="4.9" height="2.4" rx="1.2" transform="rotate(87 91.0 323.6)" fill="rgba(255,255,255,.30)"/><rect x="263.1" y="206.0" width="3.6" height="1.8" rx="0.9" transform="rotate(47 264.9 206.9)" fill="rgba(255,255,255,.30)"/><rect x="273.8" y="65.5" width="3.0" height="1.5" rx="0.7" transform="rotate(55 275.3 66.3)" fill="rgba(255,255,255,.30)"/><rect x="195.9" y="220.5" width="2.9" height="1.4" rx="0.7" transform="rotate(18 197.3 221.2)" fill="rgba(255,255,255,.30)"/><rect x="215.7" y="382.6" width="3.9" height="2.0" rx="1.0" transform="rotate(127 217.7 383.6)" fill="rgba(255,255,255,.30)"/><rect x="220.7" y="93.5" width="2.8" height="1.4" rx="0.7" transform="rotate(77 222.1 94.3)" fill="rgba(255,255,255,.30)"/><rect x="382.0" y="179.6" width="5.0" height="2.5" rx="1.2" transform="rotate(108 384.5 180.9)" fill="rgba(255,255,255,.30)"/><rect x="400.5" y="262.2" width="3.7" height="1.8" rx="0.9" transform="rotate(134 402.3 263.1)" fill="rgba(255,255,255,.30)"/><rect x="204.1" y="252.9" width="4.5" height="2.2" rx="1.1" transform="rotate(2 206.3 254.0)" fill="rgba(255,255,255,.30)"/><rect x="141.5" y="153.0" width="4.2" height="2.1" rx="1.1" transform="rotate(45 143.7 154.1)" fill="rgba(255,255,255,.30)"/><rect x="296.9" y="321.7" width="4.3" height="2.2" rx="1.1" transform="rotate(90 299.1 322.8)" fill="rgba(255,255,255,.30)"/><rect x="354.3" y="125.7" width="4.3" height="2.1" rx="1.1" transform="rotate(166 356.5 126.8)" fill="rgba(255,255,255,.30)"/><rect x="102.4" y="188.6" width="5.0" height="2.5" rx="1.3" transform="rotate(70 104.9 189.9)" fill="rgba(255,255,255,.30)"/><rect x="283.6" y="66.7" width="4.5" height="2.3" rx="1.1" transform="rotate(101 285.9 67.9)" fill="rgba(255,255,255,.30)"/><rect x="397.6" y="298.1" width="4.6" height="2.3" rx="1.2" transform="rotate(3 400.0 299.2)" fill="rgba(255,255,255,.30)"/><rect x="280.5" y="366.1" width="4.8" height="2.4" rx="1.2" transform="rotate(51 282.9 367.2)" fill="rgba(255,255,255,.30)"/><rect x="169.3" y="127.0" width="5.1" height="2.6" rx="1.3" transform="rotate(143 171.9 128.3)" fill="rgba(255,255,255,.30)"/><rect x="237.5" y="93.5" width="4.7" height="2.4" rx="1.2" transform="rotate(10 239.9 94.6)" fill="rgba(255,255,255,.30)"/><rect x="387.6" y="119.8" width="4.3" height="2.1" rx="1.1" transform="rotate(1 389.7 120.9)" fill="rgba(255,255,255,.30)"/><rect x="188.0" y="339.4" width="4.6" height="2.3" rx="1.2" transform="rotate(130 190.3 340.6)" fill="rgba(255,255,255,.30)"/><rect x="419.2" y="276.0" width="5.0" height="2.5" rx="1.3" transform="rotate(148 421.7 277.3)" fill="rgba(255,255,255,.30)"/><rect x="324.3" y="175.2" width="3.5" height="1.8" rx="0.9" transform="rotate(80 326.1 176.1)" fill="rgba(255,255,255,.30)"/><rect x="179.9" y="267.0" width="5.0" height="2.5" rx="1.3" transform="rotate(100 182.5 268.3)" fill="rgba(255,255,255,.30)"/><rect x="260.8" y="250.9" width="4.5" height="2.3" rx="1.1" transform="rotate(63 263.0 252.0)" fill="rgba(255,255,255,.30)"/><rect x="244.7" y="190.2" width="3.5" height="1.7" rx="0.9" transform="rotate(171 246.5 191.0)" fill="rgba(255,255,255,.30)"/><rect x="269.1" y="199.2" width="4.4" height="2.2" rx="1.1" transform="rotate(5 271.2 200.3)" fill="rgba(255,255,255,.30)"/><rect x="163.5" y="421.2" width="4.7" height="2.4" rx="1.2" transform="rotate(110 165.8 422.4)" fill="rgba(255,255,255,.30)"/><rect x="134.2" y="302.9" width="3.4" height="1.7" rx="0.9" transform="rotate(96 135.9 303.7)" fill="rgba(255,255,255,.30)"/><rect x="82.5" y="219.9" width="3.8" height="1.9" rx="1.0" transform="rotate(26 84.4 220.8)" fill="rgba(255,255,255,.30)"/><rect x="355.3" y="295.2" width="3.2" height="1.6" rx="0.8" transform="rotate(135 356.9 296.0)" fill="rgba(255,255,255,.30)"/><rect x="244.0" y="249.6" width="3.7" height="1.8" rx="0.9" transform="rotate(61 245.9 250.5)" fill="rgba(255,255,255,.30)"/><rect x="284.0" y="146.4" width="3.4" height="1.7" rx="0.9" transform="rotate(150 285.7 147.3)" fill="rgba(255,255,255,.30)"/><rect x="283.9" y="279.7" width="4.1" height="2.0" rx="1.0" transform="rotate(99 285.9 280.7)" fill="rgba(255,255,255,.30)"/><rect x="258.6" y="310.6" width="2.9" height="1.4" rx="0.7" transform="rotate(80 260.0 311.3)" fill="rgba(255,255,255,.30)"/><rect x="153.6" y="318.4" width="5.1" height="2.6" rx="1.3" transform="rotate(129 156.2 319.7)" fill="rgba(255,255,255,.30)"/><rect x="181.0" y="159.9" width="4.6" height="2.3" rx="1.2" transform="rotate(39 183.3 161.1)" fill="rgba(255,255,255,.30)"/><rect x="307.9" y="356.1" width="4.2" height="2.1" rx="1.0" transform="rotate(112 310.0 357.2)" fill="rgba(255,255,255,.30)"/><rect x="351.7" y="303.0" width="4.9" height="2.5" rx="1.2" transform="rotate(162 354.2 304.3)" fill="rgba(255,255,255,.30)"/><rect x="329.0" y="343.9" width="5.0" height="2.5" rx="1.2" transform="rotate(44 331.5 345.2)" fill="rgba(255,255,255,.30)"/><rect x="297.0" y="329.5" width="4.1" height="2.1" rx="1.0" transform="rotate(113 299.1 330.6)" fill="rgba(255,255,255,.30)"/><rect x="232.8" y="103.2" width="4.1" height="2.1" rx="1.0" transform="rotate(102 234.8 104.2)" fill="rgba(255,255,255,.30)"/><rect x="382.9" y="121.8" width="3.7" height="1.9" rx="0.9" transform="rotate(46 384.8 122.7)" fill="rgba(255,255,255,.30)"/><rect x="139.9" y="336.1" width="3.8" height="1.9" rx="1.0" transform="rotate(94 141.8 337.0)" fill="rgba(255,255,255,.30)"/><rect x="244.7" y="444.0" width="4.8" height="2.4" rx="1.2" transform="rotate(51 247.1 445.2)" fill="rgba(255,255,255,.30)"/><rect x="225.2" y="373.9" width="3.4" height="1.7" rx="0.8" transform="rotate(43 226.9 374.8)" fill="rgba(255,255,255,.30)"/><rect x="347.8" y="282.1" width="5.0" height="2.5" rx="1.3" transform="rotate(140 350.3 283.4)" fill="rgba(255,255,255,.30)"/><rect x="240.6" y="226.2" width="3.7" height="1.9" rx="0.9" transform="rotate(21 242.5 227.1)" fill="rgba(255,255,255,.30)"/><rect x="354.2" y="155.5" width="4.7" height="2.3" rx="1.2" transform="rotate(119 356.5 156.7)" fill="rgba(255,255,255,.30)"/><rect x="344.1" y="249.7" width="2.9" height="1.4" rx="0.7" transform="rotate(178 345.5 250.5)" fill="rgba(255,255,255,.30)"/><rect x="372.1" y="190.5" width="3.9" height="2.0" rx="1.0" transform="rotate(74 374.1 191.5)" fill="rgba(255,255,255,.30)"/><rect x="186.1" y="133.5" width="4.2" height="2.1" rx="1.1" transform="rotate(174 188.2 134.5)" fill="rgba(255,255,255,.30)"/><rect x="331.4" y="279.5" width="4.8" height="2.4" rx="1.2" transform="rotate(66 333.8 280.7)" fill="rgba(255,255,255,.30)"/><rect x="341.4" y="171.6" width="4.8" height="2.4" rx="1.2" transform="rotate(79 343.8 172.8)" fill="rgba(255,255,255,.30)"/><rect x="77.7" y="228.8" width="3.4" height="1.7" rx="0.8" transform="rotate(57 79.4 229.7)" fill="rgba(255,255,255,.30)"/><rect x="415.4" y="251.0" width="4.6" height="2.3" rx="1.1" transform="rotate(45 417.7 252.2)" fill="rgba(255,255,255,.30)"/><rect x="183.0" y="149.2" width="4.0" height="2.0" rx="1.0" transform="rotate(176 185.0 150.2)" fill="rgba(255,255,255,.30)"/><rect x="153.2" y="190.2" width="3.0" height="1.5" rx="0.7" transform="rotate(173 154.7 191.0)" fill="rgba(255,255,255,.30)"/><rect x="149.9" y="299.7" width="4.4" height="2.2" rx="1.1" transform="rotate(178 152.1 300.8)" fill="rgba(255,255,255,.30)"/><rect x="322.3" y="355.2" width="4.7" height="2.3" rx="1.2" transform="rotate(22 324.6 356.4)" fill="rgba(255,255,255,.30)"/><rect x="351.0" y="392.4" width="4.7" height="2.3" rx="1.2" transform="rotate(9 353.3 393.6)" fill="rgba(255,255,255,.30)"/><rect x="112.7" y="168.6" width="4.4" height="2.2" rx="1.1" transform="rotate(111 114.9 169.7)" fill="rgba(255,255,255,.30)"/><rect x="109.3" y="308.2" width="3.6" height="1.8" rx="0.9" transform="rotate(7 111.1 309.2)" fill="rgba(255,255,255,.30)"/><rect x="130.5" y="357.6" width="3.4" height="1.7" rx="0.8" transform="rotate(28 132.2 358.4)" fill="rgba(255,255,255,.30)"/><rect x="270.3" y="115.9" width="5.0" height="2.5" rx="1.2" transform="rotate(145 272.8 117.2)" fill="rgba(255,255,255,.30)"/><rect x="254.8" y="208.2" width="4.7" height="2.3" rx="1.2" transform="rotate(84 257.2 209.4)" fill="rgba(255,255,255,.30)"/><rect x="343.6" y="328.5" width="3.4" height="1.7" rx="0.9" transform="rotate(151 345.3 329.3)" fill="rgba(255,255,255,.30)"/><rect x="377.8" y="159.2" width="4.5" height="2.2" rx="1.1" transform="rotate(137 380.0 160.3)" fill="rgba(255,255,255,.30)"/><rect x="309.5" y="317.2" width="3.9" height="1.9" rx="1.0" transform="rotate(151 311.4 318.1)" fill="rgba(255,255,255,.30)"/><rect x="190.4" y="283.8" width="3.1" height="1.5" rx="0.8" transform="rotate(120 191.9 284.6)" fill="rgba(255,255,255,.30)"/><rect x="242.0" y="143.6" width="5.1" height="2.5" rx="1.3" transform="rotate(133 244.6 144.8)" fill="rgba(255,255,255,.30)"/><rect x="424.0" y="280.2" width="3.6" height="1.8" rx="0.9" transform="rotate(114 425.8 281.1)" fill="rgba(255,255,255,.30)"/><rect x="294.3" y="71.6" width="3.4" height="1.7" rx="0.8" transform="rotate(40 295.9 72.4)" fill="rgba(255,255,255,.30)"/><rect x="419.2" y="252.9" width="4.7" height="2.4" rx="1.2" transform="rotate(48 421.6 254.1)" fill="rgba(255,255,255,.30)"/><rect x="181.9" y="222.6" width="4.7" height="2.3" rx="1.2" transform="rotate(140 184.2 223.7)" fill="rgba(255,255,255,.30)"/><rect x="208.1" y="213.6" width="3.9" height="1.9" rx="1.0" transform="rotate(27 210.1 214.5)" fill="rgba(255,255,255,.30)"/><rect x="391.3" y="337.5" width="5.2" height="2.6" rx="1.3" transform="rotate(109 393.9 338.8)" fill="rgba(255,255,255,.30)"/><rect x="138.8" y="352.0" width="4.9" height="2.4" rx="1.2" transform="rotate(93 141.2 353.2)" fill="rgba(255,255,255,.30)"/><rect x="265.7" y="448.9" width="3.2" height="1.6" rx="0.8" transform="rotate(158 267.3 449.7)" fill="rgba(255,255,255,.30)"/><rect x="302.8" y="425.9" width="4.2" height="2.1" rx="1.1" transform="rotate(24 304.9 427.0)" fill="rgba(255,255,255,.30)"/><rect x="143.7" y="263.8" width="4.2" height="2.1" rx="1.0" transform="rotate(175 145.8 264.8)" fill="rgba(255,255,255,.30)"/><rect x="371.8" y="314.6" width="3.6" height="1.8" rx="0.9" transform="rotate(116 373.6 315.5)" fill="rgba(255,255,255,.30)"/><rect x="384.7" y="382.7" width="5.1" height="2.6" rx="1.3" transform="rotate(85 387.2 384.0)" fill="rgba(255,255,255,.30)"/><rect x="385.3" y="348.8" width="3.3" height="1.7" rx="0.8" transform="rotate(91 387.0 349.7)" fill="rgba(255,255,255,.30)"/><rect x="270.5" y="435.0" width="4.6" height="2.3" rx="1.1" transform="rotate(28 272.8 436.2)" fill="rgba(255,255,255,.30)"/><rect x="190.6" y="240.6" width="3.8" height="1.9" rx="0.9" transform="rotate(152 192.5 241.6)" fill="rgba(255,255,255,.30)"/><rect x="121.1" y="192.0" width="3.9" height="1.9" rx="1.0" transform="rotate(71 123.0 193.0)" fill="rgba(255,255,255,.30)"/><rect x="146.1" y="333.7" width="4.0" height="2.0" rx="1.0" transform="rotate(79 148.1 334.7)" fill="rgba(255,255,255,.30)"/><rect x="236.2" y="315.1" width="3.5" height="1.7" rx="0.9" transform="rotate(132 237.9 315.9)" fill="rgba(255,255,255,.30)"/><rect x="256.2" y="434.0" width="5.0" height="2.5" rx="1.3" transform="rotate(113 258.7 435.3)" fill="rgba(255,255,255,.30)"/><rect x="130.8" y="365.4" width="3.5" height="1.7" rx="0.9" transform="rotate(66 132.5 366.2)" fill="rgba(255,255,255,.30)"/><rect x="144.6" y="378.5" width="3.1" height="1.6" rx="0.8" transform="rotate(157 146.2 379.3)" fill="rgba(255,255,255,.30)"/><rect x="420.0" y="288.1" width="3.3" height="1.7" rx="0.8" transform="rotate(45 421.7 288.9)" fill="rgba(255,255,255,.30)"/><rect x="387.8" y="264.6" width="5.1" height="2.6" rx="1.3" transform="rotate(79 390.4 265.9)" fill="rgba(255,255,255,.30)"/><rect x="206.8" y="115.7" width="2.8" height="1.4" rx="0.7" transform="rotate(40 208.2 116.5)" fill="rgba(255,255,255,.30)"/><rect x="419.9" y="356.1" width="3.8" height="1.9" rx="0.9" transform="rotate(18 421.8 357.0)" fill="rgba(255,255,255,.30)"/><rect x="433.6" y="278.5" width="4.0" height="2.0" rx="1.0" transform="rotate(97 435.6 279.5)" fill="rgba(255,255,255,.30)"/><rect x="391.5" y="208.7" width="4.8" height="2.4" rx="1.2" transform="rotate(119 393.9 209.9)" fill="rgba(255,255,255,.30)"/><rect x="315.1" y="130.6" width="3.4" height="1.7" rx="0.8" transform="rotate(136 316.8 131.4)" fill="rgba(255,255,255,.30)"/><rect x="87.8" y="314.4" width="3.8" height="1.9" rx="0.9" transform="rotate(142 89.7 315.4)" fill="rgba(255,255,255,.30)"/><rect x="374.7" y="321.3" width="4.2" height="2.1" rx="1.1" transform="rotate(155 376.8 322.3)" fill="rgba(255,255,255,.30)"/><rect x="323.8" y="141.1" width="4.1" height="2.0" rx="1.0" transform="rotate(8 325.8 142.1)" fill="rgba(255,255,255,.30)"/><rect x="206.7" y="273.7" width="4.2" height="2.1" rx="1.1" transform="rotate(152 208.8 274.8)" fill="rgba(255,255,255,.30)"/><rect x="345.6" y="353.9" width="4.5" height="2.3" rx="1.1" transform="rotate(10 347.9 355.1)" fill="rgba(255,255,255,.30)"/><rect x="103.3" y="211.4" width="3.7" height="1.8" rx="0.9" transform="rotate(126 105.1 212.4)" fill="rgba(255,255,255,.30)"/><rect x="311.5" y="246.4" width="4.3" height="2.1" rx="1.1" transform="rotate(56 313.7 247.4)" fill="rgba(255,255,255,.30)"/><rect x="193.3" y="429.2" width="3.1" height="1.5" rx="0.8" transform="rotate(25 194.9 429.9)" fill="rgba(255,255,255,.30)"/><rect x="197.4" y="228.9" width="3.0" height="1.5" rx="0.8" transform="rotate(32 198.9 229.7)" fill="rgba(255,255,255,.30)"/><rect x="390.0" y="299.2" width="2.9" height="1.5" rx="0.7" transform="rotate(90 391.5 299.9)" fill="rgba(255,255,255,.30)"/><rect x="128.8" y="179.8" width="5.1" height="2.6" rx="1.3" transform="rotate(66 131.4 181.1)" fill="rgba(255,255,255,.30)"/><rect x="286.9" y="168.3" width="4.3" height="2.2" rx="1.1" transform="rotate(26 289.0 169.3)" fill="rgba(255,255,255,.30)"/><rect x="229.0" y="207.7" width="4.1" height="2.0" rx="1.0" transform="rotate(59 231.0 208.7)" fill="rgba(255,255,255,.30)"/><rect x="453.7" y="260.1" width="3.5" height="1.7" rx="0.9" transform="rotate(116 455.5 260.9)" fill="rgba(255,255,255,.30)"/><rect x="154.1" y="397.7" width="2.9" height="1.5" rx="0.7" transform="rotate(25 155.6 398.4)" fill="rgba(255,255,255,.30)"/><rect x="315.0" y="103.0" width="3.9" height="1.9" rx="1.0" transform="rotate(36 316.9 104.0)" fill="rgba(255,255,255,.30)"/><rect x="67.7" y="270.5" width="3.1" height="1.5" rx="0.8" transform="rotate(33 69.3 271.3)" fill="rgba(255,255,255,.30)"/><rect x="266.6" y="418.6" width="4.3" height="2.2" rx="1.1" transform="rotate(127 268.7 419.7)" fill="rgba(255,255,255,.30)"/><rect x="301.9" y="340.9" width="3.5" height="1.7" rx="0.9" transform="rotate(176 303.7 341.8)" fill="rgba(255,255,255,.30)"/><rect x="277.2" y="229.0" width="4.8" height="2.4" rx="1.2" transform="rotate(13 279.7 230.2)" fill="rgba(255,255,255,.30)"/><rect x="150.7" y="368.9" width="3.3" height="1.7" rx="0.8" transform="rotate(143 152.4 369.8)" fill="rgba(255,255,255,.30)"/><rect x="115.6" y="227.5" width="4.5" height="2.2" rx="1.1" transform="rotate(115 117.8 228.6)" fill="rgba(255,255,255,.30)"/><rect x="206.0" y="172.1" width="3.7" height="1.9" rx="0.9" transform="rotate(25 207.9 173.0)" fill="rgba(255,255,255,.30)"/><rect x="284.5" y="356.4" width="5.0" height="2.5" rx="1.2" transform="rotate(93 287.0 357.6)" fill="rgba(255,255,255,.30)"/><rect x="212.2" y="351.8" width="4.8" height="2.4" rx="1.2" transform="rotate(13 214.5 353.0)" fill="rgba(255,255,255,.30)"/><rect x="237.1" y="422.8" width="4.1" height="2.0" rx="1.0" transform="rotate(53 239.1 423.8)" fill="rgba(255,255,255,.30)"/><rect x="148.5" y="366.7" width="5.1" height="2.6" rx="1.3" transform="rotate(66 151.1 367.9)" fill="rgba(255,255,255,.30)"/><rect x="293.2" y="413.5" width="4.1" height="2.0" rx="1.0" transform="rotate(121 295.2 414.5)" fill="rgba(255,255,255,.30)"/><rect x="113.4" y="378.4" width="3.3" height="1.6" rx="0.8" transform="rotate(57 115.0 379.2)" fill="rgba(255,255,255,.30)"/><rect x="102.6" y="305.4" width="5.1" height="2.5" rx="1.3" transform="rotate(73 105.1 306.7)" fill="rgba(255,255,255,.30)"/><rect x="273.5" y="424.8" width="5.0" height="2.5" rx="1.2" transform="rotate(174 276.0 426.0)" fill="rgba(255,255,255,.30)"/><rect x="289.5" y="368.7" width="4.3" height="2.1" rx="1.1" transform="rotate(86 291.6 369.8)" fill="rgba(255,255,255,.30)"/><rect x="174.3" y="107.5" width="3.8" height="1.9" rx="1.0" transform="rotate(75 176.2 108.4)" fill="rgba(255,255,255,.30)"/><rect x="386.4" y="346.9" width="3.5" height="1.7" rx="0.9" transform="rotate(69 388.1 347.8)" fill="rgba(255,255,255,.30)"/><rect x="292.4" y="213.2" width="2.9" height="1.4" rx="0.7" transform="rotate(108 293.8 213.9)" fill="rgba(255,255,255,.30)"/><rect x="313.8" y="437.7" width="3.8" height="1.9" rx="1.0" transform="rotate(24 315.7 438.6)" fill="rgba(255,255,255,.30)"/><rect x="168.1" y="253.9" width="3.8" height="1.9" rx="0.9" transform="rotate(56 170.0 254.8)" fill="rgba(255,255,255,.30)"/><rect x="387.0" y="335.0" width="4.3" height="2.1" rx="1.1" transform="rotate(153 389.1 336.1)" fill="rgba(255,255,255,.30)"/><rect x="357.7" y="364.4" width="3.5" height="1.7" rx="0.9" transform="rotate(21 359.5 365.2)" fill="rgba(255,255,255,.30)"/><rect x="257.6" y="222.1" width="3.9" height="1.9" rx="1.0" transform="rotate(155 259.5 223.1)" fill="rgba(255,255,255,.30)"/><rect x="117.2" y="395.0" width="5.1" height="2.6" rx="1.3" transform="rotate(84 119.8 396.3)" fill="rgba(255,255,255,.30)"/><rect x="87.1" y="312.9" width="3.8" height="1.9" rx="1.0" transform="rotate(106 89.0 313.8)" fill="rgba(255,255,255,.30)"/><rect x="183.7" y="193.0" width="3.8" height="1.9" rx="0.9" transform="rotate(93 185.6 193.9)" fill="rgba(255,255,255,.30)"/><rect x="242.3" y="250.2" width="4.9" height="2.5" rx="1.2" transform="rotate(5 244.8 251.5)" fill="rgba(255,255,255,.30)"/><rect x="448.4" y="245.4" width="3.7" height="1.9" rx="0.9" transform="rotate(172 450.3 246.4)" fill="rgba(255,255,255,.30)"/><rect x="249.2" y="163.5" width="4.8" height="2.4" rx="1.2" transform="rotate(44 251.6 164.7)" fill="rgba(255,255,255,.30)"/><rect x="362.3" y="183.4" width="4.7" height="2.4" rx="1.2" transform="rotate(149 364.6 184.6)" fill="rgba(255,255,255,.30)"/><rect x="196.8" y="363.9" width="3.5" height="1.7" rx="0.9" transform="rotate(116 198.6 364.8)" fill="rgba(255,255,255,.30)"/><rect x="213.3" y="135.0" width="2.9" height="1.5" rx="0.7" transform="rotate(50 214.8 135.7)" fill="rgba(255,255,255,.30)"/><rect x="270.1" y="344.7" width="3.8" height="1.9" rx="0.9" transform="rotate(105 272.0 345.6)" fill="rgba(255,255,255,.30)"/><rect x="260.2" y="277.9" width="4.5" height="2.2" rx="1.1" transform="rotate(66 262.5 279.0)" fill="rgba(255,255,255,.30)"/><rect x="94.0" y="189.6" width="4.0" height="2.0" rx="1.0" transform="rotate(21 96.0 190.6)" fill="rgba(255,255,255,.30)"/><rect x="291.7" y="423.9" width="4.8" height="2.4" rx="1.2" transform="rotate(167 294.1 425.0)" fill="rgba(255,255,255,.30)"/><rect x="175.7" y="264.7" width="2.9" height="1.5" rx="0.7" transform="rotate(156 177.1 265.4)" fill="rgba(255,255,255,.30)"/><rect x="231.7" y="338.1" width="4.1" height="2.0" rx="1.0" transform="rotate(29 233.8 339.1)" fill="rgba(255,255,255,.30)"/><rect x="396.4" y="364.5" width="3.8" height="1.9" rx="1.0" transform="rotate(102 398.4 365.5)" fill="rgba(255,255,255,.30)"/><rect x="434.4" y="203.2" width="3.1" height="1.5" rx="0.8" transform="rotate(160 435.9 203.9)" fill="rgba(255,255,255,.30)"/><rect x="365.2" y="159.4" width="4.4" height="2.2" rx="1.1" transform="rotate(35 367.4 160.5)" fill="rgba(255,255,255,.30)"/><rect x="245.3" y="219.5" width="4.1" height="2.1" rx="1.0" transform="rotate(83 247.3 220.6)" fill="rgba(255,255,255,.30)"/><rect x="167.0" y="385.5" width="4.1" height="2.1" rx="1.0" transform="rotate(69 169.0 386.6)" fill="rgba(255,255,255,.30)"/><rect x="118.8" y="361.8" width="4.3" height="2.1" rx="1.1" transform="rotate(31 120.9 362.8)" fill="rgba(255,255,255,.30)"/><rect x="181.7" y="192.9" width="5.1" height="2.6" rx="1.3" transform="rotate(40 184.3 194.2)" fill="rgba(255,255,255,.30)"/><rect x="350.5" y="354.0" width="4.3" height="2.2" rx="1.1" transform="rotate(51 352.7 355.1)" fill="rgba(255,255,255,.30)"/><rect x="250.0" y="164.4" width="3.3" height="1.6" rx="0.8" transform="rotate(82 251.7 165.2)" fill="rgba(255,255,255,.30)"/><rect x="140.4" y="202.4" width="3.4" height="1.7" rx="0.8" transform="rotate(142 142.0 203.2)" fill="rgba(255,255,255,.30)"/><rect x="331.1" y="372.1" width="5.0" height="2.5" rx="1.2" transform="rotate(140 333.6 373.3)" fill="rgba(255,255,255,.30)"/><rect x="96.8" y="363.5" width="4.7" height="2.4" rx="1.2" transform="rotate(96 99.2 364.6)" fill="rgba(255,255,255,.30)"/><rect x="211.4" y="328.0" width="4.9" height="2.5" rx="1.2" transform="rotate(86 213.9 329.2)" fill="rgba(255,255,255,.30)"/><rect x="214.7" y="421.2" width="3.5" height="1.7" rx="0.9" transform="rotate(73 216.4 422.1)" fill="rgba(255,255,255,.30)"/><rect x="226.4" y="415.1" width="2.9" height="1.4" rx="0.7" transform="rotate(23 227.8 415.8)" fill="rgba(255,255,255,.30)"/><rect x="228.2" y="388.3" width="3.7" height="1.8" rx="0.9" transform="rotate(169 230.0 389.3)" fill="rgba(255,255,255,.30)"/><rect x="238.7" y="84.5" width="5.1" height="2.6" rx="1.3" transform="rotate(17 241.3 85.8)" fill="rgba(255,255,255,.30)"/><rect x="97.7" y="281.3" width="4.9" height="2.5" rx="1.2" transform="rotate(39 100.2 282.6)" fill="rgba(255,255,255,.30)"/><rect x="438.7" y="192.8" width="2.9" height="1.5" rx="0.7" transform="rotate(168 440.1 193.5)" fill="rgba(255,255,255,.30)"/><rect x="133.1" y="125.2" width="5.0" height="2.5" rx="1.2" transform="rotate(10 135.5 126.5)" fill="rgba(255,255,255,.30)"/><rect x="388.3" y="325.2" width="3.2" height="1.6" rx="0.8" transform="rotate(153 389.9 326.0)" fill="rgba(255,255,255,.30)"/></g><g><g transform="translate(403.2 239.8) rotate(12) scale(1.00)"><rect x="-16" y="-11" width="32" height="22" rx="7" fill="#F2B980"/><rect x="-16" y="-11" width="32" height="22" rx="7" fill="none" stroke="#C98A4B" stroke-width="2" opacity=".6"/><path d="M-10 0 H10 M-8 -5 H8 M-8 5 H8" stroke="#C98A4B" stroke-width="1.4" opacity=".45"/></g><g transform="translate(347.2 251.0) rotate(24) scale(1.00)"><rect x="-16" y="-11" width="32" height="22" rx="7" fill="#F2B980"/><rect x="-16" y="-11" width="32" height="22" rx="7" fill="none" stroke="#C98A4B" stroke-width="2" opacity=".6"/><path d="M-10 0 H10 M-8 -5 H8 M-8 5 H8" stroke="#C98A4B" stroke-width="1.4" opacity=".45"/></g><g transform="translate(165.6 300.1) rotate(49) scale(1.00)"><circle r="13" fill="#BFE3A8"/><circle r="13" fill="none" stroke="#6FA84A" stroke-width="2.5"/><circle r="6" fill="#D8F0C4"/></g><g transform="translate(180.3 270.8) rotate(22) scale(1.00)"><circle r="13" fill="#BFE3A8"/><circle r="13" fill="none" stroke="#6FA84A" stroke-width="2.5"/><circle r="6" fill="#D8F0C4"/></g><g transform="translate(269.3 387.5) rotate(19) scale(1.20)"><path d="M0 0 C 10 -18 26 -18 30 0 C 26 18 10 18 0 0 Z" fill="#57A65A"/><path d="M4 0 L 27 0" stroke="rgba(0,0,0,.10)" stroke-width="1.4" fill="none"/></g><g transform="translate(126.9 314.0) rotate(14) scale(1.00)"><circle r="13" fill="#BFE3A8"/><circle r="13" fill="none" stroke="#6FA84A" stroke-width="2.5"/><circle r="6" fill="#D8F0C4"/></g><g transform="translate(294.3 297.3) scale(1.00)"><circle r="12" fill="#E4572E"/><circle r="12" fill="url(#tomGloss)"/><ellipse cx="-3.5" cy="-4.5" rx="3.2" ry="2" fill="#fff" opacity=".55"/></g><g transform="translate(250.3 397.7) rotate(209) scale(1.20)"><path d="M0 0 C 10 -18 26 -18 30 0 C 26 18 10 18 0 0 Z" fill="#2F7D3A"/><path d="M4 0 L 27 0" stroke="rgba(0,0,0,.10)" stroke-width="1.4" fill="none"/></g><g transform="translate(284.3 322.3) scale(1.00)"><circle r="12" fill="#E4572E"/><circle r="12" fill="url(#tomGloss)"/><ellipse cx="-3.5" cy="-4.5" rx="3.2" ry="2" fill="#fff" opacity=".55"/></g><g transform="translate(208.6 389.7) rotate(352) scale(1.20)"><path d="M0 0 C 10 -18 26 -18 30 0 C 26 18 10 18 0 0 Z" fill="#3E8E41"/><path d="M4 0 L 27 0" stroke="rgba(0,0,0,.10)" stroke-width="1.4" fill="none"/></g><g transform="translate(227.6 170.6) rotate(-24) scale(1.00)"><path d="M0 -22 C 16 -22 20 0 12 16 C 6 26 -6 26 -12 16 C -20 0 -16 -22 0 -22 Z" fill="#7FB069"/><path d="M0 -16 C 11 -16 14 0 8 12 C 4 19 -4 19 -8 12 C -14 0 -11 -16 0 -16 Z" fill="#A7CE8B"/><ellipse cx="0" cy="-1" rx="5.5" ry="6.5" fill="#C9B27E"/></g><g transform="translate(283.8 231.3)"><circle cx="-7.4" cy="10.0" r="2.1" fill="#3B2F1E"/><circle cx="-8.9" cy="9.5" r="1.7" fill="#3B2F1E"/><circle cx="-5.0" cy="6.5" r="2.1" fill="#3B2F1E"/><circle cx="-10.0" cy="-7.3" r="1.5" fill="#3B2F1E"/><circle cx="-3.7" cy="-0.6" r="1.9" fill="#3B2F1E"/><circle cx="3.0" cy="10.7" r="1.7" fill="#3B2F1E"/><circle cx="-5.9" cy="7.1" r="2.2" fill="#3B2F1E"/><circle cx="-0.0" cy="3.8" r="2.2" fill="#3B2F1E"/><circle cx="-4.9" cy="6.4" r="1.9" fill="#3B2F1E"/></g><g transform="translate(209.6 298.0) rotate(320) scale(1.20)"><path d="M0 0 C 10 -18 26 -18 30 0 C 26 18 10 18 0 0 Z" fill="#57A65A"/><path d="M4 0 L 27 0" stroke="rgba(0,0,0,.10)" stroke-width="1.4" fill="none"/></g><g transform="translate(248.1 312.4) rotate(284) scale(1.20)"><path d="M0 0 C 10 -18 26 -18 30 0 C 26 18 10 18 0 0 Z" fill="#57A65A"/><path d="M4 0 L 27 0" stroke="rgba(0,0,0,.10)" stroke-width="1.4" fill="none"/></g><g transform="translate(361.9 223.6) rotate(32) scale(1.00)"><rect x="-16" y="-11" width="32" height="22" rx="7" fill="#F2B980"/><rect x="-16" y="-11" width="32" height="22" rx="7" fill="none" stroke="#C98A4B" stroke-width="2" opacity=".6"/><path d="M-10 0 H10 M-8 -5 H8 M-8 5 H8" stroke="#C98A4B" stroke-width="1.4" opacity=".45"/></g><g transform="translate(207.7 230.7) rotate(23) scale(1.00)"><path d="M0 -22 C 16 -22 20 0 12 16 C 6 26 -6 26 -12 16 C -20 0 -16 -22 0 -22 Z" fill="#7FB069"/><path d="M0 -16 C 11 -16 14 0 8 12 C 4 19 -4 19 -8 12 C -14 0 -11 -16 0 -16 Z" fill="#A7CE8B"/><ellipse cx="0" cy="-1" rx="5.5" ry="6.5" fill="#C9B27E"/></g><g transform="translate(197.0 318.4) rotate(199) scale(1.20)"><path d="M0 0 C 10 -18 26 -18 30 0 C 26 18 10 18 0 0 Z" fill="#2F7D3A"/><path d="M4 0 L 27 0" stroke="rgba(0,0,0,.10)" stroke-width="1.4" fill="none"/></g><g transform="translate(338.5 314.1) scale(1.00)"><circle r="12" fill="#E4572E"/><circle r="12" fill="url(#tomGloss)"/><ellipse cx="-3.5" cy="-4.5" rx="3.2" ry="2" fill="#fff" opacity=".55"/></g><g transform="translate(260.6 246.7)"><circle cx="-0.4" cy="2.6" r="2.2" fill="#3B2F1E"/><circle cx="-0.3" cy="-5.7" r="1.6" fill="#3B2F1E"/><circle cx="9.6" cy="3.3" r="2.1" fill="#3B2F1E"/><circle cx="-2.9" cy="4.4" r="2.1" fill="#3B2F1E"/><circle cx="-8.3" cy="6.8" r="2.1" fill="#3B2F1E"/><circle cx="10.2" cy="-8.0" r="1.5" fill="#3B2F1E"/><circle cx="9.2" cy="-2.0" r="1.6" fill="#3B2F1E"/><circle cx="3.4" cy="-3.8" r="1.6" fill="#3B2F1E"/><circle cx="-2.4" cy="-6.3" r="2.1" fill="#3B2F1E"/></g><g transform="translate(187.8 325.8) rotate(64) scale(1.00)"><circle r="13" fill="#BFE3A8"/><circle r="13" fill="none" stroke="#6FA84A" stroke-width="2.5"/><circle r="6" fill="#D8F0C4"/></g><g transform="translate(145.7 203.7) rotate(-9) scale(1.00)"><path d="M0 -22 C 16 -22 20 0 12 16 C 6 26 -6 26 -12 16 C -20 0 -16 -22 0 -22 Z" fill="#7FB069"/><path d="M0 -16 C 11 -16 14 0 8 12 C 4 19 -4 19 -8 12 C -14 0 -11 -16 0 -16 Z" fill="#A7CE8B"/><ellipse cx="0" cy="-1" rx="5.5" ry="6.5" fill="#C9B27E"/></g></g><path d="M 110 140 A 200 200 0 0 1 380 100" fill="none" stroke="rgba(255,255,255,.5)" stroke-width="10" stroke-linecap="round" opacity=".5"/></svg>