<svg xmlns="http://www.w3.org/2000/svg" viewBox="0 0 520 520" role="img" aria-label="Bowl saludable ilustrado"><defs><radialGradient id="tomGloss" cx="35%" cy="30%" r="75%"><stop offset="0%" stop-color="#ff8b5e"/><stop offset="55%" stop-color="#E4572E" stop-opacity="0"/></radialGradient><radialGradient id="baseg_bowl-mediterraneo" cx="42%" cy="38%" r="70%"><stop offset="0%" stop-color="#F8F1DC"/><stop offset="100%" stop-color="#F0E6CC"/></radialGradient><radialGradient id="shadow" cx="50%" cy="50%" r="50%"><stop offset="60%" stop-color="rgba(20,48,31,.16)"/><stop offset="100%" stop-color="rgba(20,48,31,0)"/></radialGradient></defs><ellipse cx="260" cy="278" rx="238" ry="230" fill="url(#shadow)"/><circle cx="260" cy="260" r="232" fill="#E7D9C0"/><circle cx="260" cy="260" r="218" fill="#fff" opacity=".55"/><circle cx="260" cy="260" r="204" fill="url(#baseg_bowl-mediterraneo)"/><g><rect x="235.3" y="288.9" width="4.5" height="2.2" rx="1.1" transform="rotate(172 237.6 290.0)" fill="rgba(255,255,255,.30)"/><rect x="249.0" y="270.7" width="4.1" height="2.0" rx="1.0" transform="rotate(18 251.0 271.7)" fill="rgba(255,255,255,.30)"/><rect x="284.6" y="201.0" width="3.8" height="1.9" rx="0.9" transform="rotate(101 286.5 201.9)" fill="rgba(255,255,255,.30)"/><rect x="260.0" y="131.3" width="4.2" height="2.1" rx="1.1" transform="rotate(69 262.1 132.4)" fill="rgba(255,255,255,.30)"/><rect x="100.8" y="329.9" width="4.4" height="2.2" rx="1.1" transform="rotate(103 103.0 331.0)" fill="rgba(255,255,255,.30)"/><rect x="346.8" y="323.8" width="3.4" height="1.7" rx="0.9" transform="rotate(87 348.5 324.7)" fill="rgba(255,255,255,.30)"/><rect x="186.4" y="212.9" width="4.9" height="2.4" rx="1.2" transform="rotate(94 188.9 214.1)" fill="rgba(255,255,255,.30)"/><rect x="185.4" y="179.2" width="3.3" height="1.6" rx="0.8" transform="rotate(141 187.0 180.0)" fill="rgba(255,255,255,.30)"/><rect x="206.7" y="229.6" width="4.1" height="2.0" rx="1.0" transform="rotate(63 208.7 230.6)" fill="rgba(255,255,255,.30)"/><rect x="214.1" y="427.0" width="3.8" height="1.9" rx="0.9" transform="rotate(158 216.0 427.9)" fill="rgba(255,255,255,.30)"/><rect x="340.1" y="327.4" width="4.7" height="2.4" rx="1.2" transform="rotate(151 342.4 328.6)" fill="rgba(255,255,255,.30)"/><rect x="357.3" y="299.8" width="4.5" height="2.2" rx="1.1" transform="rotate(32 359.5 301.0)" fill="rgba(255,255,255,.30)"/><rect x="102.5" y="302.0" width="4.4" height="2.2" rx="1.1" transform="rotate(156 104.7 303.1)" fill="rgba(255,255,255,.30)"/><rect x="262.9" y="399.5" width="4.6" height="2.3" rx="1.2" transform="rotate(88 265.3 400.6)" fill="rgba(255,255,255,.30)"/><rect x="194.5" y="363.5" width="3.0" height="1.5" rx="0.7" transform="rotate(172 196.0 364.3)" fill="rgba(255,255,255,.30)"/><rect x="98.4" y="314.8" width="4.6" height="2.3" rx="1.1" transform="rotate(177 100.7 316.0)" fill="rgba(255,255,255,.30)"/><rect x="301.7" y="352.0" width="3.9" height="2.0" rx="1.0" transform="rotate(105 303.7 353.0)" fill="rgba(255,255,255,.30)"/><rect x="228.9" y="448.7" width="5.2" height="2.6" rx="1.3" transform="rotate(149 231.5 450.0)" fill="rgba(255,255,255,.30)"/><rect x="389.6" y="164.4" width="3.2" height="1.6" rx="0.8" transform="rotate(152 391.2 165.2)" fill="rgba(255,255,255,.30)"/><rect x="213.5" y="95.0" width="4.1" height="2.0" rx="1.0" transform="rotate(10 215.5 96.0)" fill="rgba(255,255,255,.30)"/><rect x="292.7" y="120.0" width="5.0" height="2.5" rx="1.3" transform="rotate(114 295.2 121.3)" fill="rgba(255,255,255,.30)"/><rect x="450.0" y="239.7" width="3.8" height="1.9" rx="1.0" transform="rotate(126 451.9 240.7)" fill="rgba(255,255,255,.30)"/><rect x="166.1" y="278.2" width="3.7" height="1.8" rx="0.9" transform="rotate(111 168.0 279.1)" fill="rgba(255,255,255,.30)"/><rect x="288.3" y="192.8" width="4.4" height="2.2" rx="1.1" transform="rotate(104 290.5 193.9)" fill="rgba(255,255,255,.30)"/><rect x="374.1" y="250.6" width="2.9" height="1.5" rx="0.7" transform="rotate(63 375.5 251.3)" fill="rgba(255,255,255,.30)"/><rect x="381.1" y="147.8" width="3.8" height="1.9" rx="0.9" transform="rotate(155 383.0 148.7)" fill="rgba(255,255,255,.30)"/><rect x="389.1" y="401.5" width="2.9" height="1.4" rx="0.7" transform="rotate(67 390.5 402.2)" fill="rgba(255,255,255,.30)"/><rect x="246.1" y="356.8" width="3.8" height="1.9" rx="1.0" transform="rotate(93 248.0 357.7)" fill="rgba(255,255,255,.30)"/><rect x="172.1" y="346.3" width="4.6" height="2.3" rx="1.1" transform="rotate(125 174.4 347.5)" fill="rgba(255,255,255,.30)"/><rect x="306.2" y="233.1" width="4.4" height="2.2" rx="1.1" transform="rotate(139 308.4 234.2)" fill="rgba(255,255,255,.30)"/><rect x="324.9" y="280.7" width="5.0" height="2.5" rx="1.2" transform="rotate(4 327.4 282.0)" fill="rgba(255,255,255,.30)"/><rect x="340.5" y="182.2" width="3.2" height="1.6" rx="0.8" transform="rotate(95 342.2 183.0)" fill="rgba(255,255,255,.30)"/><rect x="284.5" y="332.0" width="3.2" height="1.6" rx="0.8" transform="rotate(3 286.1 332.8)" fill="rgba(255,255,255,.30)"/><rect x="156.2" y="273.0" width="3.6" height="1.8" rx="0.9" transform="rotate(35 158.0 273.9)" fill="rgba(255,255,255,.30)"/><rect x="373.1" y="320.5" width="3.1" height="1.5" rx="0.8" transform="rotate(93 374.6 321.3)" fill="rgba(255,255,255,.30)"/><rect x="355.2" y="307.3" width="4.6" height="2.3" rx="1.1" transform="rotate(60 357.5 308.4)" fill="rgba(255,255,255,.30)"/><rect x="307.3" y="230.4" width="3.9" height="1.9" rx="1.0" transform="rotate(148 309.3 231.4)" fill="rgba(255,255,255,.30)"/><rect x="365.9" y="339.6" width="3.9" height="2.0" rx="1.0" transform="rotate(44 367.9 340.6)" fill="rgba(255,255,255,.30)"/><rect x="355.2" y="224.5" width="3.7" height="1.8" rx="0.9" transform="rotate(176 357.0 225.5)" fill="rgba(255,255,255,.30)"/><rect x="349.8" y="404.9" width="4.6" height="2.3" rx="1.1" transform="rotate(169 352.1 406.0)" fill="rgba(255,255,255,.30)"/><rect x="263.1" y="359.2" width="2.9" height="1.4" rx="0.7" transform="rotate(118 264.6 359.9)" fill="rgba(255,255,255,.30)"/><rect x="76.2" y="203.5" width="4.5" height="2.3" rx="1.1" transform="rotate(55 78.5 204.6)" fill="rgba(255,255,255,.30)"/><rect x="380.7" y="332.9" width="4.8" height="2.4" rx="1.2" transform="rotate(61 383.1 334.1)" fill="rgba(255,255,255,.30)"/><rect x="140.3" y="104.1" width="5.2" height="2.6" rx="1.3" transform="rotate(162 142.9 105.4)" fill="rgba(255,255,255,.30)"/><rect x="125.8" y="174.8" width="3.2" height="1.6" rx="0.8" transform="rotate(47 127.4 175.6)" fill="rgba(255,255,255,.30)"/><rect x="174.9" y="323.7" width="3.6" height="1.8" rx="0.9" transform="rotate(8 176.7 324.6)" fill="rgba(255,255,255,.30)"/><rect x="122.3" y="316.6" width="5.1" height="2.6" rx="1.3" transform="rotate(167 124.8 317.9)" fill="rgba(255,255,255,.30)"/><rect x="214.1" y="172.3" width="4.4" height="2.2" rx="1.1" transform="rotate(79 216.3 173.4)" fill="rgba(255,255,255,.30)"/><rect x="343.4" y="391.5" width="5.1" height="2.5" rx="1.3" transform="rotate(18 345.9 392.8)" fill="rgba(255,255,255,.30)"/><rect x="300.4" y="405.9" width="3.7" height="1.9" rx="0.9" transform="rotate(121 302.2 406.9)" fill="rgba(255,255,255,.30)"/><rect x="131.3" y="320.8" width="3.1" height="1.5" rx="0.8" transform="rotate(85 132.8 321.5)" fill="rgba(255,255,255,.30)"/><rect x="336.8" y="189.4" width="4.7" height="2.3" rx="1.2" transform="rotate(7 339.1 190.6)" fill="rgba(255,255,255,.30)"/><rect x="420.1" y="266.0" width="4.6" height="2.3" rx="1.2" transform="rotate(82 422.4 267.1)" fill="rgba(255,255,255,.30)"/><rect x="140.9" y="304.8" width="3.6" height="1.8" rx="0.9" transform="rotate(175 142.8 305.7)" fill="rgba(255,255,255,.30)"/><rect x="416.0" y="222.7" width="4.1" height="2.1" rx="1.0" transform="rotate(115 418.0 223.7)" fill="rgba(255,255,255,.30)"/><rect x="331.6" y="184.7" width="4.4" height="2.2" rx="1.1" transform="rotate(171 333.8 185.8)" fill="rgba(255,255,255,.30)"/><rect x="208.0" y="230.3" width="5.2" height="2.6" rx="1.3" transform="rotate(20 210.6 231.5)" fill="rgba(255,255,255,.30)"/><rect x="254.2" y="134.5" width="4.9" height="2.5" rx="1.2" transform="rotate(80 256.6 135.7)" fill="rgba(255,255,255,.30)"/><rect x="207.0" y="367.2" width="4.2" height="2.1" rx="1.0" transform="rotate(93 209.0 368.3)" fill="rgba(255,255,255,.30)"/><rect x="296.0" y="117.9" width="2.8" height="1.4" rx="0.7" transform="rotate(88 297.4 118.6)" fill="rgba(255,255,255,.30)"/><rect x="172.4" y="351.6" width="4.9" height="2.5" rx="1.2" transform="rotate(70 174.8 352.8)" fill="rgba(255,255,255,.30)"/><rect x="201.2" y="268.1" width="3.8" height="1.9" rx="1.0" transform="rotate(135 203.1 269.1)" fill="rgba(255,255,255,.30)"/><rect x="116.2" y="133.2" width="4.7" height="2.3" rx="1.2" transform="rotate(63 118.6 134.3)" fill="rgba(255,255,255,.30)"/><rect x="297.4" y="98.7" width="3.2" height="1.6" rx="0.8" transform="rotate(75 299.0 99.5)" fill="rgba(255,255,255,.30)"/><rect x="195.1" y="262.6" width="5.0" height="2.5" rx="1.2" transform="rotate(116 197.6 263.8)" fill="rgba(255,255,255,.30)"/><rect x="225.7" y="141.9" width="3.4" height="1.7" rx="0.9" transform="rotate(47 227.4 142.8)" fill="rgba(255,255,255,.30)"/><rect x="347.5" y="321.8" width="4.0" height="2.0" rx="1.0" transform="rotate(164 349.5 322.8)" fill="rgba(255,255,255,.30)"/><rect x="247.6" y="79.7" width="4.4" height="2.2" rx="1.1" transform="rotate(110 249.8 80.8)" fill="rgba(255,255,255,.30)"/><rect x="64.3" y="260.1" width="4.9" height="2.5" rx="1.2" transform="rotate(5 66.8 261.3)" fill="rgba(255,255,255,.30)"/><rect x="339.2" y="421.8" width="4.2" height="2.1" rx="1.0" transform="rotate(35 341.3 422.9)" fill="rgba(255,255,255,.30)"/><rect x="392.8" y="362.7" width="3.0" height="1.5" rx="0.7" transform="rotate(73 394.3 363.4)" fill="rgba(255,255,255,.30)"/><rect x="126.6" y="309.9" width="3.1" height="1.5" rx="0.8" transform="rotate(90 128.1 310.7)" fill="rgba(255,255,255,.30)"/><rect x="360.6" y="182.3" width="3.7" height="1.9" rx="0.9" transform="rotate(143 362.5 183.3)" fill="rgba(255,255,255,.30)"/><rect x="170.9" y="426.4" width="3.6" height="1.8" rx="0.9" transform="rotate(77 172.7 427.3)" fill="rgba(255,255,255,.30)"/><rect x="173.5" y="105.2" width="3.4" height="1.7" rx="0.9" transform="rotate(71 175.2 106.1)" fill="rgba(255,255,255,.30)"/><rect x="227.2" y="121.3" width="5.0" height="2.5" rx="1.2" transform="rotate(30 229.7 122.6)" fill="rgba(255,255,255,.30)"/><rect x="381.7" y="272.5" width="4.1" height="2.1" rx="1.0" transform="rotate(176 383.7 273.5)" fill="rgba(255,255,255,.30)"/><rect x="211.4" y="140.4" width="5.0" height="2.5" rx="1.3" transform="rotate(60 213.9 141.7)" fill="rgba(255,255,255,.30)"/><rect x="310.7" y="349.3" width="5.0" height="2.5" rx="1.3" transform="rotate(96 313.2 350.5)" fill="rgba(255,255,255,.30)"/><rect x="162.0" y="346.5" width="4.9" height="2.5" rx="1.2" transform="rotate(115 164.4 347.7)" fill="rgba(255,255,255,.30)"/><rect x="334.2" y="275.7" width="4.4" height="2.2" rx="1.1" transform="rotate(64 336.4 276.8)" fill="rgba(255,255,255,.30)"/><rect x="403.7" y="350.9" width="4.0" height="2.0" rx="1.0" transform="rotate(105 405.7 351.9)" fill="rgba(255,255,255,.30)"/><rect x="169.2" y="157.6" width="3.9" height="1.9" rx="1.0" transform="rotate(104 171.2 158.6)" fill="rgba(255,255,255,.30)"/><rect x="349.3" y="111.0" width="3.7" height="1.9" rx="0.9" transform="rotate(121 351.2 111.9)" fill="rgba(255,255,255,.30)"/><rect x="391.8" y="401.8" width="3.1" height="1.5" rx="0.8" transform="rotate(31 393.3 402.6)" fill="rgba(255,255,255,.30)"/><rect x="129.6" y="208.1" width="4.9" height="2.5" rx="1.2" transform="rotate(174 132.1 209.3)" fill="rgba(255,255,255,.30)"/><rect x="366.7" y="380.9" width="3.6" height="1.8" rx="0.9" transform="rotate(74 368.5 381.8)" fill="rgba(255,255,255,.30)"/><rect x="326.6" y="364.2" width="5.0" height="2.5" rx="1.3" transform="rotate(113 329.1 365.5)" fill="rgba(255,255,255,.30)"/><rect x="113.1" y="254.4" width="3.2" height="1.6" rx="0.8" transform="rotate(165 114.7 255.2)" fill="rgba(255,255,255,.30)"/><rect x="77.8" y="259.0" width="3.1" height="1.5" rx="0.8" transform="rotate(176 79.4 259.8)" fill="rgba(255,255,255,.30)"/><rect x="128.8" y="116.1" width="3.3" height="1.6" rx="0.8" transform="rotate(174 130.4 116.9)" fill="rgba(255,255,255,.30)"/><rect x="162.0" y="411.6" width="3.9" height="2.0" rx="1.0" transform="rotate(123 164.0 412.6)" fill="rgba(255,255,255,.30)"/><rect x="249.3" y="280.0" width="4.8" height="2.4" rx="1.2" transform="rotate(160 251.7 281.1)" fill="rgba(255,255,255,.30)"/><rect x="137.6" y="308.4" width="3.1" height="1.5" rx="0.8" transform="rotate(89 139.1 309.1)" fill="rgba(255,255,255,.30)"/><rect x="416.2" y="325.6" width="5.2" height="2.6" rx="1.3" transform="rotate(147 418.8 326.9)" fill="rgba(255,255,255,.30)"/><rect x="309.8" y="268.8" width="4.0" height="2.0" rx="1.0" transform="rotate(179 311.8 269.8)" fill="rgba(255,255,255,.30)"/><rect x="280.2" y="423.8" width="4.0" height="2.0" rx="1.0" transform="rotate(129 282.3 424.8)" fill="rgba(255,255,255,.30)"/><rect x="366.9" y="156.3" width="3.9" height="2.0" rx="1.0" transform="rotate(11 368.9 157.3)" fill="rgba(255,255,255,.30)"/><rect x="315.1" y="163.2" width="4.3" height="2.1" rx="1.1" transform="rotate(50 317.3 164.2)" fill="rgba(255,255,255,.30)"/><rect x="179.0" y="171.5" width="5.2" height="2.6" rx="1.3" transform="rotate(34 181.5 172.8)" fill="rgba(255,255,255,.30)"/><rect x="347.4" y="186.6" width="4.4" height="2.2" rx="1.1" transform="rotate(177 349.5 187.7)" fill="rgba(255,255,255,.30)"/><rect x="338.9" y="393.8" width="3.6" height="1.8" rx="0.9" transform="rotate(57 340.8 394.7)" fill="rgba(255,255,255,.30)"/><rect x="171.3" y="135.7" width="4.9" height="2.4" rx="1.2" transform="rotate(126 173.8 136.9)" fill="rgba(255,255,255,.30)"/><rect x="278.5" y="113.8" width="3.2" height="1.6" rx="0.8" transform="rotate(76 280.1 114.6)" fill="rgba(255,255,255,.30)"/><rect x="422.4" y="152.9" width="4.6" height="2.3" rx="1.2" transform="rotate(23 424.8 154.1)" fill="rgba(255,255,255,.30)"/><rect x="229.8" y="327.1" width="3.8" height="1.9" rx="0.9" transform="rotate(78 231.7 328.0)" fill="rgba(255,255,255,.30)"/><rect x="418.7" y="343.4" width="2.8" height="1.4" rx="0.7" transform="rotate(15 420.1 344.1)" fill="rgba(255,255,255,.30)"/><rect x="353.0" y="392.4" width="4.0" height="2.0" rx="1.0" transform="rotate(145 354.9 393.4)" fill="rgba(255,255,255,.30)"/><rect x="332.3" y="259.7" width="4.5" height="2.3" rx="1.1" transform="rotate(143 334.6 260.8)" fill="rgba(255,255,255,.30)"/><rect x="375.3" y="379.6" width="3.1" height="1.6" rx="0.8" transform="rotate(97 376.8 380.3)" fill="rgba(255,255,255,.30)"/><rect x="212.0" y="284.8" width="5.1" height="2.5" rx="1.3" transform="rotate(119 214.6 286.0)" fill="rgba(255,255,255,.30)"/><rect x="208.6" y="296.3" width="2.8" height="1.4" rx="0.7" transform="rotate(75 210.0 297.0)" fill="rgba(255,255,255,.30)"/><rect x="300.6" y="92.8" width="3.9" height="1.9" rx="1.0" transform="rotate(23 302.5 93.8)" fill="rgba(255,255,255,.30)"/><rect x="342.4" y="313.3" width="5.1" height="2.6" rx="1.3" transform="rotate(45 344.9 314.5)" fill="rgba(255,255,255,.30)"/><rect x="306.9" y="110.7" width="3.4" height="1.7" rx="0.8" transform="rotate(160 308.6 111.5)" fill="rgba(255,255,255,.30)"/><rect x="330.2" y="224.4" width="4.9" height="2.5" rx="1.2" transform="rotate(32 332.7 225.6)" fill="rgba(255,255,255,.30)"/><rect x="145.6" y="168.2" width="3.1" height="1.6" rx="0.8" transform="rotate(86 147.2 168.9)" fill="rgba(255,255,255,.30)"/><rect x="178.8" y="388.3" width="4.0" height="2.0" rx="1.0" transform="rotate(14 180.9 389.3)" fill="rgba(255,255,255,.30)"/><rect x="241.2" y="159.8" width="4.3" height="2.2" rx="1.1" transform="rotate(139 243.3 160.9)" fill="rgba(255,255,255,.30)"/><rect x="187.1" y="268.7" width="4.0" height="2.0" rx="1.0" transform="rotate(87 189.1 269.7)" fill="rgba(255,255,255,.30)"/><rect x="196.8" y="291.6" width="5.1" height="2.6" rx="1.3" transform="rotate(64 199.3 292.9)" fill="rgba(255,255,255,.30)"/><rect x="357.8" y="120.5" width="4.7" height="2.3" rx="1.2" transform="rotate(144 360.1 121.7)" fill="rgba(255,255,255,.30)"/><rect x="180.9" y="279.8" width="4.6" height="2.3" rx="1.2" transform="rotate(69 183.2 281.0)" fill="rgba(255,255,255,.30)"/><rect x="304.4" y="343.1" width="4.4" height="2.2" rx="1.1" transform="rotate(64 306.6 344.2)" fill="rgba(255,255,255,.30)"/><rect x="159.7" y="159.8" width="3.7" height="1.9" rx="0.9" transform="rotate(97 161.6 160.7)" fill="rgba(255,255,255,.30)"/><rect x="353.6" y="330.1" width="2.9" height="1.4" rx="0.7" transform="rotate(56 355.1 330.9)" fill="rgba(255,255,255,.30)"/><rect x="177.2" y="256.5" width="4.1" height="2.0" rx="1.0" transform="rotate(100 179.3 257.5)" fill="rgba(255,255,255,.30)"/><rect x="174.0" y="199.5" width="4.9" height="2.4" rx="1.2" transform="rotate(138 176.4 200.8)" fill="rgba(255,255,255,.30)"/><rect x="398.7" y="142.1" width="4.3" height="2.1" rx="1.1" transform="rotate(144 400.8 143.2)" fill="rgba(255,255,255,.30)"/><rect x="90.0" y="327.5" width="3.7" height="1.8" rx="0.9" transform="rotate(21 91.9 328.5)" fill="rgba(255,255,255,.30)"/><rect x="398.6" y="132.7" width="3.7" height="1.8" rx="0.9" transform="rotate(160 400.4 133.6)" fill="rgba(255,255,255,.30)"/><rect x="334.1" y="305.1" width="4.7" height="2.3" rx="1.2" transform="rotate(126 336.5 306.3)" fill="rgba(255,255,255,.30)"/><rect x="390.7" y="230.9" width="3.3" height="1.6" rx="0.8" transform="rotate(40 392.3 231.8)" fill="rgba(255,255,255,.30)"/><rect x="144.9" y="156.9" width="3.7" height="1.9" rx="0.9" transform="rotate(101 146.7 157.8)" fill="rgba(255,255,255,.30)"/><rect x="212.8" y="176.9" width="3.1" height="1.5" rx="0.8" transform="rotate(24 214.3 177.7)" fill="rgba(255,255,255,.30)"/><rect x="228.1" y="425.3" width="3.3" height="1.7" rx="0.8" transform="rotate(172 229.7 426.1)" fill="rgba(255,255,255,.30)"/><rect x="428.3" y="268.6" width="4.6" height="2.3" rx="1.2" transform="rotate(25 430.6 269.8)" fill="rgba(255,255,255,.30)"/><rect x="431.7" y="179.7" width="4.5" height="2.2" rx="1.1" transform="rotate(145 434.0 180.8)" fill="rgba(255,255,255,.30)"/><rect x="273.8" y="308.5" width="4.2" height="2.1" rx="1.0" transform="rotate(7 275.9 309.5)" fill="rgba(255,255,255,.30)"/><rect x="112.8" y="348.7" width="4.5" height="2.2" rx="1.1" transform="rotate(82 115.0 349.8)" fill="rgba(255,255,255,.30)"/><rect x="185.3" y="223.6" width="5.2" height="2.6" rx="1.3" transform="rotate(91 187.9 224.9)" fill="rgba(255,255,255,.30)"/><rect x="121.6" y="341.2" width="4.9" height="2.5" rx="1.2" transform="rotate(51 124.1 342.4)" fill="rgba(255,255,255,.30)"/><rect x="310.1" y="345.7" width="2.9" height="1.5" rx="0.7" transform="rotate(60 311.5 346.5)" fill="rgba(255,255,255,.30)"/><rect x="233.4" y="136.3" width="4.7" height="2.3" rx="1.2" transform="rotate(128 235.7 137.4)" fill="rgba(255,255,255,.30)"/><rect x="305.5" y="147.5" width="4.2" height="2.1" rx="1.0" transform="rotate(17 307.6 148.6)" fill="rgba(255,255,255,.30)"/><rect x="252.1" y="413.5" width="4.1" height="2.1" rx="1.0" transform="rotate(24 254.1 414.6)" fill="rgba(255,255,255,.30)"/><rect x="175.7" y="152.6" width="4.6" height="2.3" rx="1.2" transform="rotate(22 178.0 153.7)" fill="rgba(255,255,255,.30)"/><rect x="339.6" y="116.3" width="4.2" height="2.1" rx="1.0" transform="rotate(86 341.7 117.3)" fill="rgba(255,255,255,.30)"/><rect x="253.1" y="106.8" width="4.2" height="2.1" rx="1.0" transform="rotate(164 255.1 107.9)" fill="rgba(255,255,255,.30)"/><rect x="334.2" y="85.6" width="4.5" height="2.2" rx="1.1" transform="rotate(119 336.4 86.7)" fill="rgba(255,255,255,.30)"/><rect x="210.9" y="187.2" width="3.4" height="1.7" rx="0.8" transform="rotate(95 212.6 188.1)" fill="rgba(255,255,255,.30)"/><rect x="369.9" y="335.2" width="4.8" height="2.4" rx="1.2" transform="rotate(77 372.3 336.4)" fill="rgba(255,255,255,.30)"/><rect x="222.8" y="416.9" width="3.8" height="1.9" rx="0.9" transform="rotate(167 224.7 417.9)" fill="rgba(255,255,255,.30)"/><rect x="102.2" y="213.5" width="4.2" height="2.1" rx="1.1" transform="rotate(132 104.3 214.6)" fill="rgba(255,255,255,.30)"/><rect x="303.0" y="257.1" width="4.6" height="2.3" rx="1.2" transform="rotate(46 305.3 258.3)" fill="rgba(255,255,255,.30)"/><rect x="236.6" y="306.8" width="3.5" height="1.7" rx="0.9" transform="rotate(31 238.4 307.7)" fill="rgba(255,255,255,.30)"/><rect x="129.5" y="319.5" width="3.3" height="1.7" rx="0.8" transform="rotate(29 131.1 320.3)" fill="rgba(255,255,255,.30)"/><rect x="152.4" y="387.9" width="3.7" height="1.8" rx="0.9" transform="rotate(104 154.3 388.8)" fill="rgba(255,255,255,.30)"/><rect x="318.7" y="343.2" width="3.0" height="1.5" rx="0.8" transform="rotate(162 320.2 343.9)" fill="rgba(255,255,255,.30)"/><rect x="387.6" y="382.6" width="4.1" height="2.0" rx="1.0" transform="rotate(88 389.6 383.6)" fill="rgba(255,255,255,.30)"/><rect x="155.2" y="390.6" width="3.3" height="1.6" rx="0.8" transform="rotate(130 156.8 391.4)" fill="rgba(255,255,255,.30)"/><rect x="245.9" y="272.3" width="4.4" height="2.2" rx="1.1" transform="rotate(75 248.1 273.5)" fill="rgba(255,255,255,.30)"/><rect x="234.7" y="261.2" width="4.6" height="2.3" rx="1.2" transform="rotate(7 237.0 262.3)" fill="rgba(255,255,255,.30)"/><rect x="424.5" y="208.9" width="3.1" height="1.5" rx="0.8" transform="rotate(53 426.1 209.6)" fill="rgba(255,255,255,.30)"/><rect x="327.9" y="175.7" width="3.4" height="1.7" rx="0.8" transform="rotate(2 329.5 176.6)" fill="rgba(255,255,255,.30)"/><rect x="234.4" y="93.0" width="4.4" height="2.2" rx="1.1" transform="rotate(82 236.6 94.1)" fill="rgba(255,255,255,.30)"/><rect x="256.8" y="353.1" width="3.2" height="1.6" rx="0.8" transform="rotate(96 258.3 353.9)" fill="rgba(255,255,255,.30)"/><rect x="388.6" y="339.0" width="3.6" height="1.8" rx="0.9" transform="rotate(57 390.4 339.9)" fill="rgba(255,255,255,.30)"/><rect x="65.0" y="277.9" width="3.0" height="1.5" rx="0.7" transform="rotate(110 66.5 278.7)" fill="rgba(255,255,255,.30)"/><rect x="295.1" y="254.0" width="4.5" height="2.2" rx="1.1" transform="rotate(41 297.3 255.1)" fill="rgba(255,255,255,.30)"/><rect x="344.3" y="285.9" width="4.0" height="2.0" rx="1.0" transform="rotate(31 346.3 286.9)" fill="rgba(255,255,255,.30)"/><rect x="123.0" y="258.4" width="3.8" height="1.9" rx="0.9" transform="rotate(73 124.9 259.4)" fill="rgba(255,255,255,.30)"/><rect x="74.8" y="226.4" width="4.2" height="2.1" rx="1.0" transform="rotate(72 76.8 227.4)" fill="rgba(255,255,255,.30)"/><rect x="291.8" y="421.6" width="3.1" height="1.6" rx="0.8" transform="rotate(9 293.3 422.4)" fill="rgba(255,255,255,.30)"/><rect x="85.3" y="271.0" width="3.8" height="1.9" rx="1.0" transform="rotate(102 87.2 272.0)" fill="rgba(255,255,255,.30)"/><rect x="174.5" y="308.3" width="3.2" height="1.6" rx="0.8" transform="rotate(68 176.1 309.1)" fill="rgba(255,255,255,.30)"/><rect x="173.4" y="249.6" width="2.8" height="1.4" rx="0.7" transform="rotate(45 174.8 250.3)" fill="rgba(255,255,255,.30)"/><rect x="239.6" y="88.0" width="4.3" height="2.1" rx="1.1" transform="rotate(30 241.7 89.1)" fill="rgba(255,255,255,.30)"/><rect x="322.8" y="223.8" width="3.8" height="1.9" rx="0.9" transform="rotate(11 324.6 224.7)" fill="rgba(255,255,255,.30)"/><rect x="161.4" y="235.2" width="3.8" height="1.9" rx="0.9" transform="rotate(46 163.3 236.1)" fill="rgba(255,255,255,.30)"/><rect x="339.7" y="379.9" width="3.7" height="1.9" rx="0.9" transform="rotate(19 341.6 380.9)" fill="rgba(255,255,255,.30)"/><rect x="207.0" y="298.1" width="3.9" height="2.0" rx="1.0" transform="rotate(139 209.0 299.1)" fill="rgba(255,255,255,.30)"/><rect x="412.8" y="345.5" width="3.9" height="2.0" rx="1.0" transform="rotate(161 414.7 346.5)" fill="rgba(255,255,255,.30)"/><rect x="227.3" y="382.2" width="4.8" height="2.4" rx="1.2" transform="rotate(147 229.7 383.4)" fill="rgba(255,255,255,.30)"/><rect x="145.0" y="119.2" width="4.6" height="2.3" rx="1.1" transform="rotate(59 147.3 120.3)" fill="rgba(255,255,255,.30)"/><rect x="263.8" y="191.4" width="4.7" height="2.4" rx="1.2" transform="rotate(59 266.2 192.5)" fill="rgba(255,255,255,.30)"/><rect x="330.0" y="296.9" width="5.1" height="2.6" rx="1.3" transform="rotate(99 332.6 298.2)" fill="rgba(255,255,255,.30)"/><rect x="90.6" y="209.2" width="3.9" height="2.0" rx="1.0" transform="rotate(138 92.6 210.2)" fill="rgba(255,255,255,.30)"/><rect x="303.1" y="191.0" width="3.5" height="1.8" rx="0.9" transform="rotate(73 304.9 191.9)" fill="rgba(255,255,255,.30)"/><rect x="321.6" y="265.3" width="3.6" height="1.8" rx="0.9" transform="rotate(134 323.4 266.2)" fill="rgba(255,255,255,.30)"/><rect x="385.0" y="189.5" width="2.9" height="1.5" rx="0.7" transform="rotate(89 386.5 190.2)" fill="rgba(255,255,255,.30)"/><rect x="283.5" y="301.0" width="3.4" height="1.7" rx="0.9" transform="rotate(125 285.2 301.9)" fill="rgba(255,255,255,.30)"/><rect x="166.5" y="104.2" width="3.4" height="1.7" rx="0.8" transform="rotate(176 168.1 105.0)" fill="rgba(255,255,255,.30)"/><rect x="414.4" y="225.9" width="3.5" height="1.8" rx="0.9" transform="rotate(112 416.1 226.8)" fill="rgba(255,255,255,.30)"/><rect x="123.3" y="143.6" width="3.2" height="1.6" rx="0.8" transform="rotate(149 124.9 144.3)" fill="rgba(255,255,255,.30)"/><rect x="317.4" y="352.9" width="2.9" height="1.4" rx="0.7" transform="rotate(154 318.9 353.6)" fill="rgba(255,255,255,.30)"/><rect x="384.8" y="126.8" width="4.7" height="2.4" rx="1.2" transform="rotate(44 387.1 127.9)" fill="rgba(255,255,255,.30)"/><rect x="342.4" y="365.2" width="3.9" height="2.0" rx="1.0" transform="rotate(126 344.4 366.2)" fill="rgba(255,255,255,.30)"/><rect x="420.5" y="199.2" width="4.9" height="2.5" rx="1.2" transform="rotate(16 423.0 200.5)" fill="rgba(255,255,255,.30)"/><rect x="215.8" y="377.5" width="3.6" height="1.8" rx="0.9" transform="rotate(27 217.6 378.4)" fill="rgba(255,255,255,.30)"/><rect x="373.0" y="118.1" width="3.6" height="1.8" rx="0.9" transform="rotate(9 374.8 119.0)" fill="rgba(255,255,255,.30)"/><rect x="301.8" y="97.0" width="4.2" height="2.1" rx="1.1" transform="rotate(43 303.9 98.1)" fill="rgba(255,255,255,.30)"/><rect x="91.3" y="166.2" width="4.1" height="2.0" rx="1.0" transform="rotate(94 93.3 167.2)" fill="rgba(255,255,255,.30)"/><rect x="247.3" y="267.6" width="4.6" height="2.3" rx="1.1" transform="rotate(4 249.5 268.8)" fill="rgba(255,255,255,.30)"/><rect x="114.0" y="317.7" width="5.2" height="2.6" rx="1.3" transform="rotate(98 116.6 319.0)" fill="rgba(255,255,255,.30)"/><rect x="183.8" y="309.8" width="5.2" height="2.6" rx="1.3" transform="rotate(109 186.3 311.1)" fill="rgba(255,255,255,.30)"/><rect x="325.5" y="256.5" width="4.3" height="2.1" rx="1.1" transform="rotate(14 327.6 257.6)" fill="rgba(255,255,255,.30)"/><rect x="318.6" y="325.2" width="4.6" height="2.3" rx="1.2" transform="rotate(103 320.9 326.3)" fill="rgba(255,255,255,.30)"/><rect x="283.5" y="355.9" width="4.6" height="2.3" rx="1.1" transform="rotate(37 285.8 357.0)" fill="rgba(255,255,255,.30)"/><rect x="183.1" y="335.5" width="4.0" height="2.0" rx="1.0" transform="rotate(158 185.1 336.5)" fill="rgba(255,255,255,.30)"/><rect x="296.0" y="422.4" width="4.1" height="2.1" rx="1.0" transform="rotate(98 298.0 423.4)" fill="rgba(255,255,255,.30)"/><rect x="438.2" y="316.4" width="3.5" height="1.7" rx="0.9" transform="rotate(74 440.0 317.3)" fill="rgba(255,255,255,.30)"/><rect x="231.8" y="316.6" width="4.4" height="2.2" rx="1.1" transform="rotate(13 234.0 317.7)" fill="rgba(255,255,255,.30)"/><rect x="185.7" y="253.9" width="3.2" height="1.6" rx="0.8" transform="rotate(126 187.3 254.7)" fill="rgba(255,255,255,.30)"/><rect x="215.5" y="348.3" width="5.1" height="2.5" rx="1.3" transform="rotate(179 218.0 349.6)" fill="rgba(255,255,255,.30)"/><rect x="337.1" y="310.4" width="4.6" height="2.3" rx="1.1" transform="rotate(67 339.4 311.6)" fill="rgba(255,255,255,.30)"/><rect x="235.3" y="367.6" width="3.1" height="1.6" rx="0.8" transform="rotate(161 236.9 368.3)" fill="rgba(255,255,255,.30)"/><rect x="322.5" y="399.2" width="4.0" height="2.0" rx="1.0" transform="rotate(32 324.5 400.2)" fill="rgba(255,255,255,.30)"/><rect x="98.4" y="312.0" width="5.2" height="2.6" rx="1.3" transform="rotate(158 101.0 313.3)" fill="rgba(255,255,255,.30)"/><rect x="146.7" y="234.6" width="4.3" height="2.1" rx="1.1" transform="rotate(45 148.8 235.6)" fill="rgba(255,255,255,.30)"/><rect x="258.3" y="247.9" width="3.7" height="1.8" rx="0.9" transform="rotate(100 260.2 248.8)" fill="rgba(255,255,255,.30)"/><rect x="263.0" y="384.0" width="5.0" height="2.5" rx="1.3" transform="rotate(74 265.5 385.2)" fill="rgba(255,255,255,.30)"/><rect x="292.5" y="361.5" width="3.8" height="1.9" rx="0.9" transform="rotate(9 294.4 362.4)" fill="rgba(255,255,255,.30)"/><rect x="102.9" y="377.4" width="5.0" height="2.5" rx="1.2" transform="rotate(97 105.4 378.6)" fill="rgba(255,255,255,.30)"/><rect x="199.9" y="302.3" width="4.8" height="2.4" rx="1.2" transform="rotate(66 202.2 303.5)" fill="rgba(255,255,255,.30)"/><rect x="164.3" y="293.8" width="4.8" height="2.4" rx="1.2" transform="rotate(13 166.6 295.0)" fill="rgba(255,255,255,.30)"/><rect x="127.9" y="325.2" width="3.6" height="1.8" rx="0.9" transform="rotate(138 129.7 326.1)" fill="rgba(255,255,255,.30)"/><rect x="279.2" y="399.1" width="3.3" height="1.6" rx="0.8" transform="rotate(80 280.9 399.9)" fill="rgba(255,255,255,.30)"/><rect x="289.3" y="134.4" width="4.1" height="2.0" rx="1.0" transform="rotate(101 291.3 135.4)" fill="rgba(255,255,255,.30)"/><rect x="419.4" y="258.5" width="3.7" height="1.8" rx="0.9" transform="rotate(57 421.3 259.4)" fill="rgba(255,255,255,.30)"/></g><g><g transform="translate(260.6 246.7)"><circle cx="-0.4" cy="2.6" r="2.2" fill="#3B2F1E"/><circle cx="-0.3" cy="-5.7" r="1.6" fill="#3B2F1E"/><circle cx="9.6" cy="3.3" r="2.1" fill="#3B2F1E"/><circle cx="-2.9" cy="4.4" r="2.1" fill="#3B2F1E"/><circle cx="-8.3" cy="6.8" r="2.1" fill="#3B2F1E"/><circle cx="10.2" cy="-8.0" r="1.5" fill="#3B2F1E"/><circle cx="9.2" cy="-2.0" r="1.6" fill="#3B2F1E"/><circle cx="3.4" cy="-3.8" r="1.6" fill="#3B2F1E"/><circle cx="-2.4" cy="-6.3" r="2.1" fill="#3B2F1E"/></g><g transform="translate(152.2 149.8) rotate(-20) scale(1.00)"><path d="M0 -22 C 16 -22 20 0 12 16 C 6 26 -6 26 -12 16 C -20 0 -16 -22 0 -22 Z" fill="#7FB069"/><path d="M0 -16 C 11 -16 14 0 8 12 C 4 19 -4 19 -8 12 C -14 0 -11 -16 0 -16 Z" fill="#A7CE8B"/><ellipse cx="0" cy="-1" rx="5.5" ry="6.5" fill="#C9B27E"/></g><g transform="translate(248.1 312.4) rotate(126) scale(1.20)"><path d="M0 0 C 10 -18 26 -18 30 0 C 26 18 10 18 0 0 Z" fill="#57A65A"/><path d="M4 0 L 27 0" stroke="rgba(0,0,0,.10)" stroke-width="1.4" fill="none"/></g><g transform="translate(208.6 389.7) rotate(141) scale(1.20)"><path d="M0 0 C 10 -18 26 -18 30 0 C 26 18 10 18 0 0 Z" fill="#2F7D3A"/><path d="M4 0 L 27 0" stroke="rgba(0,0,0,.10)" stroke-width="1.4" fill="none"/></g><g transform="translate(361.9 223.6) rotate(4) scale(1.00)"><rect x="-16" y="-11" width="32" height="22" rx="7" fill="#E0A96D"/><rect x="-16" y="-11" width="32" height="22" rx="7" fill="none" stroke="#B07C42" stroke-width="2" opacity=".6"/><path d="M-10 0 H10 M-8 -5 H8 M-8 5 H8" stroke="#B07C42" stroke-width="1.4" opacity=".45"/></g><g transform="translate(145.7 203.7) rotate(28) scale(1.00)"><path d="M0 -22 C 16 -22 20 0 12 16 C 6 26 -6 26 -12 16 C -20 0 -16 -22 0 -22 Z" fill="#7FB069"/><path d="M0 -16 C 11 -16 14 0 8 12 C 4 19 -4 19 -8 12 C -14 0 -11 -16 0 -16 Z" fill="#A7CE8B"/><ellipse cx="0" cy="-1" rx="5.5" ry="6.5" fill="#C9B27E"/></g><g transform="translate(269.0 340.8) scale(1.00)"><circle r="12" fill="#E4572E"/><circle r="12" fill="url(#tomGloss)"/><ellipse cx="-3.5" cy="-4.5" rx="3.2" ry="2" fill="#fff" opacity=".55"/></g><g transform="translate(126.9 314.0) rotate(83) scale(1.00)"><circle r="13" fill="#BFE3A8"/><circle r="13" fill="none" stroke="#6FA84A" stroke-width="2.5"/><circle r="6" fill="#D8F0C4"/></g><g transform="translate(283.8 231.3)"><circle cx="-7.4" cy="10.0" r="2.1" fill="#3B2F1E"/><circle cx="-8.9" cy="9.5" r="1.7" fill="#3B2F1E"/><circle cx="-5.0" cy="6.5" r="2.1" fill="#3B2F1E"/><circle cx="-10.0" cy="-7.3" r="1.5" fill="#3B2F1E"/><circle cx="-3.7" cy="-0.6" r="1.9" fill="#3B2F1E"/><circle cx="3.0" cy="10.7" r="1.7" fill="#3B2F1E"/><circle cx="-5.9" cy="7.1" r="2.2" fill="#3B2F1E"/><circle cx="-0.0" cy="3.8" r="2.2" fill="#3B2F1E"/><circle cx="-4.9" cy="6.4" r="1.9" fill="#3B2F1E"/></g><g transform="translate(315.5 198.4) rotate(14) scale(1.00)"><rect x="-16" y="-11" width="32" height="22" rx="7" fill="#E0A96D"/><rect x="-16" y="-11" width="32" height="22" rx="7" fill="none" stroke="#B07C42" stroke-width="2" opacity=".6"/><path d="M-10 0 H10 M-8 -5 H8 M-8 5 H8" stroke="#B07C42" stroke-width="1.4" opacity=".45"/></g><g transform="translate(207.7 230.7) rotate(-27) scale(1.00)"><path d="M0 -22 C 16 -22 20 0 12 16 C 6 26 -6 26 -12 16 C -20 0 -16 -22 0 -22 Z" fill="#7FB069"/><path d="M0 -16 C 11 -16 14 0 8 12 C 4 19 -4 19 -8 12 C -14 0 -11 -16 0 -16 Z" fill="#A7CE8B"/><ellipse cx="0" cy="-1" rx="5.5" ry="6.5" fill="#C9B27E"/></g><g transform="translate(294.3 297.3) scale(1.00)"><circle r="12" fill="#E4572E"/><circle r="12" fill="url(#tomGloss)"/><ellipse cx="-3.5" cy="-4.5" rx="3.2" ry="2" fill="#fff" opacity=".55"/></g><g transform="translate(180.3 270.8) rotate(19) scale(1.00)"><circle r="13" fill="#BFE3A8"/><circle r="13" fill="none" stroke="#6FA84A" stroke-width="2.5"/><circle r="6" fill="#D8F0C4"/></g><g transform="translate(250.3 397.7) rotate(302) scale(1.20)"><path d="M0 0 C 10 -18 26 -18 30 0 C 26 18 10 18 0 0 Z" fill="#2F7D3A"/><path d="M4 0 L 27 0" stroke="rgba(0,0,0,.10)" stroke-width="1.4" fill="none"/></g><g transform="translate(338.5 314.1) scale(1.00)"><circle r="12" fill="#E4572E"/><circle r="12" fill="url(#tomGloss)"/><ellipse cx="-3.5" cy="-4.5" rx="3.2" ry="2" fill="#fff" opacity=".55"/></g><g transform="translate(284.3 322.3) scale(1.00)"><circle r="12" fill="#E4572E"/><circle r="12" fill="url(#tomGloss)"/><ellipse cx="-3.5" cy="-4.5" rx="3.2" ry="2" fill="#fff" opacity=".55"/></g><g transform="translate(369.4 325.9) scale(1.00)"><circle r="12" fill="#E4572E"/><circle r="12" fill="url(#tomGloss)"/><ellipse cx="-3.5" cy="-4.5" rx="3.2" ry="2" fill="#fff" opacity=".55"/></g><g transform="translate(403.2 239.8) rotate(29) scale(1.00)"><rect x="-16" y="-11" width="32" height="22" rx="7" fill="#E0A96D"/><rect x="-16" y="-11" width="32" height="22" rx="7" fill="none" stroke="#B07C42" stroke-width="2" opacity=".6"/><path d="M-10 0 H10 M-8 -5 H8 M-8 5 H8" stroke="#B07C42" stroke-width="1.4" opacity=".45"/></g><g transform="translate(165.6 300.1) rotate(34) scale(1.00)"><circle r="13" fill="#BFE3A8"/><circle r="13" fill="none" stroke="#6FA84A" stroke-width="2.5"/><circle r="6" fill="#D8F0C4"/></g><g transform="translate(347.2 251.0) rotate(-12) scale(1.00)"><rect x="-16" y="-11" width="32" height="22" rx="7" fill="#E0A96D"/><rect x="-16" y="-11" width="32" height="22" rx="7" fill="none" stroke="#B07C42" stroke-width="2" opacity=".6"/><path d="M-10 0 H10 M-8 -5 H8 M-8 5 H8" stroke="#B07C42" stroke-width="1.4" opacity=".45"/></g><g transform="translate(269.3 387.5) rotate(215) scale(1.20)"><path d="M0 0 C 10 -18 26 -18 30 0 C 26 18 10 18 0 0 Z" fill="#57A65A"/><path d="M4 0 L 27 0" stroke="rgba(0,0,0,.10)" stroke-width="1.4" fill="none"/></g><g transform="translate(227.6 170.6) rotate(-28) scale(1.00)"><path d="M0 -22 C 16 -22 20 0 12 16 C 6 26 -6 26 -12 16 C -20 0 -16 -22 0 -22 Z" fill="#7FB069"/><path d="M0 -16 C 11 -16 14 0 8 12 C 4 19 -4 19 -8 12 C -14 0 -11 -16 0 -16 Z" fill="#A7CE8B"/><ellipse cx="0" cy="-1" rx="5.5" ry="6.5" fill="#C9B27E"/></g><g transform="translate(209.6 298.0) rotate(298) scale(1.20)"><path d="M0 0 C 10 -18 26 -18 30 0 C 26 18 10 18 0 0 Z" fill="#3E8E41"/><path d="M4 0 L 27 0" stroke="rgba(0,0,0,.10)" stroke-width="1.4" fill="none"/></g></g><path d="M 110 140 A 200 200 0 0 1 380 100" fill="none" stroke="rgba(255,255,255,.5)" stroke-width="10" stroke-linecap="round" opacity=".5"/></svg>