<svg xmlns="http://www.w3.org/2000/svg" viewBox="0 0 520 520" role="img" aria-label="Bowl saludable ilustrado"><defs><radialGradient id="tomGloss" cx="35%" cy="30%" r="75%"><stop offset="0%" stop-color="#ff8b5e"/><stop offset="55%" stop-color="#E4572E" stop-opacity="0"/></radialGradient><radialGradient id="baseg_gal-5" cx="42%" cy="38%" r="70%"><stop offset="0%" stop-color="#F7EFD9"/><stop offset="100%" stop-color="#EFE4C8"/></radialGradient><radialGradient id="shadow" cx="50%" cy="50%" r="50%"><stop offset="60%" stop-color="rgba(20,48,31,.16)"/><stop offset="100%" stop-color="rgba(20,48,31,0)"/></radialGradient></defs><ellipse cx="260" cy="278" rx="238" ry="230" fill="url(#shadow)"/><circle cx="260" cy="260" r="232" fill="#DCE7D2"/><circle cx="260" cy="260" r="218" fill="#fff" opacity=".55"/><circle cx="260" cy="260" r="204" fill="url(#baseg_gal-5)"/><g><rect x="236.5" y="131.2" width="3.2" height="1.6" rx="0.8" transform="rotate(132 238.1 132.0)" fill="rgba(255,255,255,.30)"/><rect x="153.5" y="324.7" width="4.8" height="2.4" rx="1.2" transform="rotate(20 155.9 325.9)" fill="rgba(255,255,255,.30)"/><rect x="168.8" y="281.8" width="3.0" height="1.5" rx="0.8" transform="rotate(44 170.3 282.6)" fill="rgba(255,255,255,.30)"/><rect x="301.7" y="272.2" width="2.9" height="1.4" rx="0.7" transform="rotate(41 303.2 272.9)" fill="rgba(255,255,255,.30)"/><rect x="324.0" y="175.5" width="4.2" height="2.1" rx="1.1" transform="rotate(146 326.1 176.5)" fill="rgba(255,255,255,.30)"/><rect x="189.4" y="281.0" width="3.7" height="1.8" rx="0.9" transform="rotate(111 191.3 281.9)" fill="rgba(255,255,255,.30)"/><rect x="346.7" y="264.8" width="3.4" height="1.7" rx="0.9" transform="rotate(89 348.4 265.6)" fill="rgba(255,255,255,.30)"/><rect x="157.0" y="264.7" width="3.5" height="1.7" rx="0.9" transform="rotate(84 158.8 265.5)" fill="rgba(255,255,255,.30)"/><rect x="72.1" y="203.8" width="3.7" height="1.8" rx="0.9" transform="rotate(123 73.9 204.7)" fill="rgba(255,255,255,.30)"/><rect x="218.9" y="192.6" width="3.2" height="1.6" rx="0.8" transform="rotate(29 220.5 193.4)" fill="rgba(255,255,255,.30)"/><rect x="254.2" y="68.6" width="4.5" height="2.2" rx="1.1" transform="rotate(85 256.5 69.7)" fill="rgba(255,255,255,.30)"/><rect x="206.1" y="333.6" width="5.1" height="2.6" rx="1.3" transform="rotate(90 208.6 334.9)" fill="rgba(255,255,255,.30)"/><rect x="340.0" y="319.2" width="4.4" height="2.2" rx="1.1" transform="rotate(124 342.2 320.3)" fill="rgba(255,255,255,.30)"/><rect x="407.1" y="341.6" width="3.4" height="1.7" rx="0.8" transform="rotate(53 408.8 342.4)" fill="rgba(255,255,255,.30)"/><rect x="126.2" y="401.9" width="4.1" height="2.0" rx="1.0" transform="rotate(16 128.2 403.0)" fill="rgba(255,255,255,.30)"/><rect x="439.3" y="320.2" width="4.8" height="2.4" rx="1.2" transform="rotate(95 441.7 321.4)" fill="rgba(255,255,255,.30)"/><rect x="184.7" y="360.8" width="3.7" height="1.9" rx="0.9" transform="rotate(56 186.5 361.8)" fill="rgba(255,255,255,.30)"/><rect x="288.0" y="74.6" width="4.6" height="2.3" rx="1.2" transform="rotate(151 290.3 75.7)" fill="rgba(255,255,255,.30)"/><rect x="286.7" y="89.1" width="4.6" height="2.3" rx="1.2" transform="rotate(68 289.0 90.3)" fill="rgba(255,255,255,.30)"/><rect x="283.5" y="443.2" width="3.0" height="1.5" rx="0.8" transform="rotate(109 285.0 443.9)" fill="rgba(255,255,255,.30)"/><rect x="224.0" y="82.5" width="3.4" height="1.7" rx="0.9" transform="rotate(76 225.7 83.3)" fill="rgba(255,255,255,.30)"/><rect x="184.9" y="118.1" width="4.9" height="2.4" rx="1.2" transform="rotate(39 187.3 119.3)" fill="rgba(255,255,255,.30)"/><rect x="306.9" y="84.8" width="4.6" height="2.3" rx="1.1" transform="rotate(93 309.2 85.9)" fill="rgba(255,255,255,.30)"/><rect x="151.0" y="139.2" width="4.5" height="2.3" rx="1.1" transform="rotate(31 153.3 140.3)" fill="rgba(255,255,255,.30)"/><rect x="227.7" y="332.0" width="4.1" height="2.1" rx="1.0" transform="rotate(0 229.8 333.0)" fill="rgba(255,255,255,.30)"/><rect x="179.1" y="208.6" width="4.4" height="2.2" rx="1.1" transform="rotate(53 181.3 209.7)" fill="rgba(255,255,255,.30)"/><rect x="415.1" y="234.3" width="3.3" height="1.6" rx="0.8" transform="rotate(59 416.8 235.1)" fill="rgba(255,255,255,.30)"/><rect x="156.8" y="99.9" width="4.6" height="2.3" rx="1.2" transform="rotate(45 159.1 101.1)" fill="rgba(255,255,255,.30)"/><rect x="71.6" y="251.1" width="4.8" height="2.4" rx="1.2" transform="rotate(107 74.0 252.3)" fill="rgba(255,255,255,.30)"/><rect x="194.3" y="188.4" width="4.3" height="2.2" rx="1.1" transform="rotate(44 196.5 189.5)" fill="rgba(255,255,255,.30)"/><rect x="433.3" y="201.2" width="4.7" height="2.4" rx="1.2" transform="rotate(81 435.7 202.3)" fill="rgba(255,255,255,.30)"/><rect x="280.2" y="168.8" width="2.8" height="1.4" rx="0.7" transform="rotate(176 281.6 169.5)" fill="rgba(255,255,255,.30)"/><rect x="178.4" y="324.6" width="4.2" height="2.1" rx="1.0" transform="rotate(72 180.5 325.6)" fill="rgba(255,255,255,.30)"/><rect x="140.6" y="306.2" width="4.4" height="2.2" rx="1.1" transform="rotate(73 142.8 307.3)" fill="rgba(255,255,255,.30)"/><rect x="245.7" y="391.6" width="4.5" height="2.3" rx="1.1" transform="rotate(162 248.0 392.7)" fill="rgba(255,255,255,.30)"/><rect x="318.8" y="367.6" width="3.4" height="1.7" rx="0.8" transform="rotate(26 320.5 368.4)" fill="rgba(255,255,255,.30)"/><rect x="121.0" y="324.2" width="3.3" height="1.6" rx="0.8" transform="rotate(46 122.7 325.1)" fill="rgba(255,255,255,.30)"/><rect x="413.8" y="210.6" width="2.9" height="1.5" rx="0.7" transform="rotate(53 415.3 211.4)" fill="rgba(255,255,255,.30)"/><rect x="418.8" y="306.4" width="4.5" height="2.3" rx="1.1" transform="rotate(12 421.1 307.5)" fill="rgba(255,255,255,.30)"/><rect x="117.2" y="144.0" width="2.8" height="1.4" rx="0.7" transform="rotate(60 118.7 144.7)" fill="rgba(255,255,255,.30)"/><rect x="111.0" y="350.5" width="4.8" height="2.4" rx="1.2" transform="rotate(3 113.4 351.7)" fill="rgba(255,255,255,.30)"/><rect x="169.0" y="229.6" width="3.5" height="1.7" rx="0.9" transform="rotate(173 170.8 230.5)" fill="rgba(255,255,255,.30)"/><rect x="91.8" y="317.1" width="3.9" height="2.0" rx="1.0" transform="rotate(62 93.7 318.1)" fill="rgba(255,255,255,.30)"/><rect x="390.7" y="120.7" width="2.9" height="1.4" rx="0.7" transform="rotate(17 392.1 121.4)" fill="rgba(255,255,255,.30)"/><rect x="140.8" y="382.5" width="4.3" height="2.1" rx="1.1" transform="rotate(170 142.9 383.6)" fill="rgba(255,255,255,.30)"/><rect x="317.3" y="78.3" width="3.5" height="1.7" rx="0.9" transform="rotate(19 319.0 79.2)" fill="rgba(255,255,255,.30)"/><rect x="342.2" y="264.5" width="2.9" height="1.4" rx="0.7" transform="rotate(106 343.6 265.2)" fill="rgba(255,255,255,.30)"/><rect x="79.2" y="268.1" width="3.1" height="1.6" rx="0.8" transform="rotate(77 80.8 268.8)" fill="rgba(255,255,255,.30)"/><rect x="222.7" y="180.5" width="4.4" height="2.2" rx="1.1" transform="rotate(46 224.9 181.6)" fill="rgba(255,255,255,.30)"/><rect x="103.5" y="331.7" width="3.9" height="2.0" rx="1.0" transform="rotate(172 105.5 332.7)" fill="rgba(255,255,255,.30)"/><rect x="304.9" y="95.9" width="3.1" height="1.6" rx="0.8" transform="rotate(163 306.4 96.7)" fill="rgba(255,255,255,.30)"/><rect x="203.0" y="235.1" width="4.1" height="2.1" rx="1.0" transform="rotate(57 205.1 236.1)" fill="rgba(255,255,255,.30)"/><rect x="158.9" y="288.9" width="3.7" height="1.9" rx="0.9" transform="rotate(2 160.7 289.9)" fill="rgba(255,255,255,.30)"/><rect x="363.4" y="130.9" width="4.6" height="2.3" rx="1.1" transform="rotate(30 365.7 132.0)" fill="rgba(255,255,255,.30)"/><rect x="139.1" y="126.9" width="3.1" height="1.5" rx="0.8" transform="rotate(179 140.6 127.7)" fill="rgba(255,255,255,.30)"/><rect x="399.5" y="254.8" width="5.1" height="2.6" rx="1.3" transform="rotate(168 402.0 256.1)" fill="rgba(255,255,255,.30)"/><rect x="212.3" y="93.1" width="4.4" height="2.2" rx="1.1" transform="rotate(1 214.5 94.2)" fill="rgba(255,255,255,.30)"/><rect x="357.7" y="258.4" width="4.1" height="2.0" rx="1.0" transform="rotate(14 359.7 259.4)" fill="rgba(255,255,255,.30)"/><rect x="401.7" y="207.2" width="3.5" height="1.8" rx="0.9" transform="rotate(138 403.4 208.0)" fill="rgba(255,255,255,.30)"/><rect x="330.7" y="363.7" width="4.2" height="2.1" rx="1.0" transform="rotate(32 332.7 364.7)" fill="rgba(255,255,255,.30)"/><rect x="116.2" y="130.0" width="4.5" height="2.3" rx="1.1" transform="rotate(12 118.4 131.1)" fill="rgba(255,255,255,.30)"/><rect x="84.0" y="322.8" width="4.9" height="2.5" rx="1.2" transform="rotate(7 86.5 324.0)" fill="rgba(255,255,255,.30)"/><rect x="167.4" y="430.0" width="4.8" height="2.4" rx="1.2" transform="rotate(122 169.8 431.2)" fill="rgba(255,255,255,.30)"/><rect x="247.0" y="143.3" width="4.0" height="2.0" rx="1.0" transform="rotate(52 249.0 144.3)" fill="rgba(255,255,255,.30)"/><rect x="255.1" y="142.4" width="3.6" height="1.8" rx="0.9" transform="rotate(149 256.8 143.3)" fill="rgba(255,255,255,.30)"/><rect x="184.2" y="352.3" width="4.5" height="2.2" rx="1.1" transform="rotate(18 186.5 353.4)" fill="rgba(255,255,255,.30)"/><rect x="406.2" y="158.8" width="3.7" height="1.8" rx="0.9" transform="rotate(162 408.1 159.8)" fill="rgba(255,255,255,.30)"/><rect x="373.3" y="210.6" width="4.6" height="2.3" rx="1.2" transform="rotate(68 375.6 211.8)" fill="rgba(255,255,255,.30)"/><rect x="76.7" y="240.3" width="4.0" height="2.0" rx="1.0" transform="rotate(113 78.7 241.3)" fill="rgba(255,255,255,.30)"/><rect x="96.2" y="209.8" width="3.2" height="1.6" rx="0.8" transform="rotate(106 97.8 210.6)" fill="rgba(255,255,255,.30)"/><rect x="338.8" y="196.6" width="5.1" height="2.6" rx="1.3" transform="rotate(9 341.3 197.9)" fill="rgba(255,255,255,.30)"/><rect x="79.0" y="290.6" width="3.9" height="1.9" rx="1.0" transform="rotate(132 81.0 291.6)" fill="rgba(255,255,255,.30)"/><rect x="344.1" y="367.3" width="3.0" height="1.5" rx="0.7" transform="rotate(63 345.5 368.0)" fill="rgba(255,255,255,.30)"/><rect x="220.9" y="99.4" width="4.2" height="2.1" rx="1.0" transform="rotate(32 223.0 100.4)" fill="rgba(255,255,255,.30)"/><rect x="361.1" y="229.1" width="4.5" height="2.2" rx="1.1" transform="rotate(109 363.4 230.2)" fill="rgba(255,255,255,.30)"/><rect x="346.0" y="428.5" width="3.4" height="1.7" rx="0.8" transform="rotate(81 347.7 429.4)" fill="rgba(255,255,255,.30)"/><rect x="352.4" y="130.1" width="4.5" height="2.2" rx="1.1" transform="rotate(129 354.6 131.2)" fill="rgba(255,255,255,.30)"/><rect x="205.5" y="199.1" width="4.3" height="2.1" rx="1.1" transform="rotate(7 207.6 200.2)" fill="rgba(255,255,255,.30)"/><rect x="209.6" y="403.3" width="2.9" height="1.5" rx="0.7" transform="rotate(179 211.1 404.1)" fill="rgba(255,255,255,.30)"/><rect x="283.2" y="413.0" width="3.4" height="1.7" rx="0.8" transform="rotate(136 284.9 413.9)" fill="rgba(255,255,255,.30)"/><rect x="407.1" y="325.0" width="4.2" height="2.1" rx="1.0" transform="rotate(78 409.2 326.1)" fill="rgba(255,255,255,.30)"/><rect x="240.8" y="277.5" width="3.4" height="1.7" rx="0.9" transform="rotate(178 242.5 278.3)" fill="rgba(255,255,255,.30)"/><rect x="304.2" y="398.0" width="3.9" height="1.9" rx="1.0" transform="rotate(16 306.1 399.0)" fill="rgba(255,255,255,.30)"/><rect x="313.9" y="350.5" width="2.9" height="1.4" rx="0.7" transform="rotate(174 315.3 351.2)" fill="rgba(255,255,255,.30)"/><rect x="243.4" y="113.7" width="4.7" height="2.3" rx="1.2" transform="rotate(101 245.7 114.9)" fill="rgba(255,255,255,.30)"/><rect x="342.2" y="340.8" width="4.4" height="2.2" rx="1.1" transform="rotate(143 344.4 341.9)" fill="rgba(255,255,255,.30)"/><rect x="226.2" y="397.9" width="4.3" height="2.1" rx="1.1" transform="rotate(145 228.3 399.0)" fill="rgba(255,255,255,.30)"/><rect x="261.3" y="119.2" width="3.7" height="1.9" rx="0.9" transform="rotate(57 263.1 120.1)" fill="rgba(255,255,255,.30)"/><rect x="241.4" y="356.1" width="4.3" height="2.1" rx="1.1" transform="rotate(1 243.5 357.1)" fill="rgba(255,255,255,.30)"/><rect x="267.8" y="88.2" width="4.8" height="2.4" rx="1.2" transform="rotate(115 270.2 89.4)" fill="rgba(255,255,255,.30)"/><rect x="425.8" y="250.7" width="3.1" height="1.6" rx="0.8" transform="rotate(142 427.4 251.5)" fill="rgba(255,255,255,.30)"/><rect x="253.0" y="127.6" width="3.7" height="1.9" rx="0.9" transform="rotate(112 254.9 128.5)" fill="rgba(255,255,255,.30)"/><rect x="151.3" y="270.7" width="4.7" height="2.3" rx="1.2" transform="rotate(96 153.6 271.9)" fill="rgba(255,255,255,.30)"/><rect x="262.1" y="139.4" width="4.7" height="2.4" rx="1.2" transform="rotate(15 264.4 140.5)" fill="rgba(255,255,255,.30)"/><rect x="96.2" y="187.2" width="4.1" height="2.1" rx="1.0" transform="rotate(131 98.3 188.3)" fill="rgba(255,255,255,.30)"/><rect x="340.5" y="387.5" width="4.3" height="2.2" rx="1.1" transform="rotate(151 342.6 388.6)" fill="rgba(255,255,255,.30)"/><rect x="254.0" y="442.3" width="4.7" height="2.4" rx="1.2" transform="rotate(134 256.4 443.5)" fill="rgba(255,255,255,.30)"/><rect x="147.1" y="153.7" width="5.1" height="2.5" rx="1.3" transform="rotate(161 149.6 155.0)" fill="rgba(255,255,255,.30)"/><rect x="212.0" y="264.1" width="4.1" height="2.1" rx="1.0" transform="rotate(48 214.0 265.1)" fill="rgba(255,255,255,.30)"/><rect x="261.0" y="109.8" width="3.6" height="1.8" rx="0.9" transform="rotate(65 262.8 110.7)" fill="rgba(255,255,255,.30)"/><rect x="394.2" y="173.2" width="3.9" height="2.0" rx="1.0" transform="rotate(78 396.1 174.1)" fill="rgba(255,255,255,.30)"/><rect x="326.3" y="242.0" width="3.2" height="1.6" rx="0.8" transform="rotate(122 327.9 242.8)" fill="rgba(255,255,255,.30)"/><rect x="309.3" y="350.5" width="4.8" height="2.4" rx="1.2" transform="rotate(39 311.7 351.8)" fill="rgba(255,255,255,.30)"/><rect x="315.7" y="326.0" width="3.2" height="1.6" rx="0.8" transform="rotate(8 317.3 326.8)" fill="rgba(255,255,255,.30)"/><rect x="403.8" y="329.0" width="3.4" height="1.7" rx="0.9" transform="rotate(104 405.5 329.8)" fill="rgba(255,255,255,.30)"/><rect x="125.9" y="243.5" width="4.2" height="2.1" rx="1.0" transform="rotate(37 128.0 244.6)" fill="rgba(255,255,255,.30)"/><rect x="351.3" y="119.2" width="3.6" height="1.8" rx="0.9" transform="rotate(102 353.1 120.1)" fill="rgba(255,255,255,.30)"/><rect x="238.1" y="181.5" width="3.2" height="1.6" rx="0.8" transform="rotate(140 239.7 182.3)" fill="rgba(255,255,255,.30)"/><rect x="304.4" y="200.8" width="4.6" height="2.3" rx="1.2" transform="rotate(164 306.7 202.0)" fill="rgba(255,255,255,.30)"/><rect x="260.4" y="285.8" width="3.4" height="1.7" rx="0.8" transform="rotate(22 262.1 286.6)" fill="rgba(255,255,255,.30)"/><rect x="290.5" y="440.2" width="2.8" height="1.4" rx="0.7" transform="rotate(111 291.9 440.9)" fill="rgba(255,255,255,.30)"/><rect x="127.4" y="401.2" width="3.0" height="1.5" rx="0.7" transform="rotate(5 128.9 401.9)" fill="rgba(255,255,255,.30)"/><rect x="277.6" y="195.9" width="2.8" height="1.4" rx="0.7" transform="rotate(165 279.0 196.6)" fill="rgba(255,255,255,.30)"/><rect x="397.2" y="311.7" width="5.0" height="2.5" rx="1.2" transform="rotate(65 399.7 312.9)" fill="rgba(255,255,255,.30)"/><rect x="119.5" y="177.0" width="4.6" height="2.3" rx="1.2" transform="rotate(169 121.8 178.2)" fill="rgba(255,255,255,.30)"/><rect x="182.9" y="177.8" width="3.7" height="1.9" rx="0.9" transform="rotate(76 184.8 178.7)" fill="rgba(255,255,255,.30)"/><rect x="322.5" y="160.7" width="3.4" height="1.7" rx="0.8" transform="rotate(10 324.2 161.5)" fill="rgba(255,255,255,.30)"/><rect x="89.6" y="256.9" width="3.1" height="1.5" rx="0.8" transform="rotate(90 91.1 257.7)" fill="rgba(255,255,255,.30)"/><rect x="107.3" y="309.7" width="3.0" height="1.5" rx="0.8" transform="rotate(177 108.8 310.4)" fill="rgba(255,255,255,.30)"/><rect x="395.5" y="368.3" width="4.0" height="2.0" rx="1.0" transform="rotate(178 397.5 369.3)" fill="rgba(255,255,255,.30)"/><rect x="109.4" y="177.0" width="5.2" height="2.6" rx="1.3" transform="rotate(62 111.9 178.3)" fill="rgba(255,255,255,.30)"/><rect x="296.1" y="351.2" width="2.9" height="1.5" rx="0.7" transform="rotate(113 297.6 351.9)" fill="rgba(255,255,255,.30)"/><rect x="188.9" y="324.1" width="2.8" height="1.4" rx="0.7" transform="rotate(80 190.3 324.8)" fill="rgba(255,255,255,.30)"/><rect x="374.9" y="395.1" width="3.1" height="1.6" rx="0.8" transform="rotate(149 376.4 395.9)" fill="rgba(255,255,255,.30)"/><rect x="178.8" y="173.3" width="4.0" height="2.0" rx="1.0" transform="rotate(4 180.8 174.3)" fill="rgba(255,255,255,.30)"/><rect x="399.3" y="191.1" width="4.4" height="2.2" rx="1.1" transform="rotate(79 401.6 192.2)" fill="rgba(255,255,255,.30)"/><rect x="135.9" y="119.8" width="4.7" height="2.4" rx="1.2" transform="rotate(114 138.2 121.0)" fill="rgba(255,255,255,.30)"/><rect x="259.4" y="425.5" width="3.4" height="1.7" rx="0.9" transform="rotate(165 261.1 426.4)" fill="rgba(255,255,255,.30)"/><rect x="241.1" y="383.6" width="5.2" height="2.6" rx="1.3" transform="rotate(21 243.7 384.9)" fill="rgba(255,255,255,.30)"/><rect x="190.0" y="368.5" width="3.1" height="1.5" rx="0.8" transform="rotate(75 191.5 369.3)" fill="rgba(255,255,255,.30)"/><rect x="325.0" y="245.6" width="4.8" height="2.4" rx="1.2" transform="rotate(0 327.4 246.8)" fill="rgba(255,255,255,.30)"/><rect x="397.0" y="246.0" width="4.4" height="2.2" rx="1.1" transform="rotate(174 399.2 247.1)" fill="rgba(255,255,255,.30)"/><rect x="135.4" y="385.5" width="4.0" height="2.0" rx="1.0" transform="rotate(46 137.5 386.6)" fill="rgba(255,255,255,.30)"/><rect x="291.0" y="191.9" width="4.8" height="2.4" rx="1.2" transform="rotate(2 293.4 193.1)" fill="rgba(255,255,255,.30)"/><rect x="431.1" y="192.7" width="4.6" height="2.3" rx="1.2" transform="rotate(106 433.4 193.9)" fill="rgba(255,255,255,.30)"/><rect x="137.3" y="240.6" width="4.9" height="2.5" rx="1.2" transform="rotate(131 139.8 241.9)" fill="rgba(255,255,255,.30)"/><rect x="93.1" y="361.7" width="3.5" height="1.7" rx="0.9" transform="rotate(157 94.8 362.5)" fill="rgba(255,255,255,.30)"/><rect x="274.7" y="125.4" width="2.8" height="1.4" rx="0.7" transform="rotate(120 276.1 126.1)" fill="rgba(255,255,255,.30)"/><rect x="302.5" y="405.0" width="4.6" height="2.3" rx="1.1" transform="rotate(71 304.8 406.2)" fill="rgba(255,255,255,.30)"/><rect x="404.8" y="370.9" width="5.2" height="2.6" rx="1.3" transform="rotate(113 407.4 372.2)" fill="rgba(255,255,255,.30)"/><rect x="386.8" y="270.1" width="4.5" height="2.2" rx="1.1" transform="rotate(145 389.0 271.2)" fill="rgba(255,255,255,.30)"/><rect x="332.2" y="335.7" width="4.8" height="2.4" rx="1.2" transform="rotate(68 334.7 336.9)" fill="rgba(255,255,255,.30)"/><rect x="240.3" y="340.3" width="4.1" height="2.0" rx="1.0" transform="rotate(33 242.4 341.3)" fill="rgba(255,255,255,.30)"/><rect x="317.6" y="290.3" width="4.6" height="2.3" rx="1.1" transform="rotate(127 319.9 291.4)" fill="rgba(255,255,255,.30)"/><rect x="300.9" y="413.5" width="3.9" height="2.0" rx="1.0" transform="rotate(123 302.8 414.5)" fill="rgba(255,255,255,.30)"/><rect x="154.1" y="168.2" width="4.0" height="2.0" rx="1.0" transform="rotate(168 156.1 169.2)" fill="rgba(255,255,255,.30)"/><rect x="71.9" y="307.3" width="4.8" height="2.4" rx="1.2" transform="rotate(163 74.3 308.5)" fill="rgba(255,255,255,.30)"/><rect x="346.5" y="111.0" width="3.4" height="1.7" rx="0.8" transform="rotate(176 348.2 111.9)" fill="rgba(255,255,255,.30)"/><rect x="176.8" y="374.0" width="3.3" height="1.6" rx="0.8" transform="rotate(115 178.4 374.8)" fill="rgba(255,255,255,.30)"/><rect x="392.6" y="274.6" width="3.4" height="1.7" rx="0.9" transform="rotate(84 394.3 275.4)" fill="rgba(255,255,255,.30)"/><rect x="144.6" y="399.2" width="5.2" height="2.6" rx="1.3" transform="rotate(142 147.2 400.5)" fill="rgba(255,255,255,.30)"/><rect x="130.8" y="226.6" width="4.6" height="2.3" rx="1.1" transform="rotate(58 133.1 227.8)" fill="rgba(255,255,255,.30)"/><rect x="283.9" y="189.4" width="3.2" height="1.6" rx="0.8" transform="rotate(157 285.5 190.2)" fill="rgba(255,255,255,.30)"/><rect x="180.1" y="430.7" width="2.9" height="1.5" rx="0.7" transform="rotate(164 181.6 431.4)" fill="rgba(255,255,255,.30)"/><rect x="242.6" y="275.2" width="3.8" height="1.9" rx="0.9" transform="rotate(57 244.5 276.1)" fill="rgba(255,255,255,.30)"/><rect x="361.3" y="305.6" width="5.1" height="2.6" rx="1.3" transform="rotate(63 363.9 306.9)" fill="rgba(255,255,255,.30)"/><rect x="251.0" y="172.1" width="3.0" height="1.5" rx="0.7" transform="rotate(97 252.5 172.8)" fill="rgba(255,255,255,.30)"/><rect x="306.5" y="176.5" width="3.3" height="1.7" rx="0.8" transform="rotate(72 308.1 177.3)" fill="rgba(255,255,255,.30)"/><rect x="182.8" y="330.7" width="3.5" height="1.7" rx="0.9" transform="rotate(120 184.6 331.5)" fill="rgba(255,255,255,.30)"/><rect x="93.1" y="255.5" width="4.5" height="2.3" rx="1.1" transform="rotate(118 95.4 256.6)" fill="rgba(255,255,255,.30)"/><rect x="313.3" y="417.5" width="3.8" height="1.9" rx="1.0" transform="rotate(141 315.2 418.5)" fill="rgba(255,255,255,.30)"/><rect x="132.7" y="176.1" width="3.7" height="1.8" rx="0.9" transform="rotate(100 134.6 177.0)" fill="rgba(255,255,255,.30)"/><rect x="112.8" y="315.2" width="3.4" height="1.7" rx="0.8" transform="rotate(140 114.5 316.1)" fill="rgba(255,255,255,.30)"/><rect x="169.5" y="96.3" width="2.9" height="1.4" rx="0.7" transform="rotate(176 170.9 97.0)" fill="rgba(255,255,255,.30)"/><rect x="85.6" y="247.1" width="3.8" height="1.9" rx="0.9" transform="rotate(80 87.5 248.0)" fill="rgba(255,255,255,.30)"/><rect x="219.3" y="97.1" width="5.2" height="2.6" rx="1.3" transform="rotate(61 221.9 98.4)" fill="rgba(255,255,255,.30)"/><rect x="432.5" y="336.2" width="3.5" height="1.7" rx="0.9" transform="rotate(81 434.2 337.1)" fill="rgba(255,255,255,.30)"/><rect x="117.1" y="201.1" width="3.6" height="1.8" rx="0.9" transform="rotate(48 118.9 202.0)" fill="rgba(255,255,255,.30)"/><rect x="213.3" y="339.9" width="5.1" height="2.6" rx="1.3" transform="rotate(139 215.9 341.2)" fill="rgba(255,255,255,.30)"/><rect x="292.7" y="380.7" width="3.5" height="1.8" rx="0.9" transform="rotate(152 294.5 381.5)" fill="rgba(255,255,255,.30)"/><rect x="251.0" y="204.5" width="3.6" height="1.8" rx="0.9" transform="rotate(17 252.8 205.4)" fill="rgba(255,255,255,.30)"/><rect x="142.7" y="263.0" width="3.4" height="1.7" rx="0.9" transform="rotate(124 144.4 263.8)" fill="rgba(255,255,255,.30)"/><rect x="172.5" y="384.1" width="5.2" height="2.6" rx="1.3" transform="rotate(0 175.1 385.4)" fill="rgba(255,255,255,.30)"/><rect x="213.8" y="74.5" width="4.3" height="2.2" rx="1.1" transform="rotate(59 215.9 75.6)" fill="rgba(255,255,255,.30)"/><rect x="210.5" y="244.4" width="3.6" height="1.8" rx="0.9" transform="rotate(152 212.3 245.3)" fill="rgba(255,255,255,.30)"/><rect x="188.8" y="323.5" width="3.7" height="1.8" rx="0.9" transform="rotate(50 190.6 324.4)" fill="rgba(255,255,255,.30)"/><rect x="130.2" y="263.1" width="3.0" height="1.5" rx="0.8" transform="rotate(140 131.7 263.9)" fill="rgba(255,255,255,.30)"/><rect x="332.8" y="260.8" width="4.0" height="2.0" rx="1.0" transform="rotate(87 334.8 261.8)" fill="rgba(255,255,255,.30)"/><rect x="193.1" y="308.7" width="3.0" height="1.5" rx="0.7" transform="rotate(120 194.5 309.4)" fill="rgba(255,255,255,.30)"/><rect x="143.8" y="244.6" width="4.5" height="2.2" rx="1.1" transform="rotate(11 146.0 245.8)" fill="rgba(255,255,255,.30)"/><rect x="101.1" y="357.4" width="4.1" height="2.0" rx="1.0" transform="rotate(134 103.1 358.5)" fill="rgba(255,255,255,.30)"/><rect x="387.5" y="334.7" width="3.2" height="1.6" rx="0.8" transform="rotate(150 389.1 335.5)" fill="rgba(255,255,255,.30)"/><rect x="356.8" y="196.7" width="2.9" height="1.5" rx="0.7" transform="rotate(150 358.3 197.4)" fill="rgba(255,255,255,.30)"/><rect x="240.5" y="212.2" width="3.7" height="1.9" rx="0.9" transform="rotate(178 242.4 213.2)" fill="rgba(255,255,255,.30)"/><rect x="123.2" y="324.4" width="5.0" height="2.5" rx="1.3" transform="rotate(38 125.8 325.7)" fill="rgba(255,255,255,.30)"/><rect x="170.5" y="301.2" width="3.3" height="1.6" rx="0.8" transform="rotate(153 172.2 302.0)" fill="rgba(255,255,255,.30)"/><rect x="313.8" y="403.9" width="4.5" height="2.2" rx="1.1" transform="rotate(10 316.0 405.0)" fill="rgba(255,255,255,.30)"/><rect x="294.8" y="241.7" width="4.3" height="2.1" rx="1.1" transform="rotate(65 296.9 242.7)" fill="rgba(255,255,255,.30)"/><rect x="275.3" y="195.2" width="4.0" height="2.0" rx="1.0" transform="rotate(160 277.3 196.2)" fill="rgba(255,255,255,.30)"/><rect x="251.3" y="196.9" width="4.4" height="2.2" rx="1.1" transform="rotate(8 253.5 197.9)" fill="rgba(255,255,255,.30)"/><rect x="429.2" y="325.1" width="4.2" height="2.1" rx="1.0" transform="rotate(57 431.3 326.2)" fill="rgba(255,255,255,.30)"/><rect x="115.2" y="243.3" width="3.3" height="1.7" rx="0.8" transform="rotate(140 116.9 244.2)" fill="rgba(255,255,255,.30)"/><rect x="420.1" y="283.3" width="5.0" height="2.5" rx="1.3" transform="rotate(26 422.6 284.6)" fill="rgba(255,255,255,.30)"/><rect x="137.8" y="218.7" width="4.1" height="2.1" rx="1.0" transform="rotate(154 139.9 219.7)" fill="rgba(255,255,255,.30)"/><rect x="161.4" y="311.2" width="4.1" height="2.0" rx="1.0" transform="rotate(92 163.5 312.2)" fill="rgba(255,255,255,.30)"/><rect x="147.6" y="355.1" width="3.0" height="1.5" rx="0.8" transform="rotate(61 149.1 355.9)" fill="rgba(255,255,255,.30)"/><rect x="129.1" y="250.1" width="3.4" height="1.7" rx="0.8" transform="rotate(114 130.8 250.9)" fill="rgba(255,255,255,.30)"/><rect x="428.2" y="272.6" width="4.3" height="2.1" rx="1.1" transform="rotate(100 430.4 273.7)" fill="rgba(255,255,255,.30)"/><rect x="329.4" y="337.3" width="3.3" height="1.7" rx="0.8" transform="rotate(29 331.0 338.1)" fill="rgba(255,255,255,.30)"/><rect x="353.0" y="98.6" width="2.9" height="1.4" rx="0.7" transform="rotate(90 354.4 99.3)" fill="rgba(255,255,255,.30)"/><rect x="121.4" y="186.9" width="4.6" height="2.3" rx="1.2" transform="rotate(33 123.7 188.0)" fill="rgba(255,255,255,.30)"/><rect x="416.5" y="231.1" width="4.0" height="2.0" rx="1.0" transform="rotate(161 418.5 232.1)" fill="rgba(255,255,255,.30)"/><rect x="280.2" y="252.7" width="4.8" height="2.4" rx="1.2" transform="rotate(114 282.6 254.0)" fill="rgba(255,255,255,.30)"/><rect x="358.4" y="134.1" width="4.1" height="2.0" rx="1.0" transform="rotate(110 360.4 135.1)" fill="rgba(255,255,255,.30)"/><rect x="176.1" y="99.0" width="4.6" height="2.3" rx="1.1" transform="rotate(83 178.4 100.2)" fill="rgba(255,255,255,.30)"/><rect x="206.7" y="179.1" width="4.3" height="2.2" rx="1.1" transform="rotate(18 208.9 180.2)" fill="rgba(255,255,255,.30)"/><rect x="451.6" y="245.7" width="2.8" height="1.4" rx="0.7" transform="rotate(158 453.0 246.4)" fill="rgba(255,255,255,.30)"/><rect x="329.8" y="169.0" width="4.7" height="2.3" rx="1.2" transform="rotate(17 332.2 170.2)" fill="rgba(255,255,255,.30)"/><rect x="368.9" y="320.2" width="3.8" height="1.9" rx="1.0" transform="rotate(68 370.8 321.1)" fill="rgba(255,255,255,.30)"/><rect x="393.9" y="303.2" width="2.9" height="1.4" rx="0.7" transform="rotate(102 395.3 303.9)" fill="rgba(255,255,255,.30)"/><rect x="259.2" y="425.9" width="4.5" height="2.2" rx="1.1" transform="rotate(23 261.5 427.0)" fill="rgba(255,255,255,.30)"/><rect x="207.6" y="343.5" width="4.2" height="2.1" rx="1.1" transform="rotate(9 209.8 344.6)" fill="rgba(255,255,255,.30)"/><rect x="170.2" y="90.1" width="4.5" height="2.3" rx="1.1" transform="rotate(21 172.4 91.3)" fill="rgba(255,255,255,.30)"/><rect x="108.6" y="367.5" width="5.2" height="2.6" rx="1.3" transform="rotate(102 111.2 368.8)" fill="rgba(255,255,255,.30)"/><rect x="431.9" y="266.3" width="3.0" height="1.5" rx="0.8" transform="rotate(168 433.4 267.0)" fill="rgba(255,255,255,.30)"/><rect x="171.2" y="222.3" width="5.1" height="2.5" rx="1.3" transform="rotate(113 173.7 223.6)" fill="rgba(255,255,255,.30)"/><rect x="318.5" y="320.7" width="4.1" height="2.0" rx="1.0" transform="rotate(171 320.5 321.8)" fill="rgba(255,255,255,.30)"/><rect x="400.3" y="193.7" width="4.8" height="2.4" rx="1.2" transform="rotate(8 402.7 194.9)" fill="rgba(255,255,255,.30)"/><rect x="229.3" y="295.4" width="3.3" height="1.6" rx="0.8" transform="rotate(97 230.9 296.2)" fill="rgba(255,255,255,.30)"/><rect x="316.4" y="249.3" width="3.6" height="1.8" rx="0.9" transform="rotate(65 318.2 250.2)" fill="rgba(255,255,255,.30)"/><rect x="417.8" y="242.1" width="3.5" height="1.7" rx="0.9" transform="rotate(17 419.6 242.9)" fill="rgba(255,255,255,.30)"/><rect x="195.6" y="186.9" width="4.7" height="2.3" rx="1.2" transform="rotate(16 198.0 188.1)" fill="rgba(255,255,255,.30)"/><rect x="138.5" y="176.9" width="3.8" height="1.9" rx="1.0" transform="rotate(83 140.4 177.9)" fill="rgba(255,255,255,.30)"/><rect x="262.9" y="168.2" width="3.0" height="1.5" rx="0.8" transform="rotate(174 264.5 169.0)" fill="rgba(255,255,255,.30)"/><rect x="241.7" y="421.0" width="3.7" height="1.8" rx="0.9" transform="rotate(54 243.5 421.9)" fill="rgba(255,255,255,.30)"/><rect x="191.1" y="356.1" width="4.9" height="2.4" rx="1.2" transform="rotate(172 193.6 357.3)" fill="rgba(255,255,255,.30)"/><rect x="445.5" y="234.7" width="3.9" height="1.9" rx="1.0" transform="rotate(117 447.4 235.7)" fill="rgba(255,255,255,.30)"/><rect x="239.1" y="436.2" width="4.9" height="2.4" rx="1.2" transform="rotate(169 241.5 437.4)" fill="rgba(255,255,255,.30)"/><rect x="192.1" y="371.7" width="4.3" height="2.2" rx="1.1" transform="rotate(133 194.3 372.8)" fill="rgba(255,255,255,.30)"/><rect x="257.0" y="172.6" width="4.5" height="2.3" rx="1.1" transform="rotate(15 259.3 173.7)" fill="rgba(255,255,255,.30)"/></g><g><g transform="translate(207.7 230.7) rotate(-9) scale(1.00)"><path d="M0 -22 C 16 -22 20 0 12 16 C 6 26 -6 26 -12 16 C -20 0 -16 -22 0 -22 Z" fill="#7FB069"/><path d="M0 -16 C 11 -16 14 0 8 12 C 4 19 -4 19 -8 12 C -14 0 -11 -16 0 -16 Z" fill="#A7CE8B"/><ellipse cx="0" cy="-1" rx="5.5" ry="6.5" fill="#C9B27E"/></g><g transform="translate(248.1 312.4) rotate(103) scale(1.20)"><path d="M0 0 C 10 -18 26 -18 30 0 C 26 18 10 18 0 0 Z" fill="#57A65A"/><path d="M4 0 L 27 0" stroke="rgba(0,0,0,.10)" stroke-width="1.4" fill="none"/></g><g transform="translate(361.9 223.6) rotate(10) scale(1.00)"><rect x="-16" y="-11" width="32" height="22" rx="7" fill="#D79A5B"/><rect x="-16" y="-11" width="32" height="22" rx="7" fill="none" stroke="#A9713A" stroke-width="2" opacity=".6"/><path d="M-10 0 H10 M-8 -5 H8 M-8 5 H8" stroke="#A9713A" stroke-width="1.4" opacity=".45"/></g><g transform="translate(283.8 231.3)"><circle cx="-7.4" cy="10.0" r="2.1" fill="#3B2F1E"/><circle cx="-8.9" cy="9.5" r="1.7" fill="#3B2F1E"/><circle cx="-5.0" cy="6.5" r="2.1" fill="#3B2F1E"/><circle cx="-10.0" cy="-7.3" r="1.5" fill="#3B2F1E"/><circle cx="-3.7" cy="-0.6" r="1.9" fill="#3B2F1E"/><circle cx="3.0" cy="10.7" r="1.7" fill="#3B2F1E"/><circle cx="-5.9" cy="7.1" r="2.2" fill="#3B2F1E"/><circle cx="-0.0" cy="3.8" r="2.2" fill="#3B2F1E"/><circle cx="-4.9" cy="6.4" r="1.9" fill="#3B2F1E"/></g><g transform="translate(197.0 318.4) rotate(181) scale(1.20)"><path d="M0 0 C 10 -18 26 -18 30 0 C 26 18 10 18 0 0 Z" fill="#3E8E41"/><path d="M4 0 L 27 0" stroke="rgba(0,0,0,.10)" stroke-width="1.4" fill="none"/></g><g transform="translate(260.6 246.7)"><circle cx="-0.4" cy="2.6" r="2.2" fill="#3B2F1E"/><circle cx="-0.3" cy="-5.7" r="1.6" fill="#3B2F1E"/><circle cx="9.6" cy="3.3" r="2.1" fill="#3B2F1E"/><circle cx="-2.9" cy="4.4" r="2.1" fill="#3B2F1E"/><circle cx="-8.3" cy="6.8" r="2.1" fill="#3B2F1E"/><circle cx="10.2" cy="-8.0" r="1.5" fill="#3B2F1E"/><circle cx="9.2" cy="-2.0" r="1.6" fill="#3B2F1E"/><circle cx="3.4" cy="-3.8" r="1.6" fill="#3B2F1E"/><circle cx="-2.4" cy="-6.3" r="2.1" fill="#3B2F1E"/></g><g transform="translate(250.3 397.7) rotate(94) scale(1.20)"><path d="M0 0 C 10 -18 26 -18 30 0 C 26 18 10 18 0 0 Z" fill="#57A65A"/><path d="M4 0 L 27 0" stroke="rgba(0,0,0,.10)" stroke-width="1.4" fill="none"/></g><g transform="translate(152.2 149.8) rotate(18) scale(1.00)"><path d="M0 -22 C 16 -22 20 0 12 16 C 6 26 -6 26 -12 16 C -20 0 -16 -22 0 -22 Z" fill="#7FB069"/><path d="M0 -16 C 11 -16 14 0 8 12 C 4 19 -4 19 -8 12 C -14 0 -11 -16 0 -16 Z" fill="#A7CE8B"/><ellipse cx="0" cy="-1" rx="5.5" ry="6.5" fill="#C9B27E"/></g><g transform="translate(227.9 207.2)"><circle cx="10.7" cy="8.0" r="1.8" fill="#3B2F1E"/><circle cx="8.1" cy="-9.9" r="1.9" fill="#3B2F1E"/><circle cx="8.7" cy="-0.4" r="1.8" fill="#3B2F1E"/><circle cx="0.7" cy="-9.3" r="1.8" fill="#3B2F1E"/><circle cx="-5.9" cy="-0.8" r="1.9" fill="#3B2F1E"/><circle cx="-2.3" cy="1.0" r="1.8" fill="#3B2F1E"/><circle cx="9.4" cy="9.5" r="1.9" fill="#3B2F1E"/><circle cx="-1.1" cy="-9.6" r="2.2" fill="#3B2F1E"/><circle cx="-8.9" cy="6.0" r="1.8" fill="#3B2F1E"/></g><g transform="translate(294.3 297.3) scale(1.00)"><circle r="12" fill="#E4572E"/><circle r="12" fill="url(#tomGloss)"/><ellipse cx="-3.5" cy="-4.5" rx="3.2" ry="2" fill="#fff" opacity=".55"/></g><g transform="translate(180.3 270.8) rotate(33) scale(1.00)"><circle r="13" fill="#BFE3A8"/><circle r="13" fill="none" stroke="#6FA84A" stroke-width="2.5"/><circle r="6" fill="#D8F0C4"/></g><g transform="translate(187.8 325.8) rotate(38) scale(1.00)"><circle r="13" fill="#BFE3A8"/><circle r="13" fill="none" stroke="#6FA84A" stroke-width="2.5"/><circle r="6" fill="#D8F0C4"/></g><g transform="translate(269.3 387.5) rotate(273) scale(1.20)"><path d="M0 0 C 10 -18 26 -18 30 0 C 26 18 10 18 0 0 Z" fill="#2F7D3A"/><path d="M4 0 L 27 0" stroke="rgba(0,0,0,.10)" stroke-width="1.4" fill="none"/></g><g transform="translate(269.0 340.8) scale(1.00)"><circle r="12" fill="#E4572E"/><circle r="12" fill="url(#tomGloss)"/><ellipse cx="-3.5" cy="-4.5" rx="3.2" ry="2" fill="#fff" opacity=".55"/></g><g transform="translate(284.3 322.3) scale(1.00)"><circle r="12" fill="#E4572E"/><circle r="12" fill="url(#tomGloss)"/><ellipse cx="-3.5" cy="-4.5" rx="3.2" ry="2" fill="#fff" opacity=".55"/></g><g transform="translate(338.5 314.1) scale(1.00)"><circle r="12" fill="#E4572E"/><circle r="12" fill="url(#tomGloss)"/><ellipse cx="-3.5" cy="-4.5" rx="3.2" ry="2" fill="#fff" opacity=".55"/></g><g transform="translate(315.5 198.4) rotate(28) scale(1.00)"><rect x="-16" y="-11" width="32" height="22" rx="7" fill="#D79A5B"/><rect x="-16" y="-11" width="32" height="22" rx="7" fill="none" stroke="#A9713A" stroke-width="2" opacity=".6"/><path d="M-10 0 H10 M-8 -5 H8 M-8 5 H8" stroke="#A9713A" stroke-width="1.4" opacity=".45"/></g><g transform="translate(145.7 203.7) rotate(-2) scale(1.00)"><path d="M0 -22 C 16 -22 20 0 12 16 C 6 26 -6 26 -12 16 C -20 0 -16 -22 0 -22 Z" fill="#7FB069"/><path d="M0 -16 C 11 -16 14 0 8 12 C 4 19 -4 19 -8 12 C -14 0 -11 -16 0 -16 Z" fill="#A7CE8B"/><ellipse cx="0" cy="-1" rx="5.5" ry="6.5" fill="#C9B27E"/></g><g transform="translate(227.6 170.6) rotate(37) scale(1.00)"><path d="M0 -22 C 16 -22 20 0 12 16 C 6 26 -6 26 -12 16 C -20 0 -16 -22 0 -22 Z" fill="#7FB069"/><path d="M0 -16 C 11 -16 14 0 8 12 C 4 19 -4 19 -8 12 C -14 0 -11 -16 0 -16 Z" fill="#A7CE8B"/><ellipse cx="0" cy="-1" rx="5.5" ry="6.5" fill="#C9B27E"/></g><g transform="translate(209.6 298.0) rotate(138) scale(1.20)"><path d="M0 0 C 10 -18 26 -18 30 0 C 26 18 10 18 0 0 Z" fill="#57A65A"/><path d="M4 0 L 27 0" stroke="rgba(0,0,0,.10)" stroke-width="1.4" fill="none"/></g><g transform="translate(126.9 314.0) rotate(56) scale(1.00)"><circle r="13" fill="#BFE3A8"/><circle r="13" fill="none" stroke="#6FA84A" stroke-width="2.5"/><circle r="6" fill="#D8F0C4"/></g><g transform="translate(347.2 251.0) rotate(-26) scale(1.00)"><rect x="-16" y="-11" width="32" height="22" rx="7" fill="#D79A5B"/><rect x="-16" y="-11" width="32" height="22" rx="7" fill="none" stroke="#A9713A" stroke-width="2" opacity=".6"/><path d="M-10 0 H10 M-8 -5 H8 M-8 5 H8" stroke="#A9713A" stroke-width="1.4" opacity=".45"/></g><g transform="translate(403.2 239.8) rotate(-19) scale(1.00)"><rect x="-16" y="-11" width="32" height="22" rx="7" fill="#D79A5B"/><rect x="-16" y="-11" width="32" height="22" rx="7" fill="none" stroke="#A9713A" stroke-width="2" opacity=".6"/><path d="M-10 0 H10 M-8 -5 H8 M-8 5 H8" stroke="#A9713A" stroke-width="1.4" opacity=".45"/></g><g transform="translate(165.6 300.1) rotate(9) scale(1.00)"><circle r="13" fill="#BFE3A8"/><circle r="13" fill="none" stroke="#6FA84A" stroke-width="2.5"/><circle r="6" fill="#D8F0C4"/></g><g transform="translate(208.6 389.7) rotate(181) scale(1.20)"><path d="M0 0 C 10 -18 26 -18 30 0 C 26 18 10 18 0 0 Z" fill="#2F7D3A"/><path d="M4 0 L 27 0" stroke="rgba(0,0,0,.10)" stroke-width="1.4" fill="none"/></g></g><path d="M 110 140 A 200 200 0 0 1 380 100" fill="none" stroke="rgba(255,255,255,.5)" stroke-width="10" stroke-linecap="round" opacity=".5"/></svg>