<svg xmlns="http://www.w3.org/2000/svg" viewBox="0 0 520 520" role="img" aria-label="Bowl saludable ilustrado"><defs><radialGradient id="tomGloss" cx="35%" cy="30%" r="75%"><stop offset="0%" stop-color="#ff8b5e"/><stop offset="55%" stop-color="#E4572E" stop-opacity="0"/></radialGradient><radialGradient id="baseg_gal-1" cx="42%" cy="38%" r="70%"><stop offset="0%" stop-color="#F8F1DC"/><stop offset="100%" stop-color="#F0E6CC"/></radialGradient><radialGradient id="shadow" cx="50%" cy="50%" r="50%"><stop offset="60%" stop-color="rgba(20,48,31,.16)"/><stop offset="100%" stop-color="rgba(20,48,31,0)"/></radialGradient></defs><ellipse cx="260" cy="278" rx="238" ry="230" fill="url(#shadow)"/><circle cx="260" cy="260" r="232" fill="#E1EAD6"/><circle cx="260" cy="260" r="218" fill="#fff" opacity=".55"/><circle cx="260" cy="260" r="204" fill="url(#baseg_gal-1)"/><g><rect x="355.3" y="365.6" width="4.9" height="2.5" rx="1.2" transform="rotate(26 357.7 366.8)" fill="rgba(255,255,255,.30)"/><rect x="350.9" y="119.5" width="4.7" height="2.4" rx="1.2" transform="rotate(143 353.3 120.7)" fill="rgba(255,255,255,.30)"/><rect x="74.1" y="211.7" width="4.5" height="2.3" rx="1.1" transform="rotate(15 76.3 212.9)" fill="rgba(255,255,255,.30)"/><rect x="285.1" y="224.7" width="5.0" height="2.5" rx="1.3" transform="rotate(26 287.6 226.0)" fill="rgba(255,255,255,.30)"/><rect x="398.9" y="394.5" width="4.7" height="2.4" rx="1.2" transform="rotate(100 401.3 395.7)" fill="rgba(255,255,255,.30)"/><rect x="267.1" y="375.1" width="3.1" height="1.6" rx="0.8" transform="rotate(110 268.6 375.9)" fill="rgba(255,255,255,.30)"/><rect x="147.6" y="244.3" width="4.2" height="2.1" rx="1.0" transform="rotate(174 149.7 245.3)" fill="rgba(255,255,255,.30)"/><rect x="444.6" y="280.6" width="5.0" height="2.5" rx="1.3" transform="rotate(87 447.1 281.9)" fill="rgba(255,255,255,.30)"/><rect x="270.9" y="142.9" width="3.0" height="1.5" rx="0.7" transform="rotate(49 272.4 143.6)" fill="rgba(255,255,255,.30)"/><rect x="422.8" y="210.4" width="4.4" height="2.2" rx="1.1" transform="rotate(163 425.0 211.5)" fill="rgba(255,255,255,.30)"/><rect x="301.0" y="200.2" width="4.3" height="2.1" rx="1.1" transform="rotate(148 303.2 201.2)" fill="rgba(255,255,255,.30)"/><rect x="347.0" y="362.2" width="3.2" height="1.6" rx="0.8" transform="rotate(48 348.6 363.0)" fill="rgba(255,255,255,.30)"/><rect x="337.2" y="369.6" width="5.0" height="2.5" rx="1.2" transform="rotate(88 339.7 370.8)" fill="rgba(255,255,255,.30)"/><rect x="84.1" y="312.4" width="4.9" height="2.4" rx="1.2" transform="rotate(140 86.5 313.6)" fill="rgba(255,255,255,.30)"/><rect x="167.5" y="118.0" width="3.1" height="1.5" rx="0.8" transform="rotate(29 169.0 118.7)" fill="rgba(255,255,255,.30)"/><rect x="177.9" y="390.4" width="3.9" height="1.9" rx="1.0" transform="rotate(120 179.8 391.4)" fill="rgba(255,255,255,.30)"/><rect x="282.1" y="191.1" width="4.1" height="2.0" rx="1.0" transform="rotate(176 284.2 192.1)" fill="rgba(255,255,255,.30)"/><rect x="270.2" y="230.7" width="3.1" height="1.5" rx="0.8" transform="rotate(177 271.7 231.5)" fill="rgba(255,255,255,.30)"/><rect x="66.4" y="225.8" width="4.6" height="2.3" rx="1.2" transform="rotate(85 68.7 227.0)" fill="rgba(255,255,255,.30)"/><rect x="379.3" y="359.3" width="3.4" height="1.7" rx="0.8" transform="rotate(132 381.0 360.1)" fill="rgba(255,255,255,.30)"/><rect x="227.7" y="176.4" width="4.9" height="2.4" rx="1.2" transform="rotate(134 230.1 177.6)" fill="rgba(255,255,255,.30)"/><rect x="122.1" y="252.3" width="5.2" height="2.6" rx="1.3" transform="rotate(57 124.7 253.6)" fill="rgba(255,255,255,.30)"/><rect x="318.0" y="408.8" width="4.9" height="2.5" rx="1.2" transform="rotate(82 320.5 410.1)" fill="rgba(255,255,255,.30)"/><rect x="286.0" y="251.1" width="4.3" height="2.2" rx="1.1" transform="rotate(115 288.2 252.2)" fill="rgba(255,255,255,.30)"/><rect x="272.7" y="81.9" width="4.0" height="2.0" rx="1.0" transform="rotate(155 274.7 82.9)" fill="rgba(255,255,255,.30)"/><rect x="257.3" y="230.4" width="2.9" height="1.4" rx="0.7" transform="rotate(106 258.7 231.1)" fill="rgba(255,255,255,.30)"/><rect x="432.0" y="290.8" width="4.3" height="2.2" rx="1.1" transform="rotate(63 434.2 291.9)" fill="rgba(255,255,255,.30)"/><rect x="227.7" y="271.1" width="4.6" height="2.3" rx="1.1" transform="rotate(24 230.0 272.3)" fill="rgba(255,255,255,.30)"/><rect x="223.3" y="392.3" width="4.1" height="2.1" rx="1.0" transform="rotate(92 225.4 393.4)" fill="rgba(255,255,255,.30)"/><rect x="264.3" y="88.0" width="5.1" height="2.6" rx="1.3" transform="rotate(15 266.8 89.3)" fill="rgba(255,255,255,.30)"/><rect x="233.9" y="92.2" width="3.5" height="1.7" rx="0.9" transform="rotate(156 235.7 93.1)" fill="rgba(255,255,255,.30)"/><rect x="197.5" y="271.4" width="3.7" height="1.8" rx="0.9" transform="rotate(29 199.4 272.3)" fill="rgba(255,255,255,.30)"/><rect x="426.9" y="312.2" width="3.6" height="1.8" rx="0.9" transform="rotate(58 428.7 313.1)" fill="rgba(255,255,255,.30)"/><rect x="250.8" y="117.2" width="4.2" height="2.1" rx="1.1" transform="rotate(115 252.9 118.2)" fill="rgba(255,255,255,.30)"/><rect x="394.1" y="212.8" width="3.8" height="1.9" rx="1.0" transform="rotate(134 396.0 213.7)" fill="rgba(255,255,255,.30)"/><rect x="303.5" y="282.5" width="5.0" height="2.5" rx="1.2" transform="rotate(158 306.0 283.8)" fill="rgba(255,255,255,.30)"/><rect x="294.0" y="400.9" width="3.7" height="1.9" rx="0.9" transform="rotate(37 295.8 401.8)" fill="rgba(255,255,255,.30)"/><rect x="94.6" y="178.8" width="3.0" height="1.5" rx="0.7" transform="rotate(13 96.1 179.5)" fill="rgba(255,255,255,.30)"/><rect x="230.4" y="311.2" width="4.1" height="2.1" rx="1.0" transform="rotate(77 232.4 312.3)" fill="rgba(255,255,255,.30)"/><rect x="101.7" y="236.3" width="3.4" height="1.7" rx="0.9" transform="rotate(104 103.4 237.1)" fill="rgba(255,255,255,.30)"/><rect x="339.2" y="137.9" width="4.5" height="2.3" rx="1.1" transform="rotate(84 341.5 139.0)" fill="rgba(255,255,255,.30)"/><rect x="391.0" y="260.1" width="4.4" height="2.2" rx="1.1" transform="rotate(138 393.2 261.2)" fill="rgba(255,255,255,.30)"/><rect x="361.3" y="329.2" width="3.4" height="1.7" rx="0.9" transform="rotate(65 363.0 330.1)" fill="rgba(255,255,255,.30)"/><rect x="232.5" y="395.3" width="4.0" height="2.0" rx="1.0" transform="rotate(133 234.5 396.3)" fill="rgba(255,255,255,.30)"/><rect x="389.7" y="322.2" width="2.9" height="1.5" rx="0.7" transform="rotate(32 391.1 322.9)" fill="rgba(255,255,255,.30)"/><rect x="80.5" y="276.1" width="4.5" height="2.2" rx="1.1" transform="rotate(124 82.8 277.2)" fill="rgba(255,255,255,.30)"/><rect x="389.9" y="329.9" width="3.5" height="1.8" rx="0.9" transform="rotate(161 391.7 330.7)" fill="rgba(255,255,255,.30)"/><rect x="244.1" y="384.6" width="3.0" height="1.5" rx="0.8" transform="rotate(50 245.6 385.3)" fill="rgba(255,255,255,.30)"/><rect x="203.8" y="202.5" width="3.4" height="1.7" rx="0.8" transform="rotate(44 205.5 203.4)" fill="rgba(255,255,255,.30)"/><rect x="377.8" y="407.1" width="3.9" height="2.0" rx="1.0" transform="rotate(83 379.8 408.1)" fill="rgba(255,255,255,.30)"/><rect x="127.9" y="161.9" width="3.5" height="1.7" rx="0.9" transform="rotate(164 129.7 162.7)" fill="rgba(255,255,255,.30)"/><rect x="74.6" y="239.3" width="3.5" height="1.7" rx="0.9" transform="rotate(135 76.3 240.1)" fill="rgba(255,255,255,.30)"/><rect x="402.0" y="304.7" width="5.1" height="2.5" rx="1.3" transform="rotate(175 404.6 305.9)" fill="rgba(255,255,255,.30)"/><rect x="171.7" y="263.0" width="3.3" height="1.7" rx="0.8" transform="rotate(52 173.3 263.8)" fill="rgba(255,255,255,.30)"/><rect x="216.5" y="143.6" width="5.0" height="2.5" rx="1.2" transform="rotate(179 219.0 144.9)" fill="rgba(255,255,255,.30)"/><rect x="332.5" y="79.6" width="4.2" height="2.1" rx="1.1" transform="rotate(100 334.6 80.6)" fill="rgba(255,255,255,.30)"/><rect x="132.8" y="136.0" width="4.0" height="2.0" rx="1.0" transform="rotate(143 134.8 137.0)" fill="rgba(255,255,255,.30)"/><rect x="377.4" y="305.8" width="4.3" height="2.2" rx="1.1" transform="rotate(53 379.6 306.8)" fill="rgba(255,255,255,.30)"/><rect x="317.4" y="323.7" width="4.8" height="2.4" rx="1.2" transform="rotate(177 319.8 324.9)" fill="rgba(255,255,255,.30)"/><rect x="196.1" y="119.4" width="5.1" height="2.6" rx="1.3" transform="rotate(148 198.7 120.7)" fill="rgba(255,255,255,.30)"/><rect x="100.1" y="195.3" width="4.9" height="2.5" rx="1.2" transform="rotate(141 102.5 196.5)" fill="rgba(255,255,255,.30)"/><rect x="194.6" y="268.4" width="3.6" height="1.8" rx="0.9" transform="rotate(30 196.4 269.3)" fill="rgba(255,255,255,.30)"/><rect x="345.9" y="120.3" width="3.0" height="1.5" rx="0.8" transform="rotate(130 347.4 121.1)" fill="rgba(255,255,255,.30)"/><rect x="199.9" y="188.8" width="4.6" height="2.3" rx="1.2" transform="rotate(19 202.2 190.0)" fill="rgba(255,255,255,.30)"/><rect x="357.1" y="282.7" width="5.1" height="2.5" rx="1.3" transform="rotate(51 359.6 284.0)" fill="rgba(255,255,255,.30)"/><rect x="114.4" y="278.3" width="4.5" height="2.2" rx="1.1" transform="rotate(92 116.7 279.4)" fill="rgba(255,255,255,.30)"/><rect x="83.8" y="243.6" width="3.4" height="1.7" rx="0.8" transform="rotate(148 85.5 244.5)" fill="rgba(255,255,255,.30)"/><rect x="329.3" y="139.3" width="3.8" height="1.9" rx="1.0" transform="rotate(54 331.2 140.3)" fill="rgba(255,255,255,.30)"/><rect x="377.4" y="370.1" width="4.7" height="2.3" rx="1.2" transform="rotate(92 379.7 371.3)" fill="rgba(255,255,255,.30)"/><rect x="194.5" y="397.8" width="4.5" height="2.3" rx="1.1" transform="rotate(85 196.8 398.9)" fill="rgba(255,255,255,.30)"/><rect x="267.1" y="385.0" width="5.0" height="2.5" rx="1.2" transform="rotate(128 269.6 386.2)" fill="rgba(255,255,255,.30)"/><rect x="249.0" y="233.4" width="3.4" height="1.7" rx="0.8" transform="rotate(47 250.6 234.2)" fill="rgba(255,255,255,.30)"/><rect x="247.8" y="154.9" width="4.4" height="2.2" rx="1.1" transform="rotate(162 250.1 156.0)" fill="rgba(255,255,255,.30)"/><rect x="151.6" y="298.2" width="3.0" height="1.5" rx="0.8" transform="rotate(92 153.1 299.0)" fill="rgba(255,255,255,.30)"/><rect x="319.7" y="186.3" width="3.3" height="1.7" rx="0.8" transform="rotate(169 321.4 187.2)" fill="rgba(255,255,255,.30)"/><rect x="224.5" y="387.5" width="3.8" height="1.9" rx="0.9" transform="rotate(180 226.4 388.4)" fill="rgba(255,255,255,.30)"/><rect x="176.0" y="174.5" width="3.2" height="1.6" rx="0.8" transform="rotate(62 177.6 175.3)" fill="rgba(255,255,255,.30)"/><rect x="404.8" y="350.1" width="3.3" height="1.7" rx="0.8" transform="rotate(37 406.4 351.0)" fill="rgba(255,255,255,.30)"/><rect x="357.9" y="350.1" width="3.8" height="1.9" rx="0.9" transform="rotate(146 359.8 351.0)" fill="rgba(255,255,255,.30)"/><rect x="91.6" y="251.6" width="3.6" height="1.8" rx="0.9" transform="rotate(8 93.4 252.5)" fill="rgba(255,255,255,.30)"/><rect x="391.8" y="289.7" width="3.3" height="1.7" rx="0.8" transform="rotate(150 393.4 290.5)" fill="rgba(255,255,255,.30)"/><rect x="415.1" y="214.5" width="4.1" height="2.0" rx="1.0" transform="rotate(175 417.2 215.5)" fill="rgba(255,255,255,.30)"/><rect x="183.6" y="111.3" width="3.4" height="1.7" rx="0.8" transform="rotate(122 185.3 112.2)" fill="rgba(255,255,255,.30)"/><rect x="223.5" y="437.9" width="3.4" height="1.7" rx="0.8" transform="rotate(17 225.2 438.7)" fill="rgba(255,255,255,.30)"/><rect x="184.0" y="164.2" width="3.2" height="1.6" rx="0.8" transform="rotate(96 185.6 165.0)" fill="rgba(255,255,255,.30)"/><rect x="78.0" y="302.9" width="3.6" height="1.8" rx="0.9" transform="rotate(108 79.8 303.8)" fill="rgba(255,255,255,.30)"/><rect x="228.6" y="228.8" width="3.6" height="1.8" rx="0.9" transform="rotate(130 230.4 229.7)" fill="rgba(255,255,255,.30)"/><rect x="176.9" y="347.6" width="3.6" height="1.8" rx="0.9" transform="rotate(79 178.6 348.5)" fill="rgba(255,255,255,.30)"/><rect x="105.9" y="259.8" width="4.2" height="2.1" rx="1.1" transform="rotate(116 108.0 260.8)" fill="rgba(255,255,255,.30)"/><rect x="342.0" y="85.8" width="4.4" height="2.2" rx="1.1" transform="rotate(13 344.2 86.9)" fill="rgba(255,255,255,.30)"/><rect x="183.1" y="345.8" width="2.9" height="1.5" rx="0.7" transform="rotate(177 184.6 346.5)" fill="rgba(255,255,255,.30)"/><rect x="394.6" y="298.0" width="4.1" height="2.1" rx="1.0" transform="rotate(43 396.6 299.1)" fill="rgba(255,255,255,.30)"/><rect x="240.0" y="220.9" width="3.8" height="1.9" rx="1.0" transform="rotate(116 241.9 221.9)" fill="rgba(255,255,255,.30)"/><rect x="231.3" y="186.8" width="4.1" height="2.0" rx="1.0" transform="rotate(96 233.4 187.9)" fill="rgba(255,255,255,.30)"/><rect x="274.5" y="430.3" width="3.5" height="1.7" rx="0.9" transform="rotate(115 276.3 431.2)" fill="rgba(255,255,255,.30)"/><rect x="261.1" y="74.0" width="4.1" height="2.1" rx="1.0" transform="rotate(67 263.2 75.0)" fill="rgba(255,255,255,.30)"/><rect x="305.7" y="434.4" width="3.0" height="1.5" rx="0.7" transform="rotate(63 307.1 435.1)" fill="rgba(255,255,255,.30)"/><rect x="181.1" y="169.7" width="3.2" height="1.6" rx="0.8" transform="rotate(171 182.7 170.4)" fill="rgba(255,255,255,.30)"/><rect x="317.9" y="100.9" width="4.5" height="2.3" rx="1.1" transform="rotate(74 320.2 102.1)" fill="rgba(255,255,255,.30)"/><rect x="369.5" y="272.1" width="4.1" height="2.0" rx="1.0" transform="rotate(10 371.6 273.1)" fill="rgba(255,255,255,.30)"/><rect x="337.9" y="234.4" width="4.2" height="2.1" rx="1.1" transform="rotate(164 340.0 235.5)" fill="rgba(255,255,255,.30)"/><rect x="243.4" y="384.9" width="4.6" height="2.3" rx="1.2" transform="rotate(156 245.7 386.1)" fill="rgba(255,255,255,.30)"/><rect x="336.4" y="220.6" width="4.1" height="2.0" rx="1.0" transform="rotate(108 338.4 221.7)" fill="rgba(255,255,255,.30)"/><rect x="378.4" y="108.5" width="2.9" height="1.5" rx="0.7" transform="rotate(24 379.8 109.2)" fill="rgba(255,255,255,.30)"/><rect x="136.4" y="239.5" width="4.7" height="2.4" rx="1.2" transform="rotate(129 138.7 240.7)" fill="rgba(255,255,255,.30)"/><rect x="162.6" y="295.7" width="5.0" height="2.5" rx="1.3" transform="rotate(67 165.1 296.9)" fill="rgba(255,255,255,.30)"/><rect x="358.1" y="114.5" width="3.8" height="1.9" rx="0.9" transform="rotate(2 360.0 115.4)" fill="rgba(255,255,255,.30)"/><rect x="77.8" y="222.6" width="5.0" height="2.5" rx="1.3" transform="rotate(26 80.3 223.9)" fill="rgba(255,255,255,.30)"/><rect x="291.0" y="288.4" width="3.2" height="1.6" rx="0.8" transform="rotate(80 292.6 289.2)" fill="rgba(255,255,255,.30)"/><rect x="145.2" y="101.1" width="5.1" height="2.6" rx="1.3" transform="rotate(95 147.8 102.4)" fill="rgba(255,255,255,.30)"/><rect x="358.9" y="150.5" width="4.3" height="2.2" rx="1.1" transform="rotate(167 361.0 151.6)" fill="rgba(255,255,255,.30)"/><rect x="429.8" y="276.4" width="4.7" height="2.4" rx="1.2" transform="rotate(170 432.2 277.6)" fill="rgba(255,255,255,.30)"/><rect x="319.0" y="93.6" width="3.6" height="1.8" rx="0.9" transform="rotate(119 320.8 94.5)" fill="rgba(255,255,255,.30)"/><rect x="411.0" y="194.4" width="4.3" height="2.2" rx="1.1" transform="rotate(141 413.2 195.4)" fill="rgba(255,255,255,.30)"/><rect x="444.9" y="258.4" width="3.3" height="1.6" rx="0.8" transform="rotate(81 446.5 259.2)" fill="rgba(255,255,255,.30)"/><rect x="287.1" y="408.7" width="3.6" height="1.8" rx="0.9" transform="rotate(101 288.9 409.6)" fill="rgba(255,255,255,.30)"/><rect x="228.0" y="145.4" width="3.8" height="1.9" rx="1.0" transform="rotate(173 229.9 146.4)" fill="rgba(255,255,255,.30)"/><rect x="304.7" y="432.0" width="4.0" height="2.0" rx="1.0" transform="rotate(122 306.7 433.0)" fill="rgba(255,255,255,.30)"/><rect x="139.0" y="323.2" width="3.7" height="1.9" rx="0.9" transform="rotate(85 140.8 324.1)" fill="rgba(255,255,255,.30)"/><rect x="137.2" y="405.2" width="3.6" height="1.8" rx="0.9" transform="rotate(177 139.0 406.1)" fill="rgba(255,255,255,.30)"/><rect x="234.5" y="173.4" width="4.9" height="2.4" rx="1.2" transform="rotate(57 237.0 174.6)" fill="rgba(255,255,255,.30)"/><rect x="94.5" y="209.4" width="3.3" height="1.7" rx="0.8" transform="rotate(99 96.2 210.2)" fill="rgba(255,255,255,.30)"/><rect x="375.4" y="341.8" width="3.9" height="1.9" rx="1.0" transform="rotate(91 377.3 342.8)" fill="rgba(255,255,255,.30)"/><rect x="372.1" y="386.0" width="3.3" height="1.7" rx="0.8" transform="rotate(40 373.8 386.8)" fill="rgba(255,255,255,.30)"/><rect x="213.3" y="233.0" width="5.0" height="2.5" rx="1.3" transform="rotate(26 215.8 234.2)" fill="rgba(255,255,255,.30)"/><rect x="82.8" y="204.8" width="3.5" height="1.8" rx="0.9" transform="rotate(166 84.6 205.7)" fill="rgba(255,255,255,.30)"/><rect x="361.7" y="156.5" width="3.7" height="1.8" rx="0.9" transform="rotate(104 363.5 157.4)" fill="rgba(255,255,255,.30)"/><rect x="341.2" y="360.0" width="4.7" height="2.4" rx="1.2" transform="rotate(115 343.5 361.2)" fill="rgba(255,255,255,.30)"/><rect x="246.0" y="110.6" width="4.6" height="2.3" rx="1.1" transform="rotate(151 248.3 111.8)" fill="rgba(255,255,255,.30)"/><rect x="198.0" y="398.5" width="3.0" height="1.5" rx="0.8" transform="rotate(7 199.5 399.2)" fill="rgba(255,255,255,.30)"/><rect x="75.9" y="256.7" width="4.3" height="2.2" rx="1.1" transform="rotate(129 78.1 257.8)" fill="rgba(255,255,255,.30)"/><rect x="269.8" y="200.0" width="3.2" height="1.6" rx="0.8" transform="rotate(18 271.4 200.8)" fill="rgba(255,255,255,.30)"/><rect x="329.3" y="377.2" width="5.1" height="2.5" rx="1.3" transform="rotate(58 331.9 378.5)" fill="rgba(255,255,255,.30)"/><rect x="321.6" y="153.3" width="4.7" height="2.3" rx="1.2" transform="rotate(68 324.0 154.5)" fill="rgba(255,255,255,.30)"/><rect x="372.5" y="107.0" width="4.2" height="2.1" rx="1.0" transform="rotate(72 374.6 108.0)" fill="rgba(255,255,255,.30)"/><rect x="316.4" y="219.0" width="4.2" height="2.1" rx="1.1" transform="rotate(97 318.5 220.0)" fill="rgba(255,255,255,.30)"/><rect x="367.7" y="232.2" width="5.2" height="2.6" rx="1.3" transform="rotate(176 370.3 233.4)" fill="rgba(255,255,255,.30)"/><rect x="70.0" y="263.7" width="2.8" height="1.4" rx="0.7" transform="rotate(60 71.4 264.4)" fill="rgba(255,255,255,.30)"/><rect x="370.4" y="360.5" width="4.5" height="2.3" rx="1.1" transform="rotate(155 372.7 361.6)" fill="rgba(255,255,255,.30)"/><rect x="192.2" y="134.0" width="4.0" height="2.0" rx="1.0" transform="rotate(7 194.1 135.0)" fill="rgba(255,255,255,.30)"/><rect x="307.5" y="118.5" width="4.0" height="2.0" rx="1.0" transform="rotate(51 309.5 119.5)" fill="rgba(255,255,255,.30)"/><rect x="200.9" y="317.4" width="3.3" height="1.6" rx="0.8" transform="rotate(156 202.6 318.2)" fill="rgba(255,255,255,.30)"/><rect x="198.4" y="189.9" width="4.2" height="2.1" rx="1.0" transform="rotate(109 200.5 190.9)" fill="rgba(255,255,255,.30)"/><rect x="76.8" y="208.3" width="3.0" height="1.5" rx="0.7" transform="rotate(165 78.3 209.0)" fill="rgba(255,255,255,.30)"/><rect x="270.0" y="399.4" width="4.0" height="2.0" rx="1.0" transform="rotate(4 272.0 400.4)" fill="rgba(255,255,255,.30)"/><rect x="109.7" y="185.1" width="4.9" height="2.4" rx="1.2" transform="rotate(113 112.2 186.3)" fill="rgba(255,255,255,.30)"/><rect x="338.6" y="155.2" width="4.9" height="2.4" rx="1.2" transform="rotate(45 341.0 156.4)" fill="rgba(255,255,255,.30)"/><rect x="222.0" y="422.6" width="5.2" height="2.6" rx="1.3" transform="rotate(105 224.6 423.8)" fill="rgba(255,255,255,.30)"/><rect x="115.8" y="250.9" width="4.5" height="2.3" rx="1.1" transform="rotate(175 118.1 252.0)" fill="rgba(255,255,255,.30)"/><rect x="400.5" y="350.4" width="4.0" height="2.0" rx="1.0" transform="rotate(161 402.5 351.4)" fill="rgba(255,255,255,.30)"/><rect x="176.7" y="396.7" width="3.9" height="2.0" rx="1.0" transform="rotate(7 178.7 397.6)" fill="rgba(255,255,255,.30)"/><rect x="158.3" y="380.7" width="3.8" height="1.9" rx="0.9" transform="rotate(142 160.1 381.6)" fill="rgba(255,255,255,.30)"/><rect x="271.5" y="167.4" width="4.0" height="2.0" rx="1.0" transform="rotate(14 273.5 168.4)" fill="rgba(255,255,255,.30)"/><rect x="147.6" y="159.6" width="3.3" height="1.6" rx="0.8" transform="rotate(158 149.2 160.5)" fill="rgba(255,255,255,.30)"/><rect x="236.4" y="271.2" width="3.0" height="1.5" rx="0.7" transform="rotate(84 237.9 271.9)" fill="rgba(255,255,255,.30)"/><rect x="252.2" y="395.2" width="3.4" height="1.7" rx="0.9" transform="rotate(129 253.9 396.0)" fill="rgba(255,255,255,.30)"/><rect x="231.6" y="130.6" width="2.9" height="1.5" rx="0.7" transform="rotate(165 233.1 131.4)" fill="rgba(255,255,255,.30)"/><rect x="159.6" y="360.5" width="3.7" height="1.8" rx="0.9" transform="rotate(131 161.4 361.4)" fill="rgba(255,255,255,.30)"/><rect x="133.3" y="299.7" width="2.9" height="1.4" rx="0.7" transform="rotate(146 134.8 300.4)" fill="rgba(255,255,255,.30)"/><rect x="184.7" y="417.4" width="4.1" height="2.1" rx="1.0" transform="rotate(28 186.8 418.4)" fill="rgba(255,255,255,.30)"/><rect x="324.2" y="203.1" width="5.0" height="2.5" rx="1.2" transform="rotate(48 326.7 204.3)" fill="rgba(255,255,255,.30)"/><rect x="243.0" y="353.3" width="4.5" height="2.2" rx="1.1" transform="rotate(139 245.2 354.4)" fill="rgba(255,255,255,.30)"/><rect x="423.3" y="275.0" width="4.8" height="2.4" rx="1.2" transform="rotate(30 425.7 276.2)" fill="rgba(255,255,255,.30)"/><rect x="371.6" y="221.0" width="3.9" height="1.9" rx="1.0" transform="rotate(107 373.6 221.9)" fill="rgba(255,255,255,.30)"/><rect x="201.2" y="142.3" width="3.6" height="1.8" rx="0.9" transform="rotate(34 203.0 143.2)" fill="rgba(255,255,255,.30)"/><rect x="129.5" y="330.6" width="3.2" height="1.6" rx="0.8" transform="rotate(165 131.1 331.4)" fill="rgba(255,255,255,.30)"/><rect x="219.8" y="85.1" width="4.2" height="2.1" rx="1.0" transform="rotate(103 221.9 86.2)" fill="rgba(255,255,255,.30)"/><rect x="131.5" y="386.4" width="3.7" height="1.9" rx="0.9" transform="rotate(46 133.4 387.3)" fill="rgba(255,255,255,.30)"/><rect x="213.9" y="362.1" width="5.2" height="2.6" rx="1.3" transform="rotate(25 216.5 363.4)" fill="rgba(255,255,255,.30)"/><rect x="311.5" y="444.3" width="3.8" height="1.9" rx="1.0" transform="rotate(75 313.4 445.3)" fill="rgba(255,255,255,.30)"/><rect x="275.1" y="224.0" width="3.7" height="1.8" rx="0.9" transform="rotate(26 277.0 224.9)" fill="rgba(255,255,255,.30)"/><rect x="274.6" y="226.5" width="2.9" height="1.4" rx="0.7" transform="rotate(34 276.0 227.2)" fill="rgba(255,255,255,.30)"/><rect x="419.1" y="299.0" width="3.7" height="1.9" rx="0.9" transform="rotate(4 421.0 299.9)" fill="rgba(255,255,255,.30)"/><rect x="375.7" y="115.1" width="4.7" height="2.3" rx="1.2" transform="rotate(171 378.0 116.3)" fill="rgba(255,255,255,.30)"/><rect x="445.4" y="214.2" width="3.8" height="1.9" rx="0.9" transform="rotate(58 447.3 215.2)" fill="rgba(255,255,255,.30)"/><rect x="109.4" y="272.3" width="4.0" height="2.0" rx="1.0" transform="rotate(109 111.4 273.3)" fill="rgba(255,255,255,.30)"/><rect x="148.6" y="153.0" width="3.9" height="2.0" rx="1.0" transform="rotate(15 150.6 154.0)" fill="rgba(255,255,255,.30)"/><rect x="229.3" y="422.5" width="3.4" height="1.7" rx="0.9" transform="rotate(162 231.0 423.3)" fill="rgba(255,255,255,.30)"/><rect x="232.4" y="98.4" width="5.1" height="2.6" rx="1.3" transform="rotate(153 235.0 99.7)" fill="rgba(255,255,255,.30)"/><rect x="225.9" y="197.7" width="5.2" height="2.6" rx="1.3" transform="rotate(102 228.5 199.0)" fill="rgba(255,255,255,.30)"/><rect x="97.5" y="361.2" width="3.3" height="1.7" rx="0.8" transform="rotate(42 99.2 362.0)" fill="rgba(255,255,255,.30)"/><rect x="215.0" y="213.4" width="3.6" height="1.8" rx="0.9" transform="rotate(151 216.8 214.3)" fill="rgba(255,255,255,.30)"/><rect x="333.1" y="271.0" width="5.0" height="2.5" rx="1.3" transform="rotate(174 335.6 272.2)" fill="rgba(255,255,255,.30)"/><rect x="170.6" y="286.0" width="3.2" height="1.6" rx="0.8" transform="rotate(110 172.2 286.8)" fill="rgba(255,255,255,.30)"/><rect x="310.3" y="379.0" width="3.7" height="1.9" rx="0.9" transform="rotate(85 312.2 379.9)" fill="rgba(255,255,255,.30)"/><rect x="440.5" y="328.2" width="4.7" height="2.4" rx="1.2" transform="rotate(43 442.8 329.4)" fill="rgba(255,255,255,.30)"/><rect x="201.0" y="109.6" width="3.4" height="1.7" rx="0.8" transform="rotate(132 202.7 110.4)" fill="rgba(255,255,255,.30)"/><rect x="255.2" y="129.1" width="3.7" height="1.8" rx="0.9" transform="rotate(58 257.1 130.0)" fill="rgba(255,255,255,.30)"/><rect x="388.2" y="201.8" width="4.6" height="2.3" rx="1.2" transform="rotate(26 390.5 202.9)" fill="rgba(255,255,255,.30)"/><rect x="115.6" y="201.6" width="4.1" height="2.0" rx="1.0" transform="rotate(30 117.6 202.6)" fill="rgba(255,255,255,.30)"/><rect x="267.5" y="405.9" width="3.5" height="1.7" rx="0.9" transform="rotate(144 269.3 406.8)" fill="rgba(255,255,255,.30)"/><rect x="241.5" y="153.0" width="4.9" height="2.4" rx="1.2" transform="rotate(168 244.0 154.3)" fill="rgba(255,255,255,.30)"/><rect x="306.3" y="273.6" width="5.2" height="2.6" rx="1.3" transform="rotate(39 308.9 274.9)" fill="rgba(255,255,255,.30)"/><rect x="314.6" y="213.3" width="4.7" height="2.4" rx="1.2" transform="rotate(33 316.9 214.5)" fill="rgba(255,255,255,.30)"/><rect x="387.2" y="276.5" width="4.0" height="2.0" rx="1.0" transform="rotate(20 389.2 277.5)" fill="rgba(255,255,255,.30)"/><rect x="262.9" y="356.9" width="3.5" height="1.7" rx="0.9" transform="rotate(150 264.6 357.8)" fill="rgba(255,255,255,.30)"/><rect x="277.2" y="156.1" width="4.0" height="2.0" rx="1.0" transform="rotate(143 279.2 157.1)" fill="rgba(255,255,255,.30)"/><rect x="369.2" y="158.4" width="3.5" height="1.8" rx="0.9" transform="rotate(64 370.9 159.3)" fill="rgba(255,255,255,.30)"/><rect x="279.6" y="251.3" width="4.1" height="2.1" rx="1.0" transform="rotate(132 281.7 252.4)" fill="rgba(255,255,255,.30)"/><rect x="244.7" y="289.5" width="4.0" height="2.0" rx="1.0" transform="rotate(2 246.7 290.5)" fill="rgba(255,255,255,.30)"/><rect x="182.3" y="144.3" width="4.4" height="2.2" rx="1.1" transform="rotate(15 184.4 145.4)" fill="rgba(255,255,255,.30)"/><rect x="406.2" y="332.0" width="4.9" height="2.4" rx="1.2" transform="rotate(160 408.6 333.2)" fill="rgba(255,255,255,.30)"/><rect x="164.8" y="201.7" width="3.9" height="1.9" rx="1.0" transform="rotate(146 166.7 202.7)" fill="rgba(255,255,255,.30)"/><rect x="238.9" y="137.7" width="3.1" height="1.5" rx="0.8" transform="rotate(142 240.4 138.5)" fill="rgba(255,255,255,.30)"/><rect x="95.0" y="310.7" width="4.5" height="2.3" rx="1.1" transform="rotate(96 97.2 311.8)" fill="rgba(255,255,255,.30)"/><rect x="425.2" y="348.5" width="4.3" height="2.1" rx="1.1" transform="rotate(56 427.3 349.6)" fill="rgba(255,255,255,.30)"/><rect x="126.1" y="369.7" width="4.8" height="2.4" rx="1.2" transform="rotate(88 128.5 370.9)" fill="rgba(255,255,255,.30)"/><rect x="176.0" y="86.2" width="3.6" height="1.8" rx="0.9" transform="rotate(12 177.8 87.1)" fill="rgba(255,255,255,.30)"/><rect x="108.7" y="208.9" width="3.9" height="1.9" rx="1.0" transform="rotate(23 110.7 209.9)" fill="rgba(255,255,255,.30)"/><rect x="332.7" y="226.2" width="3.0" height="1.5" rx="0.7" transform="rotate(127 334.2 226.9)" fill="rgba(255,255,255,.30)"/><rect x="239.5" y="319.4" width="3.4" height="1.7" rx="0.8" transform="rotate(135 241.2 320.3)" fill="rgba(255,255,255,.30)"/><rect x="202.7" y="207.3" width="3.5" height="1.7" rx="0.9" transform="rotate(22 204.5 208.1)" fill="rgba(255,255,255,.30)"/><rect x="364.7" y="110.4" width="3.9" height="1.9" rx="1.0" transform="rotate(150 366.7 111.3)" fill="rgba(255,255,255,.30)"/><rect x="437.3" y="282.2" width="4.2" height="2.1" rx="1.1" transform="rotate(143 439.4 283.2)" fill="rgba(255,255,255,.30)"/><rect x="300.1" y="373.1" width="3.5" height="1.7" rx="0.9" transform="rotate(41 301.9 374.0)" fill="rgba(255,255,255,.30)"/><rect x="120.6" y="172.3" width="4.2" height="2.1" rx="1.0" transform="rotate(152 122.7 173.4)" fill="rgba(255,255,255,.30)"/><rect x="348.3" y="227.0" width="4.1" height="2.0" rx="1.0" transform="rotate(174 350.3 228.0)" fill="rgba(255,255,255,.30)"/><rect x="303.2" y="303.0" width="5.1" height="2.6" rx="1.3" transform="rotate(27 305.8 304.3)" fill="rgba(255,255,255,.30)"/><rect x="314.7" y="119.1" width="3.5" height="1.8" rx="0.9" transform="rotate(92 316.5 120.0)" fill="rgba(255,255,255,.30)"/><rect x="243.5" y="122.7" width="5.2" height="2.6" rx="1.3" transform="rotate(177 246.1 124.0)" fill="rgba(255,255,255,.30)"/><rect x="154.8" y="111.6" width="4.8" height="2.4" rx="1.2" transform="rotate(60 157.3 112.9)" fill="rgba(255,255,255,.30)"/><rect x="192.0" y="183.3" width="3.0" height="1.5" rx="0.7" transform="rotate(81 193.5 184.0)" fill="rgba(255,255,255,.30)"/><rect x="345.2" y="385.3" width="2.8" height="1.4" rx="0.7" transform="rotate(170 346.6 386.0)" fill="rgba(255,255,255,.30)"/><rect x="310.7" y="176.2" width="5.0" height="2.5" rx="1.2" transform="rotate(47 313.2 177.5)" fill="rgba(255,255,255,.30)"/><rect x="133.6" y="285.9" width="3.9" height="2.0" rx="1.0" transform="rotate(9 135.6 286.9)" fill="rgba(255,255,255,.30)"/><rect x="339.4" y="151.9" width="3.0" height="1.5" rx="0.8" transform="rotate(176 341.0 152.7)" fill="rgba(255,255,255,.30)"/><rect x="120.4" y="355.4" width="3.2" height="1.6" rx="0.8" transform="rotate(171 122.1 356.2)" fill="rgba(255,255,255,.30)"/><rect x="330.9" y="132.3" width="3.1" height="1.5" rx="0.8" transform="rotate(10 332.4 133.1)" fill="rgba(255,255,255,.30)"/><rect x="324.5" y="376.8" width="4.0" height="2.0" rx="1.0" transform="rotate(146 326.4 377.8)" fill="rgba(255,255,255,.30)"/><rect x="237.7" y="418.3" width="4.4" height="2.2" rx="1.1" transform="rotate(130 239.9 419.4)" fill="rgba(255,255,255,.30)"/></g><g><g transform="translate(165.6 300.1) rotate(36) scale(1.00)"><circle r="13" fill="#BFE3A8"/><circle r="13" fill="none" stroke="#6FA84A" stroke-width="2.5"/><circle r="6" fill="#D8F0C4"/></g><g transform="translate(227.9 207.2)"><circle cx="10.7" cy="8.0" r="1.8" fill="#3B2F1E"/><circle cx="8.1" cy="-9.9" r="1.9" fill="#3B2F1E"/><circle cx="8.7" cy="-0.4" r="1.8" fill="#3B2F1E"/><circle cx="0.7" cy="-9.3" r="1.8" fill="#3B2F1E"/><circle cx="-5.9" cy="-0.8" r="1.9" fill="#3B2F1E"/><circle cx="-2.3" cy="1.0" r="1.8" fill="#3B2F1E"/><circle cx="9.4" cy="9.5" r="1.9" fill="#3B2F1E"/><circle cx="-1.1" cy="-9.6" r="2.2" fill="#3B2F1E"/><circle cx="-8.9" cy="6.0" r="1.8" fill="#3B2F1E"/></g><g transform="translate(227.6 170.6) rotate(-30) scale(1.00)"><path d="M0 -22 C 16 -22 20 0 12 16 C 6 26 -6 26 -12 16 C -20 0 -16 -22 0 -22 Z" fill="#7FB069"/><path d="M0 -16 C 11 -16 14 0 8 12 C 4 19 -4 19 -8 12 C -14 0 -11 -16 0 -16 Z" fill="#A7CE8B"/><ellipse cx="0" cy="-1" rx="5.5" ry="6.5" fill="#C9B27E"/></g><g transform="translate(269.0 340.8) scale(1.00)"><circle r="12" fill="#E4572E"/><circle r="12" fill="url(#tomGloss)"/><ellipse cx="-3.5" cy="-4.5" rx="3.2" ry="2" fill="#fff" opacity=".55"/></g><g transform="translate(361.9 223.6) rotate(23) scale(1.00)"><rect x="-16" y="-11" width="32" height="22" rx="7" fill="#D79A5B"/><rect x="-16" y="-11" width="32" height="22" rx="7" fill="none" stroke="#A9713A" stroke-width="2" opacity=".6"/><path d="M-10 0 H10 M-8 -5 H8 M-8 5 H8" stroke="#A9713A" stroke-width="1.4" opacity=".45"/></g><g transform="translate(284.3 322.3) scale(1.00)"><circle r="12" fill="#E4572E"/><circle r="12" fill="url(#tomGloss)"/><ellipse cx="-3.5" cy="-4.5" rx="3.2" ry="2" fill="#fff" opacity=".55"/></g><g transform="translate(294.3 297.3) scale(1.00)"><circle r="12" fill="#E4572E"/><circle r="12" fill="url(#tomGloss)"/><ellipse cx="-3.5" cy="-4.5" rx="3.2" ry="2" fill="#fff" opacity=".55"/></g><g transform="translate(338.5 314.1) scale(1.00)"><circle r="12" fill="#E4572E"/><circle r="12" fill="url(#tomGloss)"/><ellipse cx="-3.5" cy="-4.5" rx="3.2" ry="2" fill="#fff" opacity=".55"/></g><g transform="translate(283.8 231.3)"><circle cx="-7.4" cy="10.0" r="2.1" fill="#3B2F1E"/><circle cx="-8.9" cy="9.5" r="1.7" fill="#3B2F1E"/><circle cx="-5.0" cy="6.5" r="2.1" fill="#3B2F1E"/><circle cx="-10.0" cy="-7.3" r="1.5" fill="#3B2F1E"/><circle cx="-3.7" cy="-0.6" r="1.9" fill="#3B2F1E"/><circle cx="3.0" cy="10.7" r="1.7" fill="#3B2F1E"/><circle cx="-5.9" cy="7.1" r="2.2" fill="#3B2F1E"/><circle cx="-0.0" cy="3.8" r="2.2" fill="#3B2F1E"/><circle cx="-4.9" cy="6.4" r="1.9" fill="#3B2F1E"/></g><g transform="translate(403.2 239.8) rotate(-24) scale(1.00)"><rect x="-16" y="-11" width="32" height="22" rx="7" fill="#D79A5B"/><rect x="-16" y="-11" width="32" height="22" rx="7" fill="none" stroke="#A9713A" stroke-width="2" opacity=".6"/><path d="M-10 0 H10 M-8 -5 H8 M-8 5 H8" stroke="#A9713A" stroke-width="1.4" opacity=".45"/></g><g transform="translate(347.2 251.0) rotate(12) scale(1.00)"><rect x="-16" y="-11" width="32" height="22" rx="7" fill="#D79A5B"/><rect x="-16" y="-11" width="32" height="22" rx="7" fill="none" stroke="#A9713A" stroke-width="2" opacity=".6"/><path d="M-10 0 H10 M-8 -5 H8 M-8 5 H8" stroke="#A9713A" stroke-width="1.4" opacity=".45"/></g><g transform="translate(250.3 397.7) rotate(352) scale(1.20)"><path d="M0 0 C 10 -18 26 -18 30 0 C 26 18 10 18 0 0 Z" fill="#3E8E41"/><path d="M4 0 L 27 0" stroke="rgba(0,0,0,.10)" stroke-width="1.4" fill="none"/></g><g transform="translate(208.6 389.7) rotate(202) scale(1.20)"><path d="M0 0 C 10 -18 26 -18 30 0 C 26 18 10 18 0 0 Z" fill="#57A65A"/><path d="M4 0 L 27 0" stroke="rgba(0,0,0,.10)" stroke-width="1.4" fill="none"/></g><g transform="translate(260.6 246.7)"><circle cx="-0.4" cy="2.6" r="2.2" fill="#3B2F1E"/><circle cx="-0.3" cy="-5.7" r="1.6" fill="#3B2F1E"/><circle cx="9.6" cy="3.3" r="2.1" fill="#3B2F1E"/><circle cx="-2.9" cy="4.4" r="2.1" fill="#3B2F1E"/><circle cx="-8.3" cy="6.8" r="2.1" fill="#3B2F1E"/><circle cx="10.2" cy="-8.0" r="1.5" fill="#3B2F1E"/><circle cx="9.2" cy="-2.0" r="1.6" fill="#3B2F1E"/><circle cx="3.4" cy="-3.8" r="1.6" fill="#3B2F1E"/><circle cx="-2.4" cy="-6.3" r="2.1" fill="#3B2F1E"/></g><g transform="translate(209.6 298.0) rotate(143) scale(1.20)"><path d="M0 0 C 10 -18 26 -18 30 0 C 26 18 10 18 0 0 Z" fill="#57A65A"/><path d="M4 0 L 27 0" stroke="rgba(0,0,0,.10)" stroke-width="1.4" fill="none"/></g><g transform="translate(218.4 209.0) rotate(7) scale(1.00)"><path d="M0 -22 C 16 -22 20 0 12 16 C 6 26 -6 26 -12 16 C -20 0 -16 -22 0 -22 Z" fill="#7FB069"/><path d="M0 -16 C 11 -16 14 0 8 12 C 4 19 -4 19 -8 12 C -14 0 -11 -16 0 -16 Z" fill="#A7CE8B"/><ellipse cx="0" cy="-1" rx="5.5" ry="6.5" fill="#C9B27E"/></g><g transform="translate(145.7 203.7) rotate(18) scale(1.00)"><path d="M0 -22 C 16 -22 20 0 12 16 C 6 26 -6 26 -12 16 C -20 0 -16 -22 0 -22 Z" fill="#7FB069"/><path d="M0 -16 C 11 -16 14 0 8 12 C 4 19 -4 19 -8 12 C -14 0 -11 -16 0 -16 Z" fill="#A7CE8B"/><ellipse cx="0" cy="-1" rx="5.5" ry="6.5" fill="#C9B27E"/></g><g transform="translate(180.3 270.8) rotate(56) scale(1.00)"><circle r="13" fill="#BFE3A8"/><circle r="13" fill="none" stroke="#6FA84A" stroke-width="2.5"/><circle r="6" fill="#D8F0C4"/></g><g transform="translate(269.3 387.5) rotate(23) scale(1.20)"><path d="M0 0 C 10 -18 26 -18 30 0 C 26 18 10 18 0 0 Z" fill="#2F7D3A"/><path d="M4 0 L 27 0" stroke="rgba(0,0,0,.10)" stroke-width="1.4" fill="none"/></g><g transform="translate(126.9 314.0) rotate(14) scale(1.00)"><circle r="13" fill="#BFE3A8"/><circle r="13" fill="none" stroke="#6FA84A" stroke-width="2.5"/><circle r="6" fill="#D8F0C4"/></g><g transform="translate(197.0 318.4) rotate(73) scale(1.20)"><path d="M0 0 C 10 -18 26 -18 30 0 C 26 18 10 18 0 0 Z" fill="#2F7D3A"/><path d="M4 0 L 27 0" stroke="rgba(0,0,0,.10)" stroke-width="1.4" fill="none"/></g><g transform="translate(152.2 149.8) rotate(-10) scale(1.00)"><path d="M0 -22 C 16 -22 20 0 12 16 C 6 26 -6 26 -12 16 C -20 0 -16 -22 0 -22 Z" fill="#7FB069"/><path d="M0 -16 C 11 -16 14 0 8 12 C 4 19 -4 19 -8 12 C -14 0 -11 -16 0 -16 Z" fill="#A7CE8B"/><ellipse cx="0" cy="-1" rx="5.5" ry="6.5" fill="#C9B27E"/></g><g transform="translate(207.7 230.7) rotate(7) scale(1.00)"><path d="M0 -22 C 16 -22 20 0 12 16 C 6 26 -6 26 -12 16 C -20 0 -16 -22 0 -22 Z" fill="#7FB069"/><path d="M0 -16 C 11 -16 14 0 8 12 C 4 19 -4 19 -8 12 C -14 0 -11 -16 0 -16 Z" fill="#A7CE8B"/><ellipse cx="0" cy="-1" rx="5.5" ry="6.5" fill="#C9B27E"/></g><g transform="translate(369.4 325.9) scale(1.00)"><circle r="12" fill="#E4572E"/><circle r="12" fill="url(#tomGloss)"/><ellipse cx="-3.5" cy="-4.5" rx="3.2" ry="2" fill="#fff" opacity=".55"/></g><g transform="translate(248.1 312.4) rotate(143) scale(1.20)"><path d="M0 0 C 10 -18 26 -18 30 0 C 26 18 10 18 0 0 Z" fill="#2F7D3A"/><path d="M4 0 L 27 0" stroke="rgba(0,0,0,.10)" stroke-width="1.4" fill="none"/></g></g><path d="M 110 140 A 200 200 0 0 1 380 100" fill="none" stroke="rgba(255,255,255,.5)" stroke-width="10" stroke-linecap="round" opacity=".5"/></svg>