<svg xmlns="http://www.w3.org/2000/svg" viewBox="0 0 520 520" role="img" aria-label="Bowl saludable ilustrado"><defs><radialGradient id="tomGloss" cx="35%" cy="30%" r="75%"><stop offset="0%" stop-color="#ff8b5e"/><stop offset="55%" stop-color="#E4572E" stop-opacity="0"/></radialGradient><radialGradient id="baseg_gal-6" cx="42%" cy="38%" r="70%"><stop offset="0%" stop-color="#F8F1DC"/><stop offset="100%" stop-color="#F0E6CC"/></radialGradient><radialGradient id="shadow" cx="50%" cy="50%" r="50%"><stop offset="60%" stop-color="rgba(20,48,31,.16)"/><stop offset="100%" stop-color="rgba(20,48,31,0)"/></radialGradient></defs><ellipse cx="260" cy="278" rx="238" ry="230" fill="url(#shadow)"/><circle cx="260" cy="260" r="232" fill="#E7D9C0"/><circle cx="260" cy="260" r="218" fill="#fff" opacity=".55"/><circle cx="260" cy="260" r="204" fill="url(#baseg_gal-6)"/><g><rect x="428.7" y="323.8" width="3.0" height="1.5" rx="0.8" transform="rotate(13 430.2 324.5)" fill="rgba(255,255,255,.30)"/><rect x="420.4" y="315.7" width="3.7" height="1.9" rx="0.9" transform="rotate(34 422.3 316.7)" fill="rgba(255,255,255,.30)"/><rect x="331.1" y="427.4" width="4.2" height="2.1" rx="1.1" transform="rotate(109 333.3 428.4)" fill="rgba(255,255,255,.30)"/><rect x="302.4" y="326.8" width="2.8" height="1.4" rx="0.7" transform="rotate(62 303.8 327.5)" fill="rgba(255,255,255,.30)"/><rect x="221.6" y="370.6" width="3.4" height="1.7" rx="0.9" transform="rotate(54 223.3 371.5)" fill="rgba(255,255,255,.30)"/><rect x="254.8" y="392.2" width="4.4" height="2.2" rx="1.1" transform="rotate(107 257.0 393.3)" fill="rgba(255,255,255,.30)"/><rect x="234.4" y="396.3" width="5.1" height="2.6" rx="1.3" transform="rotate(7 237.0 397.6)" fill="rgba(255,255,255,.30)"/><rect x="291.5" y="92.6" width="4.9" height="2.4" rx="1.2" transform="rotate(60 293.9 93.8)" fill="rgba(255,255,255,.30)"/><rect x="72.6" y="279.5" width="4.2" height="2.1" rx="1.1" transform="rotate(133 74.7 280.5)" fill="rgba(255,255,255,.30)"/><rect x="93.6" y="235.5" width="4.9" height="2.4" rx="1.2" transform="rotate(74 96.0 236.7)" fill="rgba(255,255,255,.30)"/><rect x="239.9" y="349.1" width="3.7" height="1.9" rx="0.9" transform="rotate(93 241.7 350.0)" fill="rgba(255,255,255,.30)"/><rect x="105.4" y="328.8" width="3.7" height="1.8" rx="0.9" transform="rotate(175 107.3 329.7)" fill="rgba(255,255,255,.30)"/><rect x="356.8" y="366.6" width="3.9" height="2.0" rx="1.0" transform="rotate(95 358.8 367.6)" fill="rgba(255,255,255,.30)"/><rect x="120.3" y="350.4" width="2.9" height="1.4" rx="0.7" transform="rotate(45 121.8 351.1)" fill="rgba(255,255,255,.30)"/><rect x="331.5" y="269.5" width="3.9" height="1.9" rx="1.0" transform="rotate(101 333.4 270.5)" fill="rgba(255,255,255,.30)"/><rect x="151.1" y="329.5" width="4.8" height="2.4" rx="1.2" transform="rotate(87 153.5 330.8)" fill="rgba(255,255,255,.30)"/><rect x="389.3" y="243.1" width="3.5" height="1.8" rx="0.9" transform="rotate(69 391.1 244.0)" fill="rgba(255,255,255,.30)"/><rect x="85.2" y="302.4" width="4.0" height="2.0" rx="1.0" transform="rotate(16 87.2 303.4)" fill="rgba(255,255,255,.30)"/><rect x="249.1" y="170.5" width="3.3" height="1.7" rx="0.8" transform="rotate(24 250.8 171.4)" fill="rgba(255,255,255,.30)"/><rect x="328.2" y="399.2" width="4.3" height="2.2" rx="1.1" transform="rotate(11 330.3 400.2)" fill="rgba(255,255,255,.30)"/><rect x="244.0" y="163.3" width="2.8" height="1.4" rx="0.7" transform="rotate(45 245.4 164.0)" fill="rgba(255,255,255,.30)"/><rect x="370.9" y="251.7" width="3.2" height="1.6" rx="0.8" transform="rotate(86 372.5 252.5)" fill="rgba(255,255,255,.30)"/><rect x="97.2" y="221.4" width="3.2" height="1.6" rx="0.8" transform="rotate(148 98.8 222.2)" fill="rgba(255,255,255,.30)"/><rect x="255.4" y="320.2" width="2.9" height="1.5" rx="0.7" transform="rotate(15 256.9 320.9)" fill="rgba(255,255,255,.30)"/><rect x="257.2" y="414.0" width="4.7" height="2.3" rx="1.2" transform="rotate(36 259.5 415.2)" fill="rgba(255,255,255,.30)"/><rect x="142.2" y="386.3" width="4.7" height="2.3" rx="1.2" transform="rotate(80 144.5 387.4)" fill="rgba(255,255,255,.30)"/><rect x="367.6" y="143.7" width="4.7" height="2.4" rx="1.2" transform="rotate(71 370.0 144.9)" fill="rgba(255,255,255,.30)"/><rect x="336.1" y="371.4" width="3.0" height="1.5" rx="0.7" transform="rotate(43 337.6 372.1)" fill="rgba(255,255,255,.30)"/><rect x="291.7" y="316.3" width="3.2" height="1.6" rx="0.8" transform="rotate(88 293.3 317.1)" fill="rgba(255,255,255,.30)"/><rect x="330.1" y="146.0" width="3.8" height="1.9" rx="1.0" transform="rotate(59 332.0 147.0)" fill="rgba(255,255,255,.30)"/><rect x="185.3" y="389.4" width="3.6" height="1.8" rx="0.9" transform="rotate(2 187.1 390.3)" fill="rgba(255,255,255,.30)"/><rect x="123.1" y="129.8" width="3.9" height="1.9" rx="1.0" transform="rotate(21 125.0 130.8)" fill="rgba(255,255,255,.30)"/><rect x="223.4" y="173.4" width="3.6" height="1.8" rx="0.9" transform="rotate(133 225.2 174.3)" fill="rgba(255,255,255,.30)"/><rect x="348.3" y="290.0" width="4.0" height="2.0" rx="1.0" transform="rotate(177 350.3 291.0)" fill="rgba(255,255,255,.30)"/><rect x="336.3" y="251.7" width="4.3" height="2.1" rx="1.1" transform="rotate(78 338.4 252.7)" fill="rgba(255,255,255,.30)"/><rect x="251.7" y="315.4" width="3.9" height="2.0" rx="1.0" transform="rotate(126 253.7 316.4)" fill="rgba(255,255,255,.30)"/><rect x="132.7" y="383.5" width="4.7" height="2.4" rx="1.2" transform="rotate(16 135.1 384.6)" fill="rgba(255,255,255,.30)"/><rect x="149.7" y="128.8" width="4.9" height="2.4" rx="1.2" transform="rotate(179 152.1 130.0)" fill="rgba(255,255,255,.30)"/><rect x="390.1" y="355.8" width="3.0" height="1.5" rx="0.8" transform="rotate(154 391.6 356.6)" fill="rgba(255,255,255,.30)"/><rect x="195.4" y="321.1" width="4.8" height="2.4" rx="1.2" transform="rotate(21 197.8 322.3)" fill="rgba(255,255,255,.30)"/><rect x="427.4" y="302.9" width="4.0" height="2.0" rx="1.0" transform="rotate(99 429.4 303.9)" fill="rgba(255,255,255,.30)"/><rect x="265.2" y="337.2" width="3.3" height="1.7" rx="0.8" transform="rotate(139 266.9 338.0)" fill="rgba(255,255,255,.30)"/><rect x="299.1" y="335.5" width="4.1" height="2.1" rx="1.0" transform="rotate(3 301.1 336.5)" fill="rgba(255,255,255,.30)"/><rect x="339.1" y="84.6" width="4.9" height="2.4" rx="1.2" transform="rotate(40 341.6 85.8)" fill="rgba(255,255,255,.30)"/><rect x="235.6" y="161.4" width="3.2" height="1.6" rx="0.8" transform="rotate(174 237.2 162.2)" fill="rgba(255,255,255,.30)"/><rect x="100.7" y="199.3" width="3.5" height="1.8" rx="0.9" transform="rotate(65 102.5 200.2)" fill="rgba(255,255,255,.30)"/><rect x="192.3" y="398.5" width="4.3" height="2.2" rx="1.1" transform="rotate(169 194.4 399.6)" fill="rgba(255,255,255,.30)"/><rect x="224.4" y="377.7" width="2.9" height="1.4" rx="0.7" transform="rotate(2 225.8 378.4)" fill="rgba(255,255,255,.30)"/><rect x="408.7" y="200.8" width="3.4" height="1.7" rx="0.8" transform="rotate(149 410.4 201.6)" fill="rgba(255,255,255,.30)"/><rect x="227.8" y="215.9" width="3.7" height="1.9" rx="0.9" transform="rotate(106 229.6 216.8)" fill="rgba(255,255,255,.30)"/><rect x="370.7" y="327.9" width="2.9" height="1.4" rx="0.7" transform="rotate(44 372.2 328.6)" fill="rgba(255,255,255,.30)"/><rect x="126.0" y="312.7" width="4.9" height="2.4" rx="1.2" transform="rotate(33 128.4 313.9)" fill="rgba(255,255,255,.30)"/><rect x="110.3" y="148.9" width="4.3" height="2.2" rx="1.1" transform="rotate(163 112.4 150.0)" fill="rgba(255,255,255,.30)"/><rect x="411.5" y="232.9" width="3.6" height="1.8" rx="0.9" transform="rotate(48 413.3 233.8)" fill="rgba(255,255,255,.30)"/><rect x="235.8" y="282.9" width="5.2" height="2.6" rx="1.3" transform="rotate(45 238.3 284.2)" fill="rgba(255,255,255,.30)"/><rect x="207.5" y="407.2" width="3.2" height="1.6" rx="0.8" transform="rotate(117 209.1 408.0)" fill="rgba(255,255,255,.30)"/><rect x="156.8" y="179.6" width="5.0" height="2.5" rx="1.2" transform="rotate(19 159.3 180.9)" fill="rgba(255,255,255,.30)"/><rect x="178.4" y="128.4" width="4.6" height="2.3" rx="1.2" transform="rotate(138 180.7 129.5)" fill="rgba(255,255,255,.30)"/><rect x="352.5" y="300.5" width="4.0" height="2.0" rx="1.0" transform="rotate(126 354.5 301.4)" fill="rgba(255,255,255,.30)"/><rect x="392.1" y="217.9" width="3.1" height="1.6" rx="0.8" transform="rotate(147 393.6 218.7)" fill="rgba(255,255,255,.30)"/><rect x="327.4" y="119.4" width="2.8" height="1.4" rx="0.7" transform="rotate(82 328.8 120.1)" fill="rgba(255,255,255,.30)"/><rect x="422.1" y="347.9" width="4.3" height="2.1" rx="1.1" transform="rotate(40 424.3 348.9)" fill="rgba(255,255,255,.30)"/><rect x="388.5" y="364.1" width="4.3" height="2.2" rx="1.1" transform="rotate(58 390.7 365.2)" fill="rgba(255,255,255,.30)"/><rect x="133.0" y="399.2" width="4.7" height="2.3" rx="1.2" transform="rotate(39 135.4 400.4)" fill="rgba(255,255,255,.30)"/><rect x="309.9" y="122.9" width="4.5" height="2.3" rx="1.1" transform="rotate(109 312.2 124.0)" fill="rgba(255,255,255,.30)"/><rect x="178.5" y="318.5" width="4.1" height="2.0" rx="1.0" transform="rotate(56 180.6 319.5)" fill="rgba(255,255,255,.30)"/><rect x="290.7" y="232.7" width="4.7" height="2.4" rx="1.2" transform="rotate(24 293.0 233.8)" fill="rgba(255,255,255,.30)"/><rect x="211.2" y="218.5" width="3.7" height="1.9" rx="0.9" transform="rotate(5 213.0 219.4)" fill="rgba(255,255,255,.30)"/><rect x="338.1" y="283.7" width="4.4" height="2.2" rx="1.1" transform="rotate(23 340.3 284.8)" fill="rgba(255,255,255,.30)"/><rect x="232.3" y="376.8" width="4.6" height="2.3" rx="1.2" transform="rotate(74 234.6 377.9)" fill="rgba(255,255,255,.30)"/><rect x="197.3" y="254.8" width="4.7" height="2.3" rx="1.2" transform="rotate(25 199.7 255.9)" fill="rgba(255,255,255,.30)"/><rect x="413.5" y="184.3" width="3.0" height="1.5" rx="0.8" transform="rotate(9 415.0 185.0)" fill="rgba(255,255,255,.30)"/><rect x="235.7" y="260.8" width="4.9" height="2.5" rx="1.2" transform="rotate(133 238.1 262.1)" fill="rgba(255,255,255,.30)"/><rect x="348.8" y="174.2" width="5.2" height="2.6" rx="1.3" transform="rotate(36 351.4 175.4)" fill="rgba(255,255,255,.30)"/><rect x="327.9" y="192.5" width="3.6" height="1.8" rx="0.9" transform="rotate(25 329.7 193.4)" fill="rgba(255,255,255,.30)"/><rect x="125.3" y="372.3" width="3.9" height="2.0" rx="1.0" transform="rotate(71 127.2 373.3)" fill="rgba(255,255,255,.30)"/><rect x="382.4" y="358.2" width="4.0" height="2.0" rx="1.0" transform="rotate(154 384.4 359.2)" fill="rgba(255,255,255,.30)"/><rect x="229.9" y="342.1" width="3.3" height="1.7" rx="0.8" transform="rotate(99 231.5 342.9)" fill="rgba(255,255,255,.30)"/><rect x="126.5" y="229.6" width="4.4" height="2.2" rx="1.1" transform="rotate(44 128.7 230.7)" fill="rgba(255,255,255,.30)"/><rect x="370.1" y="217.7" width="5.0" height="2.5" rx="1.2" transform="rotate(27 372.6 218.9)" fill="rgba(255,255,255,.30)"/><rect x="170.8" y="162.4" width="4.8" height="2.4" rx="1.2" transform="rotate(100 173.2 163.6)" fill="rgba(255,255,255,.30)"/><rect x="219.5" y="407.1" width="3.5" height="1.8" rx="0.9" transform="rotate(16 221.3 408.0)" fill="rgba(255,255,255,.30)"/><rect x="227.7" y="236.2" width="3.1" height="1.6" rx="0.8" transform="rotate(81 229.2 237.0)" fill="rgba(255,255,255,.30)"/><rect x="179.2" y="182.5" width="5.0" height="2.5" rx="1.3" transform="rotate(165 181.8 183.7)" fill="rgba(255,255,255,.30)"/><rect x="147.7" y="390.8" width="3.5" height="1.7" rx="0.9" transform="rotate(40 149.4 391.7)" fill="rgba(255,255,255,.30)"/><rect x="176.0" y="347.4" width="4.2" height="2.1" rx="1.0" transform="rotate(14 178.0 348.4)" fill="rgba(255,255,255,.30)"/><rect x="375.0" y="118.2" width="5.0" height="2.5" rx="1.2" transform="rotate(43 377.5 119.4)" fill="rgba(255,255,255,.30)"/><rect x="354.7" y="210.4" width="3.6" height="1.8" rx="0.9" transform="rotate(153 356.5 211.3)" fill="rgba(255,255,255,.30)"/><rect x="130.7" y="289.0" width="5.0" height="2.5" rx="1.2" transform="rotate(28 133.2 290.3)" fill="rgba(255,255,255,.30)"/><rect x="403.1" y="329.3" width="4.6" height="2.3" rx="1.1" transform="rotate(169 405.4 330.4)" fill="rgba(255,255,255,.30)"/><rect x="218.6" y="235.1" width="4.3" height="2.2" rx="1.1" transform="rotate(135 220.7 236.2)" fill="rgba(255,255,255,.30)"/><rect x="240.4" y="181.8" width="3.8" height="1.9" rx="0.9" transform="rotate(131 242.3 182.7)" fill="rgba(255,255,255,.30)"/><rect x="95.5" y="336.1" width="3.6" height="1.8" rx="0.9" transform="rotate(54 97.3 337.0)" fill="rgba(255,255,255,.30)"/><rect x="264.6" y="404.7" width="3.3" height="1.6" rx="0.8" transform="rotate(9 266.2 405.5)" fill="rgba(255,255,255,.30)"/><rect x="257.8" y="343.6" width="4.9" height="2.4" rx="1.2" transform="rotate(162 260.2 344.8)" fill="rgba(255,255,255,.30)"/><rect x="309.9" y="240.4" width="3.6" height="1.8" rx="0.9" transform="rotate(159 311.7 241.3)" fill="rgba(255,255,255,.30)"/><rect x="422.2" y="160.7" width="4.9" height="2.4" rx="1.2" transform="rotate(61 424.6 161.9)" fill="rgba(255,255,255,.30)"/><rect x="148.1" y="406.1" width="4.3" height="2.2" rx="1.1" transform="rotate(79 150.3 407.2)" fill="rgba(255,255,255,.30)"/><rect x="296.1" y="311.0" width="4.7" height="2.4" rx="1.2" transform="rotate(114 298.5 312.2)" fill="rgba(255,255,255,.30)"/><rect x="284.2" y="180.2" width="4.2" height="2.1" rx="1.0" transform="rotate(145 286.3 181.2)" fill="rgba(255,255,255,.30)"/><rect x="386.8" y="166.1" width="4.8" height="2.4" rx="1.2" transform="rotate(39 389.1 167.3)" fill="rgba(255,255,255,.30)"/><rect x="117.7" y="243.8" width="3.4" height="1.7" rx="0.8" transform="rotate(64 119.4 244.7)" fill="rgba(255,255,255,.30)"/><rect x="323.5" y="199.6" width="4.0" height="2.0" rx="1.0" transform="rotate(90 325.6 200.6)" fill="rgba(255,255,255,.30)"/><rect x="197.9" y="330.9" width="4.5" height="2.3" rx="1.1" transform="rotate(20 200.2 332.1)" fill="rgba(255,255,255,.30)"/><rect x="295.7" y="170.1" width="3.0" height="1.5" rx="0.7" transform="rotate(5 297.2 170.9)" fill="rgba(255,255,255,.30)"/><rect x="162.4" y="348.0" width="4.8" height="2.4" rx="1.2" transform="rotate(176 164.8 349.2)" fill="rgba(255,255,255,.30)"/><rect x="323.1" y="243.4" width="4.0" height="2.0" rx="1.0" transform="rotate(116 325.1 244.4)" fill="rgba(255,255,255,.30)"/><rect x="199.1" y="205.1" width="3.2" height="1.6" rx="0.8" transform="rotate(126 200.7 205.8)" fill="rgba(255,255,255,.30)"/><rect x="316.0" y="278.8" width="5.1" height="2.5" rx="1.3" transform="rotate(67 318.6 280.1)" fill="rgba(255,255,255,.30)"/><rect x="176.2" y="126.2" width="4.4" height="2.2" rx="1.1" transform="rotate(171 178.4 127.3)" fill="rgba(255,255,255,.30)"/><rect x="384.9" y="265.7" width="4.2" height="2.1" rx="1.1" transform="rotate(19 387.0 266.7)" fill="rgba(255,255,255,.30)"/><rect x="260.7" y="223.8" width="3.2" height="1.6" rx="0.8" transform="rotate(70 262.3 224.6)" fill="rgba(255,255,255,.30)"/><rect x="319.4" y="339.4" width="4.5" height="2.3" rx="1.1" transform="rotate(93 321.7 340.5)" fill="rgba(255,255,255,.30)"/><rect x="231.9" y="105.0" width="4.5" height="2.2" rx="1.1" transform="rotate(102 234.1 106.1)" fill="rgba(255,255,255,.30)"/><rect x="213.0" y="218.6" width="3.7" height="1.8" rx="0.9" transform="rotate(94 214.8 219.5)" fill="rgba(255,255,255,.30)"/><rect x="230.9" y="364.7" width="4.6" height="2.3" rx="1.1" transform="rotate(41 233.2 365.8)" fill="rgba(255,255,255,.30)"/><rect x="185.7" y="333.1" width="4.7" height="2.4" rx="1.2" transform="rotate(29 188.1 334.3)" fill="rgba(255,255,255,.30)"/><rect x="243.9" y="301.6" width="4.6" height="2.3" rx="1.1" transform="rotate(84 246.2 302.8)" fill="rgba(255,255,255,.30)"/><rect x="213.5" y="196.2" width="3.3" height="1.6" rx="0.8" transform="rotate(95 215.1 197.0)" fill="rgba(255,255,255,.30)"/><rect x="111.7" y="178.9" width="4.6" height="2.3" rx="1.1" transform="rotate(116 114.0 180.1)" fill="rgba(255,255,255,.30)"/><rect x="367.8" y="228.6" width="5.0" height="2.5" rx="1.2" transform="rotate(176 370.3 229.8)" fill="rgba(255,255,255,.30)"/><rect x="113.0" y="321.1" width="3.9" height="1.9" rx="1.0" transform="rotate(70 114.9 322.1)" fill="rgba(255,255,255,.30)"/><rect x="293.5" y="193.9" width="4.3" height="2.1" rx="1.1" transform="rotate(85 295.6 195.0)" fill="rgba(255,255,255,.30)"/><rect x="244.3" y="192.9" width="4.9" height="2.4" rx="1.2" transform="rotate(94 246.7 194.1)" fill="rgba(255,255,255,.30)"/><rect x="177.7" y="307.2" width="5.0" height="2.5" rx="1.2" transform="rotate(90 180.2 308.4)" fill="rgba(255,255,255,.30)"/><rect x="166.8" y="420.0" width="4.0" height="2.0" rx="1.0" transform="rotate(54 168.8 421.0)" fill="rgba(255,255,255,.30)"/><rect x="239.8" y="140.7" width="3.9" height="1.9" rx="1.0" transform="rotate(74 241.8 141.7)" fill="rgba(255,255,255,.30)"/><rect x="445.5" y="315.5" width="3.3" height="1.7" rx="0.8" transform="rotate(56 447.2 316.4)" fill="rgba(255,255,255,.30)"/><rect x="266.4" y="219.1" width="4.9" height="2.4" rx="1.2" transform="rotate(36 268.8 220.3)" fill="rgba(255,255,255,.30)"/><rect x="80.8" y="198.9" width="4.7" height="2.4" rx="1.2" transform="rotate(126 83.1 200.1)" fill="rgba(255,255,255,.30)"/><rect x="200.2" y="343.5" width="4.7" height="2.4" rx="1.2" transform="rotate(152 202.6 344.7)" fill="rgba(255,255,255,.30)"/><rect x="310.5" y="164.7" width="4.8" height="2.4" rx="1.2" transform="rotate(140 312.9 165.9)" fill="rgba(255,255,255,.30)"/><rect x="353.1" y="321.9" width="3.7" height="1.8" rx="0.9" transform="rotate(163 354.9 322.8)" fill="rgba(255,255,255,.30)"/><rect x="188.8" y="221.6" width="5.0" height="2.5" rx="1.3" transform="rotate(15 191.3 222.8)" fill="rgba(255,255,255,.30)"/><rect x="111.6" y="135.2" width="3.2" height="1.6" rx="0.8" transform="rotate(58 113.2 135.9)" fill="rgba(255,255,255,.30)"/><rect x="330.4" y="369.0" width="4.9" height="2.5" rx="1.2" transform="rotate(119 332.8 370.2)" fill="rgba(255,255,255,.30)"/><rect x="138.3" y="390.5" width="3.6" height="1.8" rx="0.9" transform="rotate(70 140.0 391.4)" fill="rgba(255,255,255,.30)"/><rect x="367.7" y="113.6" width="5.1" height="2.5" rx="1.3" transform="rotate(107 370.3 114.9)" fill="rgba(255,255,255,.30)"/><rect x="450.0" y="246.6" width="2.8" height="1.4" rx="0.7" transform="rotate(157 451.4 247.3)" fill="rgba(255,255,255,.30)"/><rect x="375.7" y="270.4" width="3.0" height="1.5" rx="0.7" transform="rotate(114 377.2 271.2)" fill="rgba(255,255,255,.30)"/><rect x="155.9" y="115.5" width="4.8" height="2.4" rx="1.2" transform="rotate(2 158.3 116.7)" fill="rgba(255,255,255,.30)"/><rect x="226.2" y="429.4" width="5.1" height="2.6" rx="1.3" transform="rotate(92 228.7 430.7)" fill="rgba(255,255,255,.30)"/><rect x="308.9" y="389.4" width="4.1" height="2.1" rx="1.0" transform="rotate(2 310.9 390.4)" fill="rgba(255,255,255,.30)"/><rect x="343.9" y="314.4" width="4.7" height="2.3" rx="1.2" transform="rotate(42 346.3 315.6)" fill="rgba(255,255,255,.30)"/><rect x="162.3" y="241.1" width="5.1" height="2.6" rx="1.3" transform="rotate(91 164.9 242.4)" fill="rgba(255,255,255,.30)"/><rect x="431.2" y="224.8" width="2.9" height="1.5" rx="0.7" transform="rotate(177 432.7 225.5)" fill="rgba(255,255,255,.30)"/><rect x="226.2" y="296.0" width="4.6" height="2.3" rx="1.2" transform="rotate(102 228.5 297.2)" fill="rgba(255,255,255,.30)"/><rect x="263.4" y="227.0" width="4.5" height="2.3" rx="1.1" transform="rotate(46 265.7 228.1)" fill="rgba(255,255,255,.30)"/><rect x="271.9" y="398.7" width="5.1" height="2.5" rx="1.3" transform="rotate(86 274.4 400.0)" fill="rgba(255,255,255,.30)"/><rect x="271.1" y="344.1" width="4.1" height="2.0" rx="1.0" transform="rotate(85 273.2 345.1)" fill="rgba(255,255,255,.30)"/><rect x="313.9" y="86.3" width="3.3" height="1.6" rx="0.8" transform="rotate(82 315.5 87.1)" fill="rgba(255,255,255,.30)"/><rect x="301.2" y="260.7" width="5.2" height="2.6" rx="1.3" transform="rotate(17 303.8 262.0)" fill="rgba(255,255,255,.30)"/><rect x="164.2" y="286.6" width="3.4" height="1.7" rx="0.9" transform="rotate(32 165.9 287.5)" fill="rgba(255,255,255,.30)"/><rect x="230.4" y="175.7" width="4.8" height="2.4" rx="1.2" transform="rotate(134 232.8 176.9)" fill="rgba(255,255,255,.30)"/><rect x="177.1" y="87.6" width="3.0" height="1.5" rx="0.8" transform="rotate(86 178.7 88.3)" fill="rgba(255,255,255,.30)"/><rect x="118.2" y="159.5" width="3.1" height="1.5" rx="0.8" transform="rotate(116 119.7 160.3)" fill="rgba(255,255,255,.30)"/><rect x="184.3" y="378.4" width="3.8" height="1.9" rx="0.9" transform="rotate(123 186.2 379.3)" fill="rgba(255,255,255,.30)"/><rect x="422.2" y="217.8" width="3.7" height="1.9" rx="0.9" transform="rotate(157 424.0 218.7)" fill="rgba(255,255,255,.30)"/><rect x="231.4" y="327.2" width="5.1" height="2.6" rx="1.3" transform="rotate(105 233.9 328.5)" fill="rgba(255,255,255,.30)"/><rect x="82.0" y="210.7" width="4.9" height="2.4" rx="1.2" transform="rotate(173 84.4 211.9)" fill="rgba(255,255,255,.30)"/><rect x="348.9" y="141.2" width="4.6" height="2.3" rx="1.1" transform="rotate(87 351.2 142.4)" fill="rgba(255,255,255,.30)"/><rect x="275.9" y="339.2" width="4.7" height="2.4" rx="1.2" transform="rotate(56 278.3 340.4)" fill="rgba(255,255,255,.30)"/><rect x="345.1" y="337.1" width="4.2" height="2.1" rx="1.1" transform="rotate(48 347.2 338.1)" fill="rgba(255,255,255,.30)"/><rect x="406.1" y="197.5" width="5.0" height="2.5" rx="1.2" transform="rotate(21 408.6 198.7)" fill="rgba(255,255,255,.30)"/><rect x="169.7" y="176.5" width="2.9" height="1.4" rx="0.7" transform="rotate(39 171.1 177.2)" fill="rgba(255,255,255,.30)"/><rect x="302.3" y="289.0" width="4.9" height="2.5" rx="1.2" transform="rotate(167 304.8 290.2)" fill="rgba(255,255,255,.30)"/><rect x="372.2" y="187.6" width="4.0" height="2.0" rx="1.0" transform="rotate(105 374.2 188.6)" fill="rgba(255,255,255,.30)"/><rect x="224.4" y="111.9" width="4.7" height="2.3" rx="1.2" transform="rotate(10 226.7 113.1)" fill="rgba(255,255,255,.30)"/><rect x="153.6" y="349.2" width="3.3" height="1.6" rx="0.8" transform="rotate(149 155.3 350.0)" fill="rgba(255,255,255,.30)"/><rect x="266.1" y="221.3" width="3.7" height="1.9" rx="0.9" transform="rotate(52 268.0 222.2)" fill="rgba(255,255,255,.30)"/><rect x="301.0" y="215.1" width="3.4" height="1.7" rx="0.9" transform="rotate(153 302.7 215.9)" fill="rgba(255,255,255,.30)"/><rect x="248.7" y="303.7" width="4.0" height="2.0" rx="1.0" transform="rotate(103 250.7 304.7)" fill="rgba(255,255,255,.30)"/><rect x="210.2" y="209.8" width="3.1" height="1.5" rx="0.8" transform="rotate(157 211.7 210.6)" fill="rgba(255,255,255,.30)"/><rect x="386.6" y="225.9" width="5.1" height="2.5" rx="1.3" transform="rotate(56 389.2 227.2)" fill="rgba(255,255,255,.30)"/><rect x="297.3" y="131.3" width="3.3" height="1.7" rx="0.8" transform="rotate(47 299.0 132.1)" fill="rgba(255,255,255,.30)"/><rect x="361.6" y="362.9" width="3.1" height="1.5" rx="0.8" transform="rotate(136 363.1 363.7)" fill="rgba(255,255,255,.30)"/><rect x="93.0" y="228.5" width="4.4" height="2.2" rx="1.1" transform="rotate(124 95.2 229.6)" fill="rgba(255,255,255,.30)"/><rect x="347.9" y="429.7" width="3.1" height="1.6" rx="0.8" transform="rotate(173 349.5 430.5)" fill="rgba(255,255,255,.30)"/><rect x="159.2" y="156.9" width="4.9" height="2.5" rx="1.2" transform="rotate(140 161.6 158.2)" fill="rgba(255,255,255,.30)"/><rect x="134.0" y="141.3" width="3.9" height="1.9" rx="1.0" transform="rotate(172 136.0 142.3)" fill="rgba(255,255,255,.30)"/><rect x="281.2" y="218.7" width="4.7" height="2.3" rx="1.2" transform="rotate(16 283.5 219.9)" fill="rgba(255,255,255,.30)"/><rect x="313.6" y="165.1" width="3.2" height="1.6" rx="0.8" transform="rotate(36 315.2 165.9)" fill="rgba(255,255,255,.30)"/><rect x="435.7" y="251.8" width="5.2" height="2.6" rx="1.3" transform="rotate(110 438.3 253.1)" fill="rgba(255,255,255,.30)"/><rect x="82.1" y="300.5" width="3.5" height="1.7" rx="0.9" transform="rotate(103 83.8 301.4)" fill="rgba(255,255,255,.30)"/><rect x="379.5" y="175.0" width="3.0" height="1.5" rx="0.7" transform="rotate(83 380.9 175.8)" fill="rgba(255,255,255,.30)"/><rect x="83.5" y="245.3" width="4.3" height="2.1" rx="1.1" transform="rotate(177 85.7 246.3)" fill="rgba(255,255,255,.30)"/><rect x="420.0" y="191.9" width="2.9" height="1.4" rx="0.7" transform="rotate(137 421.4 192.6)" fill="rgba(255,255,255,.30)"/><rect x="227.1" y="103.8" width="4.9" height="2.4" rx="1.2" transform="rotate(4 229.5 105.0)" fill="rgba(255,255,255,.30)"/><rect x="329.2" y="342.8" width="4.8" height="2.4" rx="1.2" transform="rotate(7 331.6 344.0)" fill="rgba(255,255,255,.30)"/><rect x="173.3" y="290.3" width="2.9" height="1.5" rx="0.7" transform="rotate(71 174.8 291.0)" fill="rgba(255,255,255,.30)"/><rect x="177.9" y="138.7" width="3.8" height="1.9" rx="1.0" transform="rotate(170 179.8 139.7)" fill="rgba(255,255,255,.30)"/><rect x="275.6" y="107.2" width="3.0" height="1.5" rx="0.7" transform="rotate(13 277.1 108.0)" fill="rgba(255,255,255,.30)"/><rect x="341.1" y="285.0" width="4.3" height="2.1" rx="1.1" transform="rotate(94 343.3 286.1)" fill="rgba(255,255,255,.30)"/><rect x="227.0" y="81.4" width="3.4" height="1.7" rx="0.8" transform="rotate(79 228.7 82.2)" fill="rgba(255,255,255,.30)"/><rect x="315.3" y="329.4" width="3.4" height="1.7" rx="0.8" transform="rotate(38 317.0 330.3)" fill="rgba(255,255,255,.30)"/><rect x="328.1" y="165.4" width="3.2" height="1.6" rx="0.8" transform="rotate(55 329.6 166.2)" fill="rgba(255,255,255,.30)"/><rect x="183.5" y="199.5" width="5.1" height="2.5" rx="1.3" transform="rotate(104 186.0 200.8)" fill="rgba(255,255,255,.30)"/><rect x="287.3" y="205.6" width="4.9" height="2.5" rx="1.2" transform="rotate(26 289.7 206.8)" fill="rgba(255,255,255,.30)"/><rect x="152.4" y="393.0" width="4.3" height="2.2" rx="1.1" transform="rotate(36 154.6 394.0)" fill="rgba(255,255,255,.30)"/><rect x="206.0" y="255.2" width="4.6" height="2.3" rx="1.2" transform="rotate(124 208.3 256.3)" fill="rgba(255,255,255,.30)"/><rect x="443.8" y="292.8" width="5.2" height="2.6" rx="1.3" transform="rotate(79 446.4 294.1)" fill="rgba(255,255,255,.30)"/><rect x="324.5" y="389.4" width="3.2" height="1.6" rx="0.8" transform="rotate(91 326.2 390.2)" fill="rgba(255,255,255,.30)"/><rect x="340.0" y="201.0" width="3.9" height="1.9" rx="1.0" transform="rotate(102 341.9 202.0)" fill="rgba(255,255,255,.30)"/><rect x="252.4" y="316.2" width="4.6" height="2.3" rx="1.2" transform="rotate(138 254.8 317.3)" fill="rgba(255,255,255,.30)"/><rect x="170.4" y="311.4" width="4.2" height="2.1" rx="1.0" transform="rotate(25 172.5 312.5)" fill="rgba(255,255,255,.30)"/><rect x="395.9" y="271.6" width="4.4" height="2.2" rx="1.1" transform="rotate(148 398.1 272.7)" fill="rgba(255,255,255,.30)"/><rect x="188.5" y="118.4" width="4.1" height="2.1" rx="1.0" transform="rotate(153 190.6 119.4)" fill="rgba(255,255,255,.30)"/><rect x="80.8" y="178.8" width="4.5" height="2.3" rx="1.1" transform="rotate(72 83.0 179.9)" fill="rgba(255,255,255,.30)"/><rect x="113.9" y="200.9" width="4.5" height="2.2" rx="1.1" transform="rotate(14 116.2 202.0)" fill="rgba(255,255,255,.30)"/><rect x="96.5" y="348.8" width="2.8" height="1.4" rx="0.7" transform="rotate(103 98.0 349.5)" fill="rgba(255,255,255,.30)"/><rect x="279.3" y="448.0" width="3.6" height="1.8" rx="0.9" transform="rotate(21 281.1 448.8)" fill="rgba(255,255,255,.30)"/><rect x="326.6" y="122.9" width="4.9" height="2.5" rx="1.2" transform="rotate(26 329.1 124.1)" fill="rgba(255,255,255,.30)"/><rect x="300.6" y="312.1" width="4.1" height="2.1" rx="1.0" transform="rotate(15 302.6 313.2)" fill="rgba(255,255,255,.30)"/><rect x="301.4" y="272.4" width="3.5" height="1.8" rx="0.9" transform="rotate(18 303.2 273.2)" fill="rgba(255,255,255,.30)"/><rect x="260.7" y="126.7" width="3.2" height="1.6" rx="0.8" transform="rotate(30 262.3 127.5)" fill="rgba(255,255,255,.30)"/><rect x="226.7" y="88.8" width="2.8" height="1.4" rx="0.7" transform="rotate(124 228.1 89.5)" fill="rgba(255,255,255,.30)"/><rect x="174.7" y="397.9" width="4.1" height="2.1" rx="1.0" transform="rotate(51 176.8 398.9)" fill="rgba(255,255,255,.30)"/><rect x="259.7" y="226.7" width="3.5" height="1.7" rx="0.9" transform="rotate(177 261.5 227.6)" fill="rgba(255,255,255,.30)"/><rect x="259.7" y="329.9" width="3.7" height="1.9" rx="0.9" transform="rotate(64 261.6 330.9)" fill="rgba(255,255,255,.30)"/><rect x="116.5" y="293.8" width="4.3" height="2.1" rx="1.1" transform="rotate(17 118.7 294.9)" fill="rgba(255,255,255,.30)"/><rect x="129.9" y="278.8" width="2.9" height="1.5" rx="0.7" transform="rotate(28 131.3 279.6)" fill="rgba(255,255,255,.30)"/><rect x="145.9" y="376.3" width="4.6" height="2.3" rx="1.2" transform="rotate(24 148.2 377.5)" fill="rgba(255,255,255,.30)"/><rect x="365.8" y="259.8" width="3.2" height="1.6" rx="0.8" transform="rotate(26 367.4 260.6)" fill="rgba(255,255,255,.30)"/><rect x="401.5" y="359.1" width="3.4" height="1.7" rx="0.8" transform="rotate(178 403.2 360.0)" fill="rgba(255,255,255,.30)"/><rect x="247.1" y="292.4" width="5.2" height="2.6" rx="1.3" transform="rotate(169 249.7 293.7)" fill="rgba(255,255,255,.30)"/><rect x="118.6" y="292.4" width="3.2" height="1.6" rx="0.8" transform="rotate(169 120.2 293.2)" fill="rgba(255,255,255,.30)"/><rect x="432.4" y="310.4" width="4.9" height="2.5" rx="1.2" transform="rotate(148 434.8 311.6)" fill="rgba(255,255,255,.30)"/><rect x="383.1" y="384.3" width="4.2" height="2.1" rx="1.1" transform="rotate(42 385.2 385.3)" fill="rgba(255,255,255,.30)"/><rect x="396.0" y="345.4" width="4.0" height="2.0" rx="1.0" transform="rotate(55 398.0 346.4)" fill="rgba(255,255,255,.30)"/><rect x="152.8" y="296.4" width="4.5" height="2.2" rx="1.1" transform="rotate(40 155.0 297.5)" fill="rgba(255,255,255,.30)"/></g><g><g transform="translate(152.2 149.8) rotate(-24) scale(1.00)"><path d="M0 -22 C 16 -22 20 0 12 16 C 6 26 -6 26 -12 16 C -20 0 -16 -22 0 -22 Z" fill="#7FB069"/><path d="M0 -16 C 11 -16 14 0 8 12 C 4 19 -4 19 -8 12 C -14 0 -11 -16 0 -16 Z" fill="#A7CE8B"/><ellipse cx="0" cy="-1" rx="5.5" ry="6.5" fill="#C9B27E"/></g><g transform="translate(403.2 239.8) rotate(-29) scale(1.00)"><rect x="-16" y="-11" width="32" height="22" rx="7" fill="#E0A96D"/><rect x="-16" y="-11" width="32" height="22" rx="7" fill="none" stroke="#B07C42" stroke-width="2" opacity=".6"/><path d="M-10 0 H10 M-8 -5 H8 M-8 5 H8" stroke="#B07C42" stroke-width="1.4" opacity=".45"/></g><g transform="translate(145.7 203.7) rotate(0) scale(1.00)"><path d="M0 -22 C 16 -22 20 0 12 16 C 6 26 -6 26 -12 16 C -20 0 -16 -22 0 -22 Z" fill="#7FB069"/><path d="M0 -16 C 11 -16 14 0 8 12 C 4 19 -4 19 -8 12 C -14 0 -11 -16 0 -16 Z" fill="#A7CE8B"/><ellipse cx="0" cy="-1" rx="5.5" ry="6.5" fill="#C9B27E"/></g><g transform="translate(180.3 270.8) rotate(3) scale(1.00)"><circle r="13" fill="#BFE3A8"/><circle r="13" fill="none" stroke="#6FA84A" stroke-width="2.5"/><circle r="6" fill="#D8F0C4"/></g><g transform="translate(369.4 325.9) scale(1.00)"><circle r="12" fill="#E4572E"/><circle r="12" fill="url(#tomGloss)"/><ellipse cx="-3.5" cy="-4.5" rx="3.2" ry="2" fill="#fff" opacity=".55"/></g><g transform="translate(207.7 230.7) rotate(10) scale(1.00)"><path d="M0 -22 C 16 -22 20 0 12 16 C 6 26 -6 26 -12 16 C -20 0 -16 -22 0 -22 Z" fill="#7FB069"/><path d="M0 -16 C 11 -16 14 0 8 12 C 4 19 -4 19 -8 12 C -14 0 -11 -16 0 -16 Z" fill="#A7CE8B"/><ellipse cx="0" cy="-1" rx="5.5" ry="6.5" fill="#C9B27E"/></g><g transform="translate(126.9 314.0) rotate(67) scale(1.00)"><circle r="13" fill="#BFE3A8"/><circle r="13" fill="none" stroke="#6FA84A" stroke-width="2.5"/><circle r="6" fill="#D8F0C4"/></g><g transform="translate(347.2 251.0) rotate(31) scale(1.00)"><rect x="-16" y="-11" width="32" height="22" rx="7" fill="#E0A96D"/><rect x="-16" y="-11" width="32" height="22" rx="7" fill="none" stroke="#B07C42" stroke-width="2" opacity=".6"/><path d="M-10 0 H10 M-8 -5 H8 M-8 5 H8" stroke="#B07C42" stroke-width="1.4" opacity=".45"/></g><g transform="translate(248.1 312.4) rotate(261) scale(1.20)"><path d="M0 0 C 10 -18 26 -18 30 0 C 26 18 10 18 0 0 Z" fill="#57A65A"/><path d="M4 0 L 27 0" stroke="rgba(0,0,0,.10)" stroke-width="1.4" fill="none"/></g><g transform="translate(218.4 209.0) rotate(-19) scale(1.00)"><path d="M0 -22 C 16 -22 20 0 12 16 C 6 26 -6 26 -12 16 C -20 0 -16 -22 0 -22 Z" fill="#7FB069"/><path d="M0 -16 C 11 -16 14 0 8 12 C 4 19 -4 19 -8 12 C -14 0 -11 -16 0 -16 Z" fill="#A7CE8B"/><ellipse cx="0" cy="-1" rx="5.5" ry="6.5" fill="#C9B27E"/></g><g transform="translate(269.3 387.5) rotate(322) scale(1.20)"><path d="M0 0 C 10 -18 26 -18 30 0 C 26 18 10 18 0 0 Z" fill="#57A65A"/><path d="M4 0 L 27 0" stroke="rgba(0,0,0,.10)" stroke-width="1.4" fill="none"/></g><g transform="translate(208.6 389.7) rotate(127) scale(1.20)"><path d="M0 0 C 10 -18 26 -18 30 0 C 26 18 10 18 0 0 Z" fill="#2F7D3A"/><path d="M4 0 L 27 0" stroke="rgba(0,0,0,.10)" stroke-width="1.4" fill="none"/></g><g transform="translate(227.6 170.6) rotate(-9) scale(1.00)"><path d="M0 -22 C 16 -22 20 0 12 16 C 6 26 -6 26 -12 16 C -20 0 -16 -22 0 -22 Z" fill="#7FB069"/><path d="M0 -16 C 11 -16 14 0 8 12 C 4 19 -4 19 -8 12 C -14 0 -11 -16 0 -16 Z" fill="#A7CE8B"/><ellipse cx="0" cy="-1" rx="5.5" ry="6.5" fill="#C9B27E"/></g><g transform="translate(260.6 246.7)"><circle cx="-0.4" cy="2.6" r="2.2" fill="#3B2F1E"/><circle cx="-0.3" cy="-5.7" r="1.6" fill="#3B2F1E"/><circle cx="9.6" cy="3.3" r="2.1" fill="#3B2F1E"/><circle cx="-2.9" cy="4.4" r="2.1" fill="#3B2F1E"/><circle cx="-8.3" cy="6.8" r="2.1" fill="#3B2F1E"/><circle cx="10.2" cy="-8.0" r="1.5" fill="#3B2F1E"/><circle cx="9.2" cy="-2.0" r="1.6" fill="#3B2F1E"/><circle cx="3.4" cy="-3.8" r="1.6" fill="#3B2F1E"/><circle cx="-2.4" cy="-6.3" r="2.1" fill="#3B2F1E"/></g><g transform="translate(283.8 231.3)"><circle cx="-7.4" cy="10.0" r="2.1" fill="#3B2F1E"/><circle cx="-8.9" cy="9.5" r="1.7" fill="#3B2F1E"/><circle cx="-5.0" cy="6.5" r="2.1" fill="#3B2F1E"/><circle cx="-10.0" cy="-7.3" r="1.5" fill="#3B2F1E"/><circle cx="-3.7" cy="-0.6" r="1.9" fill="#3B2F1E"/><circle cx="3.0" cy="10.7" r="1.7" fill="#3B2F1E"/><circle cx="-5.9" cy="7.1" r="2.2" fill="#3B2F1E"/><circle cx="-0.0" cy="3.8" r="2.2" fill="#3B2F1E"/><circle cx="-4.9" cy="6.4" r="1.9" fill="#3B2F1E"/></g><g transform="translate(165.6 300.1) rotate(2) scale(1.00)"><circle r="13" fill="#BFE3A8"/><circle r="13" fill="none" stroke="#6FA84A" stroke-width="2.5"/><circle r="6" fill="#D8F0C4"/></g><g transform="translate(250.3 397.7) rotate(3) scale(1.20)"><path d="M0 0 C 10 -18 26 -18 30 0 C 26 18 10 18 0 0 Z" fill="#57A65A"/><path d="M4 0 L 27 0" stroke="rgba(0,0,0,.10)" stroke-width="1.4" fill="none"/></g><g transform="translate(209.6 298.0) rotate(214) scale(1.20)"><path d="M0 0 C 10 -18 26 -18 30 0 C 26 18 10 18 0 0 Z" fill="#2F7D3A"/><path d="M4 0 L 27 0" stroke="rgba(0,0,0,.10)" stroke-width="1.4" fill="none"/></g><g transform="translate(294.3 297.3) scale(1.00)"><circle r="12" fill="#E4572E"/><circle r="12" fill="url(#tomGloss)"/><ellipse cx="-3.5" cy="-4.5" rx="3.2" ry="2" fill="#fff" opacity=".55"/></g><g transform="translate(269.0 340.8) scale(1.00)"><circle r="12" fill="#E4572E"/><circle r="12" fill="url(#tomGloss)"/><ellipse cx="-3.5" cy="-4.5" rx="3.2" ry="2" fill="#fff" opacity=".55"/></g><g transform="translate(361.9 223.6) rotate(-11) scale(1.00)"><rect x="-16" y="-11" width="32" height="22" rx="7" fill="#E0A96D"/><rect x="-16" y="-11" width="32" height="22" rx="7" fill="none" stroke="#B07C42" stroke-width="2" opacity=".6"/><path d="M-10 0 H10 M-8 -5 H8 M-8 5 H8" stroke="#B07C42" stroke-width="1.4" opacity=".45"/></g><g transform="translate(338.5 314.1) scale(1.00)"><circle r="12" fill="#E4572E"/><circle r="12" fill="url(#tomGloss)"/><ellipse cx="-3.5" cy="-4.5" rx="3.2" ry="2" fill="#fff" opacity=".55"/></g><g transform="translate(284.3 322.3) scale(1.00)"><circle r="12" fill="#E4572E"/><circle r="12" fill="url(#tomGloss)"/><ellipse cx="-3.5" cy="-4.5" rx="3.2" ry="2" fill="#fff" opacity=".55"/></g></g><path d="M 110 140 A 200 200 0 0 1 380 100" fill="none" stroke="rgba(255,255,255,.5)" stroke-width="10" stroke-linecap="round" opacity=".5"/></svg>