<svg xmlns="http://www.w3.org/2000/svg" viewBox="0 0 24 24" fill="currentColor"><path d="M17.5 14.4c-.3-.2-1.7-.8-2-.9-.3-.1-.5-.2-.6.2-.2.3-.7.9-.9 1-.2.2-.3.2-.6 0-1.7-.8-2.8-1.5-3.9-3.4-.3-.5.3-.5.8-1.5.1-.2 0-.4 0-.5 0-.2-.6-1.5-.9-2-.2-.5-.4-.5-.6-.5h-.5c-.2 0-.5.1-.7.3-.3.3-1 1-1 2.4s1 2.8 1.2 3c.2.2 2 3.1 5 4.3 1.9.8 2.6.9 3.5.7.6-.1 1.7-.7 1.9-1.4.2-.6.2-1.2.2-1.4-.1-.1-.3-.2-.6-.3Z"/><path d="M12 2a10 10 0 0 0-8.6 15L2 22l5.1-1.3A10 10 0 1 0 12 2Zm0 18.2a8.2 8.2 0 0 1-4.2-1.1l-.3-.2-3 .8.8-2.9-.2-.3A8.2 8.2 0 1 1 12 20.2Z"/></svg>