<svg xmlns="http://www.w3.org/2000/svg" viewBox="0 0 520 520" role="img" aria-label="Bowl saludable ilustrado"><defs><radialGradient id="tomGloss" cx="35%" cy="30%" r="75%"><stop offset="0%" stop-color="#ff8b5e"/><stop offset="55%" stop-color="#E4572E" stop-opacity="0"/></radialGradient><radialGradient id="baseg_bowl-verde" cx="42%" cy="38%" r="70%"><stop offset="0%" stop-color="#EFF6E4"/><stop offset="100%" stop-color="#E4EFD6"/></radialGradient><radialGradient id="shadow" cx="50%" cy="50%" r="50%"><stop offset="60%" stop-color="rgba(20,48,31,.16)"/><stop offset="100%" stop-color="rgba(20,48,31,0)"/></radialGradient></defs><ellipse cx="260" cy="278" rx="238" ry="230" fill="url(#shadow)"/><circle cx="260" cy="260" r="232" fill="#D6E7C6"/><circle cx="260" cy="260" r="218" fill="#fff" opacity=".55"/><circle cx="260" cy="260" r="204" fill="url(#baseg_bowl-verde)"/><g><rect x="417.9" y="316.4" width="3.8" height="1.9" rx="1.0" transform="rotate(51 419.8 317.4)" fill="rgba(255,255,255,.30)"/><rect x="216.8" y="167.0" width="4.7" height="2.4" rx="1.2" transform="rotate(83 219.1 168.2)" fill="rgba(255,255,255,.30)"/><rect x="266.1" y="93.5" width="4.3" height="2.2" rx="1.1" transform="rotate(165 268.3 94.5)" fill="rgba(255,255,255,.30)"/><rect x="415.8" y="257.1" width="4.5" height="2.2" rx="1.1" transform="rotate(17 418.0 258.2)" fill="rgba(255,255,255,.30)"/><rect x="397.7" y="349.4" width="4.6" height="2.3" rx="1.1" transform="rotate(105 400.0 350.5)" fill="rgba(255,255,255,.30)"/><rect x="266.8" y="220.9" width="4.4" height="2.2" rx="1.1" transform="rotate(15 269.0 222.0)" fill="rgba(255,255,255,.30)"/><rect x="230.8" y="230.5" width="4.4" height="2.2" rx="1.1" transform="rotate(18 233.0 231.6)" fill="rgba(255,255,255,.30)"/><rect x="166.6" y="364.1" width="5.2" height="2.6" rx="1.3" transform="rotate(59 169.1 365.4)" fill="rgba(255,255,255,.30)"/><rect x="270.3" y="167.6" width="3.7" height="1.8" rx="0.9" transform="rotate(56 272.1 168.6)" fill="rgba(255,255,255,.30)"/><rect x="170.8" y="300.1" width="3.2" height="1.6" rx="0.8" transform="rotate(143 172.4 300.9)" fill="rgba(255,255,255,.30)"/><rect x="393.0" y="249.2" width="4.8" height="2.4" rx="1.2" transform="rotate(149 395.4 250.4)" fill="rgba(255,255,255,.30)"/><rect x="243.4" y="301.9" width="3.4" height="1.7" rx="0.9" transform="rotate(94 245.1 302.8)" fill="rgba(255,255,255,.30)"/><rect x="225.8" y="361.7" width="2.9" height="1.5" rx="0.7" transform="rotate(77 227.3 362.5)" fill="rgba(255,255,255,.30)"/><rect x="319.7" y="397.4" width="4.4" height="2.2" rx="1.1" transform="rotate(68 321.9 398.6)" fill="rgba(255,255,255,.30)"/><rect x="345.3" y="274.9" width="4.8" height="2.4" rx="1.2" transform="rotate(139 347.7 276.1)" fill="rgba(255,255,255,.30)"/><rect x="323.3" y="310.7" width="5.1" height="2.6" rx="1.3" transform="rotate(46 325.9 312.0)" fill="rgba(255,255,255,.30)"/><rect x="165.2" y="290.6" width="4.2" height="2.1" rx="1.1" transform="rotate(178 167.3 291.6)" fill="rgba(255,255,255,.30)"/><rect x="350.3" y="218.3" width="4.1" height="2.1" rx="1.0" transform="rotate(95 352.3 219.3)" fill="rgba(255,255,255,.30)"/><rect x="290.8" y="77.8" width="3.2" height="1.6" rx="0.8" transform="rotate(4 292.4 78.6)" fill="rgba(255,255,255,.30)"/><rect x="296.0" y="388.6" width="4.3" height="2.1" rx="1.1" transform="rotate(97 298.1 389.7)" fill="rgba(255,255,255,.30)"/><rect x="295.0" y="125.2" width="3.1" height="1.6" rx="0.8" transform="rotate(22 296.6 126.0)" fill="rgba(255,255,255,.30)"/><rect x="307.8" y="308.3" width="4.0" height="2.0" rx="1.0" transform="rotate(68 309.8 309.3)" fill="rgba(255,255,255,.30)"/><rect x="399.4" y="209.7" width="4.8" height="2.4" rx="1.2" transform="rotate(12 401.8 210.9)" fill="rgba(255,255,255,.30)"/><rect x="335.1" y="271.8" width="3.0" height="1.5" rx="0.8" transform="rotate(47 336.6 272.6)" fill="rgba(255,255,255,.30)"/><rect x="256.8" y="307.1" width="4.7" height="2.3" rx="1.2" transform="rotate(105 259.2 308.3)" fill="rgba(255,255,255,.30)"/><rect x="326.7" y="252.0" width="4.4" height="2.2" rx="1.1" transform="rotate(145 328.8 253.1)" fill="rgba(255,255,255,.30)"/><rect x="214.1" y="309.3" width="4.1" height="2.1" rx="1.0" transform="rotate(125 216.2 310.3)" fill="rgba(255,255,255,.30)"/><rect x="242.0" y="440.4" width="3.8" height="1.9" rx="1.0" transform="rotate(145 243.9 441.3)" fill="rgba(255,255,255,.30)"/><rect x="215.5" y="225.5" width="4.3" height="2.1" rx="1.1" transform="rotate(142 217.6 226.5)" fill="rgba(255,255,255,.30)"/><rect x="309.9" y="151.4" width="3.6" height="1.8" rx="0.9" transform="rotate(149 311.6 152.3)" fill="rgba(255,255,255,.30)"/><rect x="329.6" y="211.8" width="4.1" height="2.1" rx="1.0" transform="rotate(34 331.6 212.8)" fill="rgba(255,255,255,.30)"/><rect x="180.9" y="160.7" width="4.3" height="2.2" rx="1.1" transform="rotate(9 183.1 161.8)" fill="rgba(255,255,255,.30)"/><rect x="138.3" y="179.7" width="4.7" height="2.4" rx="1.2" transform="rotate(172 140.6 180.9)" fill="rgba(255,255,255,.30)"/><rect x="140.8" y="180.0" width="5.2" height="2.6" rx="1.3" transform="rotate(72 143.4 181.3)" fill="rgba(255,255,255,.30)"/><rect x="401.1" y="280.3" width="4.9" height="2.4" rx="1.2" transform="rotate(78 403.5 281.5)" fill="rgba(255,255,255,.30)"/><rect x="132.8" y="235.8" width="4.5" height="2.3" rx="1.1" transform="rotate(52 135.1 236.9)" fill="rgba(255,255,255,.30)"/><rect x="235.0" y="274.5" width="2.8" height="1.4" rx="0.7" transform="rotate(29 236.4 275.2)" fill="rgba(255,255,255,.30)"/><rect x="93.4" y="327.7" width="4.9" height="2.4" rx="1.2" transform="rotate(177 95.8 329.0)" fill="rgba(255,255,255,.30)"/><rect x="134.6" y="185.6" width="3.9" height="1.9" rx="1.0" transform="rotate(2 136.5 186.6)" fill="rgba(255,255,255,.30)"/><rect x="338.1" y="151.4" width="3.1" height="1.5" rx="0.8" transform="rotate(130 339.7 152.2)" fill="rgba(255,255,255,.30)"/><rect x="310.5" y="155.8" width="3.2" height="1.6" rx="0.8" transform="rotate(41 312.1 156.6)" fill="rgba(255,255,255,.30)"/><rect x="381.7" y="286.0" width="5.2" height="2.6" rx="1.3" transform="rotate(162 384.3 287.3)" fill="rgba(255,255,255,.30)"/><rect x="122.7" y="252.2" width="3.6" height="1.8" rx="0.9" transform="rotate(133 124.5 253.1)" fill="rgba(255,255,255,.30)"/><rect x="202.1" y="150.2" width="3.5" height="1.8" rx="0.9" transform="rotate(31 203.8 151.1)" fill="rgba(255,255,255,.30)"/><rect x="213.4" y="246.6" width="4.4" height="2.2" rx="1.1" transform="rotate(74 215.6 247.7)" fill="rgba(255,255,255,.30)"/><rect x="193.9" y="344.9" width="5.0" height="2.5" rx="1.3" transform="rotate(93 196.5 346.2)" fill="rgba(255,255,255,.30)"/><rect x="421.9" y="193.6" width="4.4" height="2.2" rx="1.1" transform="rotate(9 424.1 194.7)" fill="rgba(255,255,255,.30)"/><rect x="418.4" y="294.7" width="3.6" height="1.8" rx="0.9" transform="rotate(66 420.2 295.6)" fill="rgba(255,255,255,.30)"/><rect x="233.2" y="290.0" width="4.8" height="2.4" rx="1.2" transform="rotate(157 235.7 291.2)" fill="rgba(255,255,255,.30)"/><rect x="176.8" y="252.5" width="4.7" height="2.4" rx="1.2" transform="rotate(3 179.1 253.7)" fill="rgba(255,255,255,.30)"/><rect x="91.7" y="254.2" width="3.0" height="1.5" rx="0.8" transform="rotate(60 93.2 254.9)" fill="rgba(255,255,255,.30)"/><rect x="157.3" y="109.7" width="5.0" height="2.5" rx="1.2" transform="rotate(78 159.7 111.0)" fill="rgba(255,255,255,.30)"/><rect x="316.8" y="335.8" width="3.0" height="1.5" rx="0.7" transform="rotate(77 318.3 336.6)" fill="rgba(255,255,255,.30)"/><rect x="152.7" y="219.6" width="3.5" height="1.7" rx="0.9" transform="rotate(161 154.4 220.5)" fill="rgba(255,255,255,.30)"/><rect x="343.0" y="290.0" width="3.3" height="1.7" rx="0.8" transform="rotate(71 344.7 290.8)" fill="rgba(255,255,255,.30)"/><rect x="286.5" y="426.2" width="4.7" height="2.3" rx="1.2" transform="rotate(91 288.9 427.4)" fill="rgba(255,255,255,.30)"/><rect x="221.6" y="80.9" width="3.9" height="1.9" rx="1.0" transform="rotate(3 223.5 81.9)" fill="rgba(255,255,255,.30)"/><rect x="430.3" y="298.4" width="4.8" height="2.4" rx="1.2" transform="rotate(43 432.7 299.6)" fill="rgba(255,255,255,.30)"/><rect x="209.7" y="282.8" width="2.9" height="1.5" rx="0.7" transform="rotate(24 211.2 283.5)" fill="rgba(255,255,255,.30)"/><rect x="275.5" y="161.3" width="4.3" height="2.2" rx="1.1" transform="rotate(88 277.6 162.4)" fill="rgba(255,255,255,.30)"/><rect x="218.0" y="227.0" width="3.7" height="1.8" rx="0.9" transform="rotate(34 219.8 227.9)" fill="rgba(255,255,255,.30)"/><rect x="188.0" y="362.4" width="4.1" height="2.1" rx="1.0" transform="rotate(128 190.1 363.5)" fill="rgba(255,255,255,.30)"/><rect x="352.6" y="246.4" width="3.1" height="1.6" rx="0.8" transform="rotate(176 354.1 247.2)" fill="rgba(255,255,255,.30)"/><rect x="236.3" y="227.5" width="5.0" height="2.5" rx="1.2" transform="rotate(118 238.7 228.7)" fill="rgba(255,255,255,.30)"/><rect x="380.1" y="291.2" width="4.1" height="2.1" rx="1.0" transform="rotate(119 382.2 292.2)" fill="rgba(255,255,255,.30)"/><rect x="98.9" y="311.8" width="3.6" height="1.8" rx="0.9" transform="rotate(106 100.7 312.7)" fill="rgba(255,255,255,.30)"/><rect x="294.1" y="223.0" width="4.6" height="2.3" rx="1.2" transform="rotate(72 296.4 224.2)" fill="rgba(255,255,255,.30)"/><rect x="234.4" y="215.9" width="3.1" height="1.5" rx="0.8" transform="rotate(138 236.0 216.6)" fill="rgba(255,255,255,.30)"/><rect x="284.8" y="225.8" width="3.6" height="1.8" rx="0.9" transform="rotate(148 286.6 226.7)" fill="rgba(255,255,255,.30)"/><rect x="165.1" y="159.9" width="4.9" height="2.5" rx="1.2" transform="rotate(121 167.5 161.1)" fill="rgba(255,255,255,.30)"/><rect x="93.0" y="237.3" width="3.7" height="1.8" rx="0.9" transform="rotate(174 94.8 238.2)" fill="rgba(255,255,255,.30)"/><rect x="416.8" y="285.4" width="4.0" height="2.0" rx="1.0" transform="rotate(32 418.8 286.4)" fill="rgba(255,255,255,.30)"/><rect x="311.1" y="261.2" width="3.9" height="2.0" rx="1.0" transform="rotate(107 313.1 262.2)" fill="rgba(255,255,255,.30)"/><rect x="317.0" y="376.2" width="4.2" height="2.1" rx="1.1" transform="rotate(134 319.1 377.2)" fill="rgba(255,255,255,.30)"/><rect x="162.4" y="159.1" width="3.7" height="1.8" rx="0.9" transform="rotate(43 164.2 160.0)" fill="rgba(255,255,255,.30)"/><rect x="272.6" y="232.5" width="3.5" height="1.8" rx="0.9" transform="rotate(127 274.3 233.4)" fill="rgba(255,255,255,.30)"/><rect x="122.9" y="334.2" width="3.4" height="1.7" rx="0.9" transform="rotate(69 124.6 335.1)" fill="rgba(255,255,255,.30)"/><rect x="250.8" y="137.8" width="3.3" height="1.6" rx="0.8" transform="rotate(47 252.4 138.6)" fill="rgba(255,255,255,.30)"/><rect x="350.2" y="133.1" width="2.8" height="1.4" rx="0.7" transform="rotate(178 351.6 133.8)" fill="rgba(255,255,255,.30)"/><rect x="282.0" y="180.2" width="3.1" height="1.5" rx="0.8" transform="rotate(15 283.6 181.0)" fill="rgba(255,255,255,.30)"/><rect x="418.4" y="249.2" width="4.2" height="2.1" rx="1.0" transform="rotate(4 420.4 250.3)" fill="rgba(255,255,255,.30)"/><rect x="179.9" y="284.1" width="4.3" height="2.2" rx="1.1" transform="rotate(45 182.1 285.2)" fill="rgba(255,255,255,.30)"/><rect x="137.6" y="364.2" width="3.8" height="1.9" rx="0.9" transform="rotate(18 139.4 365.2)" fill="rgba(255,255,255,.30)"/><rect x="132.2" y="132.5" width="4.9" height="2.5" rx="1.2" transform="rotate(99 134.7 133.8)" fill="rgba(255,255,255,.30)"/><rect x="377.9" y="397.3" width="3.8" height="1.9" rx="0.9" transform="rotate(23 379.8 398.3)" fill="rgba(255,255,255,.30)"/><rect x="107.8" y="141.5" width="2.9" height="1.5" rx="0.7" transform="rotate(20 109.2 142.3)" fill="rgba(255,255,255,.30)"/><rect x="407.9" y="170.7" width="4.1" height="2.0" rx="1.0" transform="rotate(21 409.9 171.7)" fill="rgba(255,255,255,.30)"/><rect x="66.1" y="241.7" width="2.9" height="1.5" rx="0.7" transform="rotate(147 67.6 242.5)" fill="rgba(255,255,255,.30)"/><rect x="318.3" y="275.5" width="3.7" height="1.8" rx="0.9" transform="rotate(10 320.2 276.5)" fill="rgba(255,255,255,.30)"/><rect x="368.7" y="268.8" width="4.3" height="2.2" rx="1.1" transform="rotate(63 370.9 269.8)" fill="rgba(255,255,255,.30)"/><rect x="138.2" y="294.4" width="3.4" height="1.7" rx="0.8" transform="rotate(70 139.9 295.2)" fill="rgba(255,255,255,.30)"/><rect x="238.4" y="200.3" width="3.4" height="1.7" rx="0.8" transform="rotate(161 240.1 201.1)" fill="rgba(255,255,255,.30)"/><rect x="280.8" y="123.5" width="2.9" height="1.4" rx="0.7" transform="rotate(158 282.2 124.2)" fill="rgba(255,255,255,.30)"/><rect x="290.5" y="75.2" width="5.0" height="2.5" rx="1.3" transform="rotate(81 293.1 76.4)" fill="rgba(255,255,255,.30)"/><rect x="129.4" y="346.6" width="3.1" height="1.5" rx="0.8" transform="rotate(87 130.9 347.4)" fill="rgba(255,255,255,.30)"/><rect x="333.1" y="212.5" width="3.8" height="1.9" rx="0.9" transform="rotate(99 335.0 213.4)" fill="rgba(255,255,255,.30)"/><rect x="381.1" y="326.0" width="3.6" height="1.8" rx="0.9" transform="rotate(35 382.8 326.9)" fill="rgba(255,255,255,.30)"/><rect x="257.5" y="435.7" width="4.8" height="2.4" rx="1.2" transform="rotate(40 259.9 436.9)" fill="rgba(255,255,255,.30)"/><rect x="255.5" y="141.0" width="3.9" height="1.9" rx="1.0" transform="rotate(179 257.4 142.0)" fill="rgba(255,255,255,.30)"/><rect x="223.2" y="399.8" width="4.8" height="2.4" rx="1.2" transform="rotate(88 225.6 401.0)" fill="rgba(255,255,255,.30)"/><rect x="302.0" y="182.5" width="4.7" height="2.4" rx="1.2" transform="rotate(163 304.3 183.6)" fill="rgba(255,255,255,.30)"/><rect x="358.6" y="366.8" width="5.2" height="2.6" rx="1.3" transform="rotate(88 361.2 368.1)" fill="rgba(255,255,255,.30)"/><rect x="392.9" y="222.7" width="4.8" height="2.4" rx="1.2" transform="rotate(70 395.2 223.9)" fill="rgba(255,255,255,.30)"/><rect x="385.3" y="254.1" width="3.2" height="1.6" rx="0.8" transform="rotate(43 386.9 254.9)" fill="rgba(255,255,255,.30)"/><rect x="424.0" y="309.7" width="4.5" height="2.3" rx="1.1" transform="rotate(82 426.3 310.8)" fill="rgba(255,255,255,.30)"/><rect x="212.1" y="231.2" width="2.8" height="1.4" rx="0.7" transform="rotate(160 213.5 231.9)" fill="rgba(255,255,255,.30)"/><rect x="331.4" y="305.2" width="3.0" height="1.5" rx="0.8" transform="rotate(24 332.9 306.0)" fill="rgba(255,255,255,.30)"/><rect x="156.7" y="294.0" width="4.3" height="2.1" rx="1.1" transform="rotate(94 158.9 295.0)" fill="rgba(255,255,255,.30)"/><rect x="256.4" y="228.8" width="3.6" height="1.8" rx="0.9" transform="rotate(7 258.2 229.7)" fill="rgba(255,255,255,.30)"/><rect x="328.3" y="157.0" width="4.5" height="2.2" rx="1.1" transform="rotate(15 330.6 158.2)" fill="rgba(255,255,255,.30)"/><rect x="380.8" y="308.0" width="3.3" height="1.7" rx="0.8" transform="rotate(5 382.5 308.8)" fill="rgba(255,255,255,.30)"/><rect x="348.8" y="97.6" width="3.8" height="1.9" rx="1.0" transform="rotate(23 350.7 98.6)" fill="rgba(255,255,255,.30)"/><rect x="331.4" y="365.3" width="5.2" height="2.6" rx="1.3" transform="rotate(0 334.0 366.6)" fill="rgba(255,255,255,.30)"/><rect x="408.5" y="187.7" width="3.7" height="1.9" rx="0.9" transform="rotate(45 410.4 188.7)" fill="rgba(255,255,255,.30)"/><rect x="344.9" y="260.5" width="3.3" height="1.7" rx="0.8" transform="rotate(90 346.5 261.4)" fill="rgba(255,255,255,.30)"/><rect x="366.6" y="259.6" width="3.7" height="1.9" rx="0.9" transform="rotate(73 368.5 260.5)" fill="rgba(255,255,255,.30)"/><rect x="429.4" y="222.8" width="3.1" height="1.6" rx="0.8" transform="rotate(50 431.0 223.6)" fill="rgba(255,255,255,.30)"/><rect x="140.5" y="102.6" width="5.0" height="2.5" rx="1.2" transform="rotate(106 143.0 103.9)" fill="rgba(255,255,255,.30)"/><rect x="323.9" y="108.9" width="3.2" height="1.6" rx="0.8" transform="rotate(120 325.5 109.7)" fill="rgba(255,255,255,.30)"/><rect x="145.5" y="282.1" width="4.3" height="2.2" rx="1.1" transform="rotate(59 147.7 283.2)" fill="rgba(255,255,255,.30)"/><rect x="104.6" y="255.4" width="3.6" height="1.8" rx="0.9" transform="rotate(58 106.4 256.3)" fill="rgba(255,255,255,.30)"/><rect x="299.7" y="400.8" width="3.8" height="1.9" rx="1.0" transform="rotate(131 301.6 401.7)" fill="rgba(255,255,255,.30)"/><rect x="220.2" y="121.0" width="2.8" height="1.4" rx="0.7" transform="rotate(66 221.6 121.7)" fill="rgba(255,255,255,.30)"/><rect x="351.8" y="153.4" width="4.6" height="2.3" rx="1.2" transform="rotate(85 354.1 154.6)" fill="rgba(255,255,255,.30)"/><rect x="248.7" y="392.9" width="3.7" height="1.9" rx="0.9" transform="rotate(177 250.5 393.8)" fill="rgba(255,255,255,.30)"/><rect x="171.7" y="279.3" width="4.1" height="2.1" rx="1.0" transform="rotate(167 173.8 280.4)" fill="rgba(255,255,255,.30)"/><rect x="276.0" y="452.6" width="3.1" height="1.5" rx="0.8" transform="rotate(178 277.5 453.4)" fill="rgba(255,255,255,.30)"/><rect x="213.1" y="384.0" width="5.1" height="2.5" rx="1.3" transform="rotate(117 215.6 385.3)" fill="rgba(255,255,255,.30)"/><rect x="220.2" y="393.5" width="3.8" height="1.9" rx="1.0" transform="rotate(177 222.1 394.5)" fill="rgba(255,255,255,.30)"/><rect x="370.6" y="215.1" width="5.1" height="2.6" rx="1.3" transform="rotate(139 373.2 216.4)" fill="rgba(255,255,255,.30)"/><rect x="221.5" y="385.1" width="4.7" height="2.4" rx="1.2" transform="rotate(14 223.9 386.2)" fill="rgba(255,255,255,.30)"/><rect x="361.2" y="105.5" width="3.5" height="1.8" rx="0.9" transform="rotate(142 362.9 106.4)" fill="rgba(255,255,255,.30)"/><rect x="441.5" y="276.3" width="2.9" height="1.4" rx="0.7" transform="rotate(169 443.0 277.0)" fill="rgba(255,255,255,.30)"/><rect x="300.5" y="314.5" width="3.9" height="1.9" rx="1.0" transform="rotate(35 302.4 315.5)" fill="rgba(255,255,255,.30)"/><rect x="294.2" y="348.9" width="3.2" height="1.6" rx="0.8" transform="rotate(84 295.8 349.7)" fill="rgba(255,255,255,.30)"/><rect x="299.9" y="447.5" width="4.3" height="2.2" rx="1.1" transform="rotate(107 302.0 448.6)" fill="rgba(255,255,255,.30)"/><rect x="284.8" y="136.0" width="4.4" height="2.2" rx="1.1" transform="rotate(49 287.0 137.1)" fill="rgba(255,255,255,.30)"/><rect x="267.6" y="90.8" width="3.9" height="2.0" rx="1.0" transform="rotate(48 269.6 91.8)" fill="rgba(255,255,255,.30)"/><rect x="258.5" y="385.1" width="3.0" height="1.5" rx="0.7" transform="rotate(51 260.0 385.9)" fill="rgba(255,255,255,.30)"/><rect x="283.6" y="152.3" width="3.5" height="1.8" rx="0.9" transform="rotate(109 285.4 153.1)" fill="rgba(255,255,255,.30)"/><rect x="319.0" y="257.0" width="4.1" height="2.1" rx="1.0" transform="rotate(92 321.0 258.0)" fill="rgba(255,255,255,.30)"/><rect x="262.0" y="97.9" width="5.0" height="2.5" rx="1.2" transform="rotate(172 264.5 99.1)" fill="rgba(255,255,255,.30)"/><rect x="383.8" y="341.4" width="3.2" height="1.6" rx="0.8" transform="rotate(40 385.4 342.2)" fill="rgba(255,255,255,.30)"/><rect x="308.5" y="409.7" width="4.0" height="2.0" rx="1.0" transform="rotate(86 310.5 410.7)" fill="rgba(255,255,255,.30)"/><rect x="346.4" y="303.3" width="3.1" height="1.5" rx="0.8" transform="rotate(179 347.9 304.0)" fill="rgba(255,255,255,.30)"/><rect x="265.6" y="194.0" width="3.4" height="1.7" rx="0.8" transform="rotate(94 267.3 194.8)" fill="rgba(255,255,255,.30)"/><rect x="410.0" y="261.4" width="3.9" height="2.0" rx="1.0" transform="rotate(22 412.0 262.4)" fill="rgba(255,255,255,.30)"/><rect x="206.3" y="348.3" width="4.3" height="2.2" rx="1.1" transform="rotate(13 208.4 349.4)" fill="rgba(255,255,255,.30)"/><rect x="276.9" y="418.6" width="3.4" height="1.7" rx="0.8" transform="rotate(143 278.6 419.5)" fill="rgba(255,255,255,.30)"/><rect x="194.9" y="387.9" width="3.4" height="1.7" rx="0.8" transform="rotate(157 196.6 388.7)" fill="rgba(255,255,255,.30)"/><rect x="246.1" y="159.7" width="4.1" height="2.1" rx="1.0" transform="rotate(47 248.2 160.7)" fill="rgba(255,255,255,.30)"/><rect x="101.0" y="376.4" width="4.9" height="2.5" rx="1.2" transform="rotate(150 103.5 377.6)" fill="rgba(255,255,255,.30)"/><rect x="323.5" y="374.2" width="4.3" height="2.2" rx="1.1" transform="rotate(109 325.7 375.3)" fill="rgba(255,255,255,.30)"/><rect x="198.7" y="169.0" width="4.6" height="2.3" rx="1.2" transform="rotate(69 201.0 170.2)" fill="rgba(255,255,255,.30)"/><rect x="189.8" y="389.5" width="3.4" height="1.7" rx="0.9" transform="rotate(46 191.5 390.3)" fill="rgba(255,255,255,.30)"/><rect x="296.0" y="337.4" width="4.8" height="2.4" rx="1.2" transform="rotate(9 298.4 338.6)" fill="rgba(255,255,255,.30)"/><rect x="141.6" y="193.8" width="4.1" height="2.1" rx="1.0" transform="rotate(144 143.6 194.9)" fill="rgba(255,255,255,.30)"/><rect x="323.8" y="173.1" width="2.8" height="1.4" rx="0.7" transform="rotate(177 325.2 173.8)" fill="rgba(255,255,255,.30)"/><rect x="271.2" y="221.1" width="3.1" height="1.6" rx="0.8" transform="rotate(143 272.8 221.9)" fill="rgba(255,255,255,.30)"/><rect x="405.3" y="333.4" width="3.1" height="1.6" rx="0.8" transform="rotate(12 406.9 334.2)" fill="rgba(255,255,255,.30)"/><rect x="289.4" y="318.1" width="4.2" height="2.1" rx="1.0" transform="rotate(147 291.5 319.1)" fill="rgba(255,255,255,.30)"/><rect x="71.1" y="266.8" width="4.3" height="2.1" rx="1.1" transform="rotate(13 73.3 267.9)" fill="rgba(255,255,255,.30)"/><rect x="370.3" y="368.8" width="2.8" height="1.4" rx="0.7" transform="rotate(24 371.7 369.5)" fill="rgba(255,255,255,.30)"/><rect x="379.7" y="134.7" width="4.3" height="2.1" rx="1.1" transform="rotate(106 381.9 135.8)" fill="rgba(255,255,255,.30)"/><rect x="153.6" y="156.4" width="4.4" height="2.2" rx="1.1" transform="rotate(174 155.8 157.5)" fill="rgba(255,255,255,.30)"/><rect x="294.1" y="303.7" width="4.7" height="2.4" rx="1.2" transform="rotate(58 296.5 304.9)" fill="rgba(255,255,255,.30)"/><rect x="247.5" y="414.4" width="4.2" height="2.1" rx="1.0" transform="rotate(104 249.6 415.4)" fill="rgba(255,255,255,.30)"/><rect x="370.5" y="129.2" width="3.4" height="1.7" rx="0.8" transform="rotate(50 372.2 130.1)" fill="rgba(255,255,255,.30)"/><rect x="315.9" y="184.1" width="5.2" height="2.6" rx="1.3" transform="rotate(130 318.4 185.4)" fill="rgba(255,255,255,.30)"/><rect x="214.2" y="364.7" width="4.7" height="2.3" rx="1.2" transform="rotate(12 216.6 365.8)" fill="rgba(255,255,255,.30)"/><rect x="226.1" y="100.4" width="5.1" height="2.6" rx="1.3" transform="rotate(124 228.7 101.7)" fill="rgba(255,255,255,.30)"/><rect x="261.9" y="349.0" width="4.2" height="2.1" rx="1.1" transform="rotate(38 264.0 350.1)" fill="rgba(255,255,255,.30)"/><rect x="407.0" y="289.7" width="4.1" height="2.0" rx="1.0" transform="rotate(51 409.0 290.7)" fill="rgba(255,255,255,.30)"/><rect x="411.2" y="153.4" width="4.2" height="2.1" rx="1.1" transform="rotate(88 413.4 154.5)" fill="rgba(255,255,255,.30)"/><rect x="203.0" y="274.1" width="4.3" height="2.1" rx="1.1" transform="rotate(97 205.2 275.1)" fill="rgba(255,255,255,.30)"/><rect x="193.6" y="435.6" width="3.3" height="1.6" rx="0.8" transform="rotate(153 195.2 436.4)" fill="rgba(255,255,255,.30)"/><rect x="194.1" y="439.5" width="3.1" height="1.5" rx="0.8" transform="rotate(36 195.6 440.2)" fill="rgba(255,255,255,.30)"/><rect x="239.7" y="206.6" width="4.1" height="2.0" rx="1.0" transform="rotate(6 241.8 207.6)" fill="rgba(255,255,255,.30)"/><rect x="213.0" y="364.0" width="3.6" height="1.8" rx="0.9" transform="rotate(26 214.8 364.9)" fill="rgba(255,255,255,.30)"/><rect x="236.1" y="112.8" width="3.3" height="1.7" rx="0.8" transform="rotate(5 237.8 113.6)" fill="rgba(255,255,255,.30)"/><rect x="157.2" y="360.6" width="4.0" height="2.0" rx="1.0" transform="rotate(4 159.2 361.6)" fill="rgba(255,255,255,.30)"/><rect x="203.8" y="316.3" width="4.9" height="2.4" rx="1.2" transform="rotate(33 206.2 317.5)" fill="rgba(255,255,255,.30)"/><rect x="260.2" y="420.1" width="4.0" height="2.0" rx="1.0" transform="rotate(6 262.2 421.1)" fill="rgba(255,255,255,.30)"/><rect x="275.7" y="416.0" width="4.2" height="2.1" rx="1.0" transform="rotate(75 277.8 417.0)" fill="rgba(255,255,255,.30)"/><rect x="347.3" y="147.1" width="5.0" height="2.5" rx="1.3" transform="rotate(43 349.8 148.4)" fill="rgba(255,255,255,.30)"/><rect x="162.8" y="181.3" width="4.6" height="2.3" rx="1.2" transform="rotate(178 165.1 182.4)" fill="rgba(255,255,255,.30)"/><rect x="283.6" y="368.5" width="5.2" height="2.6" rx="1.3" transform="rotate(96 286.2 369.8)" fill="rgba(255,255,255,.30)"/><rect x="304.9" y="395.5" width="4.6" height="2.3" rx="1.2" transform="rotate(60 307.2 396.7)" fill="rgba(255,255,255,.30)"/><rect x="231.0" y="433.7" width="4.4" height="2.2" rx="1.1" transform="rotate(139 233.2 434.8)" fill="rgba(255,255,255,.30)"/><rect x="436.1" y="245.4" width="4.7" height="2.3" rx="1.2" transform="rotate(64 438.4 246.6)" fill="rgba(255,255,255,.30)"/><rect x="225.7" y="205.1" width="4.4" height="2.2" rx="1.1" transform="rotate(96 227.9 206.2)" fill="rgba(255,255,255,.30)"/><rect x="304.2" y="123.3" width="4.7" height="2.4" rx="1.2" transform="rotate(54 306.5 124.5)" fill="rgba(255,255,255,.30)"/><rect x="262.0" y="413.4" width="3.1" height="1.5" rx="0.8" transform="rotate(124 263.5 414.2)" fill="rgba(255,255,255,.30)"/><rect x="359.6" y="297.3" width="4.7" height="2.4" rx="1.2" transform="rotate(10 361.9 298.5)" fill="rgba(255,255,255,.30)"/><rect x="198.2" y="229.6" width="4.2" height="2.1" rx="1.1" transform="rotate(18 200.3 230.7)" fill="rgba(255,255,255,.30)"/><rect x="187.8" y="253.8" width="3.0" height="1.5" rx="0.7" transform="rotate(80 189.3 254.5)" fill="rgba(255,255,255,.30)"/><rect x="248.1" y="236.1" width="5.0" height="2.5" rx="1.2" transform="rotate(73 250.6 237.3)" fill="rgba(255,255,255,.30)"/><rect x="86.5" y="266.7" width="4.4" height="2.2" rx="1.1" transform="rotate(150 88.7 267.8)" fill="rgba(255,255,255,.30)"/><rect x="285.8" y="270.8" width="3.9" height="2.0" rx="1.0" transform="rotate(162 287.8 271.7)" fill="rgba(255,255,255,.30)"/><rect x="261.7" y="363.0" width="3.5" height="1.8" rx="0.9" transform="rotate(10 263.4 363.9)" fill="rgba(255,255,255,.30)"/><rect x="83.7" y="288.0" width="4.5" height="2.3" rx="1.1" transform="rotate(28 85.9 289.1)" fill="rgba(255,255,255,.30)"/><rect x="354.3" y="296.5" width="3.2" height="1.6" rx="0.8" transform="rotate(8 355.9 297.3)" fill="rgba(255,255,255,.30)"/><rect x="125.6" y="332.5" width="4.5" height="2.2" rx="1.1" transform="rotate(168 127.9 333.7)" fill="rgba(255,255,255,.30)"/><rect x="398.1" y="313.3" width="3.2" height="1.6" rx="0.8" transform="rotate(90 399.7 314.1)" fill="rgba(255,255,255,.30)"/><rect x="270.5" y="173.7" width="3.8" height="1.9" rx="0.9" transform="rotate(153 272.4 174.7)" fill="rgba(255,255,255,.30)"/><rect x="434.7" y="315.2" width="3.6" height="1.8" rx="0.9" transform="rotate(51 436.5 316.1)" fill="rgba(255,255,255,.30)"/><rect x="405.3" y="216.3" width="5.1" height="2.5" rx="1.3" transform="rotate(4 407.8 217.6)" fill="rgba(255,255,255,.30)"/><rect x="300.8" y="406.3" width="3.9" height="2.0" rx="1.0" transform="rotate(109 302.8 407.3)" fill="rgba(255,255,255,.30)"/><rect x="117.1" y="369.8" width="3.3" height="1.6" rx="0.8" transform="rotate(18 118.7 370.6)" fill="rgba(255,255,255,.30)"/><rect x="389.8" y="376.3" width="4.1" height="2.0" rx="1.0" transform="rotate(38 391.8 377.3)" fill="rgba(255,255,255,.30)"/><rect x="153.4" y="363.0" width="3.6" height="1.8" rx="0.9" transform="rotate(32 155.2 363.9)" fill="rgba(255,255,255,.30)"/><rect x="225.5" y="155.5" width="5.0" height="2.5" rx="1.2" transform="rotate(73 228.0 156.7)" fill="rgba(255,255,255,.30)"/><rect x="305.3" y="119.0" width="3.1" height="1.5" rx="0.8" transform="rotate(134 306.9 119.7)" fill="rgba(255,255,255,.30)"/><rect x="213.1" y="379.1" width="4.4" height="2.2" rx="1.1" transform="rotate(66 215.4 380.2)" fill="rgba(255,255,255,.30)"/><rect x="229.7" y="83.5" width="5.2" height="2.6" rx="1.3" transform="rotate(130 232.3 84.8)" fill="rgba(255,255,255,.30)"/><rect x="167.9" y="230.3" width="4.9" height="2.5" rx="1.2" transform="rotate(94 170.3 231.5)" fill="rgba(255,255,255,.30)"/><rect x="222.6" y="225.7" width="4.5" height="2.3" rx="1.1" transform="rotate(40 224.8 226.9)" fill="rgba(255,255,255,.30)"/><rect x="355.7" y="222.4" width="4.0" height="2.0" rx="1.0" transform="rotate(162 357.7 223.4)" fill="rgba(255,255,255,.30)"/><rect x="267.5" y="446.2" width="4.2" height="2.1" rx="1.0" transform="rotate(91 269.6 447.2)" fill="rgba(255,255,255,.30)"/><rect x="294.1" y="337.6" width="3.6" height="1.8" rx="0.9" transform="rotate(102 295.9 338.5)" fill="rgba(255,255,255,.30)"/><rect x="352.6" y="300.1" width="3.3" height="1.7" rx="0.8" transform="rotate(48 354.3 300.9)" fill="rgba(255,255,255,.30)"/><rect x="197.0" y="148.7" width="4.5" height="2.3" rx="1.1" transform="rotate(110 199.2 149.9)" fill="rgba(255,255,255,.30)"/><rect x="104.8" y="161.9" width="4.1" height="2.0" rx="1.0" transform="rotate(55 106.8 163.0)" fill="rgba(255,255,255,.30)"/><rect x="210.2" y="396.4" width="4.2" height="2.1" rx="1.1" transform="rotate(93 212.3 397.5)" fill="rgba(255,255,255,.30)"/><rect x="164.8" y="192.9" width="4.1" height="2.0" rx="1.0" transform="rotate(120 166.8 193.9)" fill="rgba(255,255,255,.30)"/><rect x="178.9" y="96.0" width="3.8" height="1.9" rx="1.0" transform="rotate(50 180.8 97.0)" fill="rgba(255,255,255,.30)"/><rect x="303.7" y="381.8" width="4.4" height="2.2" rx="1.1" transform="rotate(117 305.9 382.9)" fill="rgba(255,255,255,.30)"/><rect x="308.9" y="91.6" width="4.4" height="2.2" rx="1.1" transform="rotate(131 311.1 92.7)" fill="rgba(255,255,255,.30)"/><rect x="110.5" y="292.5" width="5.1" height="2.6" rx="1.3" transform="rotate(148 113.1 293.8)" fill="rgba(255,255,255,.30)"/><rect x="340.1" y="281.5" width="4.3" height="2.1" rx="1.1" transform="rotate(62 342.3 282.6)" fill="rgba(255,255,255,.30)"/></g><g><g transform="translate(269.3 387.5) rotate(116) scale(1.20)"><path d="M0 0 C 10 -18 26 -18 30 0 C 26 18 10 18 0 0 Z" fill="#2F7D3A"/><path d="M4 0 L 27 0" stroke="rgba(0,0,0,.10)" stroke-width="1.4" fill="none"/></g><g transform="translate(165.6 300.1) rotate(70) scale(1.00)"><circle r="13" fill="#BFE3A8"/><circle r="13" fill="none" stroke="#6FA84A" stroke-width="2.5"/><circle r="6" fill="#D8F0C4"/></g><g transform="translate(250.3 397.7) rotate(152) scale(1.20)"><path d="M0 0 C 10 -18 26 -18 30 0 C 26 18 10 18 0 0 Z" fill="#57A65A"/><path d="M4 0 L 27 0" stroke="rgba(0,0,0,.10)" stroke-width="1.4" fill="none"/></g><g transform="translate(248.1 312.4) rotate(186) scale(1.20)"><path d="M0 0 C 10 -18 26 -18 30 0 C 26 18 10 18 0 0 Z" fill="#57A65A"/><path d="M4 0 L 27 0" stroke="rgba(0,0,0,.10)" stroke-width="1.4" fill="none"/></g><g transform="translate(218.4 209.0) rotate(-30) scale(1.00)"><path d="M0 -22 C 16 -22 20 0 12 16 C 6 26 -6 26 -12 16 C -20 0 -16 -22 0 -22 Z" fill="#7FB069"/><path d="M0 -16 C 11 -16 14 0 8 12 C 4 19 -4 19 -8 12 C -14 0 -11 -16 0 -16 Z" fill="#A7CE8B"/><ellipse cx="0" cy="-1" rx="5.5" ry="6.5" fill="#C9B27E"/></g><g transform="translate(237.0 220.1) rotate(36) scale(1.00)"><path d="M0 -22 C 16 -22 20 0 12 16 C 6 26 -6 26 -12 16 C -20 0 -16 -22 0 -22 Z" fill="#7FB069"/><path d="M0 -16 C 11 -16 14 0 8 12 C 4 19 -4 19 -8 12 C -14 0 -11 -16 0 -16 Z" fill="#A7CE8B"/><ellipse cx="0" cy="-1" rx="5.5" ry="6.5" fill="#C9B27E"/></g><g transform="translate(207.7 230.7) rotate(-30) scale(1.00)"><path d="M0 -22 C 16 -22 20 0 12 16 C 6 26 -6 26 -12 16 C -20 0 -16 -22 0 -22 Z" fill="#7FB069"/><path d="M0 -16 C 11 -16 14 0 8 12 C 4 19 -4 19 -8 12 C -14 0 -11 -16 0 -16 Z" fill="#A7CE8B"/><ellipse cx="0" cy="-1" rx="5.5" ry="6.5" fill="#C9B27E"/></g><g transform="translate(145.7 203.7) rotate(27) scale(1.00)"><path d="M0 -22 C 16 -22 20 0 12 16 C 6 26 -6 26 -12 16 C -20 0 -16 -22 0 -22 Z" fill="#7FB069"/><path d="M0 -16 C 11 -16 14 0 8 12 C 4 19 -4 19 -8 12 C -14 0 -11 -16 0 -16 Z" fill="#A7CE8B"/><ellipse cx="0" cy="-1" rx="5.5" ry="6.5" fill="#C9B27E"/></g><g transform="translate(211.8 347.0) rotate(343) scale(1.20)"><path d="M0 0 C 10 -18 26 -18 30 0 C 26 18 10 18 0 0 Z" fill="#2F7D3A"/><path d="M4 0 L 27 0" stroke="rgba(0,0,0,.10)" stroke-width="1.4" fill="none"/></g><g transform="translate(208.6 389.7) rotate(163) scale(1.20)"><path d="M0 0 C 10 -18 26 -18 30 0 C 26 18 10 18 0 0 Z" fill="#3E8E41"/><path d="M4 0 L 27 0" stroke="rgba(0,0,0,.10)" stroke-width="1.4" fill="none"/></g><g transform="translate(213.9 286.7) rotate(60) scale(1.00)"><circle r="13" fill="#BFE3A8"/><circle r="13" fill="none" stroke="#6FA84A" stroke-width="2.5"/><circle r="6" fill="#D8F0C4"/></g><g transform="translate(227.6 170.6) rotate(-23) scale(1.00)"><path d="M0 -22 C 16 -22 20 0 12 16 C 6 26 -6 26 -12 16 C -20 0 -16 -22 0 -22 Z" fill="#7FB069"/><path d="M0 -16 C 11 -16 14 0 8 12 C 4 19 -4 19 -8 12 C -14 0 -11 -16 0 -16 Z" fill="#A7CE8B"/><ellipse cx="0" cy="-1" rx="5.5" ry="6.5" fill="#C9B27E"/></g><g transform="translate(338.5 314.1) scale(1.00)"><circle r="12" fill="#E4572E"/><circle r="12" fill="url(#tomGloss)"/><ellipse cx="-3.5" cy="-4.5" rx="3.2" ry="2" fill="#fff" opacity=".55"/></g><g transform="translate(173.4 345.8) rotate(111) scale(1.20)"><path d="M0 0 C 10 -18 26 -18 30 0 C 26 18 10 18 0 0 Z" fill="#3E8E41"/><path d="M4 0 L 27 0" stroke="rgba(0,0,0,.10)" stroke-width="1.4" fill="none"/></g><g transform="translate(403.2 239.8) rotate(-31) scale(1.00)"><rect x="-16" y="-11" width="32" height="22" rx="7" fill="#CFE0A8"/><rect x="-16" y="-11" width="32" height="22" rx="7" fill="none" stroke="#9FB86E" stroke-width="2" opacity=".6"/><path d="M-10 0 H10 M-8 -5 H8 M-8 5 H8" stroke="#9FB86E" stroke-width="1.4" opacity=".45"/></g><g transform="translate(126.9 314.0) rotate(86) scale(1.00)"><circle r="13" fill="#BFE3A8"/><circle r="13" fill="none" stroke="#6FA84A" stroke-width="2.5"/><circle r="6" fill="#D8F0C4"/></g><g transform="translate(197.0 318.4) rotate(171) scale(1.20)"><path d="M0 0 C 10 -18 26 -18 30 0 C 26 18 10 18 0 0 Z" fill="#2F7D3A"/><path d="M4 0 L 27 0" stroke="rgba(0,0,0,.10)" stroke-width="1.4" fill="none"/></g><g transform="translate(152.2 149.8) rotate(-21) scale(1.00)"><path d="M0 -22 C 16 -22 20 0 12 16 C 6 26 -6 26 -12 16 C -20 0 -16 -22 0 -22 Z" fill="#7FB069"/><path d="M0 -16 C 11 -16 14 0 8 12 C 4 19 -4 19 -8 12 C -14 0 -11 -16 0 -16 Z" fill="#A7CE8B"/><ellipse cx="0" cy="-1" rx="5.5" ry="6.5" fill="#C9B27E"/></g><g transform="translate(180.3 270.8) rotate(48) scale(1.00)"><circle r="13" fill="#BFE3A8"/><circle r="13" fill="none" stroke="#6FA84A" stroke-width="2.5"/><circle r="6" fill="#D8F0C4"/></g><g transform="translate(361.9 223.6) rotate(-11) scale(1.00)"><rect x="-16" y="-11" width="32" height="22" rx="7" fill="#CFE0A8"/><rect x="-16" y="-11" width="32" height="22" rx="7" fill="none" stroke="#9FB86E" stroke-width="2" opacity=".6"/><path d="M-10 0 H10 M-8 -5 H8 M-8 5 H8" stroke="#9FB86E" stroke-width="1.4" opacity=".45"/></g><g transform="translate(283.8 231.3)"><circle cx="-7.4" cy="10.0" r="2.1" fill="#3B2F1E"/><circle cx="-8.9" cy="9.5" r="1.7" fill="#3B2F1E"/><circle cx="-5.0" cy="6.5" r="2.1" fill="#3B2F1E"/><circle cx="-10.0" cy="-7.3" r="1.5" fill="#3B2F1E"/><circle cx="-3.7" cy="-0.6" r="1.9" fill="#3B2F1E"/><circle cx="3.0" cy="10.7" r="1.7" fill="#3B2F1E"/><circle cx="-5.9" cy="7.1" r="2.2" fill="#3B2F1E"/><circle cx="-0.0" cy="3.8" r="2.2" fill="#3B2F1E"/><circle cx="-4.9" cy="6.4" r="1.9" fill="#3B2F1E"/></g><g transform="translate(284.3 322.3) scale(1.00)"><circle r="12" fill="#E4572E"/><circle r="12" fill="url(#tomGloss)"/><ellipse cx="-3.5" cy="-4.5" rx="3.2" ry="2" fill="#fff" opacity=".55"/></g><g transform="translate(209.6 298.0) rotate(113) scale(1.20)"><path d="M0 0 C 10 -18 26 -18 30 0 C 26 18 10 18 0 0 Z" fill="#2F7D3A"/><path d="M4 0 L 27 0" stroke="rgba(0,0,0,.10)" stroke-width="1.4" fill="none"/></g><g transform="translate(187.8 325.8) rotate(28) scale(1.00)"><circle r="13" fill="#BFE3A8"/><circle r="13" fill="none" stroke="#6FA84A" stroke-width="2.5"/><circle r="6" fill="#D8F0C4"/></g><g transform="translate(260.6 246.7)"><circle cx="-0.4" cy="2.6" r="2.2" fill="#3B2F1E"/><circle cx="-0.3" cy="-5.7" r="1.6" fill="#3B2F1E"/><circle cx="9.6" cy="3.3" r="2.1" fill="#3B2F1E"/><circle cx="-2.9" cy="4.4" r="2.1" fill="#3B2F1E"/><circle cx="-8.3" cy="6.8" r="2.1" fill="#3B2F1E"/><circle cx="10.2" cy="-8.0" r="1.5" fill="#3B2F1E"/><circle cx="9.2" cy="-2.0" r="1.6" fill="#3B2F1E"/><circle cx="3.4" cy="-3.8" r="1.6" fill="#3B2F1E"/><circle cx="-2.4" cy="-6.3" r="2.1" fill="#3B2F1E"/></g></g><path d="M 110 140 A 200 200 0 0 1 380 100" fill="none" stroke="rgba(255,255,255,.5)" stroke-width="10" stroke-linecap="round" opacity=".5"/></svg>