<svg xmlns="http://www.w3.org/2000/svg" viewBox="0 0 520 520" role="img" aria-label="Bowl saludable ilustrado"><defs><radialGradient id="tomGloss" cx="35%" cy="30%" r="75%"><stop offset="0%" stop-color="#ff8b5e"/><stop offset="55%" stop-color="#E4572E" stop-opacity="0"/></radialGradient><radialGradient id="baseg_bowl-power" cx="42%" cy="38%" r="70%"><stop offset="0%" stop-color="#F6EED6"/><stop offset="100%" stop-color="#EDE2C4"/></radialGradient><radialGradient id="shadow" cx="50%" cy="50%" r="50%"><stop offset="60%" stop-color="rgba(20,48,31,.16)"/><stop offset="100%" stop-color="rgba(20,48,31,0)"/></radialGradient></defs><ellipse cx="260" cy="278" rx="238" ry="230" fill="url(#shadow)"/><circle cx="260" cy="260" r="232" fill="#DDBFA0"/><circle cx="260" cy="260" r="218" fill="#fff" opacity=".55"/><circle cx="260" cy="260" r="204" fill="url(#baseg_bowl-power)"/><g><rect x="216.0" y="152.5" width="4.7" height="2.4" rx="1.2" transform="rotate(140 218.3 153.7)" fill="rgba(255,255,255,.30)"/><rect x="193.6" y="325.6" width="4.8" height="2.4" rx="1.2" transform="rotate(111 196.0 326.8)" fill="rgba(255,255,255,.30)"/><rect x="398.4" y="149.1" width="4.8" height="2.4" rx="1.2" transform="rotate(81 400.8 150.3)" fill="rgba(255,255,255,.30)"/><rect x="336.1" y="309.4" width="4.2" height="2.1" rx="1.0" transform="rotate(164 338.2 310.4)" fill="rgba(255,255,255,.30)"/><rect x="347.7" y="144.4" width="3.9" height="1.9" rx="1.0" transform="rotate(31 349.6 145.4)" fill="rgba(255,255,255,.30)"/><rect x="232.1" y="178.4" width="4.8" height="2.4" rx="1.2" transform="rotate(65 234.5 179.6)" fill="rgba(255,255,255,.30)"/><rect x="155.4" y="406.9" width="3.5" height="1.7" rx="0.9" transform="rotate(162 157.2 407.8)" fill="rgba(255,255,255,.30)"/><rect x="174.8" y="306.0" width="3.5" height="1.8" rx="0.9" transform="rotate(33 176.5 306.9)" fill="rgba(255,255,255,.30)"/><rect x="163.1" y="92.1" width="4.9" height="2.5" rx="1.2" transform="rotate(164 165.6 93.3)" fill="rgba(255,255,255,.30)"/><rect x="197.8" y="361.0" width="4.1" height="2.0" rx="1.0" transform="rotate(153 199.8 362.0)" fill="rgba(255,255,255,.30)"/><rect x="117.9" y="187.5" width="3.3" height="1.6" rx="0.8" transform="rotate(109 119.5 188.3)" fill="rgba(255,255,255,.30)"/><rect x="326.9" y="100.7" width="3.1" height="1.6" rx="0.8" transform="rotate(76 328.4 101.5)" fill="rgba(255,255,255,.30)"/><rect x="317.8" y="143.9" width="4.4" height="2.2" rx="1.1" transform="rotate(15 319.9 145.0)" fill="rgba(255,255,255,.30)"/><rect x="255.6" y="261.4" width="3.7" height="1.9" rx="0.9" transform="rotate(114 257.4 262.4)" fill="rgba(255,255,255,.30)"/><rect x="271.6" y="107.7" width="4.1" height="2.0" rx="1.0" transform="rotate(47 273.7 108.7)" fill="rgba(255,255,255,.30)"/><rect x="237.3" y="250.0" width="3.1" height="1.6" rx="0.8" transform="rotate(25 238.9 250.7)" fill="rgba(255,255,255,.30)"/><rect x="188.1" y="224.2" width="3.8" height="1.9" rx="0.9" transform="rotate(55 190.0 225.2)" fill="rgba(255,255,255,.30)"/><rect x="369.2" y="300.7" width="3.4" height="1.7" rx="0.8" transform="rotate(120 370.9 301.6)" fill="rgba(255,255,255,.30)"/><rect x="168.9" y="297.3" width="4.1" height="2.0" rx="1.0" transform="rotate(40 171.0 298.3)" fill="rgba(255,255,255,.30)"/><rect x="346.4" y="251.5" width="5.0" height="2.5" rx="1.3" transform="rotate(34 348.9 252.7)" fill="rgba(255,255,255,.30)"/><rect x="132.4" y="272.0" width="3.8" height="1.9" rx="0.9" transform="rotate(128 134.3 273.0)" fill="rgba(255,255,255,.30)"/><rect x="147.6" y="338.3" width="4.7" height="2.3" rx="1.2" transform="rotate(87 149.9 339.5)" fill="rgba(255,255,255,.30)"/><rect x="112.3" y="216.5" width="3.0" height="1.5" rx="0.7" transform="rotate(166 113.8 217.2)" fill="rgba(255,255,255,.30)"/><rect x="210.3" y="120.9" width="4.9" height="2.5" rx="1.2" transform="rotate(58 212.7 122.1)" fill="rgba(255,255,255,.30)"/><rect x="424.9" y="356.8" width="4.2" height="2.1" rx="1.0" transform="rotate(112 427.0 357.9)" fill="rgba(255,255,255,.30)"/><rect x="423.7" y="214.3" width="4.9" height="2.5" rx="1.2" transform="rotate(137 426.2 215.6)" fill="rgba(255,255,255,.30)"/><rect x="404.9" y="232.3" width="5.0" height="2.5" rx="1.3" transform="rotate(48 407.4 233.6)" fill="rgba(255,255,255,.30)"/><rect x="96.0" y="185.3" width="3.1" height="1.6" rx="0.8" transform="rotate(19 97.5 186.1)" fill="rgba(255,255,255,.30)"/><rect x="355.4" y="252.4" width="3.0" height="1.5" rx="0.8" transform="rotate(97 357.0 253.2)" fill="rgba(255,255,255,.30)"/><rect x="227.9" y="134.6" width="3.5" height="1.7" rx="0.9" transform="rotate(87 229.7 135.4)" fill="rgba(255,255,255,.30)"/><rect x="303.1" y="300.5" width="3.9" height="2.0" rx="1.0" transform="rotate(166 305.0 301.4)" fill="rgba(255,255,255,.30)"/><rect x="78.5" y="256.5" width="4.2" height="2.1" rx="1.1" transform="rotate(93 80.6 257.6)" fill="rgba(255,255,255,.30)"/><rect x="222.3" y="294.9" width="3.0" height="1.5" rx="0.7" transform="rotate(45 223.8 295.6)" fill="rgba(255,255,255,.30)"/><rect x="366.1" y="332.2" width="3.6" height="1.8" rx="0.9" transform="rotate(70 367.9 333.1)" fill="rgba(255,255,255,.30)"/><rect x="225.1" y="255.7" width="4.9" height="2.5" rx="1.2" transform="rotate(129 227.5 257.0)" fill="rgba(255,255,255,.30)"/><rect x="354.7" y="249.4" width="4.7" height="2.3" rx="1.2" transform="rotate(131 357.1 250.5)" fill="rgba(255,255,255,.30)"/><rect x="422.9" y="277.7" width="4.6" height="2.3" rx="1.1" transform="rotate(101 425.2 278.9)" fill="rgba(255,255,255,.30)"/><rect x="286.7" y="191.9" width="5.1" height="2.6" rx="1.3" transform="rotate(115 289.2 193.2)" fill="rgba(255,255,255,.30)"/><rect x="238.5" y="283.2" width="3.6" height="1.8" rx="0.9" transform="rotate(104 240.4 284.1)" fill="rgba(255,255,255,.30)"/><rect x="204.3" y="127.9" width="3.4" height="1.7" rx="0.8" transform="rotate(60 206.0 128.8)" fill="rgba(255,255,255,.30)"/><rect x="92.1" y="258.2" width="3.8" height="1.9" rx="1.0" transform="rotate(137 94.0 259.1)" fill="rgba(255,255,255,.30)"/><rect x="296.4" y="424.1" width="5.0" height="2.5" rx="1.2" transform="rotate(100 298.9 425.4)" fill="rgba(255,255,255,.30)"/><rect x="391.2" y="144.5" width="4.3" height="2.2" rx="1.1" transform="rotate(82 393.3 145.6)" fill="rgba(255,255,255,.30)"/><rect x="373.3" y="187.5" width="5.1" height="2.5" rx="1.3" transform="rotate(148 375.8 188.8)" fill="rgba(255,255,255,.30)"/><rect x="79.5" y="306.1" width="2.8" height="1.4" rx="0.7" transform="rotate(137 81.0 306.8)" fill="rgba(255,255,255,.30)"/><rect x="341.5" y="432.8" width="4.3" height="2.2" rx="1.1" transform="rotate(61 343.7 433.9)" fill="rgba(255,255,255,.30)"/><rect x="296.9" y="314.8" width="2.9" height="1.5" rx="0.7" transform="rotate(83 298.4 315.5)" fill="rgba(255,255,255,.30)"/><rect x="214.4" y="357.5" width="3.3" height="1.6" rx="0.8" transform="rotate(175 216.1 358.3)" fill="rgba(255,255,255,.30)"/><rect x="246.4" y="306.5" width="4.9" height="2.4" rx="1.2" transform="rotate(117 248.9 307.7)" fill="rgba(255,255,255,.30)"/><rect x="414.2" y="204.6" width="4.1" height="2.1" rx="1.0" transform="rotate(71 416.3 205.6)" fill="rgba(255,255,255,.30)"/><rect x="292.8" y="249.3" width="3.9" height="1.9" rx="1.0" transform="rotate(81 294.7 250.3)" fill="rgba(255,255,255,.30)"/><rect x="223.4" y="129.9" width="3.9" height="2.0" rx="1.0" transform="rotate(11 225.4 130.9)" fill="rgba(255,255,255,.30)"/><rect x="349.8" y="214.1" width="4.8" height="2.4" rx="1.2" transform="rotate(46 352.2 215.3)" fill="rgba(255,255,255,.30)"/><rect x="109.8" y="231.1" width="3.8" height="1.9" rx="1.0" transform="rotate(128 111.7 232.1)" fill="rgba(255,255,255,.30)"/><rect x="303.3" y="192.3" width="3.7" height="1.9" rx="0.9" transform="rotate(167 305.1 193.2)" fill="rgba(255,255,255,.30)"/><rect x="310.9" y="74.1" width="4.3" height="2.2" rx="1.1" transform="rotate(82 313.0 75.2)" fill="rgba(255,255,255,.30)"/><rect x="208.3" y="427.9" width="4.0" height="2.0" rx="1.0" transform="rotate(111 210.3 428.9)" fill="rgba(255,255,255,.30)"/><rect x="393.9" y="244.9" width="4.2" height="2.1" rx="1.0" transform="rotate(134 396.0 246.0)" fill="rgba(255,255,255,.30)"/><rect x="255.5" y="111.3" width="3.3" height="1.6" rx="0.8" transform="rotate(60 257.1 112.1)" fill="rgba(255,255,255,.30)"/><rect x="147.2" y="276.7" width="4.9" height="2.4" rx="1.2" transform="rotate(97 149.7 278.0)" fill="rgba(255,255,255,.30)"/><rect x="243.4" y="331.1" width="4.9" height="2.5" rx="1.2" transform="rotate(112 245.9 332.3)" fill="rgba(255,255,255,.30)"/><rect x="337.8" y="181.0" width="4.3" height="2.2" rx="1.1" transform="rotate(158 339.9 182.1)" fill="rgba(255,255,255,.30)"/><rect x="188.4" y="176.2" width="3.2" height="1.6" rx="0.8" transform="rotate(25 190.0 177.0)" fill="rgba(255,255,255,.30)"/><rect x="108.1" y="189.7" width="4.7" height="2.3" rx="1.2" transform="rotate(102 110.4 190.9)" fill="rgba(255,255,255,.30)"/><rect x="139.9" y="273.3" width="4.8" height="2.4" rx="1.2" transform="rotate(87 142.3 274.5)" fill="rgba(255,255,255,.30)"/><rect x="256.1" y="182.5" width="3.3" height="1.6" rx="0.8" transform="rotate(114 257.8 183.3)" fill="rgba(255,255,255,.30)"/><rect x="127.9" y="131.2" width="4.4" height="2.2" rx="1.1" transform="rotate(85 130.1 132.3)" fill="rgba(255,255,255,.30)"/><rect x="398.7" y="125.2" width="4.4" height="2.2" rx="1.1" transform="rotate(137 400.9 126.3)" fill="rgba(255,255,255,.30)"/><rect x="112.8" y="225.4" width="2.9" height="1.4" rx="0.7" transform="rotate(91 114.2 226.1)" fill="rgba(255,255,255,.30)"/><rect x="429.4" y="190.1" width="3.4" height="1.7" rx="0.8" transform="rotate(89 431.1 191.0)" fill="rgba(255,255,255,.30)"/><rect x="380.3" y="256.5" width="3.0" height="1.5" rx="0.8" transform="rotate(177 381.8 257.2)" fill="rgba(255,255,255,.30)"/><rect x="121.0" y="139.0" width="5.1" height="2.5" rx="1.3" transform="rotate(22 123.5 140.3)" fill="rgba(255,255,255,.30)"/><rect x="147.7" y="285.0" width="3.6" height="1.8" rx="0.9" transform="rotate(16 149.5 285.9)" fill="rgba(255,255,255,.30)"/><rect x="286.8" y="200.2" width="3.4" height="1.7" rx="0.8" transform="rotate(88 288.5 201.1)" fill="rgba(255,255,255,.30)"/><rect x="262.3" y="383.1" width="3.3" height="1.6" rx="0.8" transform="rotate(32 264.0 383.9)" fill="rgba(255,255,255,.30)"/><rect x="237.6" y="262.4" width="4.9" height="2.5" rx="1.2" transform="rotate(97 240.1 263.6)" fill="rgba(255,255,255,.30)"/><rect x="408.8" y="182.6" width="4.5" height="2.3" rx="1.1" transform="rotate(159 411.0 183.7)" fill="rgba(255,255,255,.30)"/><rect x="295.5" y="381.0" width="4.1" height="2.1" rx="1.0" transform="rotate(45 297.5 382.0)" fill="rgba(255,255,255,.30)"/><rect x="166.4" y="418.4" width="4.2" height="2.1" rx="1.0" transform="rotate(43 168.5 419.5)" fill="rgba(255,255,255,.30)"/><rect x="194.2" y="203.9" width="4.7" height="2.3" rx="1.2" transform="rotate(137 196.6 205.1)" fill="rgba(255,255,255,.30)"/><rect x="74.2" y="270.9" width="4.5" height="2.2" rx="1.1" transform="rotate(109 76.4 272.0)" fill="rgba(255,255,255,.30)"/><rect x="288.4" y="108.8" width="4.1" height="2.1" rx="1.0" transform="rotate(64 290.5 109.8)" fill="rgba(255,255,255,.30)"/><rect x="277.7" y="284.3" width="3.4" height="1.7" rx="0.8" transform="rotate(99 279.4 285.2)" fill="rgba(255,255,255,.30)"/><rect x="266.5" y="394.4" width="4.8" height="2.4" rx="1.2" transform="rotate(20 268.9 395.6)" fill="rgba(255,255,255,.30)"/><rect x="203.9" y="90.8" width="4.4" height="2.2" rx="1.1" transform="rotate(54 206.2 91.9)" fill="rgba(255,255,255,.30)"/><rect x="391.5" y="164.9" width="4.4" height="2.2" rx="1.1" transform="rotate(93 393.7 166.0)" fill="rgba(255,255,255,.30)"/><rect x="256.7" y="140.9" width="4.7" height="2.3" rx="1.2" transform="rotate(74 259.0 142.1)" fill="rgba(255,255,255,.30)"/><rect x="262.8" y="393.9" width="3.1" height="1.5" rx="0.8" transform="rotate(64 264.3 394.7)" fill="rgba(255,255,255,.30)"/><rect x="421.2" y="328.4" width="3.6" height="1.8" rx="0.9" transform="rotate(37 423.0 329.3)" fill="rgba(255,255,255,.30)"/><rect x="368.8" y="136.4" width="3.1" height="1.6" rx="0.8" transform="rotate(85 370.4 137.2)" fill="rgba(255,255,255,.30)"/><rect x="384.2" y="266.0" width="3.6" height="1.8" rx="0.9" transform="rotate(78 386.0 266.9)" fill="rgba(255,255,255,.30)"/><rect x="141.5" y="407.7" width="4.6" height="2.3" rx="1.1" transform="rotate(168 143.7 408.8)" fill="rgba(255,255,255,.30)"/><rect x="360.5" y="359.3" width="3.6" height="1.8" rx="0.9" transform="rotate(29 362.3 360.2)" fill="rgba(255,255,255,.30)"/><rect x="298.4" y="380.2" width="3.1" height="1.5" rx="0.8" transform="rotate(18 299.9 380.9)" fill="rgba(255,255,255,.30)"/><rect x="161.9" y="406.1" width="4.4" height="2.2" rx="1.1" transform="rotate(97 164.1 407.2)" fill="rgba(255,255,255,.30)"/><rect x="369.7" y="162.4" width="3.2" height="1.6" rx="0.8" transform="rotate(98 371.3 163.2)" fill="rgba(255,255,255,.30)"/><rect x="326.7" y="210.8" width="4.6" height="2.3" rx="1.2" transform="rotate(41 329.1 211.9)" fill="rgba(255,255,255,.30)"/><rect x="282.8" y="321.8" width="4.4" height="2.2" rx="1.1" transform="rotate(122 285.0 322.9)" fill="rgba(255,255,255,.30)"/><rect x="292.4" y="331.8" width="3.7" height="1.8" rx="0.9" transform="rotate(61 294.2 332.8)" fill="rgba(255,255,255,.30)"/><rect x="373.0" y="268.8" width="4.2" height="2.1" rx="1.1" transform="rotate(26 375.1 269.8)" fill="rgba(255,255,255,.30)"/><rect x="260.5" y="343.9" width="4.2" height="2.1" rx="1.1" transform="rotate(147 262.6 345.0)" fill="rgba(255,255,255,.30)"/><rect x="114.3" y="149.4" width="4.7" height="2.4" rx="1.2" transform="rotate(117 116.7 150.6)" fill="rgba(255,255,255,.30)"/><rect x="354.5" y="127.8" width="3.4" height="1.7" rx="0.8" transform="rotate(141 356.2 128.6)" fill="rgba(255,255,255,.30)"/><rect x="216.4" y="394.9" width="3.5" height="1.7" rx="0.9" transform="rotate(79 218.1 395.7)" fill="rgba(255,255,255,.30)"/><rect x="345.0" y="324.1" width="3.9" height="1.9" rx="1.0" transform="rotate(85 346.9 325.0)" fill="rgba(255,255,255,.30)"/><rect x="112.7" y="175.5" width="4.7" height="2.3" rx="1.2" transform="rotate(65 115.0 176.6)" fill="rgba(255,255,255,.30)"/><rect x="444.5" y="239.8" width="4.7" height="2.3" rx="1.2" transform="rotate(119 446.8 241.0)" fill="rgba(255,255,255,.30)"/><rect x="427.6" y="241.9" width="3.5" height="1.8" rx="0.9" transform="rotate(79 429.4 242.7)" fill="rgba(255,255,255,.30)"/><rect x="120.2" y="132.8" width="3.6" height="1.8" rx="0.9" transform="rotate(153 122.0 133.7)" fill="rgba(255,255,255,.30)"/><rect x="258.2" y="294.3" width="3.2" height="1.6" rx="0.8" transform="rotate(33 259.8 295.1)" fill="rgba(255,255,255,.30)"/><rect x="271.0" y="173.0" width="4.3" height="2.1" rx="1.1" transform="rotate(125 273.1 174.1)" fill="rgba(255,255,255,.30)"/><rect x="320.3" y="329.1" width="4.0" height="2.0" rx="1.0" transform="rotate(54 322.3 330.1)" fill="rgba(255,255,255,.30)"/><rect x="166.6" y="205.1" width="3.9" height="2.0" rx="1.0" transform="rotate(172 168.6 206.1)" fill="rgba(255,255,255,.30)"/><rect x="142.9" y="309.6" width="5.0" height="2.5" rx="1.2" transform="rotate(75 145.4 310.8)" fill="rgba(255,255,255,.30)"/><rect x="213.2" y="320.6" width="4.6" height="2.3" rx="1.2" transform="rotate(24 215.5 321.7)" fill="rgba(255,255,255,.30)"/><rect x="398.3" y="189.8" width="4.4" height="2.2" rx="1.1" transform="rotate(55 400.5 190.9)" fill="rgba(255,255,255,.30)"/><rect x="276.3" y="425.1" width="3.5" height="1.7" rx="0.9" transform="rotate(101 278.0 426.0)" fill="rgba(255,255,255,.30)"/><rect x="320.7" y="221.3" width="3.0" height="1.5" rx="0.7" transform="rotate(96 322.2 222.0)" fill="rgba(255,255,255,.30)"/><rect x="116.2" y="237.5" width="4.4" height="2.2" rx="1.1" transform="rotate(49 118.4 238.6)" fill="rgba(255,255,255,.30)"/><rect x="261.3" y="166.5" width="4.7" height="2.4" rx="1.2" transform="rotate(180 263.7 167.7)" fill="rgba(255,255,255,.30)"/><rect x="198.7" y="164.7" width="4.7" height="2.3" rx="1.2" transform="rotate(94 201.0 165.9)" fill="rgba(255,255,255,.30)"/><rect x="406.6" y="164.6" width="4.0" height="2.0" rx="1.0" transform="rotate(157 408.6 165.6)" fill="rgba(255,255,255,.30)"/><rect x="405.7" y="240.0" width="4.1" height="2.0" rx="1.0" transform="rotate(139 407.7 241.1)" fill="rgba(255,255,255,.30)"/><rect x="139.3" y="275.7" width="3.4" height="1.7" rx="0.8" transform="rotate(175 141.0 276.5)" fill="rgba(255,255,255,.30)"/><rect x="395.8" y="137.5" width="4.3" height="2.1" rx="1.1" transform="rotate(59 397.9 138.6)" fill="rgba(255,255,255,.30)"/><rect x="103.9" y="256.6" width="4.4" height="2.2" rx="1.1" transform="rotate(14 106.2 257.7)" fill="rgba(255,255,255,.30)"/><rect x="114.6" y="324.2" width="3.7" height="1.9" rx="0.9" transform="rotate(160 116.5 325.1)" fill="rgba(255,255,255,.30)"/><rect x="209.8" y="112.3" width="3.3" height="1.6" rx="0.8" transform="rotate(80 211.4 113.1)" fill="rgba(255,255,255,.30)"/><rect x="220.8" y="97.9" width="3.6" height="1.8" rx="0.9" transform="rotate(126 222.5 98.8)" fill="rgba(255,255,255,.30)"/><rect x="184.1" y="319.9" width="4.2" height="2.1" rx="1.1" transform="rotate(87 186.2 320.9)" fill="rgba(255,255,255,.30)"/><rect x="219.6" y="352.7" width="3.7" height="1.8" rx="0.9" transform="rotate(149 221.4 353.6)" fill="rgba(255,255,255,.30)"/><rect x="148.7" y="320.6" width="4.2" height="2.1" rx="1.1" transform="rotate(154 150.8 321.7)" fill="rgba(255,255,255,.30)"/><rect x="103.9" y="204.1" width="3.5" height="1.8" rx="0.9" transform="rotate(147 105.7 205.0)" fill="rgba(255,255,255,.30)"/><rect x="282.5" y="144.4" width="4.9" height="2.4" rx="1.2" transform="rotate(46 285.0 145.7)" fill="rgba(255,255,255,.30)"/><rect x="155.0" y="132.5" width="4.6" height="2.3" rx="1.1" transform="rotate(29 157.3 133.6)" fill="rgba(255,255,255,.30)"/><rect x="157.1" y="98.6" width="2.9" height="1.4" rx="0.7" transform="rotate(78 158.5 99.3)" fill="rgba(255,255,255,.30)"/><rect x="143.2" y="314.1" width="3.2" height="1.6" rx="0.8" transform="rotate(128 144.8 314.9)" fill="rgba(255,255,255,.30)"/><rect x="288.8" y="400.3" width="4.6" height="2.3" rx="1.1" transform="rotate(8 291.1 401.5)" fill="rgba(255,255,255,.30)"/><rect x="249.5" y="292.4" width="3.2" height="1.6" rx="0.8" transform="rotate(165 251.1 293.2)" fill="rgba(255,255,255,.30)"/><rect x="353.4" y="312.7" width="4.1" height="2.0" rx="1.0" transform="rotate(172 355.5 313.7)" fill="rgba(255,255,255,.30)"/><rect x="388.1" y="382.3" width="4.2" height="2.1" rx="1.0" transform="rotate(32 390.2 383.3)" fill="rgba(255,255,255,.30)"/><rect x="293.3" y="418.8" width="4.7" height="2.3" rx="1.2" transform="rotate(144 295.6 420.0)" fill="rgba(255,255,255,.30)"/><rect x="153.5" y="150.6" width="3.0" height="1.5" rx="0.8" transform="rotate(118 155.0 151.4)" fill="rgba(255,255,255,.30)"/><rect x="290.8" y="131.1" width="4.6" height="2.3" rx="1.1" transform="rotate(54 293.1 132.3)" fill="rgba(255,255,255,.30)"/><rect x="341.0" y="389.0" width="3.4" height="1.7" rx="0.8" transform="rotate(31 342.7 389.9)" fill="rgba(255,255,255,.30)"/><rect x="358.1" y="133.6" width="3.2" height="1.6" rx="0.8" transform="rotate(145 359.7 134.4)" fill="rgba(255,255,255,.30)"/><rect x="243.1" y="84.7" width="3.8" height="1.9" rx="1.0" transform="rotate(159 245.0 85.6)" fill="rgba(255,255,255,.30)"/><rect x="221.9" y="438.3" width="2.9" height="1.4" rx="0.7" transform="rotate(149 223.3 439.0)" fill="rgba(255,255,255,.30)"/><rect x="234.5" y="191.1" width="4.4" height="2.2" rx="1.1" transform="rotate(166 236.7 192.2)" fill="rgba(255,255,255,.30)"/><rect x="245.6" y="347.8" width="3.7" height="1.9" rx="0.9" transform="rotate(95 247.5 348.7)" fill="rgba(255,255,255,.30)"/><rect x="213.5" y="298.6" width="4.8" height="2.4" rx="1.2" transform="rotate(29 215.9 299.8)" fill="rgba(255,255,255,.30)"/><rect x="347.7" y="146.3" width="3.5" height="1.8" rx="0.9" transform="rotate(14 349.5 147.2)" fill="rgba(255,255,255,.30)"/><rect x="379.6" y="105.4" width="3.1" height="1.6" rx="0.8" transform="rotate(162 381.2 106.1)" fill="rgba(255,255,255,.30)"/><rect x="377.0" y="123.8" width="5.0" height="2.5" rx="1.2" transform="rotate(79 379.5 125.1)" fill="rgba(255,255,255,.30)"/><rect x="332.4" y="397.1" width="4.7" height="2.3" rx="1.2" transform="rotate(112 334.8 398.3)" fill="rgba(255,255,255,.30)"/><rect x="290.6" y="373.2" width="4.2" height="2.1" rx="1.1" transform="rotate(124 292.7 374.2)" fill="rgba(255,255,255,.30)"/><rect x="204.6" y="434.5" width="2.8" height="1.4" rx="0.7" transform="rotate(51 206.0 435.2)" fill="rgba(255,255,255,.30)"/><rect x="317.5" y="160.0" width="4.6" height="2.3" rx="1.2" transform="rotate(67 319.9 161.2)" fill="rgba(255,255,255,.30)"/><rect x="366.4" y="273.5" width="3.7" height="1.9" rx="0.9" transform="rotate(87 368.2 274.4)" fill="rgba(255,255,255,.30)"/><rect x="228.9" y="345.7" width="3.8" height="1.9" rx="1.0" transform="rotate(27 230.8 346.7)" fill="rgba(255,255,255,.30)"/><rect x="299.5" y="285.0" width="3.7" height="1.8" rx="0.9" transform="rotate(131 301.3 285.9)" fill="rgba(255,255,255,.30)"/><rect x="341.3" y="200.6" width="4.0" height="2.0" rx="1.0" transform="rotate(20 343.3 201.7)" fill="rgba(255,255,255,.30)"/><rect x="360.0" y="254.6" width="3.3" height="1.7" rx="0.8" transform="rotate(47 361.7 255.4)" fill="rgba(255,255,255,.30)"/><rect x="225.1" y="143.4" width="5.0" height="2.5" rx="1.2" transform="rotate(94 227.6 144.6)" fill="rgba(255,255,255,.30)"/><rect x="161.3" y="391.2" width="3.1" height="1.6" rx="0.8" transform="rotate(8 162.9 392.0)" fill="rgba(255,255,255,.30)"/><rect x="128.4" y="308.0" width="5.2" height="2.6" rx="1.3" transform="rotate(61 131.0 309.3)" fill="rgba(255,255,255,.30)"/><rect x="341.2" y="327.8" width="3.7" height="1.9" rx="0.9" transform="rotate(153 343.1 328.7)" fill="rgba(255,255,255,.30)"/><rect x="368.7" y="206.7" width="3.9" height="2.0" rx="1.0" transform="rotate(70 370.6 207.7)" fill="rgba(255,255,255,.30)"/><rect x="323.9" y="326.1" width="3.5" height="1.7" rx="0.9" transform="rotate(132 325.6 327.0)" fill="rgba(255,255,255,.30)"/><rect x="346.1" y="310.4" width="4.1" height="2.0" rx="1.0" transform="rotate(84 348.1 311.5)" fill="rgba(255,255,255,.30)"/><rect x="304.7" y="427.4" width="4.5" height="2.2" rx="1.1" transform="rotate(153 307.0 428.5)" fill="rgba(255,255,255,.30)"/><rect x="153.9" y="368.3" width="4.0" height="2.0" rx="1.0" transform="rotate(129 155.8 369.3)" fill="rgba(255,255,255,.30)"/><rect x="151.3" y="230.6" width="5.1" height="2.5" rx="1.3" transform="rotate(96 153.8 231.8)" fill="rgba(255,255,255,.30)"/><rect x="156.7" y="376.6" width="3.3" height="1.7" rx="0.8" transform="rotate(170 158.4 377.5)" fill="rgba(255,255,255,.30)"/><rect x="371.7" y="246.6" width="4.7" height="2.4" rx="1.2" transform="rotate(39 374.1 247.8)" fill="rgba(255,255,255,.30)"/><rect x="189.3" y="125.2" width="3.3" height="1.6" rx="0.8" transform="rotate(107 190.9 126.0)" fill="rgba(255,255,255,.30)"/><rect x="353.0" y="116.1" width="4.7" height="2.3" rx="1.2" transform="rotate(103 355.3 117.3)" fill="rgba(255,255,255,.30)"/><rect x="322.0" y="247.5" width="2.8" height="1.4" rx="0.7" transform="rotate(69 323.4 248.2)" fill="rgba(255,255,255,.30)"/><rect x="290.8" y="137.1" width="3.6" height="1.8" rx="0.9" transform="rotate(67 292.6 138.0)" fill="rgba(255,255,255,.30)"/><rect x="213.7" y="414.2" width="3.6" height="1.8" rx="0.9" transform="rotate(110 215.5 415.1)" fill="rgba(255,255,255,.30)"/><rect x="160.1" y="116.4" width="4.5" height="2.3" rx="1.1" transform="rotate(3 162.4 117.6)" fill="rgba(255,255,255,.30)"/><rect x="119.6" y="356.0" width="4.0" height="2.0" rx="1.0" transform="rotate(61 121.5 357.0)" fill="rgba(255,255,255,.30)"/><rect x="166.5" y="204.3" width="4.1" height="2.1" rx="1.0" transform="rotate(119 168.5 205.3)" fill="rgba(255,255,255,.30)"/><rect x="163.8" y="382.3" width="4.8" height="2.4" rx="1.2" transform="rotate(98 166.2 383.5)" fill="rgba(255,255,255,.30)"/><rect x="167.0" y="321.0" width="3.9" height="2.0" rx="1.0" transform="rotate(63 168.9 321.9)" fill="rgba(255,255,255,.30)"/><rect x="209.6" y="142.9" width="3.6" height="1.8" rx="0.9" transform="rotate(81 211.4 143.8)" fill="rgba(255,255,255,.30)"/><rect x="248.3" y="420.5" width="4.7" height="2.4" rx="1.2" transform="rotate(115 250.6 421.7)" fill="rgba(255,255,255,.30)"/><rect x="273.7" y="277.0" width="2.9" height="1.5" rx="0.7" transform="rotate(1 275.2 277.7)" fill="rgba(255,255,255,.30)"/><rect x="325.0" y="203.4" width="3.2" height="1.6" rx="0.8" transform="rotate(21 326.6 204.2)" fill="rgba(255,255,255,.30)"/><rect x="114.4" y="336.5" width="4.3" height="2.2" rx="1.1" transform="rotate(0 116.6 337.5)" fill="rgba(255,255,255,.30)"/><rect x="99.4" y="357.2" width="3.1" height="1.5" rx="0.8" transform="rotate(33 100.9 358.0)" fill="rgba(255,255,255,.30)"/><rect x="150.0" y="190.3" width="3.7" height="1.9" rx="0.9" transform="rotate(137 151.9 191.2)" fill="rgba(255,255,255,.30)"/><rect x="430.5" y="244.2" width="3.7" height="1.9" rx="0.9" transform="rotate(32 432.4 245.1)" fill="rgba(255,255,255,.30)"/><rect x="116.1" y="231.8" width="2.9" height="1.4" rx="0.7" transform="rotate(82 117.6 232.5)" fill="rgba(255,255,255,.30)"/><rect x="348.3" y="143.0" width="2.9" height="1.5" rx="0.7" transform="rotate(99 349.7 143.7)" fill="rgba(255,255,255,.30)"/><rect x="344.0" y="150.1" width="4.8" height="2.4" rx="1.2" transform="rotate(166 346.4 151.3)" fill="rgba(255,255,255,.30)"/><rect x="426.0" y="161.0" width="2.8" height="1.4" rx="0.7" transform="rotate(63 427.4 161.7)" fill="rgba(255,255,255,.30)"/><rect x="233.0" y="271.9" width="3.6" height="1.8" rx="0.9" transform="rotate(88 234.8 272.8)" fill="rgba(255,255,255,.30)"/><rect x="349.9" y="111.9" width="4.4" height="2.2" rx="1.1" transform="rotate(92 352.1 113.0)" fill="rgba(255,255,255,.30)"/><rect x="329.2" y="254.2" width="3.3" height="1.6" rx="0.8" transform="rotate(58 330.8 255.0)" fill="rgba(255,255,255,.30)"/><rect x="162.2" y="327.7" width="5.1" height="2.6" rx="1.3" transform="rotate(57 164.8 329.0)" fill="rgba(255,255,255,.30)"/><rect x="284.1" y="290.5" width="3.2" height="1.6" rx="0.8" transform="rotate(120 285.7 291.3)" fill="rgba(255,255,255,.30)"/><rect x="385.3" y="222.3" width="4.6" height="2.3" rx="1.1" transform="rotate(53 387.6 223.4)" fill="rgba(255,255,255,.30)"/><rect x="197.0" y="83.1" width="3.7" height="1.9" rx="0.9" transform="rotate(164 198.8 84.0)" fill="rgba(255,255,255,.30)"/><rect x="128.2" y="292.5" width="3.1" height="1.5" rx="0.8" transform="rotate(165 129.8 293.2)" fill="rgba(255,255,255,.30)"/><rect x="381.9" y="245.0" width="4.2" height="2.1" rx="1.1" transform="rotate(111 384.0 246.1)" fill="rgba(255,255,255,.30)"/><rect x="395.6" y="392.6" width="4.0" height="2.0" rx="1.0" transform="rotate(11 397.6 393.6)" fill="rgba(255,255,255,.30)"/><rect x="363.2" y="325.2" width="3.9" height="2.0" rx="1.0" transform="rotate(143 365.2 326.1)" fill="rgba(255,255,255,.30)"/><rect x="92.1" y="191.6" width="5.0" height="2.5" rx="1.3" transform="rotate(16 94.6 192.8)" fill="rgba(255,255,255,.30)"/><rect x="400.3" y="191.1" width="5.1" height="2.5" rx="1.3" transform="rotate(84 402.8 192.4)" fill="rgba(255,255,255,.30)"/><rect x="247.7" y="282.7" width="5.1" height="2.6" rx="1.3" transform="rotate(169 250.2 284.0)" fill="rgba(255,255,255,.30)"/><rect x="132.9" y="370.6" width="4.7" height="2.4" rx="1.2" transform="rotate(137 135.2 371.8)" fill="rgba(255,255,255,.30)"/><rect x="400.1" y="339.9" width="4.0" height="2.0" rx="1.0" transform="rotate(0 402.1 340.9)" fill="rgba(255,255,255,.30)"/><rect x="267.5" y="317.9" width="4.4" height="2.2" rx="1.1" transform="rotate(137 269.7 319.0)" fill="rgba(255,255,255,.30)"/><rect x="208.5" y="97.9" width="3.5" height="1.7" rx="0.9" transform="rotate(157 210.2 98.8)" fill="rgba(255,255,255,.30)"/><rect x="294.1" y="222.2" width="3.5" height="1.7" rx="0.9" transform="rotate(22 295.9 223.1)" fill="rgba(255,255,255,.30)"/><rect x="439.3" y="306.9" width="5.2" height="2.6" rx="1.3" transform="rotate(78 441.9 308.2)" fill="rgba(255,255,255,.30)"/><rect x="161.7" y="344.9" width="4.1" height="2.0" rx="1.0" transform="rotate(86 163.7 345.9)" fill="rgba(255,255,255,.30)"/><rect x="260.3" y="292.9" width="4.9" height="2.5" rx="1.2" transform="rotate(39 262.8 294.1)" fill="rgba(255,255,255,.30)"/><rect x="230.4" y="308.8" width="4.0" height="2.0" rx="1.0" transform="rotate(35 232.4 309.8)" fill="rgba(255,255,255,.30)"/><rect x="369.0" y="400.5" width="3.6" height="1.8" rx="0.9" transform="rotate(163 370.8 401.4)" fill="rgba(255,255,255,.30)"/><rect x="173.4" y="350.9" width="3.0" height="1.5" rx="0.8" transform="rotate(127 174.9 351.6)" fill="rgba(255,255,255,.30)"/><rect x="293.1" y="277.9" width="4.9" height="2.4" rx="1.2" transform="rotate(161 295.5 279.1)" fill="rgba(255,255,255,.30)"/><rect x="73.4" y="239.1" width="4.6" height="2.3" rx="1.2" transform="rotate(28 75.7 240.2)" fill="rgba(255,255,255,.30)"/><rect x="301.4" y="120.4" width="3.9" height="1.9" rx="1.0" transform="rotate(45 303.4 121.3)" fill="rgba(255,255,255,.30)"/><rect x="201.4" y="127.7" width="3.2" height="1.6" rx="0.8" transform="rotate(138 203.0 128.4)" fill="rgba(255,255,255,.30)"/><rect x="62.6" y="264.6" width="4.2" height="2.1" rx="1.0" transform="rotate(115 64.6 265.6)" fill="rgba(255,255,255,.30)"/><rect x="99.9" y="352.4" width="4.0" height="2.0" rx="1.0" transform="rotate(125 101.9 353.4)" fill="rgba(255,255,255,.30)"/><rect x="421.6" y="242.6" width="3.4" height="1.7" rx="0.8" transform="rotate(83 423.2 243.5)" fill="rgba(255,255,255,.30)"/><rect x="310.2" y="218.7" width="3.3" height="1.7" rx="0.8" transform="rotate(101 311.9 219.5)" fill="rgba(255,255,255,.30)"/></g><g><g transform="translate(227.9 207.2)"><circle cx="10.7" cy="8.0" r="1.8" fill="#3B2F1E"/><circle cx="8.1" cy="-9.9" r="1.9" fill="#3B2F1E"/><circle cx="8.7" cy="-0.4" r="1.8" fill="#3B2F1E"/><circle cx="0.7" cy="-9.3" r="1.8" fill="#3B2F1E"/><circle cx="-5.9" cy="-0.8" r="1.9" fill="#3B2F1E"/><circle cx="-2.3" cy="1.0" r="1.8" fill="#3B2F1E"/><circle cx="9.4" cy="9.5" r="1.9" fill="#3B2F1E"/><circle cx="-1.1" cy="-9.6" r="2.2" fill="#3B2F1E"/><circle cx="-8.9" cy="6.0" r="1.8" fill="#3B2F1E"/></g><g transform="translate(338.5 314.1) scale(1.00)"><circle r="12" fill="#E4572E"/><circle r="12" fill="url(#tomGloss)"/><ellipse cx="-3.5" cy="-4.5" rx="3.2" ry="2" fill="#fff" opacity=".55"/></g><g transform="translate(269.0 340.8) scale(1.00)"><circle r="12" fill="#E4572E"/><circle r="12" fill="url(#tomGloss)"/><ellipse cx="-3.5" cy="-4.5" rx="3.2" ry="2" fill="#fff" opacity=".55"/></g><g transform="translate(361.9 223.6) rotate(20) scale(1.00)"><rect x="-16" y="-11" width="32" height="22" rx="7" fill="#C77C4A"/><rect x="-16" y="-11" width="32" height="22" rx="7" fill="none" stroke="#8F5427" stroke-width="2" opacity=".6"/><path d="M-10 0 H10 M-8 -5 H8 M-8 5 H8" stroke="#8F5427" stroke-width="1.4" opacity=".45"/></g><g transform="translate(227.6 170.6) rotate(17) scale(1.00)"><path d="M0 -22 C 16 -22 20 0 12 16 C 6 26 -6 26 -12 16 C -20 0 -16 -22 0 -22 Z" fill="#7FB069"/><path d="M0 -16 C 11 -16 14 0 8 12 C 4 19 -4 19 -8 12 C -14 0 -11 -16 0 -16 Z" fill="#A7CE8B"/><ellipse cx="0" cy="-1" rx="5.5" ry="6.5" fill="#C9B27E"/></g><g transform="translate(152.2 149.8) rotate(-1) scale(1.00)"><path d="M0 -22 C 16 -22 20 0 12 16 C 6 26 -6 26 -12 16 C -20 0 -16 -22 0 -22 Z" fill="#7FB069"/><path d="M0 -16 C 11 -16 14 0 8 12 C 4 19 -4 19 -8 12 C -14 0 -11 -16 0 -16 Z" fill="#A7CE8B"/><ellipse cx="0" cy="-1" rx="5.5" ry="6.5" fill="#C9B27E"/></g><g transform="translate(207.7 230.7) rotate(-21) scale(1.00)"><path d="M0 -22 C 16 -22 20 0 12 16 C 6 26 -6 26 -12 16 C -20 0 -16 -22 0 -22 Z" fill="#7FB069"/><path d="M0 -16 C 11 -16 14 0 8 12 C 4 19 -4 19 -8 12 C -14 0 -11 -16 0 -16 Z" fill="#A7CE8B"/><ellipse cx="0" cy="-1" rx="5.5" ry="6.5" fill="#C9B27E"/></g><g transform="translate(260.6 246.7)"><circle cx="-0.4" cy="2.6" r="2.2" fill="#3B2F1E"/><circle cx="-0.3" cy="-5.7" r="1.6" fill="#3B2F1E"/><circle cx="9.6" cy="3.3" r="2.1" fill="#3B2F1E"/><circle cx="-2.9" cy="4.4" r="2.1" fill="#3B2F1E"/><circle cx="-8.3" cy="6.8" r="2.1" fill="#3B2F1E"/><circle cx="10.2" cy="-8.0" r="1.5" fill="#3B2F1E"/><circle cx="9.2" cy="-2.0" r="1.6" fill="#3B2F1E"/><circle cx="3.4" cy="-3.8" r="1.6" fill="#3B2F1E"/><circle cx="-2.4" cy="-6.3" r="2.1" fill="#3B2F1E"/></g><g transform="translate(180.3 270.8) rotate(68) scale(1.00)"><circle r="13" fill="#BFE3A8"/><circle r="13" fill="none" stroke="#6FA84A" stroke-width="2.5"/><circle r="6" fill="#D8F0C4"/></g><g transform="translate(208.6 389.7) rotate(321) scale(1.20)"><path d="M0 0 C 10 -18 26 -18 30 0 C 26 18 10 18 0 0 Z" fill="#57A65A"/><path d="M4 0 L 27 0" stroke="rgba(0,0,0,.10)" stroke-width="1.4" fill="none"/></g><g transform="translate(403.2 239.8) rotate(-0) scale(1.00)"><rect x="-16" y="-11" width="32" height="22" rx="7" fill="#C77C4A"/><rect x="-16" y="-11" width="32" height="22" rx="7" fill="none" stroke="#8F5427" stroke-width="2" opacity=".6"/><path d="M-10 0 H10 M-8 -5 H8 M-8 5 H8" stroke="#8F5427" stroke-width="1.4" opacity=".45"/></g><g transform="translate(347.2 251.0) rotate(-24) scale(1.00)"><rect x="-16" y="-11" width="32" height="22" rx="7" fill="#C77C4A"/><rect x="-16" y="-11" width="32" height="22" rx="7" fill="none" stroke="#8F5427" stroke-width="2" opacity=".6"/><path d="M-10 0 H10 M-8 -5 H8 M-8 5 H8" stroke="#8F5427" stroke-width="1.4" opacity=".45"/></g><g transform="translate(145.7 203.7) rotate(-8) scale(1.00)"><path d="M0 -22 C 16 -22 20 0 12 16 C 6 26 -6 26 -12 16 C -20 0 -16 -22 0 -22 Z" fill="#7FB069"/><path d="M0 -16 C 11 -16 14 0 8 12 C 4 19 -4 19 -8 12 C -14 0 -11 -16 0 -16 Z" fill="#A7CE8B"/><ellipse cx="0" cy="-1" rx="5.5" ry="6.5" fill="#C9B27E"/></g><g transform="translate(286.7 192.2) rotate(-18) scale(1.00)"><rect x="-16" y="-11" width="32" height="22" rx="7" fill="#C77C4A"/><rect x="-16" y="-11" width="32" height="22" rx="7" fill="none" stroke="#8F5427" stroke-width="2" opacity=".6"/><path d="M-10 0 H10 M-8 -5 H8 M-8 5 H8" stroke="#8F5427" stroke-width="1.4" opacity=".45"/></g><g transform="translate(283.8 231.3)"><circle cx="-7.4" cy="10.0" r="2.1" fill="#3B2F1E"/><circle cx="-8.9" cy="9.5" r="1.7" fill="#3B2F1E"/><circle cx="-5.0" cy="6.5" r="2.1" fill="#3B2F1E"/><circle cx="-10.0" cy="-7.3" r="1.5" fill="#3B2F1E"/><circle cx="-3.7" cy="-0.6" r="1.9" fill="#3B2F1E"/><circle cx="3.0" cy="10.7" r="1.7" fill="#3B2F1E"/><circle cx="-5.9" cy="7.1" r="2.2" fill="#3B2F1E"/><circle cx="-0.0" cy="3.8" r="2.2" fill="#3B2F1E"/><circle cx="-4.9" cy="6.4" r="1.9" fill="#3B2F1E"/></g><g transform="translate(269.3 387.5) rotate(204) scale(1.20)"><path d="M0 0 C 10 -18 26 -18 30 0 C 26 18 10 18 0 0 Z" fill="#2F7D3A"/><path d="M4 0 L 27 0" stroke="rgba(0,0,0,.10)" stroke-width="1.4" fill="none"/></g><g transform="translate(248.1 312.4) rotate(194) scale(1.20)"><path d="M0 0 C 10 -18 26 -18 30 0 C 26 18 10 18 0 0 Z" fill="#57A65A"/><path d="M4 0 L 27 0" stroke="rgba(0,0,0,.10)" stroke-width="1.4" fill="none"/></g><g transform="translate(165.6 300.1) rotate(58) scale(1.00)"><circle r="13" fill="#BFE3A8"/><circle r="13" fill="none" stroke="#6FA84A" stroke-width="2.5"/><circle r="6" fill="#D8F0C4"/></g><g transform="translate(126.9 314.0) rotate(11) scale(1.00)"><circle r="13" fill="#BFE3A8"/><circle r="13" fill="none" stroke="#6FA84A" stroke-width="2.5"/><circle r="6" fill="#D8F0C4"/></g><g transform="translate(315.5 198.4) rotate(-28) scale(1.00)"><rect x="-16" y="-11" width="32" height="22" rx="7" fill="#C77C4A"/><rect x="-16" y="-11" width="32" height="22" rx="7" fill="none" stroke="#8F5427" stroke-width="2" opacity=".6"/><path d="M-10 0 H10 M-8 -5 H8 M-8 5 H8" stroke="#8F5427" stroke-width="1.4" opacity=".45"/></g><g transform="translate(250.3 397.7) rotate(328) scale(1.20)"><path d="M0 0 C 10 -18 26 -18 30 0 C 26 18 10 18 0 0 Z" fill="#2F7D3A"/><path d="M4 0 L 27 0" stroke="rgba(0,0,0,.10)" stroke-width="1.4" fill="none"/></g><g transform="translate(284.3 322.3) scale(1.00)"><circle r="12" fill="#E4572E"/><circle r="12" fill="url(#tomGloss)"/><ellipse cx="-3.5" cy="-4.5" rx="3.2" ry="2" fill="#fff" opacity=".55"/></g><g transform="translate(294.3 297.3) scale(1.00)"><circle r="12" fill="#E4572E"/><circle r="12" fill="url(#tomGloss)"/><ellipse cx="-3.5" cy="-4.5" rx="3.2" ry="2" fill="#fff" opacity=".55"/></g></g><path d="M 110 140 A 200 200 0 0 1 380 100" fill="none" stroke="rgba(255,255,255,.5)" stroke-width="10" stroke-linecap="round" opacity=".5"/></svg>