<svg xmlns="http://www.w3.org/2000/svg" viewBox="0 0 520 520" role="img" aria-label="Bowl saludable ilustrado"><defs><radialGradient id="tomGloss" cx="35%" cy="30%" r="75%"><stop offset="0%" stop-color="#ff8b5e"/><stop offset="55%" stop-color="#E4572E" stop-opacity="0"/></radialGradient><radialGradient id="baseg_bowl-hero" cx="42%" cy="38%" r="70%"><stop offset="0%" stop-color="#F7EFD9"/><stop offset="100%" stop-color="#EFE4C8"/></radialGradient><radialGradient id="shadow" cx="50%" cy="50%" r="50%"><stop offset="60%" stop-color="rgba(20,48,31,.16)"/><stop offset="100%" stop-color="rgba(20,48,31,0)"/></radialGradient></defs><ellipse cx="260" cy="278" rx="238" ry="230" fill="url(#shadow)"/><circle cx="260" cy="260" r="232" fill="#DCE7D2"/><circle cx="260" cy="260" r="218" fill="#fff" opacity=".55"/><circle cx="260" cy="260" r="204" fill="url(#baseg_bowl-hero)"/><g><rect x="349.4" y="358.0" width="4.1" height="2.1" rx="1.0" transform="rotate(70 351.4 359.1)" fill="rgba(255,255,255,.30)"/><rect x="322.6" y="90.6" width="3.9" height="1.9" rx="1.0" transform="rotate(17 324.5 91.5)" fill="rgba(255,255,255,.30)"/><rect x="337.4" y="248.4" width="3.0" height="1.5" rx="0.7" transform="rotate(36 338.9 249.2)" fill="rgba(255,255,255,.30)"/><rect x="259.0" y="365.2" width="3.5" height="1.8" rx="0.9" transform="rotate(85 260.8 366.0)" fill="rgba(255,255,255,.30)"/><rect x="399.7" y="293.3" width="5.1" height="2.6" rx="1.3" transform="rotate(85 402.3 294.5)" fill="rgba(255,255,255,.30)"/><rect x="300.8" y="440.3" width="4.0" height="2.0" rx="1.0" transform="rotate(160 302.8 441.3)" fill="rgba(255,255,255,.30)"/><rect x="336.6" y="288.2" width="3.4" height="1.7" rx="0.8" transform="rotate(101 338.3 289.1)" fill="rgba(255,255,255,.30)"/><rect x="262.5" y="169.0" width="5.0" height="2.5" rx="1.2" transform="rotate(177 265.0 170.3)" fill="rgba(255,255,255,.30)"/><rect x="329.1" y="282.6" width="5.0" height="2.5" rx="1.2" transform="rotate(137 331.6 283.8)" fill="rgba(255,255,255,.30)"/><rect x="129.3" y="128.0" width="4.4" height="2.2" rx="1.1" transform="rotate(116 131.5 129.1)" fill="rgba(255,255,255,.30)"/><rect x="84.6" y="184.5" width="4.5" height="2.3" rx="1.1" transform="rotate(104 86.9 185.6)" fill="rgba(255,255,255,.30)"/><rect x="277.4" y="316.1" width="4.6" height="2.3" rx="1.2" transform="rotate(70 279.7 317.2)" fill="rgba(255,255,255,.30)"/><rect x="111.3" y="146.3" width="5.0" height="2.5" rx="1.2" transform="rotate(104 113.8 147.6)" fill="rgba(255,255,255,.30)"/><rect x="217.8" y="125.0" width="4.1" height="2.0" rx="1.0" transform="rotate(90 219.9 126.0)" fill="rgba(255,255,255,.30)"/><rect x="400.9" y="188.0" width="4.9" height="2.4" rx="1.2" transform="rotate(148 403.3 189.2)" fill="rgba(255,255,255,.30)"/><rect x="202.1" y="364.5" width="5.0" height="2.5" rx="1.2" transform="rotate(29 204.6 365.7)" fill="rgba(255,255,255,.30)"/><rect x="177.7" y="326.7" width="3.9" height="1.9" rx="1.0" transform="rotate(175 179.6 327.7)" fill="rgba(255,255,255,.30)"/><rect x="181.7" y="290.1" width="4.0" height="2.0" rx="1.0" transform="rotate(171 183.7 291.1)" fill="rgba(255,255,255,.30)"/><rect x="126.3" y="154.9" width="4.9" height="2.4" rx="1.2" transform="rotate(179 128.7 156.1)" fill="rgba(255,255,255,.30)"/><rect x="245.8" y="407.9" width="3.3" height="1.6" rx="0.8" transform="rotate(169 247.4 408.7)" fill="rgba(255,255,255,.30)"/><rect x="167.7" y="300.7" width="4.5" height="2.3" rx="1.1" transform="rotate(38 169.9 301.9)" fill="rgba(255,255,255,.30)"/><rect x="390.8" y="347.7" width="4.2" height="2.1" rx="1.0" transform="rotate(67 392.9 348.7)" fill="rgba(255,255,255,.30)"/><rect x="256.7" y="233.2" width="4.0" height="2.0" rx="1.0" transform="rotate(4 258.7 234.2)" fill="rgba(255,255,255,.30)"/><rect x="242.1" y="438.8" width="3.5" height="1.8" rx="0.9" transform="rotate(110 243.8 439.7)" fill="rgba(255,255,255,.30)"/><rect x="217.4" y="89.1" width="4.0" height="2.0" rx="1.0" transform="rotate(98 219.4 90.1)" fill="rgba(255,255,255,.30)"/><rect x="188.3" y="196.6" width="3.9" height="2.0" rx="1.0" transform="rotate(111 190.3 197.5)" fill="rgba(255,255,255,.30)"/><rect x="128.7" y="305.6" width="4.5" height="2.2" rx="1.1" transform="rotate(127 130.9 306.7)" fill="rgba(255,255,255,.30)"/><rect x="316.4" y="135.4" width="4.5" height="2.3" rx="1.1" transform="rotate(39 318.7 136.5)" fill="rgba(255,255,255,.30)"/><rect x="258.4" y="443.2" width="3.0" height="1.5" rx="0.8" transform="rotate(178 260.0 444.0)" fill="rgba(255,255,255,.30)"/><rect x="198.0" y="274.3" width="3.7" height="1.9" rx="0.9" transform="rotate(56 199.8 275.3)" fill="rgba(255,255,255,.30)"/><rect x="297.8" y="389.3" width="4.4" height="2.2" rx="1.1" transform="rotate(101 300.0 390.4)" fill="rgba(255,255,255,.30)"/><rect x="334.4" y="324.0" width="4.0" height="2.0" rx="1.0" transform="rotate(153 336.4 325.0)" fill="rgba(255,255,255,.30)"/><rect x="309.7" y="252.2" width="5.1" height="2.5" rx="1.3" transform="rotate(87 312.3 253.4)" fill="rgba(255,255,255,.30)"/><rect x="152.3" y="193.8" width="4.8" height="2.4" rx="1.2" transform="rotate(64 154.7 195.0)" fill="rgba(255,255,255,.30)"/><rect x="391.9" y="208.2" width="3.7" height="1.8" rx="0.9" transform="rotate(104 393.7 209.1)" fill="rgba(255,255,255,.30)"/><rect x="177.6" y="103.0" width="5.0" height="2.5" rx="1.2" transform="rotate(66 180.1 104.3)" fill="rgba(255,255,255,.30)"/><rect x="395.9" y="247.2" width="3.8" height="1.9" rx="1.0" transform="rotate(32 397.8 248.2)" fill="rgba(255,255,255,.30)"/><rect x="68.9" y="221.3" width="3.4" height="1.7" rx="0.8" transform="rotate(6 70.6 222.2)" fill="rgba(255,255,255,.30)"/><rect x="164.9" y="105.9" width="4.1" height="2.1" rx="1.0" transform="rotate(132 167.0 106.9)" fill="rgba(255,255,255,.30)"/><rect x="71.3" y="235.0" width="4.0" height="2.0" rx="1.0" transform="rotate(7 73.3 236.1)" fill="rgba(255,255,255,.30)"/><rect x="202.9" y="437.3" width="5.1" height="2.6" rx="1.3" transform="rotate(18 205.5 438.5)" fill="rgba(255,255,255,.30)"/><rect x="150.3" y="150.0" width="4.8" height="2.4" rx="1.2" transform="rotate(25 152.7 151.2)" fill="rgba(255,255,255,.30)"/><rect x="106.0" y="222.8" width="3.7" height="1.9" rx="0.9" transform="rotate(36 107.9 223.7)" fill="rgba(255,255,255,.30)"/><rect x="142.6" y="332.6" width="3.0" height="1.5" rx="0.7" transform="rotate(27 144.0 333.3)" fill="rgba(255,255,255,.30)"/><rect x="407.3" y="380.1" width="3.6" height="1.8" rx="0.9" transform="rotate(13 409.1 381.0)" fill="rgba(255,255,255,.30)"/><rect x="137.8" y="277.3" width="3.2" height="1.6" rx="0.8" transform="rotate(10 139.4 278.0)" fill="rgba(255,255,255,.30)"/><rect x="114.3" y="251.5" width="5.1" height="2.6" rx="1.3" transform="rotate(113 116.9 252.8)" fill="rgba(255,255,255,.30)"/><rect x="304.5" y="351.2" width="5.2" height="2.6" rx="1.3" transform="rotate(60 307.1 352.5)" fill="rgba(255,255,255,.30)"/><rect x="338.3" y="234.9" width="4.8" height="2.4" rx="1.2" transform="rotate(43 340.7 236.2)" fill="rgba(255,255,255,.30)"/><rect x="370.6" y="211.8" width="3.7" height="1.8" rx="0.9" transform="rotate(125 372.4 212.8)" fill="rgba(255,255,255,.30)"/><rect x="123.6" y="163.7" width="2.9" height="1.4" rx="0.7" transform="rotate(1 125.1 164.5)" fill="rgba(255,255,255,.30)"/><rect x="246.5" y="120.4" width="4.4" height="2.2" rx="1.1" transform="rotate(40 248.7 121.5)" fill="rgba(255,255,255,.30)"/><rect x="352.0" y="371.7" width="3.1" height="1.6" rx="0.8" transform="rotate(140 353.6 372.5)" fill="rgba(255,255,255,.30)"/><rect x="422.0" y="357.1" width="4.9" height="2.5" rx="1.2" transform="rotate(119 424.4 358.4)" fill="rgba(255,255,255,.30)"/><rect x="343.4" y="324.3" width="4.7" height="2.3" rx="1.2" transform="rotate(93 345.8 325.4)" fill="rgba(255,255,255,.30)"/><rect x="156.1" y="330.9" width="2.8" height="1.4" rx="0.7" transform="rotate(102 157.5 331.6)" fill="rgba(255,255,255,.30)"/><rect x="209.2" y="312.1" width="4.2" height="2.1" rx="1.1" transform="rotate(15 211.3 313.2)" fill="rgba(255,255,255,.30)"/><rect x="261.9" y="167.9" width="4.7" height="2.4" rx="1.2" transform="rotate(131 264.2 169.1)" fill="rgba(255,255,255,.30)"/><rect x="316.7" y="359.0" width="4.5" height="2.3" rx="1.1" transform="rotate(154 318.9 360.2)" fill="rgba(255,255,255,.30)"/><rect x="411.8" y="161.6" width="3.6" height="1.8" rx="0.9" transform="rotate(128 413.6 162.5)" fill="rgba(255,255,255,.30)"/><rect x="211.7" y="341.2" width="5.0" height="2.5" rx="1.3" transform="rotate(50 214.2 342.5)" fill="rgba(255,255,255,.30)"/><rect x="332.1" y="197.8" width="4.0" height="2.0" rx="1.0" transform="rotate(150 334.1 198.9)" fill="rgba(255,255,255,.30)"/><rect x="206.7" y="419.0" width="3.8" height="1.9" rx="0.9" transform="rotate(107 208.6 420.0)" fill="rgba(255,255,255,.30)"/><rect x="190.0" y="119.7" width="4.2" height="2.1" rx="1.0" transform="rotate(2 192.1 120.8)" fill="rgba(255,255,255,.30)"/><rect x="389.6" y="343.9" width="3.5" height="1.7" rx="0.9" transform="rotate(9 391.4 344.7)" fill="rgba(255,255,255,.30)"/><rect x="368.5" y="202.2" width="4.6" height="2.3" rx="1.1" transform="rotate(134 370.8 203.3)" fill="rgba(255,255,255,.30)"/><rect x="203.5" y="367.6" width="3.9" height="2.0" rx="1.0" transform="rotate(42 205.5 368.5)" fill="rgba(255,255,255,.30)"/><rect x="200.4" y="412.9" width="5.0" height="2.5" rx="1.2" transform="rotate(79 202.9 414.1)" fill="rgba(255,255,255,.30)"/><rect x="217.1" y="350.5" width="4.6" height="2.3" rx="1.2" transform="rotate(150 219.4 351.7)" fill="rgba(255,255,255,.30)"/><rect x="357.6" y="360.7" width="4.6" height="2.3" rx="1.1" transform="rotate(152 359.9 361.8)" fill="rgba(255,255,255,.30)"/><rect x="256.6" y="185.6" width="3.3" height="1.6" rx="0.8" transform="rotate(21 258.2 186.5)" fill="rgba(255,255,255,.30)"/><rect x="328.3" y="316.1" width="4.2" height="2.1" rx="1.0" transform="rotate(140 330.4 317.1)" fill="rgba(255,255,255,.30)"/><rect x="135.2" y="341.7" width="4.1" height="2.1" rx="1.0" transform="rotate(83 137.2 342.8)" fill="rgba(255,255,255,.30)"/><rect x="364.8" y="366.2" width="4.9" height="2.4" rx="1.2" transform="rotate(121 367.2 367.4)" fill="rgba(255,255,255,.30)"/><rect x="129.8" y="130.1" width="3.9" height="2.0" rx="1.0" transform="rotate(73 131.8 131.1)" fill="rgba(255,255,255,.30)"/><rect x="442.2" y="318.4" width="4.3" height="2.1" rx="1.1" transform="rotate(20 444.4 319.5)" fill="rgba(255,255,255,.30)"/><rect x="202.1" y="296.7" width="3.7" height="1.9" rx="0.9" transform="rotate(63 203.9 297.6)" fill="rgba(255,255,255,.30)"/><rect x="212.2" y="89.0" width="3.6" height="1.8" rx="0.9" transform="rotate(89 214.0 89.9)" fill="rgba(255,255,255,.30)"/><rect x="244.4" y="393.9" width="4.8" height="2.4" rx="1.2" transform="rotate(114 246.8 395.1)" fill="rgba(255,255,255,.30)"/><rect x="316.8" y="93.3" width="3.4" height="1.7" rx="0.8" transform="rotate(18 318.5 94.1)" fill="rgba(255,255,255,.30)"/><rect x="279.6" y="418.6" width="4.9" height="2.4" rx="1.2" transform="rotate(150 282.0 419.8)" fill="rgba(255,255,255,.30)"/><rect x="381.6" y="294.9" width="3.5" height="1.8" rx="0.9" transform="rotate(31 383.4 295.8)" fill="rgba(255,255,255,.30)"/><rect x="244.8" y="196.4" width="4.6" height="2.3" rx="1.2" transform="rotate(47 247.1 197.6)" fill="rgba(255,255,255,.30)"/><rect x="350.7" y="308.9" width="3.6" height="1.8" rx="0.9" transform="rotate(171 352.4 309.8)" fill="rgba(255,255,255,.30)"/><rect x="382.0" y="230.4" width="3.7" height="1.8" rx="0.9" transform="rotate(172 383.8 231.3)" fill="rgba(255,255,255,.30)"/><rect x="407.9" y="156.9" width="4.7" height="2.3" rx="1.2" transform="rotate(69 410.3 158.0)" fill="rgba(255,255,255,.30)"/><rect x="448.0" y="280.8" width="4.5" height="2.2" rx="1.1" transform="rotate(40 450.2 281.9)" fill="rgba(255,255,255,.30)"/><rect x="399.6" y="332.9" width="3.4" height="1.7" rx="0.8" transform="rotate(114 401.3 333.7)" fill="rgba(255,255,255,.30)"/><rect x="364.9" y="295.0" width="3.2" height="1.6" rx="0.8" transform="rotate(18 366.5 295.8)" fill="rgba(255,255,255,.30)"/><rect x="101.7" y="274.2" width="2.9" height="1.5" rx="0.7" transform="rotate(143 103.2 274.9)" fill="rgba(255,255,255,.30)"/><rect x="239.4" y="429.5" width="4.9" height="2.5" rx="1.2" transform="rotate(19 241.9 430.7)" fill="rgba(255,255,255,.30)"/><rect x="321.3" y="106.6" width="3.4" height="1.7" rx="0.8" transform="rotate(73 323.0 107.5)" fill="rgba(255,255,255,.30)"/><rect x="163.9" y="402.0" width="5.0" height="2.5" rx="1.2" transform="rotate(41 166.4 403.3)" fill="rgba(255,255,255,.30)"/><rect x="369.1" y="304.6" width="3.8" height="1.9" rx="0.9" transform="rotate(91 371.0 305.5)" fill="rgba(255,255,255,.30)"/><rect x="176.9" y="407.5" width="3.0" height="1.5" rx="0.7" transform="rotate(102 178.4 408.3)" fill="rgba(255,255,255,.30)"/><rect x="377.0" y="272.2" width="2.8" height="1.4" rx="0.7" transform="rotate(84 378.5 272.9)" fill="rgba(255,255,255,.30)"/><rect x="87.7" y="237.2" width="4.7" height="2.3" rx="1.2" transform="rotate(120 90.0 238.4)" fill="rgba(255,255,255,.30)"/><rect x="264.4" y="433.2" width="4.8" height="2.4" rx="1.2" transform="rotate(42 266.8 434.4)" fill="rgba(255,255,255,.30)"/><rect x="321.4" y="209.0" width="3.3" height="1.6" rx="0.8" transform="rotate(51 323.1 209.8)" fill="rgba(255,255,255,.30)"/><rect x="319.9" y="145.4" width="4.4" height="2.2" rx="1.1" transform="rotate(128 322.1 146.5)" fill="rgba(255,255,255,.30)"/><rect x="207.2" y="423.9" width="3.9" height="2.0" rx="1.0" transform="rotate(21 209.2 424.9)" fill="rgba(255,255,255,.30)"/><rect x="159.2" y="204.0" width="4.9" height="2.4" rx="1.2" transform="rotate(41 161.7 205.2)" fill="rgba(255,255,255,.30)"/><rect x="187.1" y="339.7" width="5.1" height="2.6" rx="1.3" transform="rotate(71 189.7 341.0)" fill="rgba(255,255,255,.30)"/><rect x="289.7" y="225.3" width="3.0" height="1.5" rx="0.7" transform="rotate(175 291.2 226.1)" fill="rgba(255,255,255,.30)"/><rect x="253.0" y="180.7" width="3.4" height="1.7" rx="0.8" transform="rotate(140 254.7 181.5)" fill="rgba(255,255,255,.30)"/><rect x="231.2" y="428.9" width="3.4" height="1.7" rx="0.8" transform="rotate(163 232.9 429.7)" fill="rgba(255,255,255,.30)"/><rect x="374.3" y="260.3" width="5.1" height="2.5" rx="1.3" transform="rotate(121 376.9 261.6)" fill="rgba(255,255,255,.30)"/><rect x="212.2" y="361.4" width="3.7" height="1.9" rx="0.9" transform="rotate(9 214.1 362.3)" fill="rgba(255,255,255,.30)"/><rect x="358.4" y="255.4" width="4.6" height="2.3" rx="1.1" transform="rotate(166 360.7 256.6)" fill="rgba(255,255,255,.30)"/><rect x="232.1" y="212.8" width="4.8" height="2.4" rx="1.2" transform="rotate(121 234.5 214.0)" fill="rgba(255,255,255,.30)"/><rect x="239.9" y="141.5" width="4.5" height="2.3" rx="1.1" transform="rotate(6 242.1 142.6)" fill="rgba(255,255,255,.30)"/><rect x="233.3" y="350.2" width="4.8" height="2.4" rx="1.2" transform="rotate(44 235.7 351.4)" fill="rgba(255,255,255,.30)"/><rect x="356.8" y="395.3" width="3.5" height="1.7" rx="0.9" transform="rotate(8 358.5 396.1)" fill="rgba(255,255,255,.30)"/><rect x="265.0" y="388.3" width="3.4" height="1.7" rx="0.9" transform="rotate(127 266.8 389.1)" fill="rgba(255,255,255,.30)"/><rect x="162.0" y="93.2" width="4.0" height="2.0" rx="1.0" transform="rotate(99 164.0 94.2)" fill="rgba(255,255,255,.30)"/><rect x="302.7" y="245.3" width="4.4" height="2.2" rx="1.1" transform="rotate(42 304.9 246.4)" fill="rgba(255,255,255,.30)"/><rect x="278.4" y="426.9" width="4.0" height="2.0" rx="1.0" transform="rotate(160 280.4 427.9)" fill="rgba(255,255,255,.30)"/><rect x="227.8" y="90.6" width="3.3" height="1.7" rx="0.8" transform="rotate(165 229.4 91.4)" fill="rgba(255,255,255,.30)"/><rect x="117.1" y="191.3" width="4.4" height="2.2" rx="1.1" transform="rotate(111 119.3 192.4)" fill="rgba(255,255,255,.30)"/><rect x="450.8" y="257.1" width="3.1" height="1.6" rx="0.8" transform="rotate(139 452.4 257.8)" fill="rgba(255,255,255,.30)"/><rect x="190.8" y="270.1" width="4.3" height="2.2" rx="1.1" transform="rotate(47 193.0 271.2)" fill="rgba(255,255,255,.30)"/><rect x="301.0" y="161.7" width="5.1" height="2.6" rx="1.3" transform="rotate(107 303.6 163.0)" fill="rgba(255,255,255,.30)"/><rect x="424.7" y="296.1" width="3.1" height="1.5" rx="0.8" transform="rotate(178 426.2 296.9)" fill="rgba(255,255,255,.30)"/><rect x="363.5" y="272.5" width="3.6" height="1.8" rx="0.9" transform="rotate(176 365.3 273.4)" fill="rgba(255,255,255,.30)"/><rect x="331.0" y="109.5" width="4.5" height="2.2" rx="1.1" transform="rotate(84 333.3 110.6)" fill="rgba(255,255,255,.30)"/><rect x="314.6" y="251.1" width="4.3" height="2.2" rx="1.1" transform="rotate(135 316.7 252.2)" fill="rgba(255,255,255,.30)"/><rect x="274.8" y="309.4" width="3.3" height="1.6" rx="0.8" transform="rotate(26 276.4 310.2)" fill="rgba(255,255,255,.30)"/><rect x="165.3" y="301.9" width="3.0" height="1.5" rx="0.7" transform="rotate(129 166.8 302.7)" fill="rgba(255,255,255,.30)"/><rect x="281.7" y="242.0" width="3.2" height="1.6" rx="0.8" transform="rotate(140 283.3 242.8)" fill="rgba(255,255,255,.30)"/><rect x="169.9" y="394.2" width="3.8" height="1.9" rx="0.9" transform="rotate(14 171.8 395.1)" fill="rgba(255,255,255,.30)"/><rect x="162.1" y="411.0" width="4.8" height="2.4" rx="1.2" transform="rotate(121 164.5 412.2)" fill="rgba(255,255,255,.30)"/><rect x="217.1" y="394.2" width="3.0" height="1.5" rx="0.8" transform="rotate(135 218.6 394.9)" fill="rgba(255,255,255,.30)"/><rect x="320.5" y="403.5" width="3.2" height="1.6" rx="0.8" transform="rotate(100 322.1 404.3)" fill="rgba(255,255,255,.30)"/><rect x="215.8" y="299.1" width="4.6" height="2.3" rx="1.1" transform="rotate(19 218.1 300.3)" fill="rgba(255,255,255,.30)"/><rect x="320.6" y="147.4" width="4.6" height="2.3" rx="1.1" transform="rotate(140 322.9 148.6)" fill="rgba(255,255,255,.30)"/><rect x="314.6" y="205.6" width="3.8" height="1.9" rx="1.0" transform="rotate(29 316.5 206.6)" fill="rgba(255,255,255,.30)"/><rect x="235.5" y="222.0" width="5.1" height="2.6" rx="1.3" transform="rotate(49 238.1 223.3)" fill="rgba(255,255,255,.30)"/><rect x="250.7" y="147.8" width="3.8" height="1.9" rx="1.0" transform="rotate(69 252.6 148.7)" fill="rgba(255,255,255,.30)"/><rect x="209.9" y="260.4" width="4.7" height="2.4" rx="1.2" transform="rotate(88 212.2 261.6)" fill="rgba(255,255,255,.30)"/><rect x="139.4" y="237.8" width="4.8" height="2.4" rx="1.2" transform="rotate(27 141.8 239.0)" fill="rgba(255,255,255,.30)"/><rect x="301.3" y="355.8" width="4.5" height="2.3" rx="1.1" transform="rotate(33 303.5 356.9)" fill="rgba(255,255,255,.30)"/><rect x="219.7" y="293.5" width="2.9" height="1.5" rx="0.7" transform="rotate(75 221.2 294.2)" fill="rgba(255,255,255,.30)"/><rect x="375.7" y="185.9" width="3.9" height="2.0" rx="1.0" transform="rotate(90 377.7 186.9)" fill="rgba(255,255,255,.30)"/><rect x="182.6" y="245.7" width="5.1" height="2.6" rx="1.3" transform="rotate(105 185.2 247.0)" fill="rgba(255,255,255,.30)"/><rect x="114.8" y="135.4" width="3.5" height="1.8" rx="0.9" transform="rotate(152 116.6 136.3)" fill="rgba(255,255,255,.30)"/><rect x="164.0" y="425.8" width="3.5" height="1.7" rx="0.9" transform="rotate(155 165.7 426.6)" fill="rgba(255,255,255,.30)"/><rect x="226.0" y="318.1" width="4.5" height="2.2" rx="1.1" transform="rotate(135 228.2 319.2)" fill="rgba(255,255,255,.30)"/><rect x="257.3" y="445.6" width="3.0" height="1.5" rx="0.8" transform="rotate(153 258.8 446.4)" fill="rgba(255,255,255,.30)"/><rect x="135.3" y="309.0" width="3.0" height="1.5" rx="0.7" transform="rotate(93 136.7 309.8)" fill="rgba(255,255,255,.30)"/><rect x="371.4" y="279.6" width="4.8" height="2.4" rx="1.2" transform="rotate(153 373.8 280.8)" fill="rgba(255,255,255,.30)"/><rect x="446.8" y="242.4" width="4.0" height="2.0" rx="1.0" transform="rotate(105 448.9 243.4)" fill="rgba(255,255,255,.30)"/><rect x="194.3" y="353.2" width="5.0" height="2.5" rx="1.3" transform="rotate(73 196.9 354.4)" fill="rgba(255,255,255,.30)"/><rect x="219.6" y="85.5" width="3.7" height="1.9" rx="0.9" transform="rotate(33 221.5 86.4)" fill="rgba(255,255,255,.30)"/><rect x="347.0" y="130.6" width="4.7" height="2.4" rx="1.2" transform="rotate(102 349.4 131.7)" fill="rgba(255,255,255,.30)"/><rect x="101.1" y="342.7" width="4.9" height="2.5" rx="1.2" transform="rotate(2 103.5 343.9)" fill="rgba(255,255,255,.30)"/><rect x="269.4" y="128.3" width="5.1" height="2.6" rx="1.3" transform="rotate(54 272.0 129.6)" fill="rgba(255,255,255,.30)"/><rect x="400.0" y="245.8" width="4.9" height="2.5" rx="1.2" transform="rotate(168 402.5 247.0)" fill="rgba(255,255,255,.30)"/><rect x="261.8" y="212.2" width="4.3" height="2.2" rx="1.1" transform="rotate(157 263.9 213.3)" fill="rgba(255,255,255,.30)"/><rect x="327.1" y="148.4" width="4.8" height="2.4" rx="1.2" transform="rotate(97 329.5 149.6)" fill="rgba(255,255,255,.30)"/><rect x="366.3" y="170.8" width="3.3" height="1.6" rx="0.8" transform="rotate(159 367.9 171.6)" fill="rgba(255,255,255,.30)"/><rect x="132.2" y="405.3" width="3.0" height="1.5" rx="0.7" transform="rotate(129 133.7 406.1)" fill="rgba(255,255,255,.30)"/><rect x="126.6" y="253.0" width="4.0" height="2.0" rx="1.0" transform="rotate(149 128.6 254.0)" fill="rgba(255,255,255,.30)"/><rect x="181.3" y="437.6" width="3.4" height="1.7" rx="0.9" transform="rotate(155 183.0 438.4)" fill="rgba(255,255,255,.30)"/><rect x="307.0" y="96.7" width="3.3" height="1.6" rx="0.8" transform="rotate(108 308.6 97.5)" fill="rgba(255,255,255,.30)"/><rect x="297.5" y="426.5" width="3.7" height="1.8" rx="0.9" transform="rotate(102 299.4 427.4)" fill="rgba(255,255,255,.30)"/><rect x="313.6" y="397.1" width="4.6" height="2.3" rx="1.1" transform="rotate(93 315.9 398.2)" fill="rgba(255,255,255,.30)"/><rect x="197.5" y="393.4" width="4.5" height="2.2" rx="1.1" transform="rotate(136 199.8 394.5)" fill="rgba(255,255,255,.30)"/><rect x="119.7" y="133.4" width="5.0" height="2.5" rx="1.2" transform="rotate(73 122.2 134.6)" fill="rgba(255,255,255,.30)"/><rect x="192.6" y="92.5" width="3.5" height="1.7" rx="0.9" transform="rotate(39 194.3 93.4)" fill="rgba(255,255,255,.30)"/><rect x="204.2" y="406.5" width="4.2" height="2.1" rx="1.0" transform="rotate(30 206.3 407.6)" fill="rgba(255,255,255,.30)"/><rect x="376.1" y="124.0" width="3.2" height="1.6" rx="0.8" transform="rotate(128 377.7 124.8)" fill="rgba(255,255,255,.30)"/><rect x="114.5" y="290.8" width="3.3" height="1.7" rx="0.8" transform="rotate(68 116.2 291.6)" fill="rgba(255,255,255,.30)"/><rect x="254.3" y="226.1" width="3.1" height="1.5" rx="0.8" transform="rotate(159 255.9 226.9)" fill="rgba(255,255,255,.30)"/><rect x="97.4" y="156.1" width="4.9" height="2.5" rx="1.2" transform="rotate(97 99.9 157.3)" fill="rgba(255,255,255,.30)"/><rect x="147.5" y="419.0" width="4.9" height="2.4" rx="1.2" transform="rotate(43 150.0 420.3)" fill="rgba(255,255,255,.30)"/><rect x="405.9" y="277.8" width="4.4" height="2.2" rx="1.1" transform="rotate(169 408.1 278.9)" fill="rgba(255,255,255,.30)"/><rect x="329.4" y="204.3" width="4.1" height="2.0" rx="1.0" transform="rotate(74 331.4 205.3)" fill="rgba(255,255,255,.30)"/><rect x="111.8" y="200.0" width="3.6" height="1.8" rx="0.9" transform="rotate(126 113.5 200.9)" fill="rgba(255,255,255,.30)"/><rect x="250.5" y="97.8" width="5.1" height="2.6" rx="1.3" transform="rotate(12 253.1 99.1)" fill="rgba(255,255,255,.30)"/><rect x="178.1" y="293.1" width="3.0" height="1.5" rx="0.8" transform="rotate(52 179.6 293.8)" fill="rgba(255,255,255,.30)"/><rect x="209.6" y="349.8" width="2.8" height="1.4" rx="0.7" transform="rotate(149 211.0 350.5)" fill="rgba(255,255,255,.30)"/><rect x="105.3" y="235.5" width="3.2" height="1.6" rx="0.8" transform="rotate(171 106.9 236.3)" fill="rgba(255,255,255,.30)"/><rect x="317.5" y="224.9" width="5.1" height="2.6" rx="1.3" transform="rotate(88 320.0 226.2)" fill="rgba(255,255,255,.30)"/><rect x="390.6" y="189.3" width="3.2" height="1.6" rx="0.8" transform="rotate(1 392.2 190.1)" fill="rgba(255,255,255,.30)"/><rect x="91.5" y="266.4" width="3.4" height="1.7" rx="0.9" transform="rotate(41 93.2 267.2)" fill="rgba(255,255,255,.30)"/><rect x="369.8" y="253.4" width="5.1" height="2.6" rx="1.3" transform="rotate(18 372.3 254.7)" fill="rgba(255,255,255,.30)"/><rect x="298.3" y="447.6" width="3.8" height="1.9" rx="0.9" transform="rotate(1 300.2 448.5)" fill="rgba(255,255,255,.30)"/><rect x="427.1" y="208.9" width="3.5" height="1.8" rx="0.9" transform="rotate(19 428.9 209.8)" fill="rgba(255,255,255,.30)"/><rect x="369.5" y="104.7" width="3.4" height="1.7" rx="0.9" transform="rotate(40 371.2 105.6)" fill="rgba(255,255,255,.30)"/><rect x="344.4" y="206.1" width="4.3" height="2.1" rx="1.1" transform="rotate(85 346.6 207.2)" fill="rgba(255,255,255,.30)"/><rect x="417.7" y="171.1" width="4.5" height="2.3" rx="1.1" transform="rotate(10 420.0 172.2)" fill="rgba(255,255,255,.30)"/><rect x="190.7" y="338.1" width="3.4" height="1.7" rx="0.9" transform="rotate(93 192.4 338.9)" fill="rgba(255,255,255,.30)"/><rect x="356.2" y="161.2" width="3.6" height="1.8" rx="0.9" transform="rotate(85 358.0 162.1)" fill="rgba(255,255,255,.30)"/><rect x="221.4" y="269.7" width="3.8" height="1.9" rx="0.9" transform="rotate(85 223.3 270.6)" fill="rgba(255,255,255,.30)"/><rect x="114.0" y="239.2" width="4.5" height="2.2" rx="1.1" transform="rotate(30 116.3 240.3)" fill="rgba(255,255,255,.30)"/><rect x="84.1" y="316.7" width="3.5" height="1.8" rx="0.9" transform="rotate(99 85.9 317.6)" fill="rgba(255,255,255,.30)"/><rect x="316.4" y="383.3" width="2.9" height="1.5" rx="0.7" transform="rotate(154 317.9 384.1)" fill="rgba(255,255,255,.30)"/><rect x="290.0" y="272.3" width="3.6" height="1.8" rx="0.9" transform="rotate(26 291.7 273.2)" fill="rgba(255,255,255,.30)"/><rect x="119.4" y="275.2" width="4.8" height="2.4" rx="1.2" transform="rotate(70 121.8 276.4)" fill="rgba(255,255,255,.30)"/><rect x="178.3" y="136.1" width="3.6" height="1.8" rx="0.9" transform="rotate(68 180.1 137.0)" fill="rgba(255,255,255,.30)"/><rect x="286.5" y="144.8" width="4.4" height="2.2" rx="1.1" transform="rotate(145 288.7 145.9)" fill="rgba(255,255,255,.30)"/><rect x="288.2" y="280.8" width="3.3" height="1.6" rx="0.8" transform="rotate(56 289.9 281.6)" fill="rgba(255,255,255,.30)"/><rect x="238.6" y="438.3" width="3.4" height="1.7" rx="0.9" transform="rotate(10 240.3 439.1)" fill="rgba(255,255,255,.30)"/><rect x="174.1" y="106.6" width="3.7" height="1.8" rx="0.9" transform="rotate(43 176.0 107.5)" fill="rgba(255,255,255,.30)"/><rect x="329.5" y="219.4" width="4.1" height="2.1" rx="1.0" transform="rotate(29 331.5 220.4)" fill="rgba(255,255,255,.30)"/><rect x="93.3" y="237.5" width="3.9" height="2.0" rx="1.0" transform="rotate(118 95.3 238.5)" fill="rgba(255,255,255,.30)"/><rect x="355.0" y="145.3" width="3.0" height="1.5" rx="0.8" transform="rotate(114 356.5 146.1)" fill="rgba(255,255,255,.30)"/><rect x="291.5" y="117.2" width="2.8" height="1.4" rx="0.7" transform="rotate(35 292.9 117.9)" fill="rgba(255,255,255,.30)"/><rect x="86.6" y="205.8" width="4.5" height="2.3" rx="1.1" transform="rotate(134 88.8 206.9)" fill="rgba(255,255,255,.30)"/><rect x="69.5" y="267.9" width="2.8" height="1.4" rx="0.7" transform="rotate(27 70.9 268.6)" fill="rgba(255,255,255,.30)"/><rect x="195.8" y="382.1" width="5.2" height="2.6" rx="1.3" transform="rotate(40 198.4 383.4)" fill="rgba(255,255,255,.30)"/><rect x="122.3" y="326.9" width="4.8" height="2.4" rx="1.2" transform="rotate(65 124.7 328.1)" fill="rgba(255,255,255,.30)"/><rect x="158.1" y="416.5" width="4.2" height="2.1" rx="1.0" transform="rotate(159 160.2 417.5)" fill="rgba(255,255,255,.30)"/><rect x="148.7" y="270.4" width="3.2" height="1.6" rx="0.8" transform="rotate(18 150.3 271.2)" fill="rgba(255,255,255,.30)"/><rect x="390.9" y="323.8" width="3.6" height="1.8" rx="0.9" transform="rotate(167 392.7 324.7)" fill="rgba(255,255,255,.30)"/><rect x="428.0" y="349.3" width="3.4" height="1.7" rx="0.9" transform="rotate(127 429.7 350.1)" fill="rgba(255,255,255,.30)"/><rect x="91.8" y="328.1" width="3.1" height="1.6" rx="0.8" transform="rotate(86 93.4 328.9)" fill="rgba(255,255,255,.30)"/><rect x="211.5" y="406.7" width="4.7" height="2.4" rx="1.2" transform="rotate(86 213.9 407.9)" fill="rgba(255,255,255,.30)"/><rect x="191.3" y="399.3" width="3.3" height="1.6" rx="0.8" transform="rotate(20 192.9 400.1)" fill="rgba(255,255,255,.30)"/><rect x="352.2" y="144.8" width="3.8" height="1.9" rx="1.0" transform="rotate(128 354.1 145.8)" fill="rgba(255,255,255,.30)"/><rect x="112.4" y="205.5" width="3.2" height="1.6" rx="0.8" transform="rotate(81 114.0 206.3)" fill="rgba(255,255,255,.30)"/><rect x="338.5" y="206.4" width="4.9" height="2.4" rx="1.2" transform="rotate(89 340.9 207.6)" fill="rgba(255,255,255,.30)"/><rect x="82.2" y="303.2" width="3.7" height="1.9" rx="0.9" transform="rotate(147 84.0 304.1)" fill="rgba(255,255,255,.30)"/><rect x="226.8" y="404.4" width="4.2" height="2.1" rx="1.1" transform="rotate(154 229.0 405.4)" fill="rgba(255,255,255,.30)"/><rect x="237.0" y="448.3" width="4.0" height="2.0" rx="1.0" transform="rotate(124 239.0 449.3)" fill="rgba(255,255,255,.30)"/><rect x="337.9" y="353.1" width="4.9" height="2.5" rx="1.2" transform="rotate(133 340.3 354.4)" fill="rgba(255,255,255,.30)"/><rect x="365.9" y="162.5" width="3.5" height="1.7" rx="0.9" transform="rotate(58 367.6 163.4)" fill="rgba(255,255,255,.30)"/><rect x="288.9" y="105.7" width="3.1" height="1.6" rx="0.8" transform="rotate(53 290.5 106.5)" fill="rgba(255,255,255,.30)"/><rect x="321.5" y="130.0" width="4.3" height="2.1" rx="1.1" transform="rotate(49 323.6 131.1)" fill="rgba(255,255,255,.30)"/><rect x="400.1" y="390.6" width="3.3" height="1.7" rx="0.8" transform="rotate(85 401.7 391.5)" fill="rgba(255,255,255,.30)"/></g><g><g transform="translate(126.9 314.0) rotate(4) scale(1.00)"><circle r="13" fill="#BFE3A8"/><circle r="13" fill="none" stroke="#6FA84A" stroke-width="2.5"/><circle r="6" fill="#D8F0C4"/></g><g transform="translate(284.3 322.3) scale(1.00)"><circle r="12" fill="#E4572E"/><circle r="12" fill="url(#tomGloss)"/><ellipse cx="-3.5" cy="-4.5" rx="3.2" ry="2" fill="#fff" opacity=".55"/></g><g transform="translate(180.3 270.8) rotate(38) scale(1.00)"><circle r="13" fill="#BFE3A8"/><circle r="13" fill="none" stroke="#6FA84A" stroke-width="2.5"/><circle r="6" fill="#D8F0C4"/></g><g transform="translate(209.6 298.0) rotate(234) scale(1.20)"><path d="M0 0 C 10 -18 26 -18 30 0 C 26 18 10 18 0 0 Z" fill="#57A65A"/><path d="M4 0 L 27 0" stroke="rgba(0,0,0,.10)" stroke-width="1.4" fill="none"/></g><g transform="translate(145.7 203.7) rotate(-27) scale(1.00)"><path d="M0 -22 C 16 -22 20 0 12 16 C 6 26 -6 26 -12 16 C -20 0 -16 -22 0 -22 Z" fill="#7FB069"/><path d="M0 -16 C 11 -16 14 0 8 12 C 4 19 -4 19 -8 12 C -14 0 -11 -16 0 -16 Z" fill="#A7CE8B"/><ellipse cx="0" cy="-1" rx="5.5" ry="6.5" fill="#C9B27E"/></g><g transform="translate(208.6 389.7) rotate(200) scale(1.20)"><path d="M0 0 C 10 -18 26 -18 30 0 C 26 18 10 18 0 0 Z" fill="#57A65A"/><path d="M4 0 L 27 0" stroke="rgba(0,0,0,.10)" stroke-width="1.4" fill="none"/></g><g transform="translate(197.0 318.4) rotate(31) scale(1.20)"><path d="M0 0 C 10 -18 26 -18 30 0 C 26 18 10 18 0 0 Z" fill="#57A65A"/><path d="M4 0 L 27 0" stroke="rgba(0,0,0,.10)" stroke-width="1.4" fill="none"/></g><g transform="translate(260.6 246.7)"><circle cx="-0.4" cy="2.6" r="2.2" fill="#3B2F1E"/><circle cx="-0.3" cy="-5.7" r="1.6" fill="#3B2F1E"/><circle cx="9.6" cy="3.3" r="2.1" fill="#3B2F1E"/><circle cx="-2.9" cy="4.4" r="2.1" fill="#3B2F1E"/><circle cx="-8.3" cy="6.8" r="2.1" fill="#3B2F1E"/><circle cx="10.2" cy="-8.0" r="1.5" fill="#3B2F1E"/><circle cx="9.2" cy="-2.0" r="1.6" fill="#3B2F1E"/><circle cx="3.4" cy="-3.8" r="1.6" fill="#3B2F1E"/><circle cx="-2.4" cy="-6.3" r="2.1" fill="#3B2F1E"/></g><g transform="translate(269.0 340.8) scale(1.00)"><circle r="12" fill="#E4572E"/><circle r="12" fill="url(#tomGloss)"/><ellipse cx="-3.5" cy="-4.5" rx="3.2" ry="2" fill="#fff" opacity=".55"/></g><g transform="translate(403.2 239.8) rotate(-17) scale(1.00)"><rect x="-16" y="-11" width="32" height="22" rx="7" fill="#D79A5B"/><rect x="-16" y="-11" width="32" height="22" rx="7" fill="none" stroke="#A9713A" stroke-width="2" opacity=".6"/><path d="M-10 0 H10 M-8 -5 H8 M-8 5 H8" stroke="#A9713A" stroke-width="1.4" opacity=".45"/></g><g transform="translate(294.3 297.3) scale(1.00)"><circle r="12" fill="#E4572E"/><circle r="12" fill="url(#tomGloss)"/><ellipse cx="-3.5" cy="-4.5" rx="3.2" ry="2" fill="#fff" opacity=".55"/></g><g transform="translate(227.9 207.2)"><circle cx="10.7" cy="8.0" r="1.8" fill="#3B2F1E"/><circle cx="8.1" cy="-9.9" r="1.9" fill="#3B2F1E"/><circle cx="8.7" cy="-0.4" r="1.8" fill="#3B2F1E"/><circle cx="0.7" cy="-9.3" r="1.8" fill="#3B2F1E"/><circle cx="-5.9" cy="-0.8" r="1.9" fill="#3B2F1E"/><circle cx="-2.3" cy="1.0" r="1.8" fill="#3B2F1E"/><circle cx="9.4" cy="9.5" r="1.9" fill="#3B2F1E"/><circle cx="-1.1" cy="-9.6" r="2.2" fill="#3B2F1E"/><circle cx="-8.9" cy="6.0" r="1.8" fill="#3B2F1E"/></g><g transform="translate(207.7 230.7) rotate(23) scale(1.00)"><path d="M0 -22 C 16 -22 20 0 12 16 C 6 26 -6 26 -12 16 C -20 0 -16 -22 0 -22 Z" fill="#7FB069"/><path d="M0 -16 C 11 -16 14 0 8 12 C 4 19 -4 19 -8 12 C -14 0 -11 -16 0 -16 Z" fill="#A7CE8B"/><ellipse cx="0" cy="-1" rx="5.5" ry="6.5" fill="#C9B27E"/></g><g transform="translate(152.2 149.8) rotate(-14) scale(1.00)"><path d="M0 -22 C 16 -22 20 0 12 16 C 6 26 -6 26 -12 16 C -20 0 -16 -22 0 -22 Z" fill="#7FB069"/><path d="M0 -16 C 11 -16 14 0 8 12 C 4 19 -4 19 -8 12 C -14 0 -11 -16 0 -16 Z" fill="#A7CE8B"/><ellipse cx="0" cy="-1" rx="5.5" ry="6.5" fill="#C9B27E"/></g><g transform="translate(250.3 397.7) rotate(242) scale(1.20)"><path d="M0 0 C 10 -18 26 -18 30 0 C 26 18 10 18 0 0 Z" fill="#3E8E41"/><path d="M4 0 L 27 0" stroke="rgba(0,0,0,.10)" stroke-width="1.4" fill="none"/></g><g transform="translate(283.8 231.3)"><circle cx="-7.4" cy="10.0" r="2.1" fill="#3B2F1E"/><circle cx="-8.9" cy="9.5" r="1.7" fill="#3B2F1E"/><circle cx="-5.0" cy="6.5" r="2.1" fill="#3B2F1E"/><circle cx="-10.0" cy="-7.3" r="1.5" fill="#3B2F1E"/><circle cx="-3.7" cy="-0.6" r="1.9" fill="#3B2F1E"/><circle cx="3.0" cy="10.7" r="1.7" fill="#3B2F1E"/><circle cx="-5.9" cy="7.1" r="2.2" fill="#3B2F1E"/><circle cx="-0.0" cy="3.8" r="2.2" fill="#3B2F1E"/><circle cx="-4.9" cy="6.4" r="1.9" fill="#3B2F1E"/></g><g transform="translate(248.1 312.4) rotate(94) scale(1.20)"><path d="M0 0 C 10 -18 26 -18 30 0 C 26 18 10 18 0 0 Z" fill="#3E8E41"/><path d="M4 0 L 27 0" stroke="rgba(0,0,0,.10)" stroke-width="1.4" fill="none"/></g><g transform="translate(315.5 198.4) rotate(29) scale(1.00)"><rect x="-16" y="-11" width="32" height="22" rx="7" fill="#D79A5B"/><rect x="-16" y="-11" width="32" height="22" rx="7" fill="none" stroke="#A9713A" stroke-width="2" opacity=".6"/><path d="M-10 0 H10 M-8 -5 H8 M-8 5 H8" stroke="#A9713A" stroke-width="1.4" opacity=".45"/></g><g transform="translate(361.9 223.6) rotate(17) scale(1.00)"><rect x="-16" y="-11" width="32" height="22" rx="7" fill="#D79A5B"/><rect x="-16" y="-11" width="32" height="22" rx="7" fill="none" stroke="#A9713A" stroke-width="2" opacity=".6"/><path d="M-10 0 H10 M-8 -5 H8 M-8 5 H8" stroke="#A9713A" stroke-width="1.4" opacity=".45"/></g><g transform="translate(218.4 209.0) rotate(-25) scale(1.00)"><path d="M0 -22 C 16 -22 20 0 12 16 C 6 26 -6 26 -12 16 C -20 0 -16 -22 0 -22 Z" fill="#7FB069"/><path d="M0 -16 C 11 -16 14 0 8 12 C 4 19 -4 19 -8 12 C -14 0 -11 -16 0 -16 Z" fill="#A7CE8B"/><ellipse cx="0" cy="-1" rx="5.5" ry="6.5" fill="#C9B27E"/></g><g transform="translate(347.2 251.0) rotate(-13) scale(1.00)"><rect x="-16" y="-11" width="32" height="22" rx="7" fill="#D79A5B"/><rect x="-16" y="-11" width="32" height="22" rx="7" fill="none" stroke="#A9713A" stroke-width="2" opacity=".6"/><path d="M-10 0 H10 M-8 -5 H8 M-8 5 H8" stroke="#A9713A" stroke-width="1.4" opacity=".45"/></g><g transform="translate(227.6 170.6) rotate(-25) scale(1.00)"><path d="M0 -22 C 16 -22 20 0 12 16 C 6 26 -6 26 -12 16 C -20 0 -16 -22 0 -22 Z" fill="#7FB069"/><path d="M0 -16 C 11 -16 14 0 8 12 C 4 19 -4 19 -8 12 C -14 0 -11 -16 0 -16 Z" fill="#A7CE8B"/><ellipse cx="0" cy="-1" rx="5.5" ry="6.5" fill="#C9B27E"/></g><g transform="translate(338.5 314.1) scale(1.00)"><circle r="12" fill="#E4572E"/><circle r="12" fill="url(#tomGloss)"/><ellipse cx="-3.5" cy="-4.5" rx="3.2" ry="2" fill="#fff" opacity=".55"/></g><g transform="translate(269.3 387.5) rotate(118) scale(1.20)"><path d="M0 0 C 10 -18 26 -18 30 0 C 26 18 10 18 0 0 Z" fill="#57A65A"/><path d="M4 0 L 27 0" stroke="rgba(0,0,0,.10)" stroke-width="1.4" fill="none"/></g><g transform="translate(165.6 300.1) rotate(19) scale(1.00)"><circle r="13" fill="#BFE3A8"/><circle r="13" fill="none" stroke="#6FA84A" stroke-width="2.5"/><circle r="6" fill="#D8F0C4"/></g><g transform="translate(187.8 325.8) rotate(20) scale(1.00)"><circle r="13" fill="#BFE3A8"/><circle r="13" fill="none" stroke="#6FA84A" stroke-width="2.5"/><circle r="6" fill="#D8F0C4"/></g></g><path d="M 110 140 A 200 200 0 0 1 380 100" fill="none" stroke="rgba(255,255,255,.5)" stroke-width="10" stroke-linecap="round" opacity=".5"/></svg>