<svg xmlns="http://www.w3.org/2000/svg" viewBox="0 0 520 520" role="img" aria-label="Bowl saludable ilustrado"><defs><radialGradient id="tomGloss" cx="35%" cy="30%" r="75%"><stop offset="0%" stop-color="#ff8b5e"/><stop offset="55%" stop-color="#E4572E" stop-opacity="0"/></radialGradient><radialGradient id="baseg_gal-4" cx="42%" cy="38%" r="70%"><stop offset="0%" stop-color="#F6EED6"/><stop offset="100%" stop-color="#EDE2C4"/></radialGradient><radialGradient id="shadow" cx="50%" cy="50%" r="50%"><stop offset="60%" stop-color="rgba(20,48,31,.16)"/><stop offset="100%" stop-color="rgba(20,48,31,0)"/></radialGradient></defs><ellipse cx="260" cy="278" rx="238" ry="230" fill="url(#shadow)"/><circle cx="260" cy="260" r="232" fill="#DDBFA0"/><circle cx="260" cy="260" r="218" fill="#fff" opacity=".55"/><circle cx="260" cy="260" r="204" fill="url(#baseg_gal-4)"/><g><rect x="325.0" y="364.8" width="4.4" height="2.2" rx="1.1" transform="rotate(177 327.3 365.9)" fill="rgba(255,255,255,.30)"/><rect x="238.1" y="215.7" width="4.4" height="2.2" rx="1.1" transform="rotate(169 240.3 216.8)" fill="rgba(255,255,255,.30)"/><rect x="324.8" y="215.5" width="4.3" height="2.1" rx="1.1" transform="rotate(152 326.9 216.5)" fill="rgba(255,255,255,.30)"/><rect x="166.6" y="206.7" width="4.4" height="2.2" rx="1.1" transform="rotate(114 168.8 207.8)" fill="rgba(255,255,255,.30)"/><rect x="184.8" y="372.0" width="3.7" height="1.9" rx="0.9" transform="rotate(114 186.7 372.9)" fill="rgba(255,255,255,.30)"/><rect x="335.5" y="245.5" width="5.1" height="2.5" rx="1.3" transform="rotate(131 338.0 246.7)" fill="rgba(255,255,255,.30)"/><rect x="259.9" y="280.7" width="4.4" height="2.2" rx="1.1" transform="rotate(132 262.1 281.8)" fill="rgba(255,255,255,.30)"/><rect x="369.4" y="220.7" width="4.7" height="2.4" rx="1.2" transform="rotate(66 371.8 221.9)" fill="rgba(255,255,255,.30)"/><rect x="349.5" y="248.5" width="3.8" height="1.9" rx="0.9" transform="rotate(155 351.4 249.4)" fill="rgba(255,255,255,.30)"/><rect x="104.7" y="160.5" width="3.1" height="1.6" rx="0.8" transform="rotate(17 106.2 161.3)" fill="rgba(255,255,255,.30)"/><rect x="200.9" y="329.4" width="2.9" height="1.4" rx="0.7" transform="rotate(176 202.4 330.1)" fill="rgba(255,255,255,.30)"/><rect x="104.0" y="301.1" width="3.3" height="1.7" rx="0.8" transform="rotate(139 105.6 301.9)" fill="rgba(255,255,255,.30)"/><rect x="258.7" y="214.2" width="5.1" height="2.6" rx="1.3" transform="rotate(63 261.3 215.5)" fill="rgba(255,255,255,.30)"/><rect x="380.4" y="385.9" width="3.6" height="1.8" rx="0.9" transform="rotate(36 382.2 386.8)" fill="rgba(255,255,255,.30)"/><rect x="227.4" y="278.6" width="3.6" height="1.8" rx="0.9" transform="rotate(85 229.2 279.5)" fill="rgba(255,255,255,.30)"/><rect x="362.9" y="106.4" width="4.7" height="2.3" rx="1.2" transform="rotate(70 365.2 107.6)" fill="rgba(255,255,255,.30)"/><rect x="371.1" y="299.9" width="5.2" height="2.6" rx="1.3" transform="rotate(42 373.6 301.2)" fill="rgba(255,255,255,.30)"/><rect x="384.8" y="188.3" width="3.6" height="1.8" rx="0.9" transform="rotate(156 386.6 189.1)" fill="rgba(255,255,255,.30)"/><rect x="143.8" y="352.7" width="3.7" height="1.8" rx="0.9" transform="rotate(30 145.6 353.6)" fill="rgba(255,255,255,.30)"/><rect x="96.4" y="318.2" width="3.8" height="1.9" rx="0.9" transform="rotate(98 98.3 319.1)" fill="rgba(255,255,255,.30)"/><rect x="177.1" y="223.1" width="4.5" height="2.2" rx="1.1" transform="rotate(105 179.3 224.2)" fill="rgba(255,255,255,.30)"/><rect x="159.9" y="99.7" width="4.4" height="2.2" rx="1.1" transform="rotate(109 162.1 100.8)" fill="rgba(255,255,255,.30)"/><rect x="164.0" y="413.3" width="3.8" height="1.9" rx="1.0" transform="rotate(124 165.9 414.3)" fill="rgba(255,255,255,.30)"/><rect x="192.4" y="161.5" width="3.4" height="1.7" rx="0.9" transform="rotate(79 194.1 162.4)" fill="rgba(255,255,255,.30)"/><rect x="259.6" y="394.1" width="3.5" height="1.8" rx="0.9" transform="rotate(29 261.3 395.0)" fill="rgba(255,255,255,.30)"/><rect x="238.4" y="241.9" width="4.6" height="2.3" rx="1.2" transform="rotate(15 240.7 243.1)" fill="rgba(255,255,255,.30)"/><rect x="407.6" y="187.6" width="4.8" height="2.4" rx="1.2" transform="rotate(178 410.1 188.8)" fill="rgba(255,255,255,.30)"/><rect x="195.7" y="436.1" width="4.2" height="2.1" rx="1.0" transform="rotate(122 197.7 437.2)" fill="rgba(255,255,255,.30)"/><rect x="260.7" y="404.1" width="5.0" height="2.5" rx="1.2" transform="rotate(68 263.2 405.3)" fill="rgba(255,255,255,.30)"/><rect x="298.2" y="267.5" width="5.2" height="2.6" rx="1.3" transform="rotate(43 300.8 268.8)" fill="rgba(255,255,255,.30)"/><rect x="385.6" y="147.6" width="3.4" height="1.7" rx="0.8" transform="rotate(145 387.3 148.5)" fill="rgba(255,255,255,.30)"/><rect x="321.9" y="360.6" width="5.2" height="2.6" rx="1.3" transform="rotate(152 324.5 361.9)" fill="rgba(255,255,255,.30)"/><rect x="234.5" y="296.9" width="4.7" height="2.3" rx="1.2" transform="rotate(87 236.8 298.0)" fill="rgba(255,255,255,.30)"/><rect x="384.9" y="249.5" width="4.5" height="2.3" rx="1.1" transform="rotate(94 387.1 250.7)" fill="rgba(255,255,255,.30)"/><rect x="361.7" y="284.1" width="4.1" height="2.0" rx="1.0" transform="rotate(145 363.7 285.1)" fill="rgba(255,255,255,.30)"/><rect x="248.3" y="127.3" width="4.2" height="2.1" rx="1.0" transform="rotate(179 250.4 128.4)" fill="rgba(255,255,255,.30)"/><rect x="186.9" y="176.1" width="3.8" height="1.9" rx="1.0" transform="rotate(136 188.8 177.1)" fill="rgba(255,255,255,.30)"/><rect x="415.9" y="177.6" width="4.1" height="2.1" rx="1.0" transform="rotate(126 417.9 178.7)" fill="rgba(255,255,255,.30)"/><rect x="185.5" y="432.8" width="3.3" height="1.7" rx="0.8" transform="rotate(18 187.1 433.7)" fill="rgba(255,255,255,.30)"/><rect x="136.2" y="204.8" width="2.8" height="1.4" rx="0.7" transform="rotate(14 137.6 205.5)" fill="rgba(255,255,255,.30)"/><rect x="153.2" y="403.7" width="3.6" height="1.8" rx="0.9" transform="rotate(133 155.0 404.6)" fill="rgba(255,255,255,.30)"/><rect x="324.4" y="276.2" width="5.2" height="2.6" rx="1.3" transform="rotate(77 326.9 277.5)" fill="rgba(255,255,255,.30)"/><rect x="253.2" y="265.3" width="3.6" height="1.8" rx="0.9" transform="rotate(172 255.0 266.2)" fill="rgba(255,255,255,.30)"/><rect x="105.7" y="339.2" width="3.5" height="1.8" rx="0.9" transform="rotate(79 107.5 340.1)" fill="rgba(255,255,255,.30)"/><rect x="410.7" y="227.8" width="4.6" height="2.3" rx="1.2" transform="rotate(7 413.0 228.9)" fill="rgba(255,255,255,.30)"/><rect x="327.4" y="212.9" width="4.7" height="2.3" rx="1.2" transform="rotate(162 329.7 214.1)" fill="rgba(255,255,255,.30)"/><rect x="317.6" y="118.5" width="3.3" height="1.7" rx="0.8" transform="rotate(118 319.3 119.3)" fill="rgba(255,255,255,.30)"/><rect x="179.9" y="385.9" width="3.9" height="1.9" rx="1.0" transform="rotate(175 181.8 386.9)" fill="rgba(255,255,255,.30)"/><rect x="339.1" y="195.5" width="4.7" height="2.3" rx="1.2" transform="rotate(180 341.5 196.7)" fill="rgba(255,255,255,.30)"/><rect x="406.7" y="300.4" width="4.0" height="2.0" rx="1.0" transform="rotate(102 408.7 301.4)" fill="rgba(255,255,255,.30)"/><rect x="446.8" y="211.0" width="3.7" height="1.9" rx="0.9" transform="rotate(121 448.6 212.0)" fill="rgba(255,255,255,.30)"/><rect x="375.8" y="250.1" width="3.4" height="1.7" rx="0.9" transform="rotate(168 377.5 251.0)" fill="rgba(255,255,255,.30)"/><rect x="428.4" y="222.5" width="4.5" height="2.2" rx="1.1" transform="rotate(83 430.6 223.6)" fill="rgba(255,255,255,.30)"/><rect x="453.9" y="260.0" width="3.4" height="1.7" rx="0.9" transform="rotate(57 455.7 260.8)" fill="rgba(255,255,255,.30)"/><rect x="321.4" y="330.2" width="2.8" height="1.4" rx="0.7" transform="rotate(88 322.8 330.9)" fill="rgba(255,255,255,.30)"/><rect x="91.5" y="176.1" width="5.0" height="2.5" rx="1.3" transform="rotate(36 94.0 177.4)" fill="rgba(255,255,255,.30)"/><rect x="97.8" y="204.2" width="5.0" height="2.5" rx="1.3" transform="rotate(74 100.3 205.4)" fill="rgba(255,255,255,.30)"/><rect x="91.1" y="281.0" width="3.0" height="1.5" rx="0.8" transform="rotate(76 92.7 281.7)" fill="rgba(255,255,255,.30)"/><rect x="241.3" y="366.1" width="3.1" height="1.5" rx="0.8" transform="rotate(125 242.8 366.9)" fill="rgba(255,255,255,.30)"/><rect x="370.7" y="230.1" width="4.7" height="2.4" rx="1.2" transform="rotate(42 373.0 231.3)" fill="rgba(255,255,255,.30)"/><rect x="279.9" y="236.7" width="4.6" height="2.3" rx="1.1" transform="rotate(60 282.2 237.8)" fill="rgba(255,255,255,.30)"/><rect x="280.0" y="356.5" width="3.8" height="1.9" rx="1.0" transform="rotate(111 281.9 357.5)" fill="rgba(255,255,255,.30)"/><rect x="190.6" y="375.8" width="4.3" height="2.1" rx="1.1" transform="rotate(51 192.7 376.9)" fill="rgba(255,255,255,.30)"/><rect x="189.6" y="356.5" width="3.0" height="1.5" rx="0.7" transform="rotate(93 191.1 357.3)" fill="rgba(255,255,255,.30)"/><rect x="287.6" y="304.3" width="3.0" height="1.5" rx="0.8" transform="rotate(91 289.2 305.0)" fill="rgba(255,255,255,.30)"/><rect x="337.3" y="170.5" width="4.2" height="2.1" rx="1.1" transform="rotate(84 339.5 171.6)" fill="rgba(255,255,255,.30)"/><rect x="307.4" y="331.6" width="4.0" height="2.0" rx="1.0" transform="rotate(35 309.4 332.6)" fill="rgba(255,255,255,.30)"/><rect x="234.7" y="376.3" width="4.1" height="2.0" rx="1.0" transform="rotate(67 236.8 377.4)" fill="rgba(255,255,255,.30)"/><rect x="222.0" y="336.6" width="4.5" height="2.3" rx="1.1" transform="rotate(125 224.2 337.7)" fill="rgba(255,255,255,.30)"/><rect x="252.1" y="207.2" width="3.4" height="1.7" rx="0.8" transform="rotate(39 253.8 208.1)" fill="rgba(255,255,255,.30)"/><rect x="234.3" y="256.3" width="4.6" height="2.3" rx="1.1" transform="rotate(180 236.6 257.4)" fill="rgba(255,255,255,.30)"/><rect x="118.4" y="340.3" width="3.4" height="1.7" rx="0.9" transform="rotate(96 120.1 341.1)" fill="rgba(255,255,255,.30)"/><rect x="106.0" y="203.6" width="3.6" height="1.8" rx="0.9" transform="rotate(110 107.8 204.5)" fill="rgba(255,255,255,.30)"/><rect x="88.2" y="222.1" width="3.9" height="1.9" rx="1.0" transform="rotate(89 90.1 223.0)" fill="rgba(255,255,255,.30)"/><rect x="177.0" y="187.9" width="3.9" height="2.0" rx="1.0" transform="rotate(140 179.0 188.9)" fill="rgba(255,255,255,.30)"/><rect x="409.8" y="190.8" width="3.0" height="1.5" rx="0.7" transform="rotate(136 411.3 191.5)" fill="rgba(255,255,255,.30)"/><rect x="184.7" y="148.6" width="4.5" height="2.3" rx="1.1" transform="rotate(163 186.9 149.8)" fill="rgba(255,255,255,.30)"/><rect x="387.0" y="323.6" width="4.2" height="2.1" rx="1.1" transform="rotate(73 389.1 324.6)" fill="rgba(255,255,255,.30)"/><rect x="97.0" y="321.1" width="2.8" height="1.4" rx="0.7" transform="rotate(32 98.4 321.8)" fill="rgba(255,255,255,.30)"/><rect x="177.9" y="211.3" width="4.4" height="2.2" rx="1.1" transform="rotate(163 180.0 212.4)" fill="rgba(255,255,255,.30)"/><rect x="185.3" y="435.6" width="3.5" height="1.7" rx="0.9" transform="rotate(5 187.1 436.5)" fill="rgba(255,255,255,.30)"/><rect x="296.9" y="247.5" width="3.6" height="1.8" rx="0.9" transform="rotate(170 298.7 248.4)" fill="rgba(255,255,255,.30)"/><rect x="278.1" y="321.8" width="4.2" height="2.1" rx="1.1" transform="rotate(167 280.2 322.9)" fill="rgba(255,255,255,.30)"/><rect x="424.9" y="181.6" width="3.0" height="1.5" rx="0.7" transform="rotate(98 426.4 182.3)" fill="rgba(255,255,255,.30)"/><rect x="335.2" y="249.0" width="5.1" height="2.6" rx="1.3" transform="rotate(22 337.7 250.3)" fill="rgba(255,255,255,.30)"/><rect x="351.5" y="340.8" width="4.9" height="2.5" rx="1.2" transform="rotate(73 354.0 342.0)" fill="rgba(255,255,255,.30)"/><rect x="381.8" y="310.5" width="5.1" height="2.5" rx="1.3" transform="rotate(72 384.3 311.7)" fill="rgba(255,255,255,.30)"/><rect x="285.2" y="321.1" width="4.6" height="2.3" rx="1.1" transform="rotate(80 287.5 322.2)" fill="rgba(255,255,255,.30)"/><rect x="358.0" y="173.6" width="3.3" height="1.7" rx="0.8" transform="rotate(7 359.6 174.5)" fill="rgba(255,255,255,.30)"/><rect x="164.5" y="147.2" width="5.1" height="2.6" rx="1.3" transform="rotate(159 167.1 148.5)" fill="rgba(255,255,255,.30)"/><rect x="254.0" y="285.1" width="3.3" height="1.6" rx="0.8" transform="rotate(65 255.7 285.9)" fill="rgba(255,255,255,.30)"/><rect x="329.5" y="221.8" width="4.8" height="2.4" rx="1.2" transform="rotate(30 331.9 223.0)" fill="rgba(255,255,255,.30)"/><rect x="382.6" y="405.3" width="4.2" height="2.1" rx="1.1" transform="rotate(148 384.7 406.4)" fill="rgba(255,255,255,.30)"/><rect x="263.0" y="145.0" width="3.8" height="1.9" rx="0.9" transform="rotate(161 264.9 145.9)" fill="rgba(255,255,255,.30)"/><rect x="444.0" y="251.0" width="4.4" height="2.2" rx="1.1" transform="rotate(165 446.3 252.1)" fill="rgba(255,255,255,.30)"/><rect x="377.1" y="352.6" width="3.3" height="1.6" rx="0.8" transform="rotate(101 378.7 353.4)" fill="rgba(255,255,255,.30)"/><rect x="214.7" y="415.6" width="4.9" height="2.5" rx="1.2" transform="rotate(109 217.1 416.8)" fill="rgba(255,255,255,.30)"/><rect x="74.6" y="315.0" width="5.0" height="2.5" rx="1.3" transform="rotate(152 77.2 316.3)" fill="rgba(255,255,255,.30)"/><rect x="256.7" y="190.3" width="4.9" height="2.5" rx="1.2" transform="rotate(61 259.2 191.6)" fill="rgba(255,255,255,.30)"/><rect x="155.8" y="148.9" width="4.6" height="2.3" rx="1.2" transform="rotate(96 158.1 150.1)" fill="rgba(255,255,255,.30)"/><rect x="184.2" y="130.7" width="5.1" height="2.5" rx="1.3" transform="rotate(74 186.8 132.0)" fill="rgba(255,255,255,.30)"/><rect x="311.7" y="154.0" width="3.2" height="1.6" rx="0.8" transform="rotate(78 313.3 154.8)" fill="rgba(255,255,255,.30)"/><rect x="272.3" y="137.1" width="5.0" height="2.5" rx="1.3" transform="rotate(12 274.8 138.4)" fill="rgba(255,255,255,.30)"/><rect x="287.0" y="362.3" width="3.3" height="1.7" rx="0.8" transform="rotate(140 288.7 363.1)" fill="rgba(255,255,255,.30)"/><rect x="204.5" y="148.4" width="5.1" height="2.6" rx="1.3" transform="rotate(145 207.1 149.6)" fill="rgba(255,255,255,.30)"/><rect x="286.7" y="199.4" width="4.6" height="2.3" rx="1.1" transform="rotate(109 289.0 200.5)" fill="rgba(255,255,255,.30)"/><rect x="390.3" y="198.7" width="4.6" height="2.3" rx="1.2" transform="rotate(47 392.6 199.9)" fill="rgba(255,255,255,.30)"/><rect x="419.5" y="277.4" width="4.4" height="2.2" rx="1.1" transform="rotate(145 421.7 278.5)" fill="rgba(255,255,255,.30)"/><rect x="232.4" y="426.8" width="5.1" height="2.6" rx="1.3" transform="rotate(50 234.9 428.0)" fill="rgba(255,255,255,.30)"/><rect x="296.9" y="357.9" width="4.5" height="2.2" rx="1.1" transform="rotate(111 299.2 359.1)" fill="rgba(255,255,255,.30)"/><rect x="150.2" y="154.4" width="3.0" height="1.5" rx="0.7" transform="rotate(59 151.7 155.2)" fill="rgba(255,255,255,.30)"/><rect x="285.6" y="367.0" width="3.6" height="1.8" rx="0.9" transform="rotate(46 287.5 367.9)" fill="rgba(255,255,255,.30)"/><rect x="151.3" y="340.9" width="4.3" height="2.1" rx="1.1" transform="rotate(83 153.4 341.9)" fill="rgba(255,255,255,.30)"/><rect x="308.9" y="145.4" width="3.5" height="1.8" rx="0.9" transform="rotate(7 310.7 146.3)" fill="rgba(255,255,255,.30)"/><rect x="177.6" y="114.2" width="3.0" height="1.5" rx="0.7" transform="rotate(36 179.1 114.9)" fill="rgba(255,255,255,.30)"/><rect x="190.8" y="183.9" width="3.7" height="1.8" rx="0.9" transform="rotate(109 192.6 184.8)" fill="rgba(255,255,255,.30)"/><rect x="319.8" y="168.4" width="4.0" height="2.0" rx="1.0" transform="rotate(115 321.8 169.4)" fill="rgba(255,255,255,.30)"/><rect x="318.5" y="87.4" width="3.3" height="1.7" rx="0.8" transform="rotate(77 320.2 88.2)" fill="rgba(255,255,255,.30)"/><rect x="402.2" y="154.4" width="3.5" height="1.7" rx="0.9" transform="rotate(133 404.0 155.3)" fill="rgba(255,255,255,.30)"/><rect x="95.3" y="262.5" width="2.8" height="1.4" rx="0.7" transform="rotate(41 96.7 263.2)" fill="rgba(255,255,255,.30)"/><rect x="345.3" y="184.5" width="3.9" height="2.0" rx="1.0" transform="rotate(108 347.3 185.5)" fill="rgba(255,255,255,.30)"/><rect x="189.0" y="264.0" width="3.5" height="1.8" rx="0.9" transform="rotate(118 190.8 264.8)" fill="rgba(255,255,255,.30)"/><rect x="128.9" y="373.2" width="3.2" height="1.6" rx="0.8" transform="rotate(68 130.6 374.0)" fill="rgba(255,255,255,.30)"/><rect x="146.4" y="352.6" width="3.3" height="1.7" rx="0.8" transform="rotate(92 148.1 353.4)" fill="rgba(255,255,255,.30)"/><rect x="225.5" y="146.5" width="5.1" height="2.6" rx="1.3" transform="rotate(148 228.0 147.7)" fill="rgba(255,255,255,.30)"/><rect x="206.9" y="249.4" width="4.4" height="2.2" rx="1.1" transform="rotate(57 209.1 250.5)" fill="rgba(255,255,255,.30)"/><rect x="230.9" y="198.3" width="3.1" height="1.5" rx="0.8" transform="rotate(58 232.4 199.0)" fill="rgba(255,255,255,.30)"/><rect x="295.3" y="120.8" width="4.0" height="2.0" rx="1.0" transform="rotate(119 297.3 121.8)" fill="rgba(255,255,255,.30)"/><rect x="95.3" y="358.5" width="3.0" height="1.5" rx="0.8" transform="rotate(146 96.8 359.2)" fill="rgba(255,255,255,.30)"/><rect x="392.7" y="237.7" width="3.2" height="1.6" rx="0.8" transform="rotate(151 394.3 238.5)" fill="rgba(255,255,255,.30)"/><rect x="306.2" y="125.3" width="2.9" height="1.5" rx="0.7" transform="rotate(28 307.7 126.0)" fill="rgba(255,255,255,.30)"/><rect x="166.8" y="372.5" width="4.7" height="2.3" rx="1.2" transform="rotate(30 169.1 373.7)" fill="rgba(255,255,255,.30)"/><rect x="296.1" y="330.5" width="5.0" height="2.5" rx="1.2" transform="rotate(68 298.6 331.7)" fill="rgba(255,255,255,.30)"/><rect x="322.3" y="393.0" width="2.9" height="1.5" rx="0.7" transform="rotate(24 323.8 393.8)" fill="rgba(255,255,255,.30)"/><rect x="399.1" y="392.6" width="3.2" height="1.6" rx="0.8" transform="rotate(148 400.6 393.4)" fill="rgba(255,255,255,.30)"/><rect x="213.4" y="244.5" width="4.1" height="2.0" rx="1.0" transform="rotate(36 215.4 245.5)" fill="rgba(255,255,255,.30)"/><rect x="346.9" y="353.2" width="4.4" height="2.2" rx="1.1" transform="rotate(29 349.1 354.3)" fill="rgba(255,255,255,.30)"/><rect x="147.0" y="128.1" width="3.6" height="1.8" rx="0.9" transform="rotate(136 148.8 129.1)" fill="rgba(255,255,255,.30)"/><rect x="418.0" y="281.4" width="4.4" height="2.2" rx="1.1" transform="rotate(91 420.2 282.5)" fill="rgba(255,255,255,.30)"/><rect x="116.1" y="226.3" width="5.0" height="2.5" rx="1.3" transform="rotate(70 118.6 227.5)" fill="rgba(255,255,255,.30)"/><rect x="233.0" y="443.1" width="3.3" height="1.7" rx="0.8" transform="rotate(25 234.7 443.9)" fill="rgba(255,255,255,.30)"/><rect x="377.1" y="381.4" width="4.5" height="2.2" rx="1.1" transform="rotate(20 379.3 382.5)" fill="rgba(255,255,255,.30)"/><rect x="123.2" y="227.3" width="4.2" height="2.1" rx="1.1" transform="rotate(33 125.4 228.4)" fill="rgba(255,255,255,.30)"/><rect x="302.2" y="93.7" width="3.8" height="1.9" rx="1.0" transform="rotate(127 304.1 94.7)" fill="rgba(255,255,255,.30)"/><rect x="348.6" y="192.8" width="3.3" height="1.7" rx="0.8" transform="rotate(127 350.3 193.6)" fill="rgba(255,255,255,.30)"/><rect x="225.1" y="373.8" width="4.2" height="2.1" rx="1.1" transform="rotate(67 227.2 374.8)" fill="rgba(255,255,255,.30)"/><rect x="325.2" y="113.3" width="3.8" height="1.9" rx="0.9" transform="rotate(92 327.1 114.2)" fill="rgba(255,255,255,.30)"/><rect x="291.6" y="378.8" width="3.0" height="1.5" rx="0.8" transform="rotate(168 293.1 379.5)" fill="rgba(255,255,255,.30)"/><rect x="252.8" y="389.6" width="5.1" height="2.6" rx="1.3" transform="rotate(170 255.4 390.9)" fill="rgba(255,255,255,.30)"/><rect x="420.7" y="274.7" width="3.4" height="1.7" rx="0.8" transform="rotate(141 422.4 275.5)" fill="rgba(255,255,255,.30)"/><rect x="431.3" y="283.1" width="5.1" height="2.6" rx="1.3" transform="rotate(163 433.8 284.4)" fill="rgba(255,255,255,.30)"/><rect x="194.2" y="108.7" width="4.3" height="2.2" rx="1.1" transform="rotate(0 196.3 109.8)" fill="rgba(255,255,255,.30)"/><rect x="425.6" y="319.7" width="3.8" height="1.9" rx="1.0" transform="rotate(149 427.5 320.7)" fill="rgba(255,255,255,.30)"/><rect x="367.6" y="212.1" width="3.4" height="1.7" rx="0.9" transform="rotate(15 369.3 213.0)" fill="rgba(255,255,255,.30)"/><rect x="205.5" y="302.3" width="4.3" height="2.1" rx="1.1" transform="rotate(37 207.7 303.4)" fill="rgba(255,255,255,.30)"/><rect x="119.0" y="153.8" width="3.0" height="1.5" rx="0.8" transform="rotate(84 120.6 154.6)" fill="rgba(255,255,255,.30)"/><rect x="204.5" y="118.0" width="4.9" height="2.4" rx="1.2" transform="rotate(143 206.9 119.2)" fill="rgba(255,255,255,.30)"/><rect x="254.9" y="81.4" width="3.6" height="1.8" rx="0.9" transform="rotate(49 256.7 82.3)" fill="rgba(255,255,255,.30)"/><rect x="433.2" y="290.8" width="4.8" height="2.4" rx="1.2" transform="rotate(51 435.6 292.0)" fill="rgba(255,255,255,.30)"/><rect x="272.2" y="353.4" width="3.4" height="1.7" rx="0.8" transform="rotate(77 273.9 354.3)" fill="rgba(255,255,255,.30)"/><rect x="163.4" y="340.3" width="4.7" height="2.3" rx="1.2" transform="rotate(57 165.7 341.5)" fill="rgba(255,255,255,.30)"/><rect x="243.0" y="271.7" width="4.7" height="2.3" rx="1.2" transform="rotate(131 245.3 272.8)" fill="rgba(255,255,255,.30)"/><rect x="164.4" y="312.2" width="4.3" height="2.1" rx="1.1" transform="rotate(52 166.5 313.3)" fill="rgba(255,255,255,.30)"/><rect x="150.4" y="258.7" width="4.9" height="2.5" rx="1.2" transform="rotate(102 152.9 259.9)" fill="rgba(255,255,255,.30)"/><rect x="347.4" y="110.4" width="3.7" height="1.8" rx="0.9" transform="rotate(160 349.2 111.3)" fill="rgba(255,255,255,.30)"/><rect x="308.5" y="215.2" width="4.3" height="2.2" rx="1.1" transform="rotate(52 310.6 216.3)" fill="rgba(255,255,255,.30)"/><rect x="117.4" y="249.4" width="3.5" height="1.8" rx="0.9" transform="rotate(3 119.2 250.3)" fill="rgba(255,255,255,.30)"/><rect x="411.9" y="251.4" width="3.4" height="1.7" rx="0.9" transform="rotate(2 413.6 252.2)" fill="rgba(255,255,255,.30)"/><rect x="355.1" y="333.1" width="4.9" height="2.5" rx="1.2" transform="rotate(19 357.6 334.3)" fill="rgba(255,255,255,.30)"/><rect x="210.3" y="181.3" width="5.1" height="2.5" rx="1.3" transform="rotate(105 212.8 182.6)" fill="rgba(255,255,255,.30)"/><rect x="165.3" y="268.5" width="3.5" height="1.8" rx="0.9" transform="rotate(11 167.1 269.4)" fill="rgba(255,255,255,.30)"/><rect x="384.8" y="304.4" width="3.3" height="1.7" rx="0.8" transform="rotate(23 386.5 305.2)" fill="rgba(255,255,255,.30)"/><rect x="397.8" y="237.6" width="3.4" height="1.7" rx="0.9" transform="rotate(100 399.6 238.5)" fill="rgba(255,255,255,.30)"/><rect x="102.6" y="281.5" width="3.0" height="1.5" rx="0.8" transform="rotate(17 104.1 282.3)" fill="rgba(255,255,255,.30)"/><rect x="285.5" y="388.9" width="5.2" height="2.6" rx="1.3" transform="rotate(146 288.1 390.2)" fill="rgba(255,255,255,.30)"/><rect x="264.3" y="363.5" width="5.2" height="2.6" rx="1.3" transform="rotate(178 266.9 364.8)" fill="rgba(255,255,255,.30)"/><rect x="129.9" y="114.2" width="4.0" height="2.0" rx="1.0" transform="rotate(62 131.9 115.2)" fill="rgba(255,255,255,.30)"/><rect x="288.2" y="249.7" width="3.1" height="1.6" rx="0.8" transform="rotate(121 289.8 250.5)" fill="rgba(255,255,255,.30)"/><rect x="363.8" y="189.2" width="3.2" height="1.6" rx="0.8" transform="rotate(62 365.5 190.0)" fill="rgba(255,255,255,.30)"/><rect x="216.9" y="229.9" width="4.8" height="2.4" rx="1.2" transform="rotate(138 219.3 231.1)" fill="rgba(255,255,255,.30)"/><rect x="262.9" y="72.9" width="5.2" height="2.6" rx="1.3" transform="rotate(45 265.5 74.2)" fill="rgba(255,255,255,.30)"/><rect x="325.9" y="271.4" width="3.7" height="1.9" rx="0.9" transform="rotate(42 327.8 272.4)" fill="rgba(255,255,255,.30)"/><rect x="170.1" y="112.9" width="3.0" height="1.5" rx="0.8" transform="rotate(128 171.6 113.6)" fill="rgba(255,255,255,.30)"/><rect x="315.0" y="275.2" width="4.0" height="2.0" rx="1.0" transform="rotate(13 317.0 276.2)" fill="rgba(255,255,255,.30)"/><rect x="387.0" y="181.0" width="3.3" height="1.6" rx="0.8" transform="rotate(28 388.6 181.8)" fill="rgba(255,255,255,.30)"/><rect x="234.0" y="302.0" width="3.2" height="1.6" rx="0.8" transform="rotate(38 235.6 302.8)" fill="rgba(255,255,255,.30)"/><rect x="101.3" y="234.8" width="5.1" height="2.5" rx="1.3" transform="rotate(50 103.8 236.0)" fill="rgba(255,255,255,.30)"/><rect x="70.6" y="276.6" width="3.1" height="1.6" rx="0.8" transform="rotate(60 72.2 277.3)" fill="rgba(255,255,255,.30)"/><rect x="424.2" y="361.0" width="4.7" height="2.3" rx="1.2" transform="rotate(123 426.5 362.1)" fill="rgba(255,255,255,.30)"/><rect x="282.4" y="380.9" width="3.9" height="1.9" rx="1.0" transform="rotate(114 284.3 381.9)" fill="rgba(255,255,255,.30)"/><rect x="362.8" y="289.3" width="3.3" height="1.7" rx="0.8" transform="rotate(133 364.4 290.2)" fill="rgba(255,255,255,.30)"/><rect x="285.3" y="424.6" width="4.0" height="2.0" rx="1.0" transform="rotate(64 287.3 425.6)" fill="rgba(255,255,255,.30)"/><rect x="122.9" y="186.3" width="4.8" height="2.4" rx="1.2" transform="rotate(85 125.3 187.5)" fill="rgba(255,255,255,.30)"/><rect x="277.8" y="359.8" width="4.3" height="2.2" rx="1.1" transform="rotate(51 279.9 360.9)" fill="rgba(255,255,255,.30)"/><rect x="442.7" y="276.1" width="4.2" height="2.1" rx="1.0" transform="rotate(127 444.8 277.2)" fill="rgba(255,255,255,.30)"/><rect x="287.1" y="250.1" width="5.0" height="2.5" rx="1.3" transform="rotate(176 289.6 251.3)" fill="rgba(255,255,255,.30)"/><rect x="163.3" y="341.6" width="4.8" height="2.4" rx="1.2" transform="rotate(99 165.7 342.8)" fill="rgba(255,255,255,.30)"/><rect x="131.9" y="157.5" width="3.2" height="1.6" rx="0.8" transform="rotate(145 133.5 158.3)" fill="rgba(255,255,255,.30)"/><rect x="224.1" y="229.5" width="3.2" height="1.6" rx="0.8" transform="rotate(123 225.7 230.3)" fill="rgba(255,255,255,.30)"/><rect x="328.5" y="118.1" width="4.1" height="2.0" rx="1.0" transform="rotate(116 330.6 119.1)" fill="rgba(255,255,255,.30)"/><rect x="358.7" y="228.7" width="3.3" height="1.6" rx="0.8" transform="rotate(163 360.4 229.5)" fill="rgba(255,255,255,.30)"/><rect x="405.8" y="371.7" width="3.1" height="1.6" rx="0.8" transform="rotate(19 407.4 372.5)" fill="rgba(255,255,255,.30)"/><rect x="373.3" y="379.5" width="3.4" height="1.7" rx="0.9" transform="rotate(171 375.0 380.3)" fill="rgba(255,255,255,.30)"/><rect x="266.4" y="91.9" width="3.6" height="1.8" rx="0.9" transform="rotate(111 268.2 92.8)" fill="rgba(255,255,255,.30)"/><rect x="135.2" y="329.9" width="3.6" height="1.8" rx="0.9" transform="rotate(44 136.9 330.8)" fill="rgba(255,255,255,.30)"/><rect x="423.2" y="165.6" width="4.3" height="2.2" rx="1.1" transform="rotate(77 425.4 166.7)" fill="rgba(255,255,255,.30)"/><rect x="329.0" y="123.5" width="3.3" height="1.6" rx="0.8" transform="rotate(123 330.6 124.3)" fill="rgba(255,255,255,.30)"/><rect x="332.5" y="295.6" width="4.2" height="2.1" rx="1.0" transform="rotate(109 334.6 296.7)" fill="rgba(255,255,255,.30)"/><rect x="393.2" y="345.9" width="3.4" height="1.7" rx="0.9" transform="rotate(103 394.9 346.8)" fill="rgba(255,255,255,.30)"/><rect x="312.1" y="117.8" width="3.8" height="1.9" rx="1.0" transform="rotate(67 314.0 118.7)" fill="rgba(255,255,255,.30)"/><rect x="213.3" y="323.8" width="4.2" height="2.1" rx="1.1" transform="rotate(145 215.4 324.9)" fill="rgba(255,255,255,.30)"/><rect x="307.7" y="328.2" width="3.0" height="1.5" rx="0.8" transform="rotate(49 309.2 328.9)" fill="rgba(255,255,255,.30)"/><rect x="274.1" y="282.4" width="4.0" height="2.0" rx="1.0" transform="rotate(97 276.1 283.4)" fill="rgba(255,255,255,.30)"/><rect x="287.0" y="290.8" width="4.6" height="2.3" rx="1.2" transform="rotate(167 289.3 291.9)" fill="rgba(255,255,255,.30)"/><rect x="66.3" y="277.0" width="4.8" height="2.4" rx="1.2" transform="rotate(33 68.7 278.3)" fill="rgba(255,255,255,.30)"/><rect x="219.3" y="427.5" width="4.1" height="2.1" rx="1.0" transform="rotate(27 221.3 428.5)" fill="rgba(255,255,255,.30)"/><rect x="432.6" y="188.2" width="4.1" height="2.0" rx="1.0" transform="rotate(1 434.6 189.2)" fill="rgba(255,255,255,.30)"/><rect x="269.0" y="212.8" width="3.2" height="1.6" rx="0.8" transform="rotate(91 270.5 213.6)" fill="rgba(255,255,255,.30)"/><rect x="95.3" y="216.5" width="4.1" height="2.0" rx="1.0" transform="rotate(4 97.4 217.5)" fill="rgba(255,255,255,.30)"/><rect x="257.9" y="354.3" width="3.6" height="1.8" rx="0.9" transform="rotate(69 259.7 355.2)" fill="rgba(255,255,255,.30)"/><rect x="265.5" y="144.2" width="4.5" height="2.2" rx="1.1" transform="rotate(155 267.7 145.3)" fill="rgba(255,255,255,.30)"/><rect x="156.4" y="192.3" width="3.6" height="1.8" rx="0.9" transform="rotate(19 158.2 193.2)" fill="rgba(255,255,255,.30)"/><rect x="107.1" y="231.3" width="4.8" height="2.4" rx="1.2" transform="rotate(97 109.5 232.5)" fill="rgba(255,255,255,.30)"/><rect x="206.4" y="264.6" width="5.2" height="2.6" rx="1.3" transform="rotate(54 209.0 265.9)" fill="rgba(255,255,255,.30)"/><rect x="267.7" y="379.7" width="4.6" height="2.3" rx="1.1" transform="rotate(169 270.0 380.9)" fill="rgba(255,255,255,.30)"/><rect x="407.1" y="235.3" width="4.3" height="2.2" rx="1.1" transform="rotate(27 409.2 236.4)" fill="rgba(255,255,255,.30)"/><rect x="263.7" y="210.8" width="5.1" height="2.5" rx="1.3" transform="rotate(110 266.2 212.0)" fill="rgba(255,255,255,.30)"/><rect x="143.2" y="387.8" width="5.1" height="2.6" rx="1.3" transform="rotate(36 145.7 389.1)" fill="rgba(255,255,255,.30)"/><rect x="262.2" y="325.7" width="3.8" height="1.9" rx="0.9" transform="rotate(138 264.1 326.6)" fill="rgba(255,255,255,.30)"/><rect x="304.0" y="331.2" width="3.0" height="1.5" rx="0.7" transform="rotate(88 305.5 331.9)" fill="rgba(255,255,255,.30)"/></g><g><g transform="translate(315.5 198.4) rotate(-14) scale(1.00)"><rect x="-16" y="-11" width="32" height="22" rx="7" fill="#C77C4A"/><rect x="-16" y="-11" width="32" height="22" rx="7" fill="none" stroke="#8F5427" stroke-width="2" opacity=".6"/><path d="M-10 0 H10 M-8 -5 H8 M-8 5 H8" stroke="#8F5427" stroke-width="1.4" opacity=".45"/></g><g transform="translate(284.3 322.3) scale(1.00)"><circle r="12" fill="#E4572E"/><circle r="12" fill="url(#tomGloss)"/><ellipse cx="-3.5" cy="-4.5" rx="3.2" ry="2" fill="#fff" opacity=".55"/></g><g transform="translate(145.7 203.7) rotate(7) scale(1.00)"><path d="M0 -22 C 16 -22 20 0 12 16 C 6 26 -6 26 -12 16 C -20 0 -16 -22 0 -22 Z" fill="#7FB069"/><path d="M0 -16 C 11 -16 14 0 8 12 C 4 19 -4 19 -8 12 C -14 0 -11 -16 0 -16 Z" fill="#A7CE8B"/><ellipse cx="0" cy="-1" rx="5.5" ry="6.5" fill="#C9B27E"/></g><g transform="translate(227.9 207.2)"><circle cx="10.7" cy="8.0" r="1.8" fill="#3B2F1E"/><circle cx="8.1" cy="-9.9" r="1.9" fill="#3B2F1E"/><circle cx="8.7" cy="-0.4" r="1.8" fill="#3B2F1E"/><circle cx="0.7" cy="-9.3" r="1.8" fill="#3B2F1E"/><circle cx="-5.9" cy="-0.8" r="1.9" fill="#3B2F1E"/><circle cx="-2.3" cy="1.0" r="1.8" fill="#3B2F1E"/><circle cx="9.4" cy="9.5" r="1.9" fill="#3B2F1E"/><circle cx="-1.1" cy="-9.6" r="2.2" fill="#3B2F1E"/><circle cx="-8.9" cy="6.0" r="1.8" fill="#3B2F1E"/></g><g transform="translate(248.1 312.4) rotate(135) scale(1.20)"><path d="M0 0 C 10 -18 26 -18 30 0 C 26 18 10 18 0 0 Z" fill="#57A65A"/><path d="M4 0 L 27 0" stroke="rgba(0,0,0,.10)" stroke-width="1.4" fill="none"/></g><g transform="translate(250.3 397.7) rotate(76) scale(1.20)"><path d="M0 0 C 10 -18 26 -18 30 0 C 26 18 10 18 0 0 Z" fill="#3E8E41"/><path d="M4 0 L 27 0" stroke="rgba(0,0,0,.10)" stroke-width="1.4" fill="none"/></g><g transform="translate(269.3 387.5) rotate(228) scale(1.20)"><path d="M0 0 C 10 -18 26 -18 30 0 C 26 18 10 18 0 0 Z" fill="#2F7D3A"/><path d="M4 0 L 27 0" stroke="rgba(0,0,0,.10)" stroke-width="1.4" fill="none"/></g><g transform="translate(361.9 223.6) rotate(1) scale(1.00)"><rect x="-16" y="-11" width="32" height="22" rx="7" fill="#C77C4A"/><rect x="-16" y="-11" width="32" height="22" rx="7" fill="none" stroke="#8F5427" stroke-width="2" opacity=".6"/><path d="M-10 0 H10 M-8 -5 H8 M-8 5 H8" stroke="#8F5427" stroke-width="1.4" opacity=".45"/></g><g transform="translate(152.2 149.8) rotate(-31) scale(1.00)"><path d="M0 -22 C 16 -22 20 0 12 16 C 6 26 -6 26 -12 16 C -20 0 -16 -22 0 -22 Z" fill="#7FB069"/><path d="M0 -16 C 11 -16 14 0 8 12 C 4 19 -4 19 -8 12 C -14 0 -11 -16 0 -16 Z" fill="#A7CE8B"/><ellipse cx="0" cy="-1" rx="5.5" ry="6.5" fill="#C9B27E"/></g><g transform="translate(283.8 231.3)"><circle cx="-7.4" cy="10.0" r="2.1" fill="#3B2F1E"/><circle cx="-8.9" cy="9.5" r="1.7" fill="#3B2F1E"/><circle cx="-5.0" cy="6.5" r="2.1" fill="#3B2F1E"/><circle cx="-10.0" cy="-7.3" r="1.5" fill="#3B2F1E"/><circle cx="-3.7" cy="-0.6" r="1.9" fill="#3B2F1E"/><circle cx="3.0" cy="10.7" r="1.7" fill="#3B2F1E"/><circle cx="-5.9" cy="7.1" r="2.2" fill="#3B2F1E"/><circle cx="-0.0" cy="3.8" r="2.2" fill="#3B2F1E"/><circle cx="-4.9" cy="6.4" r="1.9" fill="#3B2F1E"/></g><g transform="translate(286.7 192.2) rotate(-34) scale(1.00)"><rect x="-16" y="-11" width="32" height="22" rx="7" fill="#C77C4A"/><rect x="-16" y="-11" width="32" height="22" rx="7" fill="none" stroke="#8F5427" stroke-width="2" opacity=".6"/><path d="M-10 0 H10 M-8 -5 H8 M-8 5 H8" stroke="#8F5427" stroke-width="1.4" opacity=".45"/></g><g transform="translate(338.5 314.1) scale(1.00)"><circle r="12" fill="#E4572E"/><circle r="12" fill="url(#tomGloss)"/><ellipse cx="-3.5" cy="-4.5" rx="3.2" ry="2" fill="#fff" opacity=".55"/></g><g transform="translate(165.6 300.1) rotate(19) scale(1.00)"><circle r="13" fill="#BFE3A8"/><circle r="13" fill="none" stroke="#6FA84A" stroke-width="2.5"/><circle r="6" fill="#D8F0C4"/></g><g transform="translate(208.6 389.7) rotate(254) scale(1.20)"><path d="M0 0 C 10 -18 26 -18 30 0 C 26 18 10 18 0 0 Z" fill="#2F7D3A"/><path d="M4 0 L 27 0" stroke="rgba(0,0,0,.10)" stroke-width="1.4" fill="none"/></g><g transform="translate(180.3 270.8) rotate(40) scale(1.00)"><circle r="13" fill="#BFE3A8"/><circle r="13" fill="none" stroke="#6FA84A" stroke-width="2.5"/><circle r="6" fill="#D8F0C4"/></g><g transform="translate(347.2 251.0) rotate(15) scale(1.00)"><rect x="-16" y="-11" width="32" height="22" rx="7" fill="#C77C4A"/><rect x="-16" y="-11" width="32" height="22" rx="7" fill="none" stroke="#8F5427" stroke-width="2" opacity=".6"/><path d="M-10 0 H10 M-8 -5 H8 M-8 5 H8" stroke="#8F5427" stroke-width="1.4" opacity=".45"/></g><g transform="translate(260.6 246.7)"><circle cx="-0.4" cy="2.6" r="2.2" fill="#3B2F1E"/><circle cx="-0.3" cy="-5.7" r="1.6" fill="#3B2F1E"/><circle cx="9.6" cy="3.3" r="2.1" fill="#3B2F1E"/><circle cx="-2.9" cy="4.4" r="2.1" fill="#3B2F1E"/><circle cx="-8.3" cy="6.8" r="2.1" fill="#3B2F1E"/><circle cx="10.2" cy="-8.0" r="1.5" fill="#3B2F1E"/><circle cx="9.2" cy="-2.0" r="1.6" fill="#3B2F1E"/><circle cx="3.4" cy="-3.8" r="1.6" fill="#3B2F1E"/><circle cx="-2.4" cy="-6.3" r="2.1" fill="#3B2F1E"/></g><g transform="translate(294.3 297.3) scale(1.00)"><circle r="12" fill="#E4572E"/><circle r="12" fill="url(#tomGloss)"/><ellipse cx="-3.5" cy="-4.5" rx="3.2" ry="2" fill="#fff" opacity=".55"/></g><g transform="translate(126.9 314.0) rotate(42) scale(1.00)"><circle r="13" fill="#BFE3A8"/><circle r="13" fill="none" stroke="#6FA84A" stroke-width="2.5"/><circle r="6" fill="#D8F0C4"/></g><g transform="translate(207.7 230.7) rotate(33) scale(1.00)"><path d="M0 -22 C 16 -22 20 0 12 16 C 6 26 -6 26 -12 16 C -20 0 -16 -22 0 -22 Z" fill="#7FB069"/><path d="M0 -16 C 11 -16 14 0 8 12 C 4 19 -4 19 -8 12 C -14 0 -11 -16 0 -16 Z" fill="#A7CE8B"/><ellipse cx="0" cy="-1" rx="5.5" ry="6.5" fill="#C9B27E"/></g><g transform="translate(403.2 239.8) rotate(26) scale(1.00)"><rect x="-16" y="-11" width="32" height="22" rx="7" fill="#C77C4A"/><rect x="-16" y="-11" width="32" height="22" rx="7" fill="none" stroke="#8F5427" stroke-width="2" opacity=".6"/><path d="M-10 0 H10 M-8 -5 H8 M-8 5 H8" stroke="#8F5427" stroke-width="1.4" opacity=".45"/></g><g transform="translate(227.6 170.6) rotate(32) scale(1.00)"><path d="M0 -22 C 16 -22 20 0 12 16 C 6 26 -6 26 -12 16 C -20 0 -16 -22 0 -22 Z" fill="#7FB069"/><path d="M0 -16 C 11 -16 14 0 8 12 C 4 19 -4 19 -8 12 C -14 0 -11 -16 0 -16 Z" fill="#A7CE8B"/><ellipse cx="0" cy="-1" rx="5.5" ry="6.5" fill="#C9B27E"/></g></g><path d="M 110 140 A 200 200 0 0 1 380 100" fill="none" stroke="rgba(255,255,255,.5)" stroke-width="10" stroke-linecap="round" opacity=".5"/></svg>