<svg xmlns="http://www.w3.org/2000/svg" viewBox="0 0 520 520" role="img" aria-label="Bowl saludable ilustrado"><defs><radialGradient id="tomGloss" cx="35%" cy="30%" r="75%"><stop offset="0%" stop-color="#ff8b5e"/><stop offset="55%" stop-color="#E4572E" stop-opacity="0"/></radialGradient><radialGradient id="baseg_gal-2" cx="42%" cy="38%" r="70%"><stop offset="0%" stop-color="#F1F7E7"/><stop offset="100%" stop-color="#E6F0D9"/></radialGradient><radialGradient id="shadow" cx="50%" cy="50%" r="50%"><stop offset="60%" stop-color="rgba(20,48,31,.16)"/><stop offset="100%" stop-color="rgba(20,48,31,0)"/></radialGradient></defs><ellipse cx="260" cy="278" rx="238" ry="230" fill="url(#shadow)"/><circle cx="260" cy="260" r="232" fill="#D6E7C6"/><circle cx="260" cy="260" r="218" fill="#fff" opacity=".55"/><circle cx="260" cy="260" r="204" fill="url(#baseg_gal-2)"/><g><rect x="310.1" y="146.9" width="3.6" height="1.8" rx="0.9" transform="rotate(176 311.9 147.8)" fill="rgba(255,255,255,.30)"/><rect x="312.4" y="305.3" width="4.2" height="2.1" rx="1.1" transform="rotate(170 314.5 306.4)" fill="rgba(255,255,255,.30)"/><rect x="215.9" y="428.8" width="4.6" height="2.3" rx="1.1" transform="rotate(144 218.2 429.9)" fill="rgba(255,255,255,.30)"/><rect x="211.9" y="174.6" width="3.1" height="1.6" rx="0.8" transform="rotate(1 213.5 175.4)" fill="rgba(255,255,255,.30)"/><rect x="309.3" y="138.1" width="5.2" height="2.6" rx="1.3" transform="rotate(157 311.9 139.4)" fill="rgba(255,255,255,.30)"/><rect x="99.1" y="292.3" width="5.2" height="2.6" rx="1.3" transform="rotate(109 101.7 293.6)" fill="rgba(255,255,255,.30)"/><rect x="210.2" y="261.6" width="4.5" height="2.2" rx="1.1" transform="rotate(160 212.5 262.7)" fill="rgba(255,255,255,.30)"/><rect x="337.5" y="171.0" width="3.2" height="1.6" rx="0.8" transform="rotate(97 339.1 171.8)" fill="rgba(255,255,255,.30)"/><rect x="209.3" y="107.6" width="4.0" height="2.0" rx="1.0" transform="rotate(14 211.3 108.6)" fill="rgba(255,255,255,.30)"/><rect x="256.0" y="262.0" width="4.7" height="2.3" rx="1.2" transform="rotate(24 258.4 263.2)" fill="rgba(255,255,255,.30)"/><rect x="239.3" y="142.3" width="4.6" height="2.3" rx="1.1" transform="rotate(63 241.6 143.4)" fill="rgba(255,255,255,.30)"/><rect x="96.8" y="189.0" width="4.4" height="2.2" rx="1.1" transform="rotate(109 99.0 190.1)" fill="rgba(255,255,255,.30)"/><rect x="74.0" y="295.1" width="3.5" height="1.8" rx="0.9" transform="rotate(67 75.8 296.0)" fill="rgba(255,255,255,.30)"/><rect x="240.4" y="275.5" width="4.6" height="2.3" rx="1.2" transform="rotate(88 242.8 276.6)" fill="rgba(255,255,255,.30)"/><rect x="295.8" y="385.8" width="3.9" height="1.9" rx="1.0" transform="rotate(78 297.7 386.8)" fill="rgba(255,255,255,.30)"/><rect x="362.3" y="406.8" width="3.7" height="1.8" rx="0.9" transform="rotate(69 364.2 407.7)" fill="rgba(255,255,255,.30)"/><rect x="347.2" y="394.0" width="3.3" height="1.6" rx="0.8" transform="rotate(86 348.8 394.8)" fill="rgba(255,255,255,.30)"/><rect x="353.2" y="354.4" width="4.7" height="2.3" rx="1.2" transform="rotate(122 355.5 355.6)" fill="rgba(255,255,255,.30)"/><rect x="303.8" y="87.0" width="5.0" height="2.5" rx="1.3" transform="rotate(33 306.3 88.3)" fill="rgba(255,255,255,.30)"/><rect x="177.1" y="255.4" width="3.1" height="1.6" rx="0.8" transform="rotate(173 178.7 256.2)" fill="rgba(255,255,255,.30)"/><rect x="273.6" y="307.4" width="3.6" height="1.8" rx="0.9" transform="rotate(108 275.4 308.3)" fill="rgba(255,255,255,.30)"/><rect x="299.3" y="116.2" width="3.3" height="1.7" rx="0.8" transform="rotate(12 301.0 117.1)" fill="rgba(255,255,255,.30)"/><rect x="358.9" y="228.6" width="5.1" height="2.5" rx="1.3" transform="rotate(98 361.5 229.8)" fill="rgba(255,255,255,.30)"/><rect x="329.1" y="260.6" width="4.2" height="2.1" rx="1.0" transform="rotate(60 331.2 261.6)" fill="rgba(255,255,255,.30)"/><rect x="152.7" y="142.8" width="4.0" height="2.0" rx="1.0" transform="rotate(9 154.7 143.8)" fill="rgba(255,255,255,.30)"/><rect x="311.7" y="123.8" width="4.0" height="2.0" rx="1.0" transform="rotate(157 313.7 124.8)" fill="rgba(255,255,255,.30)"/><rect x="148.8" y="418.9" width="4.6" height="2.3" rx="1.1" transform="rotate(43 151.1 420.0)" fill="rgba(255,255,255,.30)"/><rect x="101.6" y="278.3" width="3.0" height="1.5" rx="0.7" transform="rotate(13 103.1 279.0)" fill="rgba(255,255,255,.30)"/><rect x="92.3" y="173.8" width="3.2" height="1.6" rx="0.8" transform="rotate(116 93.9 174.7)" fill="rgba(255,255,255,.30)"/><rect x="241.4" y="255.8" width="4.9" height="2.5" rx="1.2" transform="rotate(52 243.9 257.0)" fill="rgba(255,255,255,.30)"/><rect x="246.1" y="429.2" width="3.8" height="1.9" rx="0.9" transform="rotate(62 248.0 430.2)" fill="rgba(255,255,255,.30)"/><rect x="330.8" y="146.4" width="2.9" height="1.4" rx="0.7" transform="rotate(153 332.2 147.1)" fill="rgba(255,255,255,.30)"/><rect x="297.5" y="214.3" width="3.8" height="1.9" rx="0.9" transform="rotate(125 299.4 215.3)" fill="rgba(255,255,255,.30)"/><rect x="190.4" y="425.7" width="4.0" height="2.0" rx="1.0" transform="rotate(24 192.4 426.7)" fill="rgba(255,255,255,.30)"/><rect x="117.7" y="342.3" width="4.6" height="2.3" rx="1.2" transform="rotate(112 120.0 343.4)" fill="rgba(255,255,255,.30)"/><rect x="275.4" y="364.2" width="4.1" height="2.0" rx="1.0" transform="rotate(145 277.4 365.2)" fill="rgba(255,255,255,.30)"/><rect x="320.3" y="321.5" width="4.0" height="2.0" rx="1.0" transform="rotate(94 322.3 322.4)" fill="rgba(255,255,255,.30)"/><rect x="178.5" y="345.2" width="3.0" height="1.5" rx="0.7" transform="rotate(82 180.0 345.9)" fill="rgba(255,255,255,.30)"/><rect x="214.2" y="135.8" width="3.1" height="1.5" rx="0.8" transform="rotate(73 215.7 136.6)" fill="rgba(255,255,255,.30)"/><rect x="376.4" y="293.7" width="3.2" height="1.6" rx="0.8" transform="rotate(66 378.0 294.5)" fill="rgba(255,255,255,.30)"/><rect x="331.0" y="368.1" width="3.1" height="1.6" rx="0.8" transform="rotate(34 332.6 368.8)" fill="rgba(255,255,255,.30)"/><rect x="447.2" y="243.2" width="4.7" height="2.3" rx="1.2" transform="rotate(166 449.5 244.3)" fill="rgba(255,255,255,.30)"/><rect x="341.5" y="277.9" width="4.6" height="2.3" rx="1.1" transform="rotate(179 343.8 279.1)" fill="rgba(255,255,255,.30)"/><rect x="392.7" y="298.9" width="3.7" height="1.8" rx="0.9" transform="rotate(129 394.6 299.8)" fill="rgba(255,255,255,.30)"/><rect x="327.5" y="374.2" width="3.4" height="1.7" rx="0.8" transform="rotate(167 329.2 375.0)" fill="rgba(255,255,255,.30)"/><rect x="65.0" y="280.9" width="4.9" height="2.4" rx="1.2" transform="rotate(153 67.4 282.2)" fill="rgba(255,255,255,.30)"/><rect x="124.9" y="276.0" width="4.2" height="2.1" rx="1.0" transform="rotate(64 127.0 277.1)" fill="rgba(255,255,255,.30)"/><rect x="451.1" y="287.8" width="4.1" height="2.1" rx="1.0" transform="rotate(55 453.2 288.8)" fill="rgba(255,255,255,.30)"/><rect x="401.6" y="302.4" width="3.7" height="1.9" rx="0.9" transform="rotate(86 403.4 303.3)" fill="rgba(255,255,255,.30)"/><rect x="407.1" y="261.3" width="5.0" height="2.5" rx="1.3" transform="rotate(145 409.6 262.6)" fill="rgba(255,255,255,.30)"/><rect x="324.3" y="240.2" width="4.3" height="2.2" rx="1.1" transform="rotate(60 326.5 241.3)" fill="rgba(255,255,255,.30)"/><rect x="189.3" y="178.2" width="4.3" height="2.1" rx="1.1" transform="rotate(24 191.5 179.3)" fill="rgba(255,255,255,.30)"/><rect x="282.8" y="447.2" width="3.9" height="1.9" rx="1.0" transform="rotate(44 284.8 448.2)" fill="rgba(255,255,255,.30)"/><rect x="266.1" y="295.2" width="3.9" height="1.9" rx="1.0" transform="rotate(12 268.1 296.2)" fill="rgba(255,255,255,.30)"/><rect x="336.2" y="340.5" width="4.1" height="2.0" rx="1.0" transform="rotate(156 338.3 341.5)" fill="rgba(255,255,255,.30)"/><rect x="109.8" y="355.4" width="4.6" height="2.3" rx="1.1" transform="rotate(82 112.1 356.6)" fill="rgba(255,255,255,.30)"/><rect x="150.5" y="356.7" width="4.2" height="2.1" rx="1.0" transform="rotate(71 152.6 357.7)" fill="rgba(255,255,255,.30)"/><rect x="337.8" y="432.2" width="3.8" height="1.9" rx="1.0" transform="rotate(176 339.8 433.2)" fill="rgba(255,255,255,.30)"/><rect x="301.6" y="254.5" width="4.5" height="2.2" rx="1.1" transform="rotate(12 303.9 255.6)" fill="rgba(255,255,255,.30)"/><rect x="197.3" y="125.5" width="4.8" height="2.4" rx="1.2" transform="rotate(151 199.7 126.7)" fill="rgba(255,255,255,.30)"/><rect x="359.4" y="271.5" width="4.1" height="2.0" rx="1.0" transform="rotate(147 361.4 272.5)" fill="rgba(255,255,255,.30)"/><rect x="208.7" y="380.8" width="2.8" height="1.4" rx="0.7" transform="rotate(173 210.1 381.5)" fill="rgba(255,255,255,.30)"/><rect x="103.5" y="288.0" width="3.8" height="1.9" rx="1.0" transform="rotate(153 105.4 288.9)" fill="rgba(255,255,255,.30)"/><rect x="133.2" y="254.1" width="2.8" height="1.4" rx="0.7" transform="rotate(83 134.6 254.8)" fill="rgba(255,255,255,.30)"/><rect x="102.3" y="155.8" width="3.0" height="1.5" rx="0.8" transform="rotate(115 103.8 156.6)" fill="rgba(255,255,255,.30)"/><rect x="123.3" y="194.3" width="3.3" height="1.6" rx="0.8" transform="rotate(69 124.9 195.1)" fill="rgba(255,255,255,.30)"/><rect x="346.3" y="425.2" width="3.8" height="1.9" rx="0.9" transform="rotate(160 348.2 426.2)" fill="rgba(255,255,255,.30)"/><rect x="207.1" y="357.6" width="4.9" height="2.5" rx="1.2" transform="rotate(51 209.5 358.8)" fill="rgba(255,255,255,.30)"/><rect x="364.3" y="311.5" width="3.2" height="1.6" rx="0.8" transform="rotate(16 365.9 312.3)" fill="rgba(255,255,255,.30)"/><rect x="180.0" y="303.7" width="3.1" height="1.6" rx="0.8" transform="rotate(179 181.6 304.5)" fill="rgba(255,255,255,.30)"/><rect x="404.6" y="137.8" width="3.8" height="1.9" rx="0.9" transform="rotate(19 406.5 138.8)" fill="rgba(255,255,255,.30)"/><rect x="425.8" y="207.3" width="3.8" height="1.9" rx="1.0" transform="rotate(9 427.8 208.3)" fill="rgba(255,255,255,.30)"/><rect x="327.2" y="114.1" width="4.2" height="2.1" rx="1.0" transform="rotate(65 329.3 115.1)" fill="rgba(255,255,255,.30)"/><rect x="235.6" y="138.5" width="4.7" height="2.4" rx="1.2" transform="rotate(153 238.0 139.7)" fill="rgba(255,255,255,.30)"/><rect x="309.3" y="244.9" width="3.0" height="1.5" rx="0.7" transform="rotate(6 310.8 245.6)" fill="rgba(255,255,255,.30)"/><rect x="149.9" y="350.2" width="3.9" height="2.0" rx="1.0" transform="rotate(103 151.9 351.2)" fill="rgba(255,255,255,.30)"/><rect x="178.7" y="169.0" width="4.6" height="2.3" rx="1.1" transform="rotate(123 181.0 170.2)" fill="rgba(255,255,255,.30)"/><rect x="152.2" y="232.4" width="3.2" height="1.6" rx="0.8" transform="rotate(20 153.8 233.2)" fill="rgba(255,255,255,.30)"/><rect x="409.1" y="193.6" width="5.0" height="2.5" rx="1.3" transform="rotate(46 411.7 194.9)" fill="rgba(255,255,255,.30)"/><rect x="358.6" y="243.9" width="4.8" height="2.4" rx="1.2" transform="rotate(110 361.0 245.0)" fill="rgba(255,255,255,.30)"/><rect x="427.6" y="220.7" width="4.2" height="2.1" rx="1.1" transform="rotate(26 429.7 221.8)" fill="rgba(255,255,255,.30)"/><rect x="317.2" y="304.0" width="4.0" height="2.0" rx="1.0" transform="rotate(107 319.2 305.0)" fill="rgba(255,255,255,.30)"/><rect x="303.1" y="387.9" width="3.6" height="1.8" rx="0.9" transform="rotate(149 304.9 388.8)" fill="rgba(255,255,255,.30)"/><rect x="99.4" y="337.9" width="3.2" height="1.6" rx="0.8" transform="rotate(132 101.0 338.7)" fill="rgba(255,255,255,.30)"/><rect x="281.5" y="82.6" width="5.1" height="2.6" rx="1.3" transform="rotate(88 284.0 83.9)" fill="rgba(255,255,255,.30)"/><rect x="153.8" y="344.7" width="2.9" height="1.4" rx="0.7" transform="rotate(109 155.3 345.4)" fill="rgba(255,255,255,.30)"/><rect x="113.1" y="202.1" width="3.2" height="1.6" rx="0.8" transform="rotate(38 114.7 202.8)" fill="rgba(255,255,255,.30)"/><rect x="253.8" y="271.9" width="3.1" height="1.5" rx="0.8" transform="rotate(61 255.3 272.6)" fill="rgba(255,255,255,.30)"/><rect x="357.4" y="122.2" width="3.9" height="2.0" rx="1.0" transform="rotate(123 359.3 123.1)" fill="rgba(255,255,255,.30)"/><rect x="339.3" y="413.9" width="2.8" height="1.4" rx="0.7" transform="rotate(64 340.7 414.6)" fill="rgba(255,255,255,.30)"/><rect x="435.7" y="187.8" width="3.5" height="1.8" rx="0.9" transform="rotate(87 437.4 188.7)" fill="rgba(255,255,255,.30)"/><rect x="237.3" y="385.2" width="4.2" height="2.1" rx="1.1" transform="rotate(80 239.5 386.3)" fill="rgba(255,255,255,.30)"/><rect x="334.0" y="189.4" width="3.7" height="1.8" rx="0.9" transform="rotate(180 335.8 190.4)" fill="rgba(255,255,255,.30)"/><rect x="256.9" y="290.7" width="4.2" height="2.1" rx="1.0" transform="rotate(110 259.0 291.7)" fill="rgba(255,255,255,.30)"/><rect x="430.2" y="313.3" width="2.9" height="1.4" rx="0.7" transform="rotate(66 431.7 314.0)" fill="rgba(255,255,255,.30)"/><rect x="389.3" y="283.7" width="3.5" height="1.7" rx="0.9" transform="rotate(60 391.0 284.5)" fill="rgba(255,255,255,.30)"/><rect x="321.6" y="120.6" width="3.8" height="1.9" rx="1.0" transform="rotate(80 323.5 121.5)" fill="rgba(255,255,255,.30)"/><rect x="172.8" y="239.2" width="3.2" height="1.6" rx="0.8" transform="rotate(160 174.4 240.0)" fill="rgba(255,255,255,.30)"/><rect x="364.6" y="244.6" width="2.8" height="1.4" rx="0.7" transform="rotate(28 366.0 245.3)" fill="rgba(255,255,255,.30)"/><rect x="356.7" y="374.5" width="4.9" height="2.4" rx="1.2" transform="rotate(103 359.1 375.7)" fill="rgba(255,255,255,.30)"/><rect x="394.1" y="137.9" width="3.7" height="1.9" rx="0.9" transform="rotate(58 396.0 138.9)" fill="rgba(255,255,255,.30)"/><rect x="413.4" y="239.2" width="3.4" height="1.7" rx="0.8" transform="rotate(77 415.1 240.0)" fill="rgba(255,255,255,.30)"/><rect x="214.6" y="165.3" width="4.7" height="2.4" rx="1.2" transform="rotate(166 217.0 166.5)" fill="rgba(255,255,255,.30)"/><rect x="151.0" y="140.6" width="4.5" height="2.2" rx="1.1" transform="rotate(45 153.2 141.8)" fill="rgba(255,255,255,.30)"/><rect x="294.8" y="402.2" width="4.8" height="2.4" rx="1.2" transform="rotate(18 297.2 403.4)" fill="rgba(255,255,255,.30)"/><rect x="386.5" y="370.2" width="3.8" height="1.9" rx="1.0" transform="rotate(76 388.4 371.2)" fill="rgba(255,255,255,.30)"/><rect x="109.5" y="218.3" width="3.4" height="1.7" rx="0.9" transform="rotate(137 111.3 219.1)" fill="rgba(255,255,255,.30)"/><rect x="249.1" y="361.0" width="3.2" height="1.6" rx="0.8" transform="rotate(33 250.7 361.8)" fill="rgba(255,255,255,.30)"/><rect x="358.1" y="292.2" width="3.0" height="1.5" rx="0.7" transform="rotate(127 359.6 293.0)" fill="rgba(255,255,255,.30)"/><rect x="107.9" y="302.4" width="3.5" height="1.7" rx="0.9" transform="rotate(28 109.6 303.3)" fill="rgba(255,255,255,.30)"/><rect x="120.5" y="195.6" width="3.1" height="1.5" rx="0.8" transform="rotate(5 122.1 196.4)" fill="rgba(255,255,255,.30)"/><rect x="260.1" y="196.4" width="4.7" height="2.3" rx="1.2" transform="rotate(112 262.5 197.6)" fill="rgba(255,255,255,.30)"/><rect x="297.6" y="136.5" width="5.0" height="2.5" rx="1.3" transform="rotate(99 300.1 137.7)" fill="rgba(255,255,255,.30)"/><rect x="132.6" y="408.8" width="4.0" height="2.0" rx="1.0" transform="rotate(33 134.6 409.8)" fill="rgba(255,255,255,.30)"/><rect x="406.2" y="370.6" width="3.7" height="1.8" rx="0.9" transform="rotate(49 408.0 371.5)" fill="rgba(255,255,255,.30)"/><rect x="266.9" y="200.2" width="3.8" height="1.9" rx="1.0" transform="rotate(63 268.8 201.2)" fill="rgba(255,255,255,.30)"/><rect x="169.4" y="149.7" width="4.6" height="2.3" rx="1.1" transform="rotate(133 171.7 150.8)" fill="rgba(255,255,255,.30)"/><rect x="252.7" y="110.8" width="4.3" height="2.1" rx="1.1" transform="rotate(128 254.8 111.8)" fill="rgba(255,255,255,.30)"/><rect x="338.4" y="347.8" width="4.4" height="2.2" rx="1.1" transform="rotate(101 340.6 348.9)" fill="rgba(255,255,255,.30)"/><rect x="328.5" y="225.6" width="4.5" height="2.3" rx="1.1" transform="rotate(102 330.8 226.7)" fill="rgba(255,255,255,.30)"/><rect x="186.9" y="406.6" width="5.0" height="2.5" rx="1.2" transform="rotate(118 189.4 407.9)" fill="rgba(255,255,255,.30)"/><rect x="200.0" y="367.8" width="4.7" height="2.4" rx="1.2" transform="rotate(83 202.4 368.9)" fill="rgba(255,255,255,.30)"/><rect x="255.4" y="267.8" width="5.2" height="2.6" rx="1.3" transform="rotate(28 258.0 269.1)" fill="rgba(255,255,255,.30)"/><rect x="261.8" y="77.4" width="4.6" height="2.3" rx="1.2" transform="rotate(98 264.1 78.6)" fill="rgba(255,255,255,.30)"/><rect x="415.3" y="351.0" width="3.5" height="1.8" rx="0.9" transform="rotate(84 417.1 351.9)" fill="rgba(255,255,255,.30)"/><rect x="211.7" y="122.3" width="3.5" height="1.8" rx="0.9" transform="rotate(21 213.4 123.2)" fill="rgba(255,255,255,.30)"/><rect x="199.7" y="115.6" width="3.8" height="1.9" rx="0.9" transform="rotate(23 201.6 116.6)" fill="rgba(255,255,255,.30)"/><rect x="208.6" y="269.7" width="3.3" height="1.6" rx="0.8" transform="rotate(161 210.3 270.5)" fill="rgba(255,255,255,.30)"/><rect x="163.2" y="227.7" width="4.5" height="2.2" rx="1.1" transform="rotate(82 165.5 228.8)" fill="rgba(255,255,255,.30)"/><rect x="168.6" y="299.9" width="4.0" height="2.0" rx="1.0" transform="rotate(131 170.6 300.9)" fill="rgba(255,255,255,.30)"/><rect x="269.6" y="302.0" width="4.5" height="2.2" rx="1.1" transform="rotate(81 271.8 303.1)" fill="rgba(255,255,255,.30)"/><rect x="406.9" y="185.3" width="5.1" height="2.5" rx="1.3" transform="rotate(75 409.5 186.6)" fill="rgba(255,255,255,.30)"/><rect x="219.4" y="294.9" width="3.4" height="1.7" rx="0.8" transform="rotate(168 221.1 295.8)" fill="rgba(255,255,255,.30)"/><rect x="281.1" y="173.4" width="5.0" height="2.5" rx="1.2" transform="rotate(62 283.5 174.6)" fill="rgba(255,255,255,.30)"/><rect x="298.5" y="159.9" width="3.8" height="1.9" rx="1.0" transform="rotate(6 300.4 160.8)" fill="rgba(255,255,255,.30)"/><rect x="72.9" y="208.1" width="4.9" height="2.4" rx="1.2" transform="rotate(20 75.4 209.3)" fill="rgba(255,255,255,.30)"/><rect x="246.0" y="299.8" width="3.1" height="1.6" rx="0.8" transform="rotate(120 247.5 300.6)" fill="rgba(255,255,255,.30)"/><rect x="90.9" y="353.2" width="4.8" height="2.4" rx="1.2" transform="rotate(147 93.3 354.4)" fill="rgba(255,255,255,.30)"/><rect x="153.8" y="368.5" width="4.8" height="2.4" rx="1.2" transform="rotate(0 156.2 369.7)" fill="rgba(255,255,255,.30)"/><rect x="183.1" y="352.1" width="4.6" height="2.3" rx="1.1" transform="rotate(51 185.4 353.2)" fill="rgba(255,255,255,.30)"/><rect x="91.1" y="198.3" width="3.1" height="1.5" rx="0.8" transform="rotate(87 92.6 199.1)" fill="rgba(255,255,255,.30)"/><rect x="135.2" y="204.7" width="4.7" height="2.4" rx="1.2" transform="rotate(81 137.6 205.8)" fill="rgba(255,255,255,.30)"/><rect x="390.2" y="400.7" width="4.0" height="2.0" rx="1.0" transform="rotate(107 392.2 401.7)" fill="rgba(255,255,255,.30)"/><rect x="325.9" y="299.0" width="3.4" height="1.7" rx="0.8" transform="rotate(102 327.6 299.9)" fill="rgba(255,255,255,.30)"/><rect x="395.1" y="297.4" width="4.9" height="2.4" rx="1.2" transform="rotate(39 397.6 298.6)" fill="rgba(255,255,255,.30)"/><rect x="116.6" y="271.9" width="3.6" height="1.8" rx="0.9" transform="rotate(61 118.4 272.8)" fill="rgba(255,255,255,.30)"/><rect x="386.8" y="167.7" width="3.5" height="1.7" rx="0.9" transform="rotate(142 388.6 168.6)" fill="rgba(255,255,255,.30)"/><rect x="165.7" y="104.8" width="4.3" height="2.1" rx="1.1" transform="rotate(171 167.9 105.9)" fill="rgba(255,255,255,.30)"/><rect x="367.7" y="404.5" width="4.0" height="2.0" rx="1.0" transform="rotate(36 369.7 405.5)" fill="rgba(255,255,255,.30)"/><rect x="215.9" y="351.1" width="3.4" height="1.7" rx="0.8" transform="rotate(80 217.5 351.9)" fill="rgba(255,255,255,.30)"/><rect x="275.4" y="435.9" width="4.2" height="2.1" rx="1.1" transform="rotate(142 277.6 437.0)" fill="rgba(255,255,255,.30)"/><rect x="197.1" y="358.7" width="4.5" height="2.3" rx="1.1" transform="rotate(107 199.4 359.8)" fill="rgba(255,255,255,.30)"/><rect x="187.4" y="344.5" width="3.0" height="1.5" rx="0.7" transform="rotate(82 188.9 345.3)" fill="rgba(255,255,255,.30)"/><rect x="305.0" y="445.1" width="3.0" height="1.5" rx="0.8" transform="rotate(68 306.5 445.9)" fill="rgba(255,255,255,.30)"/><rect x="90.3" y="201.4" width="4.4" height="2.2" rx="1.1" transform="rotate(56 92.5 202.5)" fill="rgba(255,255,255,.30)"/><rect x="337.6" y="325.9" width="4.0" height="2.0" rx="1.0" transform="rotate(115 339.6 326.9)" fill="rgba(255,255,255,.30)"/><rect x="295.5" y="101.5" width="4.6" height="2.3" rx="1.1" transform="rotate(34 297.8 102.7)" fill="rgba(255,255,255,.30)"/><rect x="273.2" y="342.8" width="5.0" height="2.5" rx="1.2" transform="rotate(42 275.7 344.0)" fill="rgba(255,255,255,.30)"/><rect x="317.7" y="372.5" width="3.5" height="1.8" rx="0.9" transform="rotate(85 319.5 373.4)" fill="rgba(255,255,255,.30)"/><rect x="338.5" y="335.6" width="3.0" height="1.5" rx="0.7" transform="rotate(67 340.0 336.4)" fill="rgba(255,255,255,.30)"/><rect x="317.9" y="180.6" width="4.7" height="2.4" rx="1.2" transform="rotate(154 320.2 181.7)" fill="rgba(255,255,255,.30)"/><rect x="112.0" y="279.7" width="4.2" height="2.1" rx="1.1" transform="rotate(144 114.1 280.8)" fill="rgba(255,255,255,.30)"/><rect x="107.9" y="285.0" width="3.1" height="1.5" rx="0.8" transform="rotate(126 109.5 285.8)" fill="rgba(255,255,255,.30)"/><rect x="165.9" y="227.6" width="3.0" height="1.5" rx="0.7" transform="rotate(115 167.3 228.3)" fill="rgba(255,255,255,.30)"/><rect x="250.8" y="193.7" width="2.9" height="1.4" rx="0.7" transform="rotate(145 252.3 194.5)" fill="rgba(255,255,255,.30)"/><rect x="220.0" y="410.7" width="3.1" height="1.5" rx="0.8" transform="rotate(144 221.5 411.5)" fill="rgba(255,255,255,.30)"/><rect x="252.8" y="190.0" width="4.7" height="2.3" rx="1.2" transform="rotate(21 255.2 191.2)" fill="rgba(255,255,255,.30)"/><rect x="99.1" y="334.1" width="4.4" height="2.2" rx="1.1" transform="rotate(58 101.4 335.2)" fill="rgba(255,255,255,.30)"/><rect x="320.0" y="274.9" width="3.7" height="1.9" rx="0.9" transform="rotate(177 321.9 275.8)" fill="rgba(255,255,255,.30)"/><rect x="160.0" y="284.3" width="4.4" height="2.2" rx="1.1" transform="rotate(27 162.2 285.4)" fill="rgba(255,255,255,.30)"/><rect x="220.0" y="191.2" width="3.3" height="1.7" rx="0.8" transform="rotate(40 221.7 192.0)" fill="rgba(255,255,255,.30)"/><rect x="137.7" y="369.5" width="3.2" height="1.6" rx="0.8" transform="rotate(72 139.2 370.3)" fill="rgba(255,255,255,.30)"/><rect x="195.2" y="134.0" width="3.7" height="1.8" rx="0.9" transform="rotate(164 197.0 134.9)" fill="rgba(255,255,255,.30)"/><rect x="249.8" y="227.2" width="2.8" height="1.4" rx="0.7" transform="rotate(119 251.2 227.9)" fill="rgba(255,255,255,.30)"/><rect x="299.7" y="255.6" width="3.0" height="1.5" rx="0.7" transform="rotate(56 301.2 256.3)" fill="rgba(255,255,255,.30)"/><rect x="104.5" y="185.0" width="4.1" height="2.1" rx="1.0" transform="rotate(111 106.6 186.0)" fill="rgba(255,255,255,.30)"/><rect x="154.4" y="96.0" width="4.5" height="2.3" rx="1.1" transform="rotate(78 156.7 97.2)" fill="rgba(255,255,255,.30)"/><rect x="361.3" y="315.3" width="4.3" height="2.1" rx="1.1" transform="rotate(44 363.4 316.3)" fill="rgba(255,255,255,.30)"/><rect x="188.1" y="277.9" width="2.9" height="1.5" rx="0.7" transform="rotate(33 189.6 278.7)" fill="rgba(255,255,255,.30)"/><rect x="310.8" y="281.1" width="3.2" height="1.6" rx="0.8" transform="rotate(109 312.4 281.9)" fill="rgba(255,255,255,.30)"/><rect x="319.5" y="339.5" width="3.2" height="1.6" rx="0.8" transform="rotate(101 321.1 340.3)" fill="rgba(255,255,255,.30)"/><rect x="203.5" y="429.9" width="4.4" height="2.2" rx="1.1" transform="rotate(53 205.7 431.0)" fill="rgba(255,255,255,.30)"/><rect x="203.6" y="148.8" width="3.2" height="1.6" rx="0.8" transform="rotate(21 205.2 149.6)" fill="rgba(255,255,255,.30)"/><rect x="410.2" y="259.1" width="3.8" height="1.9" rx="1.0" transform="rotate(147 412.1 260.0)" fill="rgba(255,255,255,.30)"/><rect x="239.9" y="216.6" width="4.9" height="2.5" rx="1.2" transform="rotate(6 242.3 217.8)" fill="rgba(255,255,255,.30)"/><rect x="390.1" y="164.9" width="5.2" height="2.6" rx="1.3" transform="rotate(12 392.7 166.2)" fill="rgba(255,255,255,.30)"/><rect x="188.7" y="88.8" width="4.1" height="2.1" rx="1.0" transform="rotate(33 190.8 89.8)" fill="rgba(255,255,255,.30)"/><rect x="86.0" y="218.6" width="4.6" height="2.3" rx="1.1" transform="rotate(98 88.3 219.7)" fill="rgba(255,255,255,.30)"/><rect x="191.9" y="239.9" width="4.9" height="2.5" rx="1.2" transform="rotate(167 194.4 241.2)" fill="rgba(255,255,255,.30)"/><rect x="351.2" y="339.5" width="4.4" height="2.2" rx="1.1" transform="rotate(123 353.4 340.6)" fill="rgba(255,255,255,.30)"/><rect x="376.3" y="133.8" width="3.7" height="1.9" rx="0.9" transform="rotate(73 378.2 134.7)" fill="rgba(255,255,255,.30)"/><rect x="262.5" y="451.2" width="4.4" height="2.2" rx="1.1" transform="rotate(146 264.7 452.3)" fill="rgba(255,255,255,.30)"/><rect x="254.6" y="332.3" width="5.0" height="2.5" rx="1.3" transform="rotate(31 257.1 333.6)" fill="rgba(255,255,255,.30)"/><rect x="186.7" y="119.9" width="5.1" height="2.5" rx="1.3" transform="rotate(122 189.2 121.1)" fill="rgba(255,255,255,.30)"/><rect x="322.7" y="376.2" width="3.7" height="1.9" rx="0.9" transform="rotate(92 324.6 377.1)" fill="rgba(255,255,255,.30)"/><rect x="166.4" y="397.6" width="3.7" height="1.9" rx="0.9" transform="rotate(98 168.3 398.6)" fill="rgba(255,255,255,.30)"/><rect x="185.6" y="393.4" width="2.9" height="1.5" rx="0.7" transform="rotate(61 187.1 394.1)" fill="rgba(255,255,255,.30)"/><rect x="322.1" y="314.4" width="4.8" height="2.4" rx="1.2" transform="rotate(121 324.5 315.6)" fill="rgba(255,255,255,.30)"/><rect x="357.4" y="118.8" width="3.7" height="1.9" rx="0.9" transform="rotate(108 359.3 119.7)" fill="rgba(255,255,255,.30)"/><rect x="282.8" y="348.3" width="4.9" height="2.5" rx="1.2" transform="rotate(47 285.2 349.5)" fill="rgba(255,255,255,.30)"/><rect x="263.5" y="140.1" width="4.3" height="2.2" rx="1.1" transform="rotate(134 265.6 141.1)" fill="rgba(255,255,255,.30)"/><rect x="398.6" y="216.3" width="4.7" height="2.4" rx="1.2" transform="rotate(20 400.9 217.5)" fill="rgba(255,255,255,.30)"/><rect x="199.6" y="404.1" width="3.3" height="1.6" rx="0.8" transform="rotate(79 201.3 404.9)" fill="rgba(255,255,255,.30)"/><rect x="171.5" y="314.4" width="2.9" height="1.5" rx="0.7" transform="rotate(171 173.0 315.2)" fill="rgba(255,255,255,.30)"/><rect x="250.3" y="102.3" width="4.9" height="2.5" rx="1.2" transform="rotate(8 252.7 103.5)" fill="rgba(255,255,255,.30)"/><rect x="337.7" y="294.9" width="3.5" height="1.7" rx="0.9" transform="rotate(149 339.5 295.7)" fill="rgba(255,255,255,.30)"/><rect x="311.2" y="137.8" width="4.7" height="2.4" rx="1.2" transform="rotate(94 313.6 138.9)" fill="rgba(255,255,255,.30)"/><rect x="318.0" y="164.4" width="3.6" height="1.8" rx="0.9" transform="rotate(6 319.8 165.3)" fill="rgba(255,255,255,.30)"/><rect x="359.5" y="175.9" width="2.9" height="1.4" rx="0.7" transform="rotate(102 361.0 176.6)" fill="rgba(255,255,255,.30)"/><rect x="319.6" y="406.9" width="2.9" height="1.5" rx="0.7" transform="rotate(127 321.1 407.7)" fill="rgba(255,255,255,.30)"/><rect x="384.5" y="244.4" width="4.0" height="2.0" rx="1.0" transform="rotate(118 386.5 245.4)" fill="rgba(255,255,255,.30)"/><rect x="324.0" y="95.8" width="4.9" height="2.5" rx="1.2" transform="rotate(135 326.4 97.0)" fill="rgba(255,255,255,.30)"/><rect x="220.5" y="361.3" width="4.0" height="2.0" rx="1.0" transform="rotate(79 222.6 362.3)" fill="rgba(255,255,255,.30)"/><rect x="273.6" y="126.9" width="4.4" height="2.2" rx="1.1" transform="rotate(173 275.8 128.0)" fill="rgba(255,255,255,.30)"/><rect x="350.9" y="392.4" width="4.2" height="2.1" rx="1.0" transform="rotate(149 353.0 393.5)" fill="rgba(255,255,255,.30)"/><rect x="246.3" y="132.6" width="3.1" height="1.5" rx="0.8" transform="rotate(73 247.8 133.4)" fill="rgba(255,255,255,.30)"/><rect x="122.0" y="226.1" width="4.6" height="2.3" rx="1.2" transform="rotate(168 124.3 227.2)" fill="rgba(255,255,255,.30)"/><rect x="249.0" y="77.0" width="4.0" height="2.0" rx="1.0" transform="rotate(178 251.0 78.0)" fill="rgba(255,255,255,.30)"/><rect x="319.6" y="406.4" width="4.3" height="2.2" rx="1.1" transform="rotate(174 321.8 407.5)" fill="rgba(255,255,255,.30)"/><rect x="135.3" y="311.1" width="3.8" height="1.9" rx="0.9" transform="rotate(147 137.2 312.1)" fill="rgba(255,255,255,.30)"/><rect x="270.0" y="375.5" width="2.9" height="1.4" rx="0.7" transform="rotate(163 271.5 376.2)" fill="rgba(255,255,255,.30)"/><rect x="149.7" y="362.4" width="4.8" height="2.4" rx="1.2" transform="rotate(158 152.1 363.6)" fill="rgba(255,255,255,.30)"/><rect x="286.2" y="245.0" width="2.9" height="1.5" rx="0.7" transform="rotate(142 287.6 245.7)" fill="rgba(255,255,255,.30)"/><rect x="121.7" y="194.4" width="5.2" height="2.6" rx="1.3" transform="rotate(50 124.3 195.7)" fill="rgba(255,255,255,.30)"/><rect x="223.1" y="234.3" width="4.7" height="2.3" rx="1.2" transform="rotate(177 225.5 235.4)" fill="rgba(255,255,255,.30)"/><rect x="223.8" y="216.9" width="3.8" height="1.9" rx="0.9" transform="rotate(63 225.7 217.9)" fill="rgba(255,255,255,.30)"/><rect x="127.9" y="317.7" width="4.1" height="2.1" rx="1.0" transform="rotate(113 130.0 318.8)" fill="rgba(255,255,255,.30)"/><rect x="236.6" y="248.4" width="5.0" height="2.5" rx="1.3" transform="rotate(142 239.1 249.7)" fill="rgba(255,255,255,.30)"/><rect x="407.5" y="340.4" width="4.2" height="2.1" rx="1.0" transform="rotate(76 409.6 341.5)" fill="rgba(255,255,255,.30)"/><rect x="183.0" y="176.4" width="3.4" height="1.7" rx="0.9" transform="rotate(16 184.7 177.2)" fill="rgba(255,255,255,.30)"/></g><g><g transform="translate(283.8 231.3)"><circle cx="-7.4" cy="10.0" r="2.1" fill="#3B2F1E"/><circle cx="-8.9" cy="9.5" r="1.7" fill="#3B2F1E"/><circle cx="-5.0" cy="6.5" r="2.1" fill="#3B2F1E"/><circle cx="-10.0" cy="-7.3" r="1.5" fill="#3B2F1E"/><circle cx="-3.7" cy="-0.6" r="1.9" fill="#3B2F1E"/><circle cx="3.0" cy="10.7" r="1.7" fill="#3B2F1E"/><circle cx="-5.9" cy="7.1" r="2.2" fill="#3B2F1E"/><circle cx="-0.0" cy="3.8" r="2.2" fill="#3B2F1E"/><circle cx="-4.9" cy="6.4" r="1.9" fill="#3B2F1E"/></g><g transform="translate(403.2 239.8) rotate(1) scale(1.00)"><rect x="-16" y="-11" width="32" height="22" rx="7" fill="#CFE0A8"/><rect x="-16" y="-11" width="32" height="22" rx="7" fill="none" stroke="#9FB86E" stroke-width="2" opacity=".6"/><path d="M-10 0 H10 M-8 -5 H8 M-8 5 H8" stroke="#9FB86E" stroke-width="1.4" opacity=".45"/></g><g transform="translate(197.0 318.4) rotate(93) scale(1.20)"><path d="M0 0 C 10 -18 26 -18 30 0 C 26 18 10 18 0 0 Z" fill="#57A65A"/><path d="M4 0 L 27 0" stroke="rgba(0,0,0,.10)" stroke-width="1.4" fill="none"/></g><g transform="translate(218.4 209.0) rotate(-14) scale(1.00)"><path d="M0 -22 C 16 -22 20 0 12 16 C 6 26 -6 26 -12 16 C -20 0 -16 -22 0 -22 Z" fill="#7FB069"/><path d="M0 -16 C 11 -16 14 0 8 12 C 4 19 -4 19 -8 12 C -14 0 -11 -16 0 -16 Z" fill="#A7CE8B"/><ellipse cx="0" cy="-1" rx="5.5" ry="6.5" fill="#C9B27E"/></g><g transform="translate(269.3 387.5) rotate(10) scale(1.20)"><path d="M0 0 C 10 -18 26 -18 30 0 C 26 18 10 18 0 0 Z" fill="#57A65A"/><path d="M4 0 L 27 0" stroke="rgba(0,0,0,.10)" stroke-width="1.4" fill="none"/></g><g transform="translate(209.6 298.0) rotate(63) scale(1.20)"><path d="M0 0 C 10 -18 26 -18 30 0 C 26 18 10 18 0 0 Z" fill="#3E8E41"/><path d="M4 0 L 27 0" stroke="rgba(0,0,0,.10)" stroke-width="1.4" fill="none"/></g><g transform="translate(338.5 314.1) scale(1.00)"><circle r="12" fill="#E4572E"/><circle r="12" fill="url(#tomGloss)"/><ellipse cx="-3.5" cy="-4.5" rx="3.2" ry="2" fill="#fff" opacity=".55"/></g><g transform="translate(227.6 170.6) rotate(-9) scale(1.00)"><path d="M0 -22 C 16 -22 20 0 12 16 C 6 26 -6 26 -12 16 C -20 0 -16 -22 0 -22 Z" fill="#7FB069"/><path d="M0 -16 C 11 -16 14 0 8 12 C 4 19 -4 19 -8 12 C -14 0 -11 -16 0 -16 Z" fill="#A7CE8B"/><ellipse cx="0" cy="-1" rx="5.5" ry="6.5" fill="#C9B27E"/></g><g transform="translate(361.9 223.6) rotate(-34) scale(1.00)"><rect x="-16" y="-11" width="32" height="22" rx="7" fill="#CFE0A8"/><rect x="-16" y="-11" width="32" height="22" rx="7" fill="none" stroke="#9FB86E" stroke-width="2" opacity=".6"/><path d="M-10 0 H10 M-8 -5 H8 M-8 5 H8" stroke="#9FB86E" stroke-width="1.4" opacity=".45"/></g><g transform="translate(187.8 325.8) rotate(27) scale(1.00)"><circle r="13" fill="#BFE3A8"/><circle r="13" fill="none" stroke="#6FA84A" stroke-width="2.5"/><circle r="6" fill="#D8F0C4"/></g><g transform="translate(180.3 270.8) rotate(57) scale(1.00)"><circle r="13" fill="#BFE3A8"/><circle r="13" fill="none" stroke="#6FA84A" stroke-width="2.5"/><circle r="6" fill="#D8F0C4"/></g><g transform="translate(211.8 347.0) rotate(318) scale(1.20)"><path d="M0 0 C 10 -18 26 -18 30 0 C 26 18 10 18 0 0 Z" fill="#2F7D3A"/><path d="M4 0 L 27 0" stroke="rgba(0,0,0,.10)" stroke-width="1.4" fill="none"/></g><g transform="translate(248.1 312.4) rotate(194) scale(1.20)"><path d="M0 0 C 10 -18 26 -18 30 0 C 26 18 10 18 0 0 Z" fill="#57A65A"/><path d="M4 0 L 27 0" stroke="rgba(0,0,0,.10)" stroke-width="1.4" fill="none"/></g><g transform="translate(207.7 230.7) rotate(10) scale(1.00)"><path d="M0 -22 C 16 -22 20 0 12 16 C 6 26 -6 26 -12 16 C -20 0 -16 -22 0 -22 Z" fill="#7FB069"/><path d="M0 -16 C 11 -16 14 0 8 12 C 4 19 -4 19 -8 12 C -14 0 -11 -16 0 -16 Z" fill="#A7CE8B"/><ellipse cx="0" cy="-1" rx="5.5" ry="6.5" fill="#C9B27E"/></g><g transform="translate(208.6 389.7) rotate(204) scale(1.20)"><path d="M0 0 C 10 -18 26 -18 30 0 C 26 18 10 18 0 0 Z" fill="#3E8E41"/><path d="M4 0 L 27 0" stroke="rgba(0,0,0,.10)" stroke-width="1.4" fill="none"/></g><g transform="translate(165.6 300.1) rotate(14) scale(1.00)"><circle r="13" fill="#BFE3A8"/><circle r="13" fill="none" stroke="#6FA84A" stroke-width="2.5"/><circle r="6" fill="#D8F0C4"/></g><g transform="translate(250.3 397.7) rotate(208) scale(1.20)"><path d="M0 0 C 10 -18 26 -18 30 0 C 26 18 10 18 0 0 Z" fill="#3E8E41"/><path d="M4 0 L 27 0" stroke="rgba(0,0,0,.10)" stroke-width="1.4" fill="none"/></g><g transform="translate(126.9 314.0) rotate(3) scale(1.00)"><circle r="13" fill="#BFE3A8"/><circle r="13" fill="none" stroke="#6FA84A" stroke-width="2.5"/><circle r="6" fill="#D8F0C4"/></g><g transform="translate(213.9 286.7) rotate(88) scale(1.00)"><circle r="13" fill="#BFE3A8"/><circle r="13" fill="none" stroke="#6FA84A" stroke-width="2.5"/><circle r="6" fill="#D8F0C4"/></g><g transform="translate(173.4 345.8) rotate(317) scale(1.20)"><path d="M0 0 C 10 -18 26 -18 30 0 C 26 18 10 18 0 0 Z" fill="#3E8E41"/><path d="M4 0 L 27 0" stroke="rgba(0,0,0,.10)" stroke-width="1.4" fill="none"/></g><g transform="translate(152.2 149.8) rotate(-18) scale(1.00)"><path d="M0 -22 C 16 -22 20 0 12 16 C 6 26 -6 26 -12 16 C -20 0 -16 -22 0 -22 Z" fill="#7FB069"/><path d="M0 -16 C 11 -16 14 0 8 12 C 4 19 -4 19 -8 12 C -14 0 -11 -16 0 -16 Z" fill="#A7CE8B"/><ellipse cx="0" cy="-1" rx="5.5" ry="6.5" fill="#C9B27E"/></g><g transform="translate(237.0 220.1) rotate(25) scale(1.00)"><path d="M0 -22 C 16 -22 20 0 12 16 C 6 26 -6 26 -12 16 C -20 0 -16 -22 0 -22 Z" fill="#7FB069"/><path d="M0 -16 C 11 -16 14 0 8 12 C 4 19 -4 19 -8 12 C -14 0 -11 -16 0 -16 Z" fill="#A7CE8B"/><ellipse cx="0" cy="-1" rx="5.5" ry="6.5" fill="#C9B27E"/></g><g transform="translate(284.3 322.3) scale(1.00)"><circle r="12" fill="#E4572E"/><circle r="12" fill="url(#tomGloss)"/><ellipse cx="-3.5" cy="-4.5" rx="3.2" ry="2" fill="#fff" opacity=".55"/></g><g transform="translate(145.7 203.7) rotate(-22) scale(1.00)"><path d="M0 -22 C 16 -22 20 0 12 16 C 6 26 -6 26 -12 16 C -20 0 -16 -22 0 -22 Z" fill="#7FB069"/><path d="M0 -16 C 11 -16 14 0 8 12 C 4 19 -4 19 -8 12 C -14 0 -11 -16 0 -16 Z" fill="#A7CE8B"/><ellipse cx="0" cy="-1" rx="5.5" ry="6.5" fill="#C9B27E"/></g><g transform="translate(260.6 246.7)"><circle cx="-0.4" cy="2.6" r="2.2" fill="#3B2F1E"/><circle cx="-0.3" cy="-5.7" r="1.6" fill="#3B2F1E"/><circle cx="9.6" cy="3.3" r="2.1" fill="#3B2F1E"/><circle cx="-2.9" cy="4.4" r="2.1" fill="#3B2F1E"/><circle cx="-8.3" cy="6.8" r="2.1" fill="#3B2F1E"/><circle cx="10.2" cy="-8.0" r="1.5" fill="#3B2F1E"/><circle cx="9.2" cy="-2.0" r="1.6" fill="#3B2F1E"/><circle cx="3.4" cy="-3.8" r="1.6" fill="#3B2F1E"/><circle cx="-2.4" cy="-6.3" r="2.1" fill="#3B2F1E"/></g></g><path d="M 110 140 A 200 200 0 0 1 380 100" fill="none" stroke="rgba(255,255,255,.5)" stroke-width="10" stroke-linecap="round" opacity=".5"/></svg>