<svg xmlns="http://www.w3.org/2000/svg" viewBox="0 0 520 520" role="img" aria-label="Bowl saludable ilustrado"><defs><radialGradient id="tomGloss" cx="35%" cy="30%" r="75%"><stop offset="0%" stop-color="#ff8b5e"/><stop offset="55%" stop-color="#E4572E" stop-opacity="0"/></radialGradient><radialGradient id="baseg_gal-3" cx="42%" cy="38%" r="70%"><stop offset="0%" stop-color="#FBF3DE"/><stop offset="100%" stop-color="#F4EAD0"/></radialGradient><radialGradient id="shadow" cx="50%" cy="50%" r="50%"><stop offset="60%" stop-color="rgba(20,48,31,.16)"/><stop offset="100%" stop-color="rgba(20,48,31,0)"/></radialGradient></defs><ellipse cx="260" cy="278" rx="238" ry="230" fill="url(#shadow)"/><circle cx="260" cy="260" r="232" fill="#F3D9C4"/><circle cx="260" cy="260" r="218" fill="#fff" opacity=".55"/><circle cx="260" cy="260" r="204" fill="url(#baseg_gal-3)"/><g><rect x="427.5" y="267.7" width="3.1" height="1.6" rx="0.8" transform="rotate(105 429.1 268.5)" fill="rgba(255,255,255,.30)"/><rect x="148.4" y="296.7" width="4.7" height="2.4" rx="1.2" transform="rotate(74 150.8 297.9)" fill="rgba(255,255,255,.30)"/><rect x="245.8" y="85.5" width="3.0" height="1.5" rx="0.7" transform="rotate(111 247.3 86.3)" fill="rgba(255,255,255,.30)"/><rect x="257.2" y="215.1" width="5.1" height="2.6" rx="1.3" transform="rotate(136 259.8 216.4)" fill="rgba(255,255,255,.30)"/><rect x="283.1" y="447.5" width="3.2" height="1.6" rx="0.8" transform="rotate(36 284.7 448.3)" fill="rgba(255,255,255,.30)"/><rect x="262.1" y="264.6" width="2.8" height="1.4" rx="0.7" transform="rotate(167 263.5 265.3)" fill="rgba(255,255,255,.30)"/><rect x="212.1" y="102.3" width="3.9" height="1.9" rx="1.0" transform="rotate(94 214.1 103.2)" fill="rgba(255,255,255,.30)"/><rect x="337.7" y="220.1" width="3.9" height="1.9" rx="1.0" transform="rotate(166 339.6 221.1)" fill="rgba(255,255,255,.30)"/><rect x="180.0" y="436.5" width="4.9" height="2.4" rx="1.2" transform="rotate(48 182.4 437.7)" fill="rgba(255,255,255,.30)"/><rect x="79.8" y="309.0" width="3.0" height="1.5" rx="0.8" transform="rotate(88 81.4 309.8)" fill="rgba(255,255,255,.30)"/><rect x="183.3" y="240.3" width="4.2" height="2.1" rx="1.1" transform="rotate(26 185.4 241.4)" fill="rgba(255,255,255,.30)"/><rect x="312.6" y="79.4" width="2.9" height="1.5" rx="0.7" transform="rotate(115 314.1 80.2)" fill="rgba(255,255,255,.30)"/><rect x="260.2" y="419.3" width="4.6" height="2.3" rx="1.2" transform="rotate(135 262.5 420.4)" fill="rgba(255,255,255,.30)"/><rect x="119.1" y="381.6" width="4.2" height="2.1" rx="1.1" transform="rotate(82 121.2 382.7)" fill="rgba(255,255,255,.30)"/><rect x="184.5" y="299.0" width="3.9" height="2.0" rx="1.0" transform="rotate(16 186.5 300.0)" fill="rgba(255,255,255,.30)"/><rect x="337.2" y="424.7" width="3.2" height="1.6" rx="0.8" transform="rotate(138 338.8 425.5)" fill="rgba(255,255,255,.30)"/><rect x="216.8" y="302.9" width="4.7" height="2.3" rx="1.2" transform="rotate(102 219.1 304.1)" fill="rgba(255,255,255,.30)"/><rect x="360.0" y="95.6" width="4.8" height="2.4" rx="1.2" transform="rotate(133 362.4 96.8)" fill="rgba(255,255,255,.30)"/><rect x="416.5" y="301.7" width="4.9" height="2.5" rx="1.2" transform="rotate(105 418.9 302.9)" fill="rgba(255,255,255,.30)"/><rect x="143.2" y="276.8" width="5.0" height="2.5" rx="1.3" transform="rotate(117 145.7 278.0)" fill="rgba(255,255,255,.30)"/><rect x="347.0" y="284.1" width="3.5" height="1.7" rx="0.9" transform="rotate(154 348.7 285.0)" fill="rgba(255,255,255,.30)"/><rect x="306.6" y="208.8" width="3.6" height="1.8" rx="0.9" transform="rotate(8 308.4 209.7)" fill="rgba(255,255,255,.30)"/><rect x="216.0" y="303.8" width="3.3" height="1.7" rx="0.8" transform="rotate(134 217.7 304.7)" fill="rgba(255,255,255,.30)"/><rect x="370.0" y="246.5" width="3.5" height="1.7" rx="0.9" transform="rotate(12 371.7 247.3)" fill="rgba(255,255,255,.30)"/><rect x="262.1" y="433.1" width="5.2" height="2.6" rx="1.3" transform="rotate(153 264.7 434.4)" fill="rgba(255,255,255,.30)"/><rect x="157.3" y="110.4" width="5.1" height="2.6" rx="1.3" transform="rotate(121 159.8 111.6)" fill="rgba(255,255,255,.30)"/><rect x="338.6" y="160.9" width="3.1" height="1.6" rx="0.8" transform="rotate(70 340.2 161.7)" fill="rgba(255,255,255,.30)"/><rect x="389.4" y="330.4" width="3.3" height="1.7" rx="0.8" transform="rotate(30 391.1 331.2)" fill="rgba(255,255,255,.30)"/><rect x="350.5" y="371.4" width="4.8" height="2.4" rx="1.2" transform="rotate(11 352.9 372.6)" fill="rgba(255,255,255,.30)"/><rect x="79.1" y="193.3" width="2.8" height="1.4" rx="0.7" transform="rotate(5 80.5 194.0)" fill="rgba(255,255,255,.30)"/><rect x="350.5" y="336.3" width="4.1" height="2.1" rx="1.0" transform="rotate(67 352.6 337.4)" fill="rgba(255,255,255,.30)"/><rect x="415.8" y="181.9" width="3.8" height="1.9" rx="1.0" transform="rotate(3 417.7 182.9)" fill="rgba(255,255,255,.30)"/><rect x="120.1" y="364.8" width="5.1" height="2.6" rx="1.3" transform="rotate(160 122.7 366.1)" fill="rgba(255,255,255,.30)"/><rect x="282.3" y="412.6" width="4.6" height="2.3" rx="1.1" transform="rotate(86 284.6 413.7)" fill="rgba(255,255,255,.30)"/><rect x="107.1" y="207.7" width="4.2" height="2.1" rx="1.1" transform="rotate(130 109.2 208.7)" fill="rgba(255,255,255,.30)"/><rect x="134.0" y="275.8" width="3.9" height="2.0" rx="1.0" transform="rotate(34 136.0 276.8)" fill="rgba(255,255,255,.30)"/><rect x="275.2" y="187.4" width="3.6" height="1.8" rx="0.9" transform="rotate(37 277.0 188.3)" fill="rgba(255,255,255,.30)"/><rect x="368.1" y="278.0" width="5.2" height="2.6" rx="1.3" transform="rotate(101 370.6 279.3)" fill="rgba(255,255,255,.30)"/><rect x="285.2" y="282.5" width="3.8" height="1.9" rx="1.0" transform="rotate(72 287.1 283.4)" fill="rgba(255,255,255,.30)"/><rect x="292.9" y="144.0" width="4.5" height="2.3" rx="1.1" transform="rotate(89 295.2 145.1)" fill="rgba(255,255,255,.30)"/><rect x="305.4" y="334.7" width="4.8" height="2.4" rx="1.2" transform="rotate(119 307.8 335.9)" fill="rgba(255,255,255,.30)"/><rect x="353.2" y="415.9" width="4.7" height="2.4" rx="1.2" transform="rotate(3 355.6 417.1)" fill="rgba(255,255,255,.30)"/><rect x="104.1" y="249.3" width="4.8" height="2.4" rx="1.2" transform="rotate(50 106.5 250.5)" fill="rgba(255,255,255,.30)"/><rect x="278.5" y="347.8" width="3.0" height="1.5" rx="0.7" transform="rotate(140 280.0 348.5)" fill="rgba(255,255,255,.30)"/><rect x="410.6" y="307.1" width="3.9" height="1.9" rx="1.0" transform="rotate(78 412.5 308.1)" fill="rgba(255,255,255,.30)"/><rect x="116.3" y="342.4" width="4.3" height="2.1" rx="1.1" transform="rotate(41 118.5 343.5)" fill="rgba(255,255,255,.30)"/><rect x="289.7" y="441.2" width="3.4" height="1.7" rx="0.9" transform="rotate(7 291.4 442.1)" fill="rgba(255,255,255,.30)"/><rect x="268.4" y="260.3" width="3.2" height="1.6" rx="0.8" transform="rotate(109 270.0 261.1)" fill="rgba(255,255,255,.30)"/><rect x="285.4" y="266.8" width="4.6" height="2.3" rx="1.1" transform="rotate(89 287.7 267.9)" fill="rgba(255,255,255,.30)"/><rect x="163.8" y="268.0" width="3.4" height="1.7" rx="0.9" transform="rotate(82 165.5 268.9)" fill="rgba(255,255,255,.30)"/><rect x="114.4" y="360.6" width="3.5" height="1.8" rx="0.9" transform="rotate(64 116.2 361.5)" fill="rgba(255,255,255,.30)"/><rect x="195.2" y="375.6" width="4.3" height="2.1" rx="1.1" transform="rotate(67 197.4 376.7)" fill="rgba(255,255,255,.30)"/><rect x="312.0" y="409.6" width="4.2" height="2.1" rx="1.0" transform="rotate(92 314.1 410.6)" fill="rgba(255,255,255,.30)"/><rect x="198.3" y="171.4" width="4.4" height="2.2" rx="1.1" transform="rotate(71 200.5 172.5)" fill="rgba(255,255,255,.30)"/><rect x="379.5" y="231.1" width="4.5" height="2.3" rx="1.1" transform="rotate(105 381.7 232.3)" fill="rgba(255,255,255,.30)"/><rect x="148.3" y="409.0" width="3.7" height="1.9" rx="0.9" transform="rotate(12 150.2 409.9)" fill="rgba(255,255,255,.30)"/><rect x="254.5" y="69.2" width="4.5" height="2.2" rx="1.1" transform="rotate(8 256.8 70.4)" fill="rgba(255,255,255,.30)"/><rect x="282.9" y="209.7" width="4.9" height="2.5" rx="1.2" transform="rotate(174 285.4 210.9)" fill="rgba(255,255,255,.30)"/><rect x="77.2" y="188.8" width="3.7" height="1.9" rx="0.9" transform="rotate(16 79.1 189.7)" fill="rgba(255,255,255,.30)"/><rect x="449.9" y="296.4" width="3.2" height="1.6" rx="0.8" transform="rotate(101 451.6 297.2)" fill="rgba(255,255,255,.30)"/><rect x="212.3" y="194.3" width="3.0" height="1.5" rx="0.8" transform="rotate(114 213.8 195.1)" fill="rgba(255,255,255,.30)"/><rect x="175.1" y="262.7" width="3.0" height="1.5" rx="0.8" transform="rotate(87 176.6 263.5)" fill="rgba(255,255,255,.30)"/><rect x="348.8" y="125.0" width="3.4" height="1.7" rx="0.8" transform="rotate(157 350.5 125.8)" fill="rgba(255,255,255,.30)"/><rect x="312.5" y="275.2" width="4.8" height="2.4" rx="1.2" transform="rotate(23 314.9 276.4)" fill="rgba(255,255,255,.30)"/><rect x="439.8" y="228.6" width="4.2" height="2.1" rx="1.1" transform="rotate(23 441.9 229.6)" fill="rgba(255,255,255,.30)"/><rect x="354.7" y="355.7" width="3.6" height="1.8" rx="0.9" transform="rotate(164 356.4 356.6)" fill="rgba(255,255,255,.30)"/><rect x="394.8" y="195.3" width="3.1" height="1.6" rx="0.8" transform="rotate(52 396.4 196.1)" fill="rgba(255,255,255,.30)"/><rect x="171.1" y="114.1" width="4.4" height="2.2" rx="1.1" transform="rotate(63 173.3 115.2)" fill="rgba(255,255,255,.30)"/><rect x="153.7" y="402.6" width="3.2" height="1.6" rx="0.8" transform="rotate(159 155.3 403.4)" fill="rgba(255,255,255,.30)"/><rect x="391.6" y="246.3" width="3.3" height="1.6" rx="0.8" transform="rotate(135 393.2 247.1)" fill="rgba(255,255,255,.30)"/><rect x="341.4" y="392.4" width="5.2" height="2.6" rx="1.3" transform="rotate(41 344.0 393.7)" fill="rgba(255,255,255,.30)"/><rect x="339.6" y="214.0" width="4.1" height="2.1" rx="1.0" transform="rotate(39 341.6 215.0)" fill="rgba(255,255,255,.30)"/><rect x="199.5" y="111.8" width="4.9" height="2.4" rx="1.2" transform="rotate(16 201.9 113.0)" fill="rgba(255,255,255,.30)"/><rect x="304.3" y="248.5" width="4.9" height="2.4" rx="1.2" transform="rotate(77 306.7 249.7)" fill="rgba(255,255,255,.30)"/><rect x="247.6" y="327.1" width="4.0" height="2.0" rx="1.0" transform="rotate(27 249.6 328.1)" fill="rgba(255,255,255,.30)"/><rect x="246.6" y="91.6" width="3.4" height="1.7" rx="0.9" transform="rotate(80 248.3 92.5)" fill="rgba(255,255,255,.30)"/><rect x="339.9" y="266.4" width="4.3" height="2.2" rx="1.1" transform="rotate(64 342.0 267.5)" fill="rgba(255,255,255,.30)"/><rect x="283.2" y="270.8" width="4.5" height="2.2" rx="1.1" transform="rotate(174 285.5 271.9)" fill="rgba(255,255,255,.30)"/><rect x="328.6" y="180.7" width="4.6" height="2.3" rx="1.2" transform="rotate(65 330.9 181.8)" fill="rgba(255,255,255,.30)"/><rect x="393.0" y="309.9" width="3.4" height="1.7" rx="0.8" transform="rotate(165 394.7 310.7)" fill="rgba(255,255,255,.30)"/><rect x="194.8" y="362.0" width="3.1" height="1.6" rx="0.8" transform="rotate(158 196.4 362.8)" fill="rgba(255,255,255,.30)"/><rect x="176.9" y="99.5" width="4.6" height="2.3" rx="1.1" transform="rotate(11 179.2 100.6)" fill="rgba(255,255,255,.30)"/><rect x="351.5" y="268.9" width="3.9" height="2.0" rx="1.0" transform="rotate(77 353.5 269.9)" fill="rgba(255,255,255,.30)"/><rect x="200.2" y="169.1" width="4.3" height="2.1" rx="1.1" transform="rotate(105 202.3 170.1)" fill="rgba(255,255,255,.30)"/><rect x="300.5" y="71.7" width="3.6" height="1.8" rx="0.9" transform="rotate(8 302.3 72.6)" fill="rgba(255,255,255,.30)"/><rect x="235.3" y="400.9" width="3.9" height="2.0" rx="1.0" transform="rotate(144 237.3 401.9)" fill="rgba(255,255,255,.30)"/><rect x="182.3" y="348.6" width="3.1" height="1.5" rx="0.8" transform="rotate(39 183.9 349.3)" fill="rgba(255,255,255,.30)"/><rect x="239.9" y="373.4" width="4.2" height="2.1" rx="1.1" transform="rotate(124 242.0 374.4)" fill="rgba(255,255,255,.30)"/><rect x="359.6" y="107.1" width="4.3" height="2.1" rx="1.1" transform="rotate(26 361.7 108.2)" fill="rgba(255,255,255,.30)"/><rect x="190.6" y="154.4" width="3.8" height="1.9" rx="1.0" transform="rotate(106 192.5 155.4)" fill="rgba(255,255,255,.30)"/><rect x="318.9" y="232.6" width="5.1" height="2.5" rx="1.3" transform="rotate(93 321.4 233.9)" fill="rgba(255,255,255,.30)"/><rect x="119.2" y="202.4" width="4.9" height="2.4" rx="1.2" transform="rotate(64 121.7 203.6)" fill="rgba(255,255,255,.30)"/><rect x="321.2" y="297.6" width="2.8" height="1.4" rx="0.7" transform="rotate(112 322.6 298.3)" fill="rgba(255,255,255,.30)"/><rect x="359.1" y="128.0" width="4.2" height="2.1" rx="1.1" transform="rotate(10 361.2 129.0)" fill="rgba(255,255,255,.30)"/><rect x="325.7" y="276.9" width="4.7" height="2.3" rx="1.2" transform="rotate(177 328.0 278.0)" fill="rgba(255,255,255,.30)"/><rect x="216.0" y="70.1" width="5.0" height="2.5" rx="1.2" transform="rotate(62 218.5 71.4)" fill="rgba(255,255,255,.30)"/><rect x="288.3" y="71.2" width="2.9" height="1.5" rx="0.7" transform="rotate(173 289.8 71.9)" fill="rgba(255,255,255,.30)"/><rect x="341.1" y="355.0" width="3.6" height="1.8" rx="0.9" transform="rotate(32 342.9 355.9)" fill="rgba(255,255,255,.30)"/><rect x="133.6" y="349.0" width="5.1" height="2.5" rx="1.3" transform="rotate(58 136.1 350.3)" fill="rgba(255,255,255,.30)"/><rect x="354.9" y="419.9" width="5.1" height="2.5" rx="1.3" transform="rotate(109 357.4 421.2)" fill="rgba(255,255,255,.30)"/><rect x="119.6" y="167.3" width="5.0" height="2.5" rx="1.2" transform="rotate(150 122.1 168.6)" fill="rgba(255,255,255,.30)"/><rect x="407.6" y="174.9" width="4.1" height="2.0" rx="1.0" transform="rotate(23 409.7 175.9)" fill="rgba(255,255,255,.30)"/><rect x="382.5" y="129.0" width="4.8" height="2.4" rx="1.2" transform="rotate(72 384.9 130.2)" fill="rgba(255,255,255,.30)"/><rect x="158.7" y="332.9" width="3.9" height="2.0" rx="1.0" transform="rotate(52 160.6 333.8)" fill="rgba(255,255,255,.30)"/><rect x="240.4" y="362.2" width="3.8" height="1.9" rx="0.9" transform="rotate(98 242.3 363.1)" fill="rgba(255,255,255,.30)"/><rect x="375.3" y="228.9" width="3.4" height="1.7" rx="0.8" transform="rotate(10 377.0 229.8)" fill="rgba(255,255,255,.30)"/><rect x="369.1" y="201.3" width="5.0" height="2.5" rx="1.3" transform="rotate(171 371.6 202.6)" fill="rgba(255,255,255,.30)"/><rect x="345.9" y="173.8" width="4.3" height="2.1" rx="1.1" transform="rotate(51 348.0 174.9)" fill="rgba(255,255,255,.30)"/><rect x="122.1" y="125.5" width="4.6" height="2.3" rx="1.1" transform="rotate(29 124.4 126.7)" fill="rgba(255,255,255,.30)"/><rect x="362.1" y="242.9" width="4.1" height="2.1" rx="1.0" transform="rotate(38 364.2 243.9)" fill="rgba(255,255,255,.30)"/><rect x="94.0" y="233.5" width="3.5" height="1.8" rx="0.9" transform="rotate(71 95.8 234.4)" fill="rgba(255,255,255,.30)"/><rect x="250.7" y="302.0" width="3.3" height="1.7" rx="0.8" transform="rotate(129 252.4 302.8)" fill="rgba(255,255,255,.30)"/><rect x="278.6" y="361.5" width="5.2" height="2.6" rx="1.3" transform="rotate(145 281.2 362.8)" fill="rgba(255,255,255,.30)"/><rect x="151.3" y="140.9" width="3.7" height="1.8" rx="0.9" transform="rotate(176 153.1 141.9)" fill="rgba(255,255,255,.30)"/><rect x="103.9" y="299.1" width="3.7" height="1.8" rx="0.9" transform="rotate(91 105.8 300.0)" fill="rgba(255,255,255,.30)"/><rect x="193.1" y="418.1" width="4.0" height="2.0" rx="1.0" transform="rotate(17 195.1 419.1)" fill="rgba(255,255,255,.30)"/><rect x="213.5" y="203.1" width="4.3" height="2.1" rx="1.1" transform="rotate(129 215.6 204.2)" fill="rgba(255,255,255,.30)"/><rect x="223.3" y="217.8" width="3.0" height="1.5" rx="0.8" transform="rotate(140 224.8 218.5)" fill="rgba(255,255,255,.30)"/><rect x="353.0" y="93.6" width="4.2" height="2.1" rx="1.0" transform="rotate(18 355.1 94.7)" fill="rgba(255,255,255,.30)"/><rect x="361.8" y="236.5" width="4.5" height="2.2" rx="1.1" transform="rotate(153 364.0 237.6)" fill="rgba(255,255,255,.30)"/><rect x="164.0" y="116.7" width="4.6" height="2.3" rx="1.1" transform="rotate(71 166.3 117.8)" fill="rgba(255,255,255,.30)"/><rect x="281.6" y="339.7" width="5.2" height="2.6" rx="1.3" transform="rotate(3 284.2 341.0)" fill="rgba(255,255,255,.30)"/><rect x="436.3" y="263.2" width="5.1" height="2.5" rx="1.3" transform="rotate(47 438.9 264.4)" fill="rgba(255,255,255,.30)"/><rect x="432.0" y="188.7" width="3.5" height="1.8" rx="0.9" transform="rotate(169 433.8 189.6)" fill="rgba(255,255,255,.30)"/><rect x="288.6" y="160.1" width="3.4" height="1.7" rx="0.8" transform="rotate(61 290.3 160.9)" fill="rgba(255,255,255,.30)"/><rect x="238.8" y="213.3" width="3.4" height="1.7" rx="0.9" transform="rotate(154 240.5 214.2)" fill="rgba(255,255,255,.30)"/><rect x="112.7" y="189.8" width="3.7" height="1.9" rx="0.9" transform="rotate(121 114.6 190.7)" fill="rgba(255,255,255,.30)"/><rect x="244.4" y="219.0" width="2.8" height="1.4" rx="0.7" transform="rotate(142 245.8 219.7)" fill="rgba(255,255,255,.30)"/><rect x="306.8" y="406.7" width="4.1" height="2.0" rx="1.0" transform="rotate(112 308.8 407.7)" fill="rgba(255,255,255,.30)"/><rect x="162.6" y="248.3" width="3.1" height="1.6" rx="0.8" transform="rotate(161 164.2 249.1)" fill="rgba(255,255,255,.30)"/><rect x="162.1" y="132.0" width="3.5" height="1.8" rx="0.9" transform="rotate(94 163.8 132.9)" fill="rgba(255,255,255,.30)"/><rect x="312.8" y="363.2" width="4.7" height="2.4" rx="1.2" transform="rotate(4 315.2 364.4)" fill="rgba(255,255,255,.30)"/><rect x="100.7" y="293.3" width="4.9" height="2.5" rx="1.2" transform="rotate(95 103.2 294.5)" fill="rgba(255,255,255,.30)"/><rect x="306.8" y="102.8" width="3.7" height="1.8" rx="0.9" transform="rotate(3 308.7 103.7)" fill="rgba(255,255,255,.30)"/><rect x="376.4" y="287.4" width="3.1" height="1.5" rx="0.8" transform="rotate(168 377.9 288.2)" fill="rgba(255,255,255,.30)"/><rect x="388.8" y="292.7" width="3.8" height="1.9" rx="1.0" transform="rotate(78 390.7 293.6)" fill="rgba(255,255,255,.30)"/><rect x="213.9" y="174.9" width="3.8" height="1.9" rx="1.0" transform="rotate(100 215.8 175.8)" fill="rgba(255,255,255,.30)"/><rect x="191.1" y="386.7" width="4.6" height="2.3" rx="1.1" transform="rotate(80 193.3 387.8)" fill="rgba(255,255,255,.30)"/><rect x="314.8" y="293.3" width="2.8" height="1.4" rx="0.7" transform="rotate(32 316.2 294.0)" fill="rgba(255,255,255,.30)"/><rect x="312.4" y="191.5" width="3.4" height="1.7" rx="0.8" transform="rotate(171 314.1 192.3)" fill="rgba(255,255,255,.30)"/><rect x="283.6" y="439.5" width="4.6" height="2.3" rx="1.2" transform="rotate(129 285.9 440.7)" fill="rgba(255,255,255,.30)"/><rect x="234.5" y="314.3" width="3.7" height="1.9" rx="0.9" transform="rotate(57 236.4 315.2)" fill="rgba(255,255,255,.30)"/><rect x="251.2" y="66.2" width="4.9" height="2.4" rx="1.2" transform="rotate(29 253.6 67.5)" fill="rgba(255,255,255,.30)"/><rect x="347.7" y="249.9" width="4.4" height="2.2" rx="1.1" transform="rotate(33 349.9 251.0)" fill="rgba(255,255,255,.30)"/><rect x="280.7" y="386.8" width="2.8" height="1.4" rx="0.7" transform="rotate(124 282.1 387.5)" fill="rgba(255,255,255,.30)"/><rect x="336.5" y="422.8" width="3.2" height="1.6" rx="0.8" transform="rotate(15 338.1 423.6)" fill="rgba(255,255,255,.30)"/><rect x="263.2" y="359.7" width="3.7" height="1.8" rx="0.9" transform="rotate(175 265.1 360.6)" fill="rgba(255,255,255,.30)"/><rect x="357.6" y="122.4" width="3.2" height="1.6" rx="0.8" transform="rotate(110 359.2 123.2)" fill="rgba(255,255,255,.30)"/><rect x="328.4" y="241.0" width="3.3" height="1.7" rx="0.8" transform="rotate(102 330.1 241.8)" fill="rgba(255,255,255,.30)"/><rect x="237.7" y="419.6" width="4.2" height="2.1" rx="1.1" transform="rotate(60 239.8 420.7)" fill="rgba(255,255,255,.30)"/><rect x="300.6" y="193.3" width="3.3" height="1.6" rx="0.8" transform="rotate(90 302.2 194.1)" fill="rgba(255,255,255,.30)"/><rect x="177.3" y="274.9" width="5.0" height="2.5" rx="1.3" transform="rotate(100 179.8 276.1)" fill="rgba(255,255,255,.30)"/><rect x="254.2" y="239.5" width="3.7" height="1.8" rx="0.9" transform="rotate(19 256.1 240.4)" fill="rgba(255,255,255,.30)"/><rect x="401.3" y="257.5" width="4.6" height="2.3" rx="1.2" transform="rotate(172 403.6 258.7)" fill="rgba(255,255,255,.30)"/><rect x="182.4" y="348.4" width="4.6" height="2.3" rx="1.2" transform="rotate(165 184.7 349.6)" fill="rgba(255,255,255,.30)"/><rect x="229.7" y="160.7" width="5.0" height="2.5" rx="1.2" transform="rotate(163 232.2 161.9)" fill="rgba(255,255,255,.30)"/><rect x="346.7" y="199.2" width="3.8" height="1.9" rx="1.0" transform="rotate(162 348.7 200.2)" fill="rgba(255,255,255,.30)"/><rect x="71.2" y="311.6" width="5.0" height="2.5" rx="1.3" transform="rotate(128 73.7 312.9)" fill="rgba(255,255,255,.30)"/><rect x="421.6" y="342.9" width="2.8" height="1.4" rx="0.7" transform="rotate(174 423.0 343.6)" fill="rgba(255,255,255,.30)"/><rect x="130.5" y="191.9" width="4.8" height="2.4" rx="1.2" transform="rotate(113 132.9 193.1)" fill="rgba(255,255,255,.30)"/><rect x="217.4" y="392.5" width="4.8" height="2.4" rx="1.2" transform="rotate(47 219.8 393.7)" fill="rgba(255,255,255,.30)"/><rect x="351.1" y="398.6" width="3.3" height="1.7" rx="0.8" transform="rotate(99 352.7 399.5)" fill="rgba(255,255,255,.30)"/><rect x="406.5" y="267.4" width="3.8" height="1.9" rx="0.9" transform="rotate(133 408.4 268.3)" fill="rgba(255,255,255,.30)"/><rect x="225.8" y="226.7" width="4.3" height="2.2" rx="1.1" transform="rotate(154 228.0 227.8)" fill="rgba(255,255,255,.30)"/><rect x="332.8" y="285.5" width="5.2" height="2.6" rx="1.3" transform="rotate(29 335.3 286.8)" fill="rgba(255,255,255,.30)"/><rect x="265.8" y="120.9" width="4.9" height="2.4" rx="1.2" transform="rotate(134 268.3 122.1)" fill="rgba(255,255,255,.30)"/><rect x="204.9" y="239.1" width="5.1" height="2.6" rx="1.3" transform="rotate(99 207.5 240.3)" fill="rgba(255,255,255,.30)"/><rect x="173.5" y="140.5" width="4.2" height="2.1" rx="1.0" transform="rotate(133 175.6 141.6)" fill="rgba(255,255,255,.30)"/><rect x="270.8" y="93.7" width="3.8" height="1.9" rx="0.9" transform="rotate(17 272.7 94.6)" fill="rgba(255,255,255,.30)"/><rect x="362.8" y="200.9" width="5.2" height="2.6" rx="1.3" transform="rotate(71 365.4 202.2)" fill="rgba(255,255,255,.30)"/><rect x="319.6" y="199.8" width="4.6" height="2.3" rx="1.1" transform="rotate(79 321.9 201.0)" fill="rgba(255,255,255,.30)"/><rect x="348.7" y="429.2" width="3.5" height="1.7" rx="0.9" transform="rotate(178 350.4 430.1)" fill="rgba(255,255,255,.30)"/><rect x="245.2" y="154.9" width="4.4" height="2.2" rx="1.1" transform="rotate(73 247.4 156.0)" fill="rgba(255,255,255,.30)"/><rect x="270.7" y="356.0" width="5.1" height="2.6" rx="1.3" transform="rotate(157 273.3 357.3)" fill="rgba(255,255,255,.30)"/><rect x="418.1" y="296.7" width="4.9" height="2.4" rx="1.2" transform="rotate(106 420.5 298.0)" fill="rgba(255,255,255,.30)"/><rect x="127.2" y="249.8" width="4.0" height="2.0" rx="1.0" transform="rotate(103 129.2 250.8)" fill="rgba(255,255,255,.30)"/><rect x="230.0" y="197.2" width="4.7" height="2.4" rx="1.2" transform="rotate(126 232.4 198.4)" fill="rgba(255,255,255,.30)"/><rect x="233.9" y="194.7" width="2.9" height="1.5" rx="0.7" transform="rotate(9 235.4 195.4)" fill="rgba(255,255,255,.30)"/><rect x="407.2" y="304.6" width="4.0" height="2.0" rx="1.0" transform="rotate(107 409.2 305.6)" fill="rgba(255,255,255,.30)"/><rect x="158.7" y="363.4" width="3.5" height="1.8" rx="0.9" transform="rotate(150 160.5 364.3)" fill="rgba(255,255,255,.30)"/><rect x="214.9" y="82.1" width="4.0" height="2.0" rx="1.0" transform="rotate(34 216.9 83.1)" fill="rgba(255,255,255,.30)"/><rect x="285.0" y="407.3" width="4.4" height="2.2" rx="1.1" transform="rotate(34 287.2 408.4)" fill="rgba(255,255,255,.30)"/><rect x="363.3" y="375.2" width="4.8" height="2.4" rx="1.2" transform="rotate(126 365.6 376.4)" fill="rgba(255,255,255,.30)"/><rect x="270.3" y="151.3" width="3.1" height="1.5" rx="0.8" transform="rotate(77 271.8 152.1)" fill="rgba(255,255,255,.30)"/><rect x="293.9" y="275.2" width="3.0" height="1.5" rx="0.8" transform="rotate(164 295.4 276.0)" fill="rgba(255,255,255,.30)"/><rect x="268.8" y="297.1" width="3.3" height="1.6" rx="0.8" transform="rotate(130 270.4 298.0)" fill="rgba(255,255,255,.30)"/><rect x="353.5" y="375.6" width="3.1" height="1.6" rx="0.8" transform="rotate(48 355.1 376.4)" fill="rgba(255,255,255,.30)"/><rect x="103.0" y="375.6" width="3.4" height="1.7" rx="0.8" transform="rotate(65 104.7 376.4)" fill="rgba(255,255,255,.30)"/><rect x="396.9" y="276.8" width="5.0" height="2.5" rx="1.3" transform="rotate(143 399.4 278.0)" fill="rgba(255,255,255,.30)"/><rect x="262.7" y="103.4" width="2.9" height="1.5" rx="0.7" transform="rotate(157 264.1 104.1)" fill="rgba(255,255,255,.30)"/><rect x="383.4" y="208.4" width="3.7" height="1.9" rx="0.9" transform="rotate(119 385.2 209.3)" fill="rgba(255,255,255,.30)"/><rect x="404.9" y="162.6" width="5.1" height="2.5" rx="1.3" transform="rotate(154 407.4 163.9)" fill="rgba(255,255,255,.30)"/><rect x="221.4" y="182.8" width="4.6" height="2.3" rx="1.2" transform="rotate(65 223.7 184.0)" fill="rgba(255,255,255,.30)"/><rect x="361.4" y="297.7" width="4.7" height="2.3" rx="1.2" transform="rotate(108 363.8 298.8)" fill="rgba(255,255,255,.30)"/><rect x="385.5" y="211.4" width="4.8" height="2.4" rx="1.2" transform="rotate(66 387.9 212.6)" fill="rgba(255,255,255,.30)"/><rect x="328.7" y="237.8" width="4.0" height="2.0" rx="1.0" transform="rotate(89 330.7 238.8)" fill="rgba(255,255,255,.30)"/><rect x="95.1" y="357.0" width="2.9" height="1.4" rx="0.7" transform="rotate(69 96.5 357.7)" fill="rgba(255,255,255,.30)"/><rect x="375.4" y="152.5" width="3.4" height="1.7" rx="0.9" transform="rotate(51 377.1 153.4)" fill="rgba(255,255,255,.30)"/><rect x="226.1" y="184.8" width="5.0" height="2.5" rx="1.3" transform="rotate(106 228.6 186.1)" fill="rgba(255,255,255,.30)"/><rect x="283.9" y="264.0" width="3.1" height="1.6" rx="0.8" transform="rotate(90 285.5 264.8)" fill="rgba(255,255,255,.30)"/><rect x="303.8" y="253.1" width="3.4" height="1.7" rx="0.9" transform="rotate(60 305.6 254.0)" fill="rgba(255,255,255,.30)"/><rect x="180.5" y="266.6" width="4.2" height="2.1" rx="1.1" transform="rotate(117 182.6 267.7)" fill="rgba(255,255,255,.30)"/><rect x="272.1" y="252.3" width="4.6" height="2.3" rx="1.1" transform="rotate(82 274.4 253.4)" fill="rgba(255,255,255,.30)"/><rect x="233.3" y="98.6" width="4.2" height="2.1" rx="1.0" transform="rotate(152 235.4 99.6)" fill="rgba(255,255,255,.30)"/><rect x="206.5" y="74.1" width="3.3" height="1.7" rx="0.8" transform="rotate(172 208.1 74.9)" fill="rgba(255,255,255,.30)"/><rect x="420.3" y="223.1" width="4.2" height="2.1" rx="1.0" transform="rotate(107 422.4 224.2)" fill="rgba(255,255,255,.30)"/><rect x="91.0" y="335.8" width="2.9" height="1.4" rx="0.7" transform="rotate(179 92.5 336.5)" fill="rgba(255,255,255,.30)"/><rect x="76.3" y="191.1" width="2.9" height="1.5" rx="0.7" transform="rotate(116 77.8 191.8)" fill="rgba(255,255,255,.30)"/><rect x="214.5" y="144.1" width="4.6" height="2.3" rx="1.1" transform="rotate(58 216.8 145.3)" fill="rgba(255,255,255,.30)"/><rect x="443.0" y="316.9" width="3.9" height="1.9" rx="1.0" transform="rotate(148 444.9 317.9)" fill="rgba(255,255,255,.30)"/><rect x="392.5" y="141.9" width="3.7" height="1.8" rx="0.9" transform="rotate(108 394.4 142.9)" fill="rgba(255,255,255,.30)"/><rect x="243.8" y="286.2" width="4.9" height="2.5" rx="1.2" transform="rotate(90 246.2 287.4)" fill="rgba(255,255,255,.30)"/><rect x="123.6" y="354.2" width="3.0" height="1.5" rx="0.7" transform="rotate(17 125.1 355.0)" fill="rgba(255,255,255,.30)"/><rect x="92.9" y="319.4" width="4.2" height="2.1" rx="1.1" transform="rotate(48 95.0 320.5)" fill="rgba(255,255,255,.30)"/><rect x="376.1" y="144.0" width="4.5" height="2.3" rx="1.1" transform="rotate(143 378.4 145.2)" fill="rgba(255,255,255,.30)"/><rect x="372.7" y="376.7" width="3.0" height="1.5" rx="0.8" transform="rotate(20 374.2 377.4)" fill="rgba(255,255,255,.30)"/><rect x="330.0" y="101.8" width="3.2" height="1.6" rx="0.8" transform="rotate(150 331.6 102.6)" fill="rgba(255,255,255,.30)"/><rect x="192.0" y="145.4" width="3.6" height="1.8" rx="0.9" transform="rotate(149 193.8 146.3)" fill="rgba(255,255,255,.30)"/><rect x="363.6" y="224.6" width="5.0" height="2.5" rx="1.2" transform="rotate(66 366.1 225.9)" fill="rgba(255,255,255,.30)"/><rect x="117.1" y="322.1" width="4.3" height="2.1" rx="1.1" transform="rotate(160 119.2 323.2)" fill="rgba(255,255,255,.30)"/><rect x="270.8" y="408.9" width="4.5" height="2.2" rx="1.1" transform="rotate(147 273.1 410.0)" fill="rgba(255,255,255,.30)"/><rect x="70.9" y="297.0" width="4.2" height="2.1" rx="1.0" transform="rotate(36 72.9 298.0)" fill="rgba(255,255,255,.30)"/><rect x="263.0" y="332.9" width="3.6" height="1.8" rx="0.9" transform="rotate(23 264.8 333.8)" fill="rgba(255,255,255,.30)"/><rect x="129.1" y="117.2" width="3.2" height="1.6" rx="0.8" transform="rotate(83 130.7 118.0)" fill="rgba(255,255,255,.30)"/><rect x="352.1" y="360.1" width="4.9" height="2.5" rx="1.2" transform="rotate(118 354.5 361.4)" fill="rgba(255,255,255,.30)"/><rect x="136.4" y="360.0" width="5.0" height="2.5" rx="1.2" transform="rotate(1 138.9 361.2)" fill="rgba(255,255,255,.30)"/><rect x="98.7" y="262.6" width="4.8" height="2.4" rx="1.2" transform="rotate(109 101.0 263.8)" fill="rgba(255,255,255,.30)"/><rect x="167.5" y="183.6" width="3.7" height="1.8" rx="0.9" transform="rotate(109 169.3 184.5)" fill="rgba(255,255,255,.30)"/><rect x="211.0" y="333.3" width="4.2" height="2.1" rx="1.0" transform="rotate(156 213.1 334.4)" fill="rgba(255,255,255,.30)"/><rect x="266.2" y="197.4" width="5.0" height="2.5" rx="1.3" transform="rotate(30 268.7 198.7)" fill="rgba(255,255,255,.30)"/></g><g><g transform="translate(260.6 246.7)"><circle cx="-0.4" cy="2.6" r="2.2" fill="#3B2F1E"/><circle cx="-0.3" cy="-5.7" r="1.6" fill="#3B2F1E"/><circle cx="9.6" cy="3.3" r="2.1" fill="#3B2F1E"/><circle cx="-2.9" cy="4.4" r="2.1" fill="#3B2F1E"/><circle cx="-8.3" cy="6.8" r="2.1" fill="#3B2F1E"/><circle cx="10.2" cy="-8.0" r="1.5" fill="#3B2F1E"/><circle cx="9.2" cy="-2.0" r="1.6" fill="#3B2F1E"/><circle cx="3.4" cy="-3.8" r="1.6" fill="#3B2F1E"/><circle cx="-2.4" cy="-6.3" r="2.1" fill="#3B2F1E"/></g><g transform="translate(165.6 300.1) rotate(68) scale(1.00)"><circle r="13" fill="#BFE3A8"/><circle r="13" fill="none" stroke="#6FA84A" stroke-width="2.5"/><circle r="6" fill="#D8F0C4"/></g><g transform="translate(250.3 397.7) rotate(332) scale(1.20)"><path d="M0 0 C 10 -18 26 -18 30 0 C 26 18 10 18 0 0 Z" fill="#2F7D3A"/><path d="M4 0 L 27 0" stroke="rgba(0,0,0,.10)" stroke-width="1.4" fill="none"/></g><g transform="translate(338.5 314.1) scale(1.00)"><circle r="12" fill="#E4572E"/><circle r="12" fill="url(#tomGloss)"/><ellipse cx="-3.5" cy="-4.5" rx="3.2" ry="2" fill="#fff" opacity=".55"/></g><g transform="translate(347.2 251.0) rotate(10) scale(1.00)"><rect x="-16" y="-11" width="32" height="22" rx="7" fill="#F2B980"/><rect x="-16" y="-11" width="32" height="22" rx="7" fill="none" stroke="#C98A4B" stroke-width="2" opacity=".6"/><path d="M-10 0 H10 M-8 -5 H8 M-8 5 H8" stroke="#C98A4B" stroke-width="1.4" opacity=".45"/></g><g transform="translate(294.3 297.3) scale(1.00)"><circle r="12" fill="#E4572E"/><circle r="12" fill="url(#tomGloss)"/><ellipse cx="-3.5" cy="-4.5" rx="3.2" ry="2" fill="#fff" opacity=".55"/></g><g transform="translate(145.7 203.7) rotate(-40) scale(1.00)"><path d="M0 -22 C 16 -22 20 0 12 16 C 6 26 -6 26 -12 16 C -20 0 -16 -22 0 -22 Z" fill="#7FB069"/><path d="M0 -16 C 11 -16 14 0 8 12 C 4 19 -4 19 -8 12 C -14 0 -11 -16 0 -16 Z" fill="#A7CE8B"/><ellipse cx="0" cy="-1" rx="5.5" ry="6.5" fill="#C9B27E"/></g><g transform="translate(208.6 389.7) rotate(179) scale(1.20)"><path d="M0 0 C 10 -18 26 -18 30 0 C 26 18 10 18 0 0 Z" fill="#57A65A"/><path d="M4 0 L 27 0" stroke="rgba(0,0,0,.10)" stroke-width="1.4" fill="none"/></g><g transform="translate(283.8 231.3)"><circle cx="-7.4" cy="10.0" r="2.1" fill="#3B2F1E"/><circle cx="-8.9" cy="9.5" r="1.7" fill="#3B2F1E"/><circle cx="-5.0" cy="6.5" r="2.1" fill="#3B2F1E"/><circle cx="-10.0" cy="-7.3" r="1.5" fill="#3B2F1E"/><circle cx="-3.7" cy="-0.6" r="1.9" fill="#3B2F1E"/><circle cx="3.0" cy="10.7" r="1.7" fill="#3B2F1E"/><circle cx="-5.9" cy="7.1" r="2.2" fill="#3B2F1E"/><circle cx="-0.0" cy="3.8" r="2.2" fill="#3B2F1E"/><circle cx="-4.9" cy="6.4" r="1.9" fill="#3B2F1E"/></g><g transform="translate(187.8 325.8) rotate(73) scale(1.00)"><circle r="13" fill="#BFE3A8"/><circle r="13" fill="none" stroke="#6FA84A" stroke-width="2.5"/><circle r="6" fill="#D8F0C4"/></g><g transform="translate(126.9 314.0) rotate(71) scale(1.00)"><circle r="13" fill="#BFE3A8"/><circle r="13" fill="none" stroke="#6FA84A" stroke-width="2.5"/><circle r="6" fill="#D8F0C4"/></g><g transform="translate(284.3 322.3) scale(1.00)"><circle r="12" fill="#E4572E"/><circle r="12" fill="url(#tomGloss)"/><ellipse cx="-3.5" cy="-4.5" rx="3.2" ry="2" fill="#fff" opacity=".55"/></g><g transform="translate(248.1 312.4) rotate(85) scale(1.20)"><path d="M0 0 C 10 -18 26 -18 30 0 C 26 18 10 18 0 0 Z" fill="#3E8E41"/><path d="M4 0 L 27 0" stroke="rgba(0,0,0,.10)" stroke-width="1.4" fill="none"/></g><g transform="translate(207.7 230.7) rotate(16) scale(1.00)"><path d="M0 -22 C 16 -22 20 0 12 16 C 6 26 -6 26 -12 16 C -20 0 -16 -22 0 -22 Z" fill="#7FB069"/><path d="M0 -16 C 11 -16 14 0 8 12 C 4 19 -4 19 -8 12 C -14 0 -11 -16 0 -16 Z" fill="#A7CE8B"/><ellipse cx="0" cy="-1" rx="5.5" ry="6.5" fill="#C9B27E"/></g><g transform="translate(227.6 170.6) rotate(-22) scale(1.00)"><path d="M0 -22 C 16 -22 20 0 12 16 C 6 26 -6 26 -12 16 C -20 0 -16 -22 0 -22 Z" fill="#7FB069"/><path d="M0 -16 C 11 -16 14 0 8 12 C 4 19 -4 19 -8 12 C -14 0 -11 -16 0 -16 Z" fill="#A7CE8B"/><ellipse cx="0" cy="-1" rx="5.5" ry="6.5" fill="#C9B27E"/></g><g transform="translate(403.2 239.8) rotate(6) scale(1.00)"><rect x="-16" y="-11" width="32" height="22" rx="7" fill="#F2B980"/><rect x="-16" y="-11" width="32" height="22" rx="7" fill="none" stroke="#C98A4B" stroke-width="2" opacity=".6"/><path d="M-10 0 H10 M-8 -5 H8 M-8 5 H8" stroke="#C98A4B" stroke-width="1.4" opacity=".45"/></g><g transform="translate(315.5 198.4) rotate(20) scale(1.00)"><rect x="-16" y="-11" width="32" height="22" rx="7" fill="#F2B980"/><rect x="-16" y="-11" width="32" height="22" rx="7" fill="none" stroke="#C98A4B" stroke-width="2" opacity=".6"/><path d="M-10 0 H10 M-8 -5 H8 M-8 5 H8" stroke="#C98A4B" stroke-width="1.4" opacity=".45"/></g><g transform="translate(269.3 387.5) rotate(169) scale(1.20)"><path d="M0 0 C 10 -18 26 -18 30 0 C 26 18 10 18 0 0 Z" fill="#57A65A"/><path d="M4 0 L 27 0" stroke="rgba(0,0,0,.10)" stroke-width="1.4" fill="none"/></g><g transform="translate(209.6 298.0) rotate(297) scale(1.20)"><path d="M0 0 C 10 -18 26 -18 30 0 C 26 18 10 18 0 0 Z" fill="#3E8E41"/><path d="M4 0 L 27 0" stroke="rgba(0,0,0,.10)" stroke-width="1.4" fill="none"/></g><g transform="translate(269.0 340.8) scale(1.00)"><circle r="12" fill="#E4572E"/><circle r="12" fill="url(#tomGloss)"/><ellipse cx="-3.5" cy="-4.5" rx="3.2" ry="2" fill="#fff" opacity=".55"/></g><g transform="translate(361.9 223.6) rotate(29) scale(1.00)"><rect x="-16" y="-11" width="32" height="22" rx="7" fill="#F2B980"/><rect x="-16" y="-11" width="32" height="22" rx="7" fill="none" stroke="#C98A4B" stroke-width="2" opacity=".6"/><path d="M-10 0 H10 M-8 -5 H8 M-8 5 H8" stroke="#C98A4B" stroke-width="1.4" opacity=".45"/></g><g transform="translate(180.3 270.8) rotate(50) scale(1.00)"><circle r="13" fill="#BFE3A8"/><circle r="13" fill="none" stroke="#6FA84A" stroke-width="2.5"/><circle r="6" fill="#D8F0C4"/></g></g><path d="M 110 140 A 200 200 0 0 1 380 100" fill="none" stroke="rgba(255,255,255,.5)" stroke-width="10" stroke-linecap="round" opacity=".5"/></svg>